<svg width="65" height="67" viewBox="0 0 65 67" fill="none" xmlns="http://www.w3.org/2000/svg">
<g clip-path="url(#clip0_110_5001)">
<path d="M25.7292 12.5625C25.7292 8.70721 28.7598 5.58333 32.5 5.58333C36.2402 5.58333 39.2708 8.70721 39.2708 12.5625C39.2708 16.4178 36.2402 19.5417 32.5 19.5417C28.7598 19.5417 25.7292 16.4178 25.7292 12.5625ZM46.0417 33.5V41.875C46.0417 45.9899 43.8479 49.5521 40.625 51.4895V64.2083C40.625 65.7493 39.4117 67 37.9167 67C36.4217 67 35.2083 65.7493 35.2083 64.2083V53.0417H29.7917V64.2083C29.7917 65.7493 28.5783 67 27.0833 67C25.5883 67 24.375 65.7493 24.375 64.2083V51.4895C21.1521 49.5521 18.9583 45.9899 18.9583 41.875V33.5C18.9583 27.3416 23.8171 22.3333 29.7917 22.3333H35.2083C41.1829 22.3333 46.0417 27.3416 46.0417 33.5ZM13.5417 13.9583C17.2819 13.9583 20.3125 10.8345 20.3125 6.97917C20.3125 3.12387 17.2819 0 13.5417 0C9.80146 0 6.77083 3.12387 6.77083 6.97917C6.77083 10.8345 9.80146 13.9583 13.5417 13.9583ZM51.4583 13.9583C55.1985 13.9583 58.2292 10.8345 58.2292 6.97917C58.2292 3.12387 55.1985 0 51.4583 0C47.7181 0 44.6875 3.12387 44.6875 6.97917C44.6875 10.8345 47.7181 13.9583 51.4583 13.9583ZM54.1667 16.75H48.75C46.735 16.75 44.8717 17.3558 43.2548 18.3468C43.1763 18.5032 43.095 18.6595 43.011 18.813C48.0431 21.6633 51.461 27.1769 51.461 33.5V41.875C51.461 43.8013 51.1144 45.6856 50.4942 47.4583H54.1694V58.625C54.1694 60.166 55.3827 61.4167 56.8777 61.4167C58.3727 61.4167 59.586 60.166 59.586 58.625V45.9062C62.809 43.9688 65.0027 40.4066 65.0027 36.2917V27.9167C65.0027 21.7583 60.1413 16.75 54.1667 16.75ZM13.5417 41.875V33.5C13.5417 27.1769 16.9596 21.6633 21.9917 18.813C21.905 18.6595 21.8265 18.506 21.7479 18.3468C20.131 17.3558 18.265 16.75 16.2527 16.75H10.836C4.85875 16.75 0 21.7583 0 27.9167V36.2917C0 40.4066 2.19375 43.9688 5.41667 45.9062V58.625C5.41667 60.166 6.63 61.4167 8.125 61.4167C9.62 61.4167 10.8333 60.166 10.8333 58.625V47.4583H14.5085C13.8883 45.6856 13.5417 43.8013 13.5417 41.875Z" fill="#272727"/>
</g>
<defs>
<clipPath id="clip0_110_5001">
<rect width="65" height="67" fill="white"/>
</clipPath>
</defs>
</svg>
