<svg width="68" height="68" viewBox="0 0 68 68" fill="none" xmlns="http://www.w3.org/2000/svg">
<path fill-rule="evenodd" clip-rule="evenodd" d="M4.25 34C4.25 26.1098 7.38437 18.5428 12.9636 12.9636C18.5428 7.38437 26.1098 4.25 34 4.25C41.8902 4.25 49.4572 7.38437 55.0364 12.9636C60.6156 18.5428 63.75 26.1098 63.75 34C63.75 41.8902 60.6156 49.4572 55.0364 55.0364C49.4572 60.6156 41.8902 63.75 34 63.75C26.1098 63.75 18.5428 60.6156 12.9636 55.0364C7.38437 49.4572 4.25 41.8902 4.25 34ZM36.125 17V33.1203L48.2545 45.2455L45.2455 48.2545L31.875 34.8797V17H36.125ZM36.125 12.75V8.5H31.875V12.75H36.125ZM36.125 59.5V55.25H31.875V59.5H36.125ZM55.25 31.875H59.5V36.125H55.25V31.875ZM12.75 31.875H8.5V36.125H12.75V31.875Z" fill="#272727"/>
</svg>
