<svg width="65" height="65" viewBox="0 0 65 65" fill="none" xmlns="http://www.w3.org/2000/svg">
<path d="M48.1866 19.5325C46.9831 14.3576 43.9201 9.80534 39.5799 6.74097C35.2397 3.67659 29.9248 2.31374 24.6456 2.91147C19.3664 3.5092 14.4908 6.02583 10.9455 9.983C7.40034 13.9402 5.43269 19.062 5.4166 24.375C5.41264 27.8375 6.24908 31.2492 7.8541 34.3173C4.93215 35.8831 2.61726 38.3804 1.27723 41.4125C-0.0627999 44.4447 -0.351112 47.8377 0.458102 51.0524C1.26732 54.2672 3.12764 57.1193 5.7435 59.1557C8.35937 61.192 11.5807 62.2958 14.8958 62.2916H37.9166V41.7462L31.7064 47.9564L27.8768 44.1268L36.7954 35.2083C37.8111 34.1928 39.1886 33.6224 40.6249 33.6224C42.0612 33.6224 43.4387 34.1928 44.4545 35.2083L53.3731 44.1268L49.5435 47.9564L43.3333 41.7462V62.2916C48.6391 62.267 53.7515 60.2963 57.7011 56.7532C61.6506 53.21 64.1628 48.3408 64.7612 43.0688C65.3596 37.7967 64.0026 32.4883 60.9476 28.1502C57.8926 23.812 53.352 20.7456 48.1866 19.5325Z" fill="#272727"/>
</svg>
