<svg width="60" height="61" viewBox="0 0 60 61" fill="none" xmlns="http://www.w3.org/2000/svg">
<path d="M31.7578 1.78711C31.7578 0.800148 30.9708 0 30 0C29.0292 0 28.2422 0.800148 28.2422 1.78711V7.83898C29.1122 5.92069 30.293 4.1424 31.7578 2.56903V1.78711Z" fill="black"/>
<path d="M33.1067 11.0365C34.7027 10.4969 36.689 9.82517 39.414 9.82517C43.4361 9.82517 47.2488 10.9961 50.4725 13.1758C53.9603 10.5862 56.2316 6.39988 56.2343 1.68346C56.2349 0.757615 55.4975 0 54.5869 0H45.7635C38.5427 0 32.4419 4.96173 30.5825 11.7072C31.3779 11.6207 32.1335 11.3655 33.1067 11.0365Z" fill="black"/>
<path d="M39.4139 13.3994C35.3075 13.3994 33.3629 15.3135 29.9999 15.3135C26.6377 15.3135 24.6932 13.3994 20.5859 13.3994C11.8893 13.3994 3.76562 20.1338 3.76562 32.4143C3.76562 38.2931 5.60547 45.2322 8.68727 50.9764C9.57789 52.6364 14.118 61 20.5859 61C24.322 61 26.1365 59.4937 27.4614 58.3939C28.4825 57.5464 28.977 57.1716 30 57.1716C31.0231 57.1716 31.5176 57.5464 32.5387 58.3939C33.8636 59.4937 35.6781 61 39.4142 61C45.882 61 50.4222 52.6362 51.3128 50.9762C54.3946 45.2321 56.2345 38.293 56.2345 32.4141C56.2343 20.1194 48.1009 13.3994 39.4139 13.3994Z" fill="black"/>
</svg>
