<svg width="16" height="13" viewBox="0 0 16 13" fill="none" xmlns="http://www.w3.org/2000/svg">
<path id="Vector" d="M12.5 5.63V4.85001C12.2733 4.82334 12.06 4.78333 11.86 4.73C11.66 4.67667 11.4533 4.60333 11.24 4.51C11.0266 4.41667 10.8266 4.31667 10.64 4.21C10.4533 4.09 10.2666 3.93667 10.08 3.75L8.14 1.83L9.38 0.630005L15.22 6.49001L9.38 12.37L8.14 11.15L10 9.31C10.2266 9.09667 10.4466 8.92334 10.66 8.79C10.8733 8.65667 11.0866 8.55 11.3 8.47001C11.5 8.39001 11.7 8.32334 11.9 8.27001C12.1 8.20334 12.3 8.16333 12.5 8.15V7.37001H0V5.63H12.5Z" fill="#655E8E"/>
</svg>
