<svg width="60" height="61" viewBox="0 0 60 61" fill="none" xmlns="http://www.w3.org/2000/svg">
<path d="M14.4133 1.60596C7.9733 1.60596 2.71997 6.84596 2.71997 13.2993C2.71997 19.7526 7.95997 24.9926 14.4133 24.9926C20.8666 24.9926 26.1066 19.7526 26.1066 13.2993C26.1066 6.84596 20.8666 1.60596 14.4133 1.60596ZM22.2133 15.766C22.2133 16.1526 21.8933 16.4726 21.5066 16.4726H17.96V20.0193C17.96 20.406 17.64 20.726 17.2533 20.726H13C12.6133 20.726 12.2933 20.406 12.2933 20.0193V16.4726H8.74664C8.35997 16.4726 8.03997 16.1526 8.03997 15.766V11.5126C8.03997 11.126 8.35997 10.806 8.74664 10.806H12.2933V7.25929C12.2933 6.87262 12.6133 6.55262 13 6.55262H17.2533C17.64 6.55262 17.96 6.87262 17.96 7.25929V10.806H21.5066C21.8933 10.806 22.2133 11.126 22.2133 11.5126V15.766Z" fill="black"/>
<path d="M20.3332 1.60596C24.5865 3.76596 27.5199 8.19262 27.5199 13.2993C27.5199 20.286 22.0265 26.0193 15.1199 26.3793V58.646L21.2265 56.206C21.3999 56.1393 21.5865 56.1393 21.7465 56.206L28.5999 58.9526L38.2799 56.1793C38.4265 56.1393 38.5865 56.1393 38.7332 56.206L45.5065 58.9126L50.5332 56.2326C50.7199 56.1393 50.9332 56.126 51.1332 56.206L57.2399 58.646V1.60596H20.3332ZM43.8132 16.486C43.4265 16.486 43.1065 16.166 43.1065 15.7793V8.69929C43.1065 8.31262 43.4265 7.99262 43.8132 7.99262H46.6399V5.15262C46.6399 4.76596 46.9599 4.44596 47.3465 4.44596C47.7332 4.44596 48.0532 4.76596 48.0532 5.15262V7.97929H50.8799C51.2665 7.97929 51.5865 8.29929 51.5865 8.68596C51.5865 9.07262 51.2665 9.39262 50.8799 9.39262H44.5065V15.0593H50.8799C51.2665 15.0593 51.5865 15.3793 51.5865 15.766V22.1393C51.5865 22.526 51.2665 22.846 50.8799 22.846H48.0799V26.3926C48.0799 26.7793 47.7599 27.0993 47.3732 27.0993C46.9865 27.0993 46.6665 26.7793 46.6665 26.3926V22.846H43.7999C43.4132 22.846 43.0932 22.526 43.0932 22.1393C43.0932 21.7526 43.4132 21.4326 43.7999 21.4326H50.1732V16.4726L43.8132 16.486ZM19.7332 27.8193H42.0399C42.4265 27.8193 42.7465 28.1393 42.7465 28.526C42.7465 28.9126 42.4265 29.2326 42.0399 29.2326H19.7332C19.3465 29.2326 19.0265 28.9126 19.0265 28.526C19.0265 28.126 19.3332 27.8193 19.7332 27.8193ZM19.7332 33.126H42.0399C42.4265 33.126 42.7465 33.446 42.7465 33.8326C42.7465 34.2193 42.4265 34.5393 42.0399 34.5393H19.7332C19.3465 34.5393 19.0265 34.2193 19.0265 33.8326C19.0265 33.446 19.3332 33.126 19.7332 33.126ZM42.0399 48.7126H19.7332C19.3465 48.7126 19.0265 48.3926 19.0265 48.006C19.0265 47.6193 19.3465 47.2993 19.7332 47.2993H42.0399C42.4265 47.2993 42.7465 47.6193 42.7465 48.006C42.7465 48.3926 42.4265 48.7126 42.0399 48.7126ZM52.6665 48.7126H45.5865C45.1999 48.7126 44.8799 48.3926 44.8799 48.006C44.8799 47.6193 45.1999 47.2993 45.5865 47.2993H52.6665C53.0532 47.2993 53.3732 47.6193 53.3732 48.006C53.3732 48.3926 53.0532 48.7126 52.6665 48.7126ZM52.6665 41.6193H19.7332C19.3465 41.6193 19.0265 41.2993 19.0265 40.9126C19.0265 40.526 19.3465 40.206 19.7332 40.206H52.6665C53.0532 40.206 53.3732 40.526 53.3732 40.9126C53.3732 41.2993 53.0532 41.6193 52.6665 41.6193ZM52.6665 34.5393H45.5865C45.1999 34.5393 44.8799 34.2193 44.8799 33.8326C44.8799 33.446 45.1999 33.126 45.5865 33.126H52.6665C53.0532 33.126 53.3732 33.446 53.3732 33.8326C53.3732 34.2193 53.0532 34.5393 52.6665 34.5393Z" fill="black"/>
<path d="M20.7867 12.2326V15.0592H17.24C16.8534 15.0592 16.5334 15.3792 16.5334 15.7659V19.3126H13.7067V15.7659C13.7067 15.3792 13.3867 15.0592 13 15.0592H9.45337V12.2326H13C13.3867 12.2326 13.7067 11.9126 13.7067 11.5259V7.97925H16.5334V11.5259C16.5334 11.9126 16.8534 12.2326 17.24 12.2326H20.7867Z" fill="black"/>
</svg>
