<svg width="60" height="61" viewBox="0 0 60 61" fill="none" xmlns="http://www.w3.org/2000/svg">
<path d="M33.2695 13.5008C33.6973 14.1758 34.4496 14.627 35.3063 14.627C36.218 14.627 37.0137 14.1172 37.4238 13.3684C37.227 14.3446 36.3633 15.0817 35.3297 15.0817C34.2961 15.0817 33.5145 14.409 33.2695 13.4997V13.5008ZM45.9188 13.2208C46.473 13.2208 46.9242 12.7696 46.9242 12.2153V4.50669C46.9242 3.95239 46.473 3.50122 45.9188 3.50122C45.3645 3.50122 44.9133 3.95239 44.9133 4.50669V12.2165C44.9133 12.7708 45.3645 13.2219 45.9188 13.2219V13.2208ZM35.3063 13.2208C35.8605 13.2208 36.3117 12.7696 36.3117 12.2153V4.50669C36.3117 3.95239 35.8605 3.50122 35.3063 3.50122C34.752 3.50122 34.3008 3.95239 34.3008 4.50669V12.2165C34.3008 12.7708 34.752 13.2219 35.3063 13.2219V13.2208ZM43.507 6.03716H37.7168V8.36919H43.507V6.03716ZM45.9188 15.0817C46.9289 15.0817 47.775 14.3762 47.9965 13.4329C47.577 14.1454 46.8035 14.6258 45.9188 14.6258C45.034 14.6258 44.2605 14.1454 43.841 13.4329C44.0625 14.3762 44.9086 15.0817 45.9188 15.0817ZM32.8945 6.03716H27.1043V8.36919H32.8945V6.03716ZM24.6938 13.2208C25.248 13.2208 25.6992 12.7696 25.6992 12.2153V4.50669C25.6992 3.95239 25.248 3.50122 24.6938 3.50122C24.1395 3.50122 23.6883 3.95239 23.6883 4.50669V12.2165C23.6883 12.7708 24.1395 13.2219 24.6938 13.2219V13.2208ZM20.0402 29.5602C17.8043 29.5602 15.893 31.2969 15.3445 33.711H24.7371C24.1887 31.2969 22.2773 29.5602 20.0414 29.5602H20.0402ZM46.9242 38.4266C46.9242 35.8321 45.4102 35.1501 42.8859 34.5829V42.3922C45.1688 42.104 46.9242 40.4352 46.9242 38.4266ZM22.282 6.03716H16.4918V8.36919H22.282V6.03716ZM14.0813 13.2208C14.6355 13.2208 15.0867 12.7696 15.0867 12.2153V4.50669C15.0867 3.95239 14.6355 3.50122 14.0813 3.50122C13.527 3.50122 13.0758 3.95239 13.0758 4.50669V12.2165C13.0758 12.7708 13.527 13.2219 14.0813 13.2219V13.2208ZM13.5047 21.0161H26.577C26.9672 21.0161 27.2836 21.3336 27.2836 21.7227V35.7864C27.2836 36.1766 26.966 36.493 26.577 36.493H13.5035C13.1133 36.493 12.7969 36.1754 12.7969 35.7864V21.7227C12.7969 21.3325 13.1145 21.0161 13.5035 21.0161H13.5047ZM13.998 34.8864C14.1316 35.034 14.3203 35.1172 14.5195 35.1172H25.5621C25.7602 35.1172 25.95 35.0329 26.0836 34.8864C26.2172 34.7387 26.2816 34.5418 26.2617 34.345C25.9969 31.6907 24.4172 29.5274 22.2914 28.618C23.0063 27.9629 23.4551 27.0219 23.4551 25.9778C23.4551 24.002 21.8473 22.3942 19.8715 22.3942C17.8957 22.3942 16.2879 24.002 16.2879 25.9778C16.2879 27.077 16.7859 28.0614 17.5676 28.72C15.5543 29.6809 14.0754 31.7844 13.8199 34.3461C13.8 34.5442 13.8645 34.7411 13.998 34.8876V34.8864ZM14.1516 15.0829C15.2332 15.0829 16.1285 14.2731 16.2668 13.2278C15.8836 14.0528 15.0492 14.627 14.0813 14.627C13.2773 14.627 12.566 14.2309 12.1277 13.6239C12.4125 14.47 13.2105 15.0817 14.1516 15.0817V15.0829ZM41.4797 25.0356C39.1969 25.3239 37.4414 26.9926 37.4414 29.0012C37.4414 31.5958 38.9555 32.2778 41.4797 32.845V25.0356ZM19.8715 28.1551C21.0727 28.1551 22.0488 27.1778 22.0488 25.9778C22.0488 24.7778 21.0715 23.8004 19.8715 23.8004C18.6715 23.8004 17.6941 24.7778 17.6941 25.9778C17.6941 27.1778 18.6715 28.1551 19.8715 28.1551ZM24.7406 15.0829C25.7977 15.0829 26.6754 14.3094 26.8453 13.2993C26.448 14.0856 25.6336 14.627 24.6938 14.627C23.8641 14.627 23.1316 14.2063 22.6969 13.5665C22.9629 14.443 23.7785 15.0817 24.7406 15.0817V15.0829ZM48.3305 6.03716V8.36919H54.1125C54.5004 8.36919 54.8156 8.68442 54.8156 9.07231V54.009C54.8156 54.3969 54.5004 54.7122 54.1125 54.7122H5.88633C5.49844 54.7122 5.1832 54.3969 5.1832 54.009V9.07231C5.1832 8.68442 5.49844 8.36919 5.88633 8.36919H11.6684V6.03716H2.57812V57.0442H57.4219V6.03716H48.3305ZM16.4918 10.2899V9.77544H22.282V10.3977C21.5895 11.0633 21.198 11.9739 21.198 12.9465C21.198 14.9001 22.7871 16.4891 24.7406 16.4891C26.6941 16.4891 28.2832 14.9001 28.2832 12.9465C28.2832 11.9387 27.8484 10.979 27.1055 10.311V9.77544H32.8957V10.3743C32.1891 11.0411 31.7883 11.9598 31.7883 12.9454C31.7883 14.8989 33.3773 16.4879 35.3309 16.4879C37.2844 16.4879 38.8734 14.8989 38.8734 12.9454C38.8734 11.9504 38.4469 10.9977 37.7191 10.3309V9.77427H43.5094V10.3508C42.7875 11.02 42.3785 11.9458 42.3785 12.9442C42.3785 14.8977 43.9676 16.4868 45.9211 16.4868C47.8746 16.4868 49.4637 14.8977 49.4637 12.9442C49.4637 11.9458 49.0547 11.0188 48.3328 10.3508V9.77427H53.4117V53.3059H6.58945V9.77544H11.6684V10.42C10.991 11.0844 10.6078 11.9868 10.6078 12.9465C10.6078 14.9001 12.1969 16.4891 14.1504 16.4891C16.1039 16.4891 17.693 14.9001 17.693 12.9465C17.693 11.9258 17.2488 10.9579 16.4918 10.2899ZM37.4613 38.0504C37.5035 37.6649 37.2258 37.3168 36.8391 37.2747C36.4523 37.2325 36.1055 37.5102 36.0633 37.8969C35.9086 39.3008 36.368 40.6825 37.3559 41.7852C38.3812 42.9301 39.8566 43.6473 41.4785 43.809V46.7083C41.4785 47.0961 41.7938 47.4114 42.1816 47.4114C42.5695 47.4114 42.8848 47.0961 42.8848 46.7083V43.8067C45.9445 43.4985 48.3293 41.204 48.3293 38.4266C48.3293 34.5501 45.4418 33.6876 42.8848 33.1415V25.0344C44.1035 25.1868 45.198 25.7305 45.9598 26.5801C46.6781 27.3817 47.0121 28.3743 46.902 29.3762C46.8598 29.7618 47.1375 30.1098 47.5242 30.152C47.9109 30.1942 48.2578 29.9165 48.3 29.5297C48.4547 28.1258 47.9953 26.7442 47.0074 25.6415C45.982 24.4965 44.5066 23.7793 42.8848 23.6176V20.7184C42.8848 20.3305 42.5695 20.0153 42.1816 20.0153C41.7938 20.0153 41.4785 20.3305 41.4785 20.7184V23.62C38.4188 23.9282 36.034 26.2227 36.034 29C36.034 32.8766 38.9215 33.7391 41.4785 34.2852V42.3922C40.2598 42.2399 39.1652 41.6961 38.4035 40.8465C37.6852 40.045 37.3512 39.0524 37.4613 38.0504ZM12.0938 42.6559H27.7078C28.0957 42.6559 28.4109 42.3407 28.4109 41.9528C28.4109 41.5649 28.0957 41.2497 27.7078 41.2497H12.0938C11.7059 41.2497 11.3906 41.5649 11.3906 41.9528C11.3906 42.3407 11.7059 42.6559 12.0938 42.6559ZM28.6898 46.7083C28.6898 46.3204 28.3746 46.0051 27.9867 46.0051H12.3727C11.9848 46.0051 11.6695 46.3204 11.6695 46.7083C11.6695 47.0961 11.9848 47.4114 12.3727 47.4114H27.9867C28.3746 47.4114 28.6898 47.0961 28.6898 46.7083ZM13.5035 19.6098C12.3387 19.6098 11.3906 20.5579 11.3906 21.7227V35.7864C11.3906 36.9512 12.3387 37.8993 13.5035 37.8993H26.5758C27.7406 37.8993 28.6887 36.9512 28.6887 35.7864V21.7227C28.6887 20.5579 27.7406 19.6098 26.5758 19.6098H13.5035Z" fill="black"/>
</svg>
