<svg width="62" height="62" fill="none" xmlns="http://www.w3.org/2000/svg"><g clip-path="url(#a)"><path d="M26.5 26.3a18.7 18.7 0 1 0 0 34 23.8 23.8 0 0 1 0-34Z" fill="#272727"/><path d="M60.3 35.5a23.8 23.8 0 0 1-34 0 18.6 18.6 0 0 0 17 26.5 18.7 18.7 0 0 0 17-26.5Z" fill="#272727"/><path d="M43.3 0c-2.8 0-5.4.6-7.8 1.7a23.8 23.8 0 0 1 0 34 18.6 18.6 0 0 0 26.5-17C62 8.4 53.6 0 43.3 0Z" fill="#272727"/><path d="M18.7 0a18.7 18.7 0 0 0-17 26.5 23.8 23.8 0 0 1 34 0A18.7 18.7 0 0 0 18.7 0Z" fill="#272727"/></g><defs><clipPath id="a"><path fill="#fff" d="M0 0h62v62H0z"/></clipPath></defs></svg>