<svg width="64" height="64" fill="none" xmlns="http://www.w3.org/2000/svg"><g clip-path="url(#a)" fill="#272727"><path d="M46.1 14.8v24a2 2 0 0 0 2 2H55a2 2 0 0 0 2-2V11.3a11.2 11.2 0 0 0-21.8-3.8L19.8 49.5a1 1 0 0 1-1.9-.3v-24a2 2 0 0 0-2-2H9a2 2 0 0 0-2 2v27.2A11.5 11.5 0 0 0 16.4 64a11.2 11.2 0 0 0 12.4-7.3l15.4-42.1a1 1 0 0 1 1.9.3Z"/><path d="M17.9 22.1h5a2 2 0 0 0 1.8-3l-5.3-9L14.2 1a2 2 0 0 0-3.5 0l-5.2 9-5.2 9.1a2 2 0 0 0 1.7 3h15.9ZM62 41.9H41a2 2 0 0 0-1.7 3l5.3 9 5.2 9.1a2 2 0 0 0 3.5 0l5.2-9 5.2-9.1a2 2 0 0 0-1.7-3Z"/></g><defs><clipPath id="a"><path fill="#fff" d="M0 0h64v64H0z"/></clipPath></defs></svg>