<svg width="59" height="59" fill="none" xmlns="http://www.w3.org/2000/svg"><path d="M47.5 16.4c3.2 0 5.8-2.6 5.8-5.7V7.4c0-3.2-2.6-5.8-5.8-5.8H10.7a5 5 0 0 0-5 5v45.8a5 5 0 0 0 5 5h36.8c3.2 0 5.8-2.6 5.8-5.8v-3.3a5.7 5.7 0 0 0-8.2-5.1V15.8c.7.4 1.5.6 2.4.6Zm-2.4-9a2.5 2.5 0 1 1 4.9 0v3.3a2.5 2.5 0 1 1-5 0V7.4ZM13.9 19.7h23c.9 0 1.6.7 1.6 1.6 0 1-.7 1.6-1.6 1.6h-23c-.9 0-1.6-.7-1.6-1.6 0-.9.7-1.6 1.6-1.6ZM12.3 13c0-.9.7-1.6 1.6-1.6h23c.9 0 1.6.7 1.6 1.6 0 1-.7 1.7-1.6 1.7h-23c-.9 0-1.6-.8-1.6-1.7ZM13.9 28h23c.9 0 1.6.7 1.6 1.6 0 .9-.7 1.6-1.6 1.6h-23c-.9 0-1.6-.7-1.6-1.6 0-.9.7-1.6 1.6-1.6Zm0 8.2h23c.9 0 1.6.7 1.6 1.6 0 .9-.7 1.6-1.6 1.6h-23c-.9 0-1.6-.7-1.6-1.6 0-1 .7-1.6 1.6-1.6Zm0 8.1h23c.9 0 1.6.8 1.6 1.7 0 .9-.7 1.6-1.6 1.6h-23c-.9 0-1.6-.7-1.6-1.6 0-1 .7-1.6 1.6-1.6ZM47.5 46c1.4 0 2.5 1 2.5 2.4v3.3a2.5 2.5 0 1 1-5 0v-3.3c0-1.3 1.2-2.4 2.5-2.4Z" fill="#272727"/></svg>