<svg width="60" height="60" viewBox="0 0 60 60" fill="none" xmlns="http://www.w3.org/2000/svg">
<path fill-rule="evenodd" clip-rule="evenodd" d="M47.7203 15.2161L44.0995 10.0207L40.4787 15.2161H42.6977V21.0692H45.5013V15.2161H47.7203ZM8.15373 31.048L8.40627 24.4939C8.48924 22.3779 5.19733 22.0789 4.86522 24.175L3.13448 35.0243C2.79229 37.1735 3.36369 39.1799 4.90166 40.7179L13.7279 49.5442C14.5019 50.3182 14.8108 51.2383 14.7344 52.3245H26.3742L26.311 46.9897C26.2911 45.3089 25.7097 43.8606 24.5205 42.6713L22.0789 40.2299C21.2883 39.4359 20.4247 38.9376 19.3417 38.6486L18.1625 38.3331L12.2164 32.3902C10.8345 31.005 8.2435 31.6827 8.04088 33.9847C7.9844 34.6258 8.25686 35.36 8.75174 35.8549L10.8079 37.9112H10.8046L13.8175 40.9241C14.0899 41.1998 14.0899 41.6416 13.8175 41.914C13.5418 42.1897 13.1 42.1897 12.8276 41.914L9.81475 38.9043H9.81147L7.75858 36.8515C6.25705 35.3499 6.25705 32.8951 7.75858 31.3937C7.88151 31.2675 8.0144 31.1545 8.15385 31.0482L8.15373 31.048ZM38.7612 35.9776L37.6086 37.1302C37.2664 37.4724 36.7083 37.4724 36.3662 37.1302L35.4992 36.2633C34.5591 36.8346 33.5493 37.2499 32.5095 37.5023V38.7281C32.5095 39.2131 32.1142 39.6084 31.6292 39.6084H28.3705C27.8888 39.6084 27.4935 39.2131 27.4935 38.7281V37.5023C26.4537 37.2498 25.4439 36.838 24.5039 36.2633L23.6369 37.1302C23.2947 37.4724 22.7367 37.4724 22.3945 37.1302L20.0892 34.8282C19.747 34.486 19.747 33.928 20.0892 33.5858L20.9595 32.7188C20.3848 31.7788 19.9729 30.769 19.7205 29.7291H18.4914C18.0098 29.7291 17.6144 29.3339 17.6144 28.8488V25.5901C17.6144 25.1084 18.0097 24.7131 18.4914 24.7131H19.7205C19.9729 23.6734 20.3848 22.6634 20.9562 21.7234L20.0893 20.8564C19.7471 20.5142 19.7471 19.9562 20.0893 19.614L22.3946 17.3087C22.7368 16.9665 23.2948 16.9665 23.637 17.3087L24.504 18.1756C25.444 17.6043 26.4538 17.1924 27.4937 16.9399V15.7108C27.4937 15.2292 27.8889 14.8339 28.3706 14.8339H31.6293C32.1144 14.8339 32.5096 15.2292 32.5096 15.7108V16.9399C33.5493 17.1923 34.5592 17.6042 35.4993 18.1789L36.3663 17.3086C36.7085 16.9664 37.2665 16.9664 37.6087 17.3086L39.9107 19.6139C40.2529 19.9561 40.2529 20.5141 39.9107 20.8563L39.0438 21.7232C39.6185 22.6633 40.0304 23.6731 40.2828 24.7129H41.5086C41.9935 24.7129 42.3889 25.1082 42.3889 25.59V28.8487C42.3889 29.3336 41.9936 29.729 41.5086 29.729H40.2828C40.0304 30.7688 39.6151 31.7786 39.0438 32.7187L39.9107 33.5857C40.2529 33.9279 40.2529 34.4859 39.9107 34.8281L38.7614 35.9775L38.7612 35.9776ZM51.8493 31.048L51.5969 24.4939C51.5138 22.3779 54.8058 22.0789 55.138 24.175L56.8653 35.0243C57.2075 37.1735 56.6361 39.1799 55.1014 40.7179L46.2752 49.5442C45.5012 50.3182 45.1922 51.2383 45.2654 52.3245H33.6289L33.6921 46.9897C33.712 45.3089 34.2933 43.8606 35.4826 42.6713L37.9208 40.2299C38.7147 39.4359 39.5784 38.9376 40.6613 38.6486L41.8406 38.3331L47.7834 32.3902C49.1687 31.005 51.7563 31.6827 51.9623 33.9847C52.0188 34.6258 51.7463 35.36 51.2514 35.8549L49.1953 37.9112H49.1985L46.1856 40.9241C45.9133 41.1998 45.9133 41.6416 46.1856 41.914C46.458 42.1897 46.9032 42.1897 47.1755 41.914L50.1884 38.9043H50.1917L52.2446 36.8515C53.746 35.3499 53.746 32.8951 52.2446 31.3937C52.1184 31.2675 51.9855 31.1545 51.8493 31.0482V31.048ZM31.4797 58.8286H47.4977V53.7295H31.4797V58.8286ZM30.0015 19.4713C34.28 19.4713 37.7513 22.9426 37.7513 27.2211C37.7513 31.4996 34.28 34.9677 30.0015 34.9677C25.723 34.9677 22.2516 31.4996 22.2516 27.2211C22.2516 22.9426 25.723 19.4713 30.0015 19.4713ZM28.5863 28.8057C27.1181 29.0581 25.4206 29.8056 25.1781 31.3402C27.7094 34.3033 32.2903 34.3033 34.8248 31.3402C34.7285 30.7357 34.3996 30.2341 33.9213 29.8421C33.2868 29.3206 32.3933 28.9752 31.4132 28.8057C31.3833 28.8057 30.111 29.4501 28.5863 28.8057ZM24.2347 29.8653C24.8525 28.8023 25.9654 28.1081 27.1546 27.7161C25.2678 25.3509 26.9486 21.8131 30.0015 21.8131C33.0543 21.8131 34.7351 25.3509 32.8483 27.7161C34.0375 28.1081 35.1503 28.8023 35.7683 29.8653C37.6816 25.6964 34.6421 20.8797 30.0016 20.8797C25.3611 20.8797 22.3182 25.6931 24.2349 29.8653H24.2347ZM30.0013 23.2183C28.0149 23.2183 27.0216 25.63 28.4234 27.0318C29.8252 28.4336 32.2335 27.4371 32.2335 25.4506C32.2335 24.2182 31.2337 23.2183 30.0012 23.2183H30.0013ZM28.5231 58.8286H12.5054V53.7295H28.5234V58.8286H28.5231ZM33.6222 6.36653L30.0015 1.17114L26.3806 6.36653H28.5963V12.223H31.4033V6.36653H33.6222ZM19.5243 15.2159L15.9035 10.0206L12.2826 15.2159H14.4983V21.0691H17.3053V15.2159H19.5243Z" fill="black"/>
</svg>
