<svg width="176" height="29" viewBox="0 0 176 29" fill="none" xmlns="http://www.w3.org/2000/svg">
<path d="M103.06 13.3683L102.109 13.6252C101.205 10.5426 99.6876 9.2221 97.5469 9.2221C96.0437 9.2221 94.9781 10.2116 94.9781 11.7909C94.9781 13.2941 96.215 14.1028 99.5772 15.4604C102.672 16.5983 103.956 17.9911 103.956 20.4267C103.956 24.1324 101.044 26.4567 96.2625 26.4567C93.963 26.4567 91.3581 25.9429 89.89 25.3559L89.7064 20.207L90.6103 20.0233C91.9679 23.5464 93.7052 24.8793 95.9666 24.8793C97.9237 24.8793 98.9512 23.5216 98.9512 22.1269C98.9512 20.7321 98.1558 19.9253 95.098 18.8255C92.1867 17.8713 90.1935 16.624 90.1935 13.5291C90.1935 10.4846 92.8717 7.90251 97.4242 7.90251C99.5772 7.90251 101.534 8.26975 102.819 8.85677L103.06 13.3683ZM83.3663 14.9828C83.4767 12.5615 82.9857 9.06322 80.9935 9.06322C78.9509 9.06322 77.8254 12.3294 77.7892 15.1303L83.3663 14.9828ZM81.4825 7.88919C86.4964 7.88919 88.9187 11.5587 88.9558 16.3776H77.6684C77.6303 20.6465 79.8947 23.8746 84.1265 23.8746C85.9722 23.8746 87.0378 23.3608 88.1623 22.5541L88.6884 23.1411C87.4516 24.8288 84.8828 26.4424 81.4578 26.4424C75.954 26.4424 72.1379 22.6635 72.1379 17.3299C72.1255 12.5111 75.2566 7.88729 81.4825 7.88729M65.2155 16.8162C65.1052 13.0106 63.7123 9.97942 61.0322 9.97942C60.3948 9.97942 59.9067 10.0898 59.1485 10.3467L59.3673 25.0115C59.6365 25.1219 60.2711 25.1951 60.7249 25.1951C63.3298 25.1951 65.2136 21.5132 65.2136 16.8171M70.8031 16.5317C70.8031 22.5617 66.9975 26.451 60.5413 26.451C58.2418 26.451 55.8566 26.0837 53.7902 25.6071C53.9738 23.1858 53.9738 8.18984 53.7902 5.36418C53.6066 3.89617 53.1908 3.1988 52.0529 3.05228L51.2947 2.97903V2.30639L59.2579 0.838379C59.2198 2.0752 59.1475 5.36418 59.1475 9.2164C60.5423 8.51902 61.8257 8.11563 63.562 8.11563C67.7082 8.11563 70.7926 11.6387 70.7926 16.5307M50.5278 13.256C48.0694 11.6415 45.4283 12.3389 44.9013 13.256C44.6691 16.0817 44.7176 20.4239 44.9393 22.6616C45.0497 24.1296 45.4654 24.7527 46.6024 24.8631L48.1056 25.0096V25.9639H36.8572V25.0096L37.7258 24.8631C38.8142 24.7527 39.1938 24.1305 39.2671 22.6616C39.5363 20.2764 39.6096 15.2739 39.2671 12.5216C39.1938 10.9441 38.8142 10.3562 37.7258 10.2097L36.8572 10.0993V9.43902L44.8927 7.89776L44.7823 12.0078C46.6661 7.75124 50.4089 7.23749 52.4392 8.37536L50.5278 13.256ZM24.1579 17.1948C24.1579 21.6835 25.369 25.3531 27.8151 25.3531C30.4571 25.3531 31.2154 21.7568 31.2154 17.1948C31.2154 12.6329 30.0414 9.07369 27.5582 9.07369C24.8943 9.07369 24.1579 12.5596 24.1579 17.1948ZM36.9029 17.1216C36.9029 22.2705 33.5026 26.4453 27.4364 26.4453C21.4674 26.4453 18.459 22.4703 18.459 17.2595C18.459 12.1467 21.8593 7.89014 27.9255 7.89014C33.8945 7.89014 36.9029 11.8898 36.9029 17.1121M21.2809 8.25643L20.0441 8.62367C18.9918 5.01502 17.1328 2.96095 13.9285 2.96095H9.74518C9.51304 5.35847 9.40267 9.06417 9.51303 13.0648L12.3006 12.9183C14.1844 12.9183 14.9788 11.5606 15.4402 9.58839H16.4925V17.9303H15.4222C14.9693 15.9133 14.1854 14.5433 12.2826 14.432L9.49496 14.3939C9.49496 17.3661 9.53301 19.9101 9.7271 21.4514C9.91072 23.6529 10.5225 24.6557 12.137 24.864L13.6535 25.0106V25.9648H0V25.0106L1.13787 24.864C2.71529 24.6452 3.36415 23.6529 3.54777 21.4514C3.85221 17.8551 3.92833 10.1745 3.54777 5.90553C3.36415 3.62217 2.71624 2.71359 1.13787 2.52997L0 2.34634V1.35689H21.2542L21.2809 8.25643Z" fill="#272727"/>
<path d="M119.629 0.334473V28.4007" stroke="#272727" stroke-width="2"/>
<path d="M136.286 13.6538V6.43786H138.72C139.19 6.43786 139.581 6.52007 139.894 6.68449C140.208 6.84892 140.444 7.07324 140.602 7.35746C140.759 7.64168 140.838 7.96466 140.838 8.32639C140.838 8.62706 140.787 8.88426 140.686 9.09802C140.585 9.31177 140.448 9.48442 140.274 9.61596C140.1 9.7475 139.906 9.84263 139.693 9.90135V9.95772C139.925 9.97417 140.151 10.0564 140.369 10.2044C140.588 10.35 140.767 10.5544 140.908 10.8174C141.049 11.0805 141.12 11.3953 141.12 11.7617C141.12 12.1258 141.039 12.4511 140.877 12.7377C140.714 13.0219 140.465 13.2462 140.13 13.4106C139.796 13.5727 139.371 13.6538 138.854 13.6538H136.286ZM136.944 13.0618H138.854C139.411 13.0618 139.822 12.9385 140.087 12.6919C140.355 12.4452 140.489 12.1352 140.489 11.7617C140.489 11.4869 140.422 11.2379 140.288 11.0147C140.157 10.7892 139.97 10.6107 139.728 10.4792C139.488 10.3476 139.206 10.2819 138.882 10.2819H136.944V13.0618ZM136.944 9.69699H138.78C139.064 9.69699 139.313 9.63827 139.527 9.52082C139.741 9.40338 139.908 9.2413 140.027 9.0346C140.147 8.82789 140.207 8.59182 140.207 8.32639C140.207 7.94352 140.083 7.63229 139.834 7.39269C139.585 7.15076 139.214 7.02979 138.72 7.02979H136.944V9.69699Z" fill="#272727"/>
<path d="M146.018 11.5855V8.24183H146.645V13.6538H146.018V12.7553H145.969C145.842 13.0325 145.641 13.2638 145.366 13.4494C145.091 13.6326 144.756 13.7242 144.359 13.7242C144.013 13.7242 143.707 13.6491 143.439 13.4987C143.171 13.3461 142.961 13.1229 142.808 12.8293C142.656 12.5357 142.579 12.1751 142.579 11.7476V8.24183H143.206V11.7089C143.206 12.1317 143.331 12.4723 143.58 12.7306C143.829 12.9867 144.148 13.1147 144.538 13.1147C144.783 13.1147 145.017 13.056 145.243 12.9385C145.468 12.8211 145.654 12.6496 145.8 12.4241C145.945 12.1963 146.018 11.9167 146.018 11.5855Z" fill="#272727"/>
<path d="M151.942 9.42922L151.367 9.59129C151.311 9.42922 151.231 9.28241 151.128 9.15087C151.025 9.01933 150.889 8.9148 150.723 8.83729C150.558 8.75977 150.354 8.72101 150.11 8.72101C149.743 8.72101 149.443 8.80792 149.208 8.98175C148.973 9.15557 148.855 9.37989 148.855 9.65471C148.855 9.88726 148.935 10.0763 149.095 10.222C149.257 10.3653 149.506 10.4792 149.842 10.5637L150.659 10.7646C151.113 10.875 151.452 11.05 151.678 11.2896C151.905 11.5292 152.019 11.8298 152.019 12.1916C152.019 12.4969 151.935 12.7682 151.766 13.0055C151.596 13.2427 151.36 13.4294 151.057 13.5657C150.757 13.6996 150.408 13.7665 150.011 13.7665C149.482 13.7665 149.047 13.6479 148.704 13.4106C148.361 13.1711 148.141 12.8258 148.045 12.3748L148.647 12.2268C148.725 12.5486 148.876 12.7917 149.102 12.9561C149.33 13.1206 149.629 13.2028 150 13.2028C150.416 13.2028 150.749 13.11 150.998 12.9244C151.246 12.7365 151.371 12.5016 151.371 12.2197C151.371 12.0013 151.298 11.8181 151.153 11.6701C151.007 11.5198 150.786 11.4094 150.49 11.3389L149.606 11.1275C149.136 11.0147 148.788 10.8362 148.563 10.5919C148.337 10.3476 148.225 10.0446 148.225 9.6829C148.225 9.38459 148.306 9.12268 148.468 8.89718C148.63 8.66934 148.853 8.49082 149.137 8.36163C149.421 8.23244 149.746 8.16784 150.11 8.16784C150.605 8.16784 151.001 8.28059 151.297 8.50609C151.595 8.72924 151.81 9.03694 151.942 9.42922Z" fill="#272727"/>
<path d="M153.4 13.6538V8.24183H154.03V13.6538H153.4ZM153.72 7.31166C153.591 7.31166 153.481 7.2682 153.389 7.18129C153.297 7.09203 153.252 6.98516 153.252 6.86066C153.252 6.73617 153.297 6.63047 153.389 6.54356C153.481 6.4543 153.591 6.40967 153.72 6.40967C153.849 6.40967 153.96 6.4543 154.051 6.54356C154.143 6.63047 154.189 6.73617 154.189 6.86066C154.189 6.98516 154.143 7.09203 154.051 7.18129C153.96 7.2682 153.849 7.31166 153.72 7.31166Z" fill="#272727"/>
<path d="M156.316 10.2713V13.6538H155.689V8.24183H156.298V9.09097H156.355C156.482 8.8138 156.679 8.59182 156.947 8.42505C157.217 8.25593 157.55 8.17136 157.947 8.17136C158.311 8.17136 158.631 8.2477 158.906 8.40039C159.183 8.55072 159.398 8.77269 159.551 9.06631C159.706 9.35992 159.783 9.72048 159.783 10.148V13.6538H159.156V10.1867C159.156 9.7428 159.031 9.39163 158.782 9.13325C158.536 8.87487 158.205 8.74568 157.789 8.74568C157.505 8.74568 157.252 8.80675 157.031 8.92889C156.811 9.05104 156.636 9.22721 156.506 9.4574C156.379 9.68525 156.316 9.95655 156.316 10.2713Z" fill="#272727"/>
<path d="M163.623 13.7665C163.118 13.7665 162.681 13.6491 162.312 13.4142C161.943 13.1769 161.658 12.8493 161.456 12.4311C161.256 12.0107 161.156 11.5268 161.156 10.9795C161.156 10.4346 161.256 9.95068 161.456 9.52787C161.658 9.10271 161.936 8.77034 162.291 8.53075C162.648 8.28881 163.06 8.16784 163.528 8.16784C163.821 8.16784 164.104 8.22187 164.377 8.32992C164.649 8.43562 164.893 8.59887 165.11 8.81967C165.328 9.03812 165.501 9.31412 165.628 9.64767C165.754 9.97887 165.818 10.3711 165.818 10.8245V11.1345H161.59V10.5814H165.177C165.177 10.2337 165.106 9.92132 164.965 9.64414C164.827 9.36462 164.633 9.14382 164.384 8.98175C164.137 8.81967 163.852 8.73863 163.528 8.73863C163.185 8.73863 162.883 8.83024 162.622 9.01346C162.361 9.19667 162.157 9.43861 162.009 9.73927C161.863 10.0399 161.789 10.3688 161.787 10.7258V11.057C161.787 11.4869 161.861 11.8627 162.009 12.1845C162.159 12.504 162.372 12.7518 162.647 12.9279C162.922 13.1041 163.247 13.1922 163.623 13.1922C163.879 13.1922 164.103 13.1523 164.296 13.0724C164.491 12.9925 164.654 12.8857 164.785 12.7518C164.919 12.6155 165.02 12.4664 165.088 12.3043L165.684 12.4981C165.602 12.7259 165.467 12.9362 165.279 13.1288C165.093 13.3214 164.861 13.4764 164.581 13.5939C164.304 13.709 163.984 13.7665 163.623 13.7665Z" fill="#272727"/>
<path d="M170.836 9.42922L170.262 9.59129C170.205 9.42922 170.125 9.28241 170.022 9.15087C169.919 9.01933 169.784 8.9148 169.617 8.83729C169.452 8.75977 169.248 8.72101 169.004 8.72101C168.637 8.72101 168.337 8.80792 168.102 8.98175C167.867 9.15557 167.749 9.37989 167.749 9.65471C167.749 9.88726 167.829 10.0763 167.989 10.222C168.151 10.3653 168.4 10.4792 168.736 10.5637L169.553 10.7646C170.007 10.875 170.346 11.05 170.572 11.2896C170.8 11.5292 170.913 11.8298 170.913 12.1916C170.913 12.4969 170.829 12.7682 170.66 13.0055C170.491 13.2427 170.255 13.4294 169.952 13.5657C169.651 13.6996 169.302 13.7665 168.905 13.7665C168.377 13.7665 167.941 13.6479 167.598 13.4106C167.255 13.1711 167.035 12.8258 166.939 12.3748L167.542 12.2268C167.619 12.5486 167.771 12.7917 167.996 12.9561C168.224 13.1206 168.523 13.2028 168.895 13.2028C169.31 13.2028 169.643 13.11 169.892 12.9244C170.141 12.7365 170.265 12.5016 170.265 12.2197C170.265 12.0013 170.192 11.8181 170.047 11.6701C169.901 11.5198 169.68 11.4094 169.384 11.3389L168.5 11.1275C168.03 11.0147 167.683 10.8362 167.457 10.5919C167.232 10.3476 167.119 10.0446 167.119 9.6829C167.119 9.38459 167.2 9.12268 167.362 8.89718C167.524 8.66934 167.747 8.49082 168.031 8.36163C168.316 8.23244 168.64 8.16784 169.004 8.16784C169.499 8.16784 169.895 8.28059 170.191 8.50609C170.489 8.72924 170.704 9.03694 170.836 9.42922Z" fill="#272727"/>
<path d="M175.923 9.42922L175.349 9.59129C175.292 9.42922 175.212 9.28241 175.109 9.15087C175.006 9.01933 174.871 8.9148 174.704 8.83729C174.539 8.75977 174.335 8.72101 174.091 8.72101C173.724 8.72101 173.424 8.80792 173.189 8.98175C172.954 9.15557 172.836 9.37989 172.836 9.65471C172.836 9.88726 172.916 10.0763 173.076 10.222C173.238 10.3653 173.487 10.4792 173.823 10.5637L174.64 10.7646C175.094 10.875 175.433 11.05 175.659 11.2896C175.886 11.5292 176 11.8298 176 12.1916C176 12.4969 175.916 12.7682 175.747 13.0055C175.578 13.2427 175.342 13.4294 175.038 13.5657C174.738 13.6996 174.389 13.7665 173.992 13.7665C173.464 13.7665 173.028 13.6479 172.685 13.4106C172.342 13.1711 172.122 12.8258 172.026 12.3748L172.628 12.2268C172.706 12.5486 172.858 12.7917 173.083 12.9561C173.311 13.1206 173.61 13.2028 173.981 13.2028C174.397 13.2028 174.73 13.11 174.979 12.9244C175.228 12.7365 175.352 12.5016 175.352 12.2197C175.352 12.0013 175.279 11.8181 175.134 11.6701C174.988 11.5198 174.767 11.4094 174.471 11.3389L173.587 11.1275C173.117 11.0147 172.769 10.8362 172.544 10.5919C172.318 10.3476 172.206 10.0446 172.206 9.6829C172.206 9.38459 172.287 9.12268 172.449 8.89718C172.611 8.66934 172.834 8.49082 173.118 8.36163C173.402 8.23244 173.727 8.16784 174.091 8.16784C174.586 8.16784 174.982 8.28059 175.278 8.50609C175.576 8.72924 175.791 9.03694 175.923 9.42922Z" fill="#272727"/>
<path d="M141.937 21.061H141.275C141.225 20.8144 141.136 20.5865 141.007 20.3775C140.88 20.1661 140.72 19.9817 140.528 19.8243C140.335 19.6669 140.117 19.5448 139.872 19.4579C139.628 19.371 139.364 19.3275 139.08 19.3275C138.624 19.3275 138.208 19.4461 137.832 19.6834C137.459 19.9206 137.159 20.2694 136.934 20.7298C136.711 21.1879 136.599 21.7492 136.599 22.414C136.599 23.0834 136.711 23.6472 136.934 24.1052C137.159 24.5633 137.459 24.9109 137.832 25.1481C138.208 25.383 138.624 25.5005 139.08 25.5005C139.364 25.5005 139.628 25.457 139.872 25.3701C140.117 25.2832 140.335 25.1622 140.528 25.0072C140.72 24.8498 140.88 24.6654 141.007 24.454C141.136 24.2426 141.225 24.0136 141.275 23.767H141.937C141.878 24.0982 141.768 24.4071 141.606 24.6936C141.446 24.9778 141.242 25.2268 140.993 25.4406C140.746 25.6543 140.462 25.8211 140.14 25.9409C139.818 26.0607 139.465 26.1206 139.08 26.1206C138.474 26.1206 137.936 25.9691 137.466 25.6661C136.996 25.3607 136.627 24.9309 136.36 24.3765C136.094 23.8222 135.961 23.168 135.961 22.414C135.961 21.66 136.094 21.0058 136.36 20.4515C136.627 19.8971 136.996 19.4684 137.466 19.1654C137.936 18.8601 138.474 18.7074 139.08 18.7074C139.465 18.7074 139.818 18.7673 140.14 18.8871C140.462 19.0045 140.746 19.1713 140.993 19.3874C141.242 19.6012 141.446 19.8501 141.606 20.1344C141.768 20.4186 141.878 20.7275 141.937 21.061Z" fill="#272727"/>
<path d="M145.458 26.1347C144.99 26.1347 144.577 26.0161 144.218 25.7788C143.861 25.5416 143.581 25.2139 143.379 24.7958C143.177 24.3753 143.076 23.8903 143.076 23.3406C143.076 22.7863 143.177 22.2989 143.379 21.8784C143.581 21.4556 143.861 21.1268 144.218 20.8919C144.577 20.6546 144.99 20.536 145.458 20.536C145.925 20.536 146.338 20.6546 146.695 20.8919C147.052 21.1291 147.331 21.458 147.533 21.8784C147.737 22.2989 147.84 22.7863 147.84 23.3406C147.84 23.8903 147.739 24.3753 147.537 24.7958C147.335 25.2139 147.054 25.5416 146.695 25.7788C146.338 26.0161 145.925 26.1347 145.458 26.1347ZM145.458 25.5604C145.834 25.5604 146.152 25.4594 146.413 25.2574C146.673 25.0554 146.871 24.7864 147.005 24.4505C147.141 24.1146 147.209 23.7447 147.209 23.3406C147.209 22.9366 147.141 22.5655 147.005 22.2273C146.871 21.889 146.673 21.6177 146.413 21.4133C146.152 21.209 145.834 21.1068 145.458 21.1068C145.084 21.1068 144.766 21.209 144.503 21.4133C144.242 21.6177 144.044 21.889 143.908 22.2273C143.774 22.5655 143.707 22.9366 143.707 23.3406C143.707 23.7447 143.774 24.1146 143.908 24.4505C144.044 24.7864 144.242 25.0554 144.503 25.2574C144.764 25.4594 145.082 25.5604 145.458 25.5604Z" fill="#272727"/>
<path d="M152.655 23.9537V20.61H153.282V26.0219H152.655V25.1235H152.606C152.479 25.4007 152.278 25.632 152.003 25.8176C151.729 26.0008 151.393 26.0924 150.996 26.0924C150.65 26.0924 150.344 26.0172 150.076 25.8669C149.808 25.7142 149.598 25.4911 149.445 25.1975C149.293 24.9039 149.216 24.5433 149.216 24.1158V20.61H149.844V24.077C149.844 24.4998 149.968 24.8404 150.217 25.0988C150.466 25.3549 150.786 25.4829 151.175 25.4829C151.42 25.4829 151.655 25.4241 151.88 25.3067C152.106 25.1893 152.291 25.0178 152.437 24.7923C152.582 24.5644 152.655 24.2849 152.655 23.9537Z" fill="#272727"/>
<path d="M155.57 22.6395V26.0219H154.943V20.61H155.552V21.4592H155.609C155.736 21.182 155.933 20.96 156.201 20.7932C156.471 20.6241 156.804 20.5395 157.201 20.5395C157.565 20.5395 157.885 20.6159 158.16 20.7686C158.437 20.9189 158.652 21.1409 158.804 21.4345C158.959 21.7281 159.037 22.0887 159.037 22.5162V26.0219H158.41V22.5549C158.41 22.111 158.285 21.7598 158.036 21.5014C157.79 21.2431 157.459 21.1139 157.043 21.1139C156.759 21.1139 156.506 21.1749 156.285 21.2971C156.064 21.4192 155.889 21.5954 155.76 21.8256C155.633 22.0534 155.57 22.3247 155.57 22.6395Z" fill="#272727"/>
<path d="M162.803 26.1347C162.319 26.1347 161.897 26.0137 161.538 25.7718C161.181 25.5298 160.904 25.1986 160.706 24.7782C160.509 24.3577 160.41 23.8785 160.41 23.3406C160.41 22.798 160.51 22.3153 160.71 21.8925C160.912 21.4697 161.191 21.1385 161.548 20.8989C161.905 20.657 162.32 20.536 162.792 20.536C163.154 20.536 163.481 20.6065 163.775 20.7474C164.069 20.886 164.311 21.0821 164.501 21.3358C164.694 21.5872 164.814 21.8808 164.864 22.2167H164.23C164.164 21.9113 164.005 21.6506 163.754 21.4345C163.505 21.216 163.188 21.1068 162.803 21.1068C162.457 21.1068 162.152 21.2008 161.887 21.3887C161.621 21.5743 161.413 21.8338 161.263 22.1674C161.115 22.4986 161.041 22.8826 161.041 23.3195C161.041 23.7588 161.114 24.1475 161.259 24.4857C161.405 24.8216 161.609 25.0847 161.872 25.275C162.138 25.4653 162.448 25.5604 162.803 25.5604C163.042 25.5604 163.261 25.5158 163.458 25.4265C163.658 25.3349 163.824 25.2057 163.958 25.0389C164.095 24.8721 164.186 24.6737 164.233 24.4435H164.867C164.82 24.77 164.704 25.0612 164.519 25.3173C164.335 25.571 164.097 25.7706 163.803 25.9162C163.512 26.0619 163.178 26.1347 162.803 26.1347Z" fill="#272727"/>
<path d="M166.219 26.0219V20.61H166.849V26.0219H166.219ZM166.539 19.6798C166.41 19.6798 166.3 19.6364 166.208 19.5495C166.116 19.4602 166.071 19.3533 166.071 19.2288C166.071 19.1044 166.116 18.9987 166.208 18.9117C166.3 18.8225 166.41 18.7779 166.539 18.7779C166.668 18.7779 166.779 18.8225 166.87 18.9117C166.962 18.9987 167.008 19.1044 167.008 19.2288C167.008 19.3533 166.962 19.4602 166.87 19.5495C166.779 19.6364 166.668 19.6798 166.539 19.6798Z" fill="#272727"/>
<path d="M169.135 18.806V26.0219H168.508V18.806H169.135Z" fill="#272727"/>
</svg>
