<svg width="52" height="52" viewBox="0 0 52 52" fill="none" xmlns="http://www.w3.org/2000/svg">
<path d="M32.7921 22.0278C31.7691 21.0049 30.1044 21.0049 29.0813 22.0278L27.0093 24.0999C26.3227 24.7864 25.2096 24.7866 24.5231 24.0999L22.451 22.0278C21.9553 21.5321 21.2964 21.2593 20.5956 21.2593C19.8949 21.2593 19.2359 21.5321 18.7404 22.0278C18.2447 22.5235 17.9719 23.1823 17.9719 23.8831C17.9719 24.5839 18.2449 25.243 18.7404 25.7384L23.8827 30.8806C23.8923 30.8903 23.9027 30.8981 23.9124 30.9075L23.9394 30.8805C24.4436 31.3848 25.1036 31.6392 25.766 31.6465C26.4284 31.6394 27.0889 31.385 27.5932 30.8805C27.6834 30.7903 27.7813 30.7127 27.8843 30.6461L32.792 25.7386C33.2877 25.2428 33.5605 24.584 33.5605 23.8832C33.5606 23.1823 33.2877 22.5234 32.7921 22.0278Z" fill="black"/>
<path d="M45.9771 13.9908H37.8106V6.02311C37.8106 3.00919 35.3585 0.557007 32.3444 0.557007H19.2581C16.2441 0.557007 13.792 3.00919 13.792 6.02311V13.9908H6.02311C3.00909 13.9908 0.557007 16.443 0.557007 19.4569V32.5431C0.557007 35.5571 3.00909 38.0092 6.02311 38.0092H13.792V45.977C13.792 48.991 16.2441 51.4431 19.2581 51.4431H32.3444C35.3584 51.4431 37.8105 48.9909 37.8105 45.977V38.0093H45.977C48.991 38.0093 51.4431 35.5571 51.4431 32.5432V19.4569C51.4433 16.443 48.9911 13.9908 45.9771 13.9908ZM33.8686 27.8869L29.5075 32.2479C28.4923 33.2632 27.1589 33.7705 25.8254 33.7705C25.8174 33.7705 25.8094 33.77 25.8014 33.7699C25.7933 33.7699 25.7854 33.7705 25.7773 33.7705C24.4438 33.7705 23.1105 33.2631 22.0953 32.2479L17.7342 27.8869C16.7507 26.9034 16.209 25.5957 16.209 24.2047C16.209 22.8137 16.7507 21.5062 17.7342 20.5225C18.7177 19.539 20.0253 18.9973 21.4163 18.9973C22.8072 18.9973 24.1149 19.539 25.0984 20.5225L25.8014 21.2256L26.5043 20.5226C27.4879 19.5391 28.7955 18.9974 30.1865 18.9974C31.5775 18.9974 32.8851 19.5391 33.8686 20.5226C34.8522 21.5062 35.3938 22.8138 35.3938 24.2048C35.3938 25.5958 34.8521 26.9034 33.8686 27.8869Z" fill="black"/>
</svg>
