<svg xmlns="http://www.w3.org/2000/svg" width="246" height="87" fill="none"><path fill="#EEE" d="M46.9.4H9.2a9 9 0 0 0-6.5 2.8A9.4 9.4 0 0 0 0 9.7l.5 67.5c0 2.4 1 4.7 2.8 6.4a9.6 9.6 0 0 0 6.6 2.7l50.4-.3c2.5 0 4.8-1 6.5-2.8 1.7-1.7 2.7-4 2.7-6.5L69 21.8 47 .4Z"/><path fill="#907C9C" d="M46.4.4v13.8a9 9 0 0 0 5.8 8.4c1.1.5 2.4.7 3.6.7h13v-1.1L46.9.4h-.4Z"/><path fill="#272727" d="M11.3 53.9c0-.3 0-.6.2-.8a2.1 2.1 0 0 1 2-1.4c.3 0 .5 0 .8.2a2.1 2.1 0 0 1 1.3 2l-.1.8a2.2 2.2 0 0 1-4.2-.8ZM21.6 48h1.2c1.3 0 2-.6 2-1.8 0-1.1-.7-1.7-2-1.7h-1.2V48Zm0 7.5h-3.5L18 41.7h5.7c1.6 0 2.8.4 3.6 1.2.8.8 1.3 2 1.3 3.4 0 1.5-.4 2.6-1.3 3.4-.8.8-2 1.3-3.5 1.3h-2.2v4.6ZM38.2 45l-1.2-.6a3 3 0 0 0-1.1-.3c-.5 0-.9.1-1.2.4a1 1 0 0 0-.4.8c0 .3 0 .5.2.6l.6.5.8.2 1 .3c1 .4 2 1 2.5 1.6.6.6.8 1.5.8 2.5 0 .7 0 1.4-.3 2a4 4 0 0 1-1 1.5l-1.7 1a8.4 8.4 0 0 1-7.2-1.2l1.5-3c.6.5 1.1.9 1.6 1 .6.3 1.1.4 1.6.4.6 0 1-.1 1.3-.4a1.2 1.2 0 0 0 .3-1.4 1 1 0 0 0-.3-.5l-.7-.3a19 19 0 0 0-2.4-.9c-.4-.1-.8-.4-1.2-.7l-.9-1c-.2-.5-.3-1-.3-1.8a4.2 4.2 0 0 1 2.8-4.3c.6-.2 1.3-.3 2-.3l2.2.3 2.1.8-1.4 2.8Zm9.6-.5.1 10.8h-3.6V44.6h-3v-3l9.5-.1v3h-3Z"/><path fill="#EEE" d="M135 .4H97.2c-2.5 0-4.8 1-6.5 2.8A9.4 9.4 0 0 0 88 9.7l.4 67.5a9.6 9.6 0 0 0 9.4 9.1l50.5-.3c2.4 0 4.7-1 6.4-2.8 1.8-1.7 2.7-4 2.8-6.5l-.5-54.9L134.9.4Z"/><path fill="#6799C1" d="M134.5.4v13.8a9 9 0 0 0 5.8 8.4c1 .5 2.3.7 3.5.7H157v-1.1L135 .4h-.4Z"/><path fill="#272727" d="m99.4 53.3.1-.8a2.1 2.1 0 0 1 2-1.4l.8.2a2.1 2.1 0 0 1 1.4 2c0 .3 0 .6-.2.8a2.2 2.2 0 0 1-4.1-.8Zm6 1.7 2.4-13.9h3.5l2.9 7.4 2.7-7.4h3.5l2.5 13.8h-3.6l-1.2-8-3.3 8h-1.4l-3.2-7.9-1.1 8h-3.6Zm27.3-10.5-1.1-.7a3 3 0 0 0-1.2-.2c-.5 0-.8.1-1.1.3a1 1 0 0 0-.5 1c0 .2.1.4.3.5l.5.4.8.3 1 .3c1.1.4 2 .9 2.5 1.6.6.6.9 1.5.9 2.5 0 .7-.1 1.4-.4 2a4 4 0 0 1-1 1.4c-.5.5-1 .8-1.7 1-.7.2-1.4.4-2.3.4-1.7 0-3.3-.5-4.9-1.6l1.6-2.9c.5.5 1 .8 1.6 1 .5.3 1 .4 1.6.4.5 0 1-.1 1.3-.4a1.2 1.2 0 0 0 .3-1.5 1 1 0 0 0-.4-.4l-.7-.3a19 19 0 0 0-2.4-.9l-1.2-.7-.8-1c-.2-.5-.3-1.1-.3-1.8s0-1.3.3-1.9a4.2 4.2 0 0 1 2.4-2.4c.6-.2 1.3-.3 2-.3s1.4 0 2.2.3c.7.2 1.5.4 2.2.8l-1.5 2.8Zm11 2.5h7.3l-.1 2a7.1 7.1 0 0 1-1.4 3.6l-1.6 1.4c-.6.4-1.2.7-2 .9a8.4 8.4 0 0 1-5.1-.2 6.8 6.8 0 0 1-3.8-3.8 8.2 8.2 0 0 1 0-6c.3-1 .7-1.7 1.4-2.3.6-.7 1.4-1.2 2.3-1.5a8 8 0 0 1 6.9.4 6 6 0 0 1 2.6 2.8l-3.4 1.5c-.4-.8-.8-1.3-1.3-1.7a3.4 3.4 0 0 0-5 2 5.8 5.8 0 0 0 0 3.4c0 .6.3 1 .6 1.4.3.4.7.6 1.2.9l1.6.2h1l.9-.5c.2-.2.5-.4.6-.7l.4-1h-3V47Z"/><path fill="#EEE" d="M223 .4h-37.7c-2.4 0-4.7 1-6.5 2.8a9.4 9.4 0 0 0-2.7 6.5l.5 67.5c0 2.4 1.1 4.7 2.8 6.4a9.6 9.6 0 0 0 6.6 2.7l50.4-.3c2.5 0 4.8-1 6.5-2.8 1.7-1.7 2.7-4 2.7-6.5l-.5-54.9L223 .4Z"/><path fill="#93A47B" d="M222.5.4v13.8a9 9 0 0 0 5.8 8.4c1.2.5 2.4.7 3.6.7h13v-1.1L223 .4h-.5Z"/><path fill="#272727" d="M187.4 53.9c0-.3 0-.6.2-.8a2.1 2.1 0 0 1 2-1.4c.3 0 .5 0 .8.2a2.1 2.1 0 0 1 1.3 2l-.1.8a2.2 2.2 0 0 1-4.2-.8Zm14.6-9.2h-4.3v2.4h4l.1 3h-4v2.4h4.3v3l-8 .1V41.7h7.9v3Zm2 10.8 2.3-13.9h3.6l2.8 7.4 2.7-7.4h3.6l2.5 13.8h-3.6l-1.3-8-3.2 8H212l-3.2-7.9-1.2 8h-3.5Zm23.3-14v10.8h4.4v3l-8 .1V41.5h3.6Z"/></svg>