<svg width="444" height="431" viewBox="0 0 444 431" fill="none" xmlns="http://www.w3.org/2000/svg">
<g clip-path="url(#clip0_104_2290)">
<rect x="0.666504" width="442.8" height="430.66" rx="36" fill="#A490B0"/>
<g clip-path="url(#clip1_104_2290)">
<mask id="mask0_104_2290" style="mask-type:luminance" maskUnits="userSpaceOnUse" x="29" y="-255" width="791" height="791">
<path d="M522.712 -255L29 238.712L325.66 535.373L819.373 41.6606L522.712 -255Z" fill="white"/>
</mask>
<g mask="url(#mask0_104_2290)">
<path d="M522.712 -255L29 238.712L325.66 535.373L819.373 41.6606L522.712 -255Z" fill="#F9FAFF"/>
<path d="M316.072 2.3397L313.978 1.54002L309.962 5.55554L310.751 7.66081L309.182 9.22973L304.953 -1.88873L306.533 -3.46859L317.652 0.759813L316.072 2.3397ZM312.048 0.773169L307.355 -1.06725L309.195 3.62573L312.048 0.773169ZM316.255 -8.67405L317.714 -10.1329L320.848 -2.39206L319.399 -0.943841L311.647 -4.06572L313.106 -5.52526L315.639 -4.48451L318.753 -3.03821L317.318 -6.11925L316.255 -8.67405ZM323.367 -14.2735L322.666 -15.0628L323.95 -16.3465L329.354 -10.9422L328.092 -9.68048L327.237 -10.4039C327.566 -9.46092 327.028 -8.30919 326.435 -7.6948C324.844 -6.08201 322.673 -5.88369 320.776 -7.78013C318.913 -9.64367 319.177 -11.8591 320.768 -13.428C321.492 -14.1521 322.523 -14.5035 323.367 -14.2735ZM322.083 -12.3538C321.195 -11.4651 321.085 -10.1491 322.115 -9.11863C323.145 -8.0882 324.472 -8.18746 325.361 -9.07614C327.468 -11.1826 324.19 -14.4603 322.083 -12.3538ZM326.4 -18.8404L331.826 -13.4142L330.487 -12.0757L325.061 -17.5019L326.4 -18.8404ZM323.439 -18.883C324.48 -17.8416 326.06 -19.4215 325.018 -20.4629C323.977 -21.5043 322.397 -19.9244 323.439 -18.883ZM325.375 -22.2883L326.703 -23.6158L334.365 -15.9534L333.037 -14.6258L325.375 -22.2883ZM335.121 -26.027L334.419 -26.8163L335.703 -28.0999L341.107 -22.6956L339.846 -21.4339L338.99 -22.1574C339.319 -21.2144 338.781 -20.0626 338.189 -19.4482C336.598 -17.8355 334.426 -17.6371 332.53 -19.5336C330.666 -21.3971 330.931 -23.6125 332.521 -25.1814C333.245 -25.9055 334.276 -26.2569 335.121 -26.027ZM333.837 -24.1072C332.948 -23.2186 332.838 -21.9025 333.868 -20.8721C334.899 -19.8416 336.226 -19.9409 337.115 -20.8296C339.221 -22.9361 335.943 -26.2137 333.837 -24.1072ZM340.843 -31.0035C339.998 -30.1587 339.91 -28.7988 340.852 -27.856C341.828 -26.8804 343.166 -26.9907 344.011 -27.8354C344.867 -28.6912 344.9 -30.0182 343.957 -30.961C342.982 -31.9366 341.699 -31.8592 340.843 -31.0035ZM334.471 -31.3846L335.81 -32.7231L338.802 -29.7305C338.562 -30.6077 339.143 -31.8033 339.714 -32.3738C341.294 -33.9537 343.432 -34.163 345.296 -32.2995C347.072 -30.5236 346.928 -28.2754 345.337 -26.6845C344.679 -26.0262 343.791 -25.5762 342.727 -25.8061L343.384 -24.9729L342.134 -23.7221L334.471 -31.3846ZM341.328 -38.2417L342.656 -39.5692L350.318 -31.9068L348.991 -30.5793L341.328 -38.2417ZM354.627 -40.6659L350.403 -36.4419C351.159 -35.861 352.223 -35.9601 353.167 -36.9037C353.66 -37.3974 354.121 -38.2311 354.111 -38.8562L355.811 -38.8678C355.832 -37.7054 355.184 -36.4878 354.362 -35.6649C352.496 -33.7998 350.237 -33.8427 348.505 -35.5747C346.861 -37.219 346.796 -39.522 348.552 -41.2774C350.362 -43.0877 352.61 -43.0996 354.627 -40.6659ZM349.318 -37.571L352.236 -40.4894C351.447 -41.1032 350.547 -40.9054 349.779 -40.1374C349.055 -39.4133 348.814 -38.4701 349.318 -37.571ZM364.02 -49.5327L366.005 -49.5226C365.993 -47.9543 365.335 -46.5722 364.227 -45.4641C361.374 -42.6116 358.205 -43.3669 356.199 -45.351C354.182 -47.3461 353.448 -50.6907 356.224 -53.4664C357.267 -54.5087 358.649 -55.1015 360.217 -55.1131L360.183 -53.2159C359.185 -53.2045 358.275 -52.7545 357.605 -52.0852C355.751 -50.231 356.332 -48.0489 357.625 -46.7773C358.908 -45.5167 360.969 -44.9254 362.867 -46.8234C363.536 -47.4927 364.019 -48.5238 364.02 -49.5327ZM359.918 -56.831L361.245 -58.1586L368.908 -50.4961L367.58 -49.1686L359.918 -56.831ZM367.108 -59.7241C368.83 -61.4466 371.21 -61.2832 372.756 -59.7375C374.312 -58.1809 374.509 -55.8561 372.753 -54.1006C370.998 -52.3452 368.684 -52.5526 367.127 -54.1092C365.582 -55.6548 365.385 -58.0016 367.108 -59.7241ZM368.336 -58.5183C367.37 -57.5529 367.655 -56.2589 368.466 -55.4477C369.288 -54.6256 370.549 -54.3519 371.526 -55.3284C372.502 -56.3048 372.228 -57.5659 371.406 -58.388C370.595 -59.1992 369.235 -59.418 368.336 -58.5183ZM371.005 -63.402L372.344 -64.7406L375.172 -61.9124C375.994 -61.0902 377.069 -60.9152 377.924 -61.771C378.747 -62.5938 378.616 -63.844 377.794 -64.6661L375.032 -67.4285L376.359 -68.7561L381.774 -63.3408L380.579 -62.145L379.756 -62.7916C379.745 -61.684 379.492 -60.9053 378.735 -60.1482C377.441 -58.8536 375.521 -58.8857 373.844 -60.5629L371.005 -63.402ZM381.28 -71.4409C380.424 -70.5851 380.347 -69.302 381.323 -68.3264C382.265 -67.3836 383.592 -67.4171 384.448 -68.2729C385.293 -69.1177 385.403 -70.4557 384.428 -71.4313C383.485 -72.374 382.125 -72.2857 381.28 -71.4409ZM379.561 -76.4739L380.899 -77.8124L388.562 -70.1499L387.311 -68.8992L386.478 -69.5569C386.707 -68.4932 386.257 -67.6047 385.599 -66.9464C384.008 -65.3555 381.76 -65.212 379.984 -66.9879C378.121 -68.8514 378.33 -70.99 379.91 -72.5699C380.48 -73.1404 381.676 -73.7222 382.553 -73.4813L379.561 -76.4739ZM389.16 -80.4387L389.291 -78.8157C388.545 -78.7934 387.986 -78.4751 387.47 -77.9595C386.834 -77.3231 386.68 -76.7747 387.02 -76.4349C387.37 -76.0841 387.886 -76.205 388.621 -76.8523C389.707 -77.8069 391.232 -78.8713 392.668 -77.4353C393.622 -76.4816 393.665 -74.8805 392.118 -73.3335C391.262 -72.4777 390.264 -71.7645 388.652 -71.7967L388.356 -73.4087C389.168 -73.3652 390.363 -73.925 390.978 -74.5174C391.493 -75.0112 391.702 -75.746 391.308 -76.1407C390.935 -76.5134 390.474 -76.3596 389.662 -75.6355C388.565 -74.6919 386.975 -73.8468 385.747 -75.0745C384.497 -76.3242 385.353 -78.0573 386.341 -79.0447C387.186 -79.8895 387.986 -80.3614 389.16 -80.4387Z" fill="#272727"/>
<path d="M162.683 178.338L559.538 -218.517" stroke="#EBEBEB" stroke-width="3"/>
<g filter="url(#filter0_d_104_2290)">
<path d="M274.782 100.496L215.468 159.81L274.731 219.073L334.045 159.759L274.782 100.496Z" fill="#F9FAFF"/>
</g>
<g filter="url(#filter1_d_104_2290)">
<path d="M338.499 164.213L279.185 223.527L338.448 282.79L397.762 223.476L338.499 164.213Z" fill="#F9FAFF"/>
</g>
<g filter="url(#filter2_d_104_2290)">
<path d="M404.271 229.985L344.957 289.299L404.221 348.562L463.535 289.248L404.271 229.985Z" fill="#F9FAFF"/>
</g>
<g filter="url(#filter3_d_104_2290)">
<path d="M341.296 33.9819L281.982 93.2959L341.245 152.559L400.56 93.2454L341.296 33.9819Z" fill="#F9FAFF"/>
</g>
<g filter="url(#filter4_d_104_2290)">
<path d="M405.013 97.6987L345.699 157.013L404.962 216.276L464.276 156.962L405.013 97.6987Z" fill="#F9FAFF"/>
</g>
<g filter="url(#filter5_d_104_2290)">
<path d="M470.785 163.471L411.471 222.785L470.734 282.049L530.048 222.735L470.785 163.471Z" fill="#F9FAFF"/>
</g>
<g filter="url(#filter6_d_104_2290)">
<path d="M407.81 -32.5322L348.838 26.439L408.102 85.7025L467.073 26.7314L407.81 -32.5322Z" fill="#F9FAFF"/>
</g>
<g filter="url(#filter7_d_104_2290)">
<path d="M471.527 31.1846L412.556 90.1558L471.819 149.419L530.79 90.4481L471.527 31.1846Z" fill="#F9FAFF"/>
</g>
<g filter="url(#filter8_d_104_2290)">
<path d="M474.667 -99.3892L415.353 -40.0752L474.616 19.1884L533.93 -40.1257L474.667 -99.3892Z" fill="#F9FAFF"/>
</g>
<path d="M340.053 116.138C339.789 116.402 339.475 116.611 339.129 116.753C338.784 116.894 338.414 116.965 338.041 116.963C337.667 116.96 337.299 116.882 336.956 116.735C336.613 116.588 336.303 116.374 336.043 116.106C335.516 115.579 335.22 114.864 335.221 114.118C335.221 113.373 335.518 112.657 336.045 112.13C336.573 111.603 337.288 111.306 338.033 111.306C338.778 111.305 339.494 111.602 340.02 112.128C340.289 112.387 340.503 112.698 340.65 113.041C340.797 113.384 340.874 113.753 340.877 114.126C340.88 114.499 340.809 114.869 340.667 115.215C340.526 115.56 340.317 115.874 340.053 116.138ZM342.316 114.424C342.524 114.564 342.772 114.637 343.024 114.631C343.275 114.624 343.519 114.54 343.721 114.389L343.961 114.149C344.006 114.103 344.032 114.041 344.032 113.977C344.032 113.913 344.006 113.852 343.961 113.806L338.411 108.257C338.366 108.211 338.304 108.185 338.24 108.185C338.176 108.186 338.114 108.211 338.069 108.257L337.28 109.045C337.235 109.091 337.209 109.152 337.209 109.216C337.209 109.281 337.234 109.342 337.28 109.388L337.725 109.833C337.2 109.806 336.675 109.897 336.188 110.099C335.702 110.301 335.267 110.608 334.914 111C334.087 111.827 333.622 112.949 333.622 114.119C333.621 115.289 334.085 116.41 334.912 117.237C335.738 118.064 336.86 118.528 338.03 118.527C339.2 118.527 340.322 118.062 341.149 117.234C341.53 116.874 341.831 116.437 342.032 115.953C342.233 115.469 342.329 114.948 342.316 114.424ZM344.511 110.584C345.34 110.462 346.109 110.077 346.704 109.487C347.219 108.972 347.493 108.15 347.014 107.67C346.534 107.191 345.128 108.117 344.134 108.631C343.14 109.146 341.975 109.215 341.153 108.392C340.331 107.57 340.435 105.411 341.532 104.314C342.182 103.673 343.003 103.232 343.897 103.045C344.205 103.011 344.239 103.251 344.239 103.251L344.41 104.313C344.421 104.344 344.424 104.377 344.421 104.41C344.417 104.443 344.407 104.475 344.391 104.504C344.375 104.533 344.353 104.558 344.327 104.578C344.301 104.598 344.271 104.613 344.239 104.621C343.628 104.694 343.06 104.972 342.628 105.41C341.874 106.165 341.873 106.781 342.25 107.158C342.627 107.535 343.347 107.226 344.135 106.78C344.924 106.335 346.912 105.237 348.179 106.505C349.447 107.772 348.966 109.417 347.801 110.583C346.997 111.427 345.936 111.982 344.784 112.161C344.723 112.16 344.663 112.14 344.613 112.103C344.564 112.066 344.528 112.014 344.51 111.955L344.339 110.893C344.329 110.861 344.326 110.828 344.329 110.795C344.333 110.762 344.343 110.73 344.358 110.702C344.374 110.673 344.396 110.647 344.422 110.627C344.449 110.607 344.479 110.592 344.511 110.584ZM355.104 101.635C355.313 101.776 355.56 101.848 355.812 101.842C356.064 101.836 356.308 101.751 356.509 101.6L356.749 101.36C356.795 101.315 356.82 101.253 356.821 101.189C356.821 101.124 356.795 101.063 356.749 101.018L351.2 95.468C351.154 95.4225 351.093 95.3968 351.029 95.3968C350.964 95.3972 350.903 95.4226 350.857 95.4682L350.069 96.2567C350.023 96.302 349.998 96.3637 349.998 96.4278C349.998 96.4922 350.023 96.5539 350.068 96.5995L350.514 97.0448C349.988 97.0179 349.463 97.1086 348.977 97.3107C348.491 97.5124 348.055 97.8197 347.703 98.2112C346.876 99.0385 346.411 100.161 346.41 101.33C346.41 102.5 346.874 103.622 347.7 104.449C348.527 105.275 349.649 105.739 350.819 105.739C351.988 105.738 353.11 105.273 353.938 104.446C354.319 104.086 354.619 103.648 354.82 103.164C355.021 102.68 355.118 102.159 355.104 101.635ZM352.841 103.35C352.577 103.614 352.264 103.823 351.918 103.964C351.572 104.106 351.202 104.177 350.829 104.174C350.456 104.171 350.087 104.094 349.744 103.946C349.401 103.799 349.091 103.585 348.832 103.317C348.305 102.79 348.009 102.075 348.009 101.33C348.01 100.584 348.306 99.869 348.833 99.3417C349.361 98.814 350.076 98.5176 350.822 98.5173C351.567 98.517 352.282 98.8131 352.809 99.34C353.077 99.5989 353.291 99.9093 353.438 100.252C353.586 100.595 353.663 100.964 353.666 101.337C353.669 101.71 353.598 102.08 353.456 102.426C353.315 102.772 353.106 103.085 352.841 103.35ZM363.47 93.6122L360.592 90.7347C358.982 89.1246 356.857 89.057 355.212 90.7027C354.889 91.0195 354.646 91.4085 354.503 91.8377C354.36 92.2668 354.321 92.7233 354.388 93.1705C354.295 93.0859 354.186 93.0215 354.068 92.9805C353.949 92.9397 353.823 92.9237 353.698 92.9337C353.572 92.9433 353.45 92.9783 353.34 93.037C353.228 93.0956 353.13 93.1759 353.051 93.2739L352.811 93.5139C352.766 93.5592 352.741 93.6209 352.74 93.685C352.74 93.7494 352.766 93.8111 352.811 93.8566L358.395 99.4404C358.441 99.486 358.502 99.5113 358.567 99.5113C358.631 99.5109 358.692 99.4855 358.738 99.4403L359.663 98.5145C359.629 98.4803 359.629 98.4118 359.595 98.3775L356.306 95.0889C355.888 94.671 355.654 94.1039 355.654 93.5123C355.654 92.9215 355.889 92.3542 356.308 91.936C356.511 91.7227 356.756 91.5533 357.027 91.437C357.298 91.3214 357.59 91.2613 357.884 91.2615C358.179 91.2614 358.471 91.3206 358.742 91.4366C359.013 91.5523 359.257 91.7215 359.461 91.9346L362.201 94.6751L362.749 95.2232C362.806 95.2633 362.875 95.2818 362.944 95.2756C363.013 95.2694 363.078 95.2385 363.126 95.1888L364.052 94.2631C364.018 94.2288 364.018 94.1603 363.983 94.126L363.607 93.7492L363.47 93.6122ZM369.401 87.3381C369.61 87.4788 369.857 87.5514 370.109 87.5451C370.361 87.5388 370.605 87.4541 370.806 87.3032L371.046 87.0632C371.096 87.0145 371.127 86.9501 371.133 86.8808C371.14 86.8116 371.121 86.7427 371.081 86.6862L365.531 81.1367L365.497 81.171C365.451 81.1254 365.39 81.0997 365.326 81.0997C365.262 81.1001 365.2 81.1255 365.154 81.1711L364.366 81.9597C364.32 82.0049 364.295 82.0666 364.295 82.1307C364.295 82.1951 364.32 82.2568 364.365 82.3024L364.811 82.7477C364.285 82.7209 363.76 82.8116 363.274 83.0136C362.788 83.2153 362.353 83.5226 362 83.9141C361.173 84.7414 360.708 85.8637 360.707 87.033C360.707 88.203 361.171 89.3248 361.997 90.1514C362.824 90.978 363.946 91.4423 365.116 91.4418C366.285 91.4413 367.407 90.9761 368.235 90.1488C368.616 89.7884 368.916 89.3514 369.117 88.8674C369.318 88.383 369.415 87.8621 369.401 87.3381ZM367.139 89.0526C366.875 89.3166 366.561 89.5254 366.215 89.6671C365.87 89.8084 365.499 89.8799 365.126 89.877C364.753 89.874 364.384 89.7967 364.041 89.6492C363.698 89.5023 363.388 89.2883 363.129 89.02C362.602 88.4932 362.306 87.778 362.307 87.0326C362.307 86.2869 362.603 85.5719 363.131 85.0446C363.658 84.5169 364.373 84.2205 365.119 84.2202C365.864 84.2199 366.579 84.516 367.106 85.0429C367.375 85.3019 367.588 85.6123 367.735 85.9549C367.883 86.2983 367.96 86.667 367.963 87.0402C367.966 87.4134 367.895 87.7832 367.753 88.129C367.612 88.4746 367.403 88.7886 367.139 89.0526Z" fill="#283343"/>
<path d="M342.569 84.3678C341.841 85.095 341.432 86.0815 341.432 87.1103C341.432 88.1384 341.84 89.1245 342.566 89.8511C343.293 90.578 344.279 90.9861 345.307 90.9857C346.336 90.9853 347.322 90.576 348.05 89.8488C348.777 89.1213 349.186 88.1351 349.186 87.1066C349.187 86.0785 348.779 85.0924 348.052 84.3654C347.325 83.6389 346.339 83.2308 345.311 83.2312C344.283 83.2313 343.296 83.6402 342.569 84.3678ZM335.471 91.4649C334.929 92.0073 334.56 92.6987 334.41 93.4506C334.26 94.203 334.336 94.9823 334.629 95.6909C334.923 96.3991 335.419 97.0045 336.057 97.4302C336.694 97.8559 337.444 98.0828 338.21 98.0828C338.977 98.0825 339.727 97.8546 340.365 97.4283C341.002 97.0021 341.5 96.3963 341.794 95.6875C342.088 94.979 342.165 94.1996 342.015 93.4474C341.866 92.6952 341.497 92.0048 340.955 91.4625C340.228 90.736 339.242 90.3279 338.214 90.3283C337.185 90.3284 336.199 90.7373 335.471 91.4649ZM338.32 81.765C339.047 82.4919 339.455 83.478 339.455 84.5062C339.455 85.5347 339.045 86.5208 338.318 87.2483C337.591 87.9755 336.604 88.3848 335.576 88.3853C334.547 88.3857 333.561 87.9776 332.834 87.2507C332.108 86.5241 331.7 85.538 331.7 84.5098C331.701 83.481 332.11 82.4945 332.837 81.7673C333.564 81.0398 334.551 80.6308 335.579 80.6308C336.607 80.6303 337.593 81.0384 338.32 81.765Z" fill="url(#paint0_radial_104_2290)"/>
<path fill-rule="evenodd" clip-rule="evenodd" d="M421.627 14.9695C422.053 15.0855 422.443 15.3092 422.757 15.6202L426.868 19.731C427.234 20.0629 427.71 20.2471 428.204 20.2469C428.699 20.2463 429.176 20.0621 429.541 19.7298L429.987 19.2841L424.54 13.8373C424.225 13.5198 423.998 13.1251 423.882 12.6923C423.767 12.2598 423.766 11.8047 423.88 11.3718C423.995 10.9386 424.221 10.543 424.535 10.2238C424.849 9.90461 425.242 9.67346 425.673 9.55298C426.125 9.45032 426.593 9.45012 427.044 9.5524C427.45 9.70918 427.821 9.94174 428.14 10.2374L432.251 14.3481C432.617 14.6801 433.093 14.8642 433.587 14.864C434.082 14.8635 434.558 14.6792 434.924 14.347L435.404 13.867L429.957 8.42023C428.988 7.4686 427.684 6.93589 426.325 6.93647C424.967 6.93739 423.662 7.47119 422.692 8.42331C422.168 8.93794 421.763 9.56015 421.502 10.2464C421.241 10.9326 421.132 11.667 421.182 12.3994C420.45 12.3493 419.716 12.4583 419.029 12.719C418.343 12.9798 417.721 13.3855 417.206 13.909C416.491 14.6335 416.002 15.5508 415.8 16.5485C414.969 16.628 414.186 16.9776 413.572 17.5433L422.65 26.6212L423.096 26.1755C423.451 25.8206 423.65 25.3397 423.65 24.8384C423.65 24.3373 423.451 23.8566 423.097 23.5024L418.986 19.3916C418.739 19.1628 418.541 18.886 418.404 18.5779C418.268 18.2699 418.196 17.9368 418.193 17.5999C418.189 17.2627 418.255 16.9289 418.386 16.618C418.517 16.3074 418.71 16.0263 418.953 15.7932C419.273 15.4685 419.674 15.2363 420.115 15.1217C420.555 15.0067 421.018 15.0133 421.455 15.141L421.627 14.9695ZM396.833 52.4383L404.102 45.1697L403.656 44.7244C403.296 44.3811 402.817 44.1901 402.32 44.1903C401.822 44.1905 401.344 44.382 400.983 44.7255L396.389 49.3198L396.428 38.3873L395.982 37.942C395.622 37.5987 395.144 37.4077 394.646 37.4079C394.148 37.4081 393.67 37.5996 393.309 37.9431L385.972 45.2802L386.417 45.7256C386.783 46.0575 387.259 46.2417 387.753 46.2415C388.248 46.2409 388.725 46.0567 389.091 45.7244L393.651 41.1645L393.646 52.0626L394.126 52.5422C394.502 52.869 394.986 53.0463 395.486 53.0396C395.985 53.0332 396.464 52.8435 396.833 52.5068L396.833 52.4383ZM413.228 20.5593C414.936 20.5589 416.574 21.2374 417.782 22.4453C418.99 23.6529 419.668 25.2907 419.668 26.9995C419.642 28.7 418.954 30.3241 417.751 31.5275C416.548 32.7306 414.923 33.4184 413.223 33.4452C412.36 33.4723 411.5 33.3252 410.695 33.0141C409.89 32.7029 409.156 32.2327 408.536 31.6322C407.917 31.0313 407.425 30.3125 407.088 29.5176C406.752 28.7226 406.579 27.868 406.579 27.0047C406.58 26.1414 406.753 25.287 407.09 24.4917C407.427 23.6965 407.921 22.9769 408.541 22.3759C409.161 21.7745 409.895 21.304 410.7 20.9918C411.506 20.6799 412.365 20.5329 413.228 20.5593ZM413.193 23.1296C414.219 23.1302 415.204 23.5379 415.929 24.2638C416.655 24.9894 417.063 25.9738 417.064 27.0006C417.064 27.5047 416.966 28.0044 416.773 28.4706C416.581 28.9374 416.298 29.3608 415.941 29.7177C415.584 30.0746 415.161 30.3575 414.694 30.55C414.228 30.7428 413.728 30.8414 413.224 30.8406C412.197 30.8396 411.213 30.4315 410.487 29.706C409.761 28.9801 409.353 27.996 409.353 26.9696C409.352 26.4651 409.45 25.9651 409.643 25.4989C409.835 25.0324 410.118 24.609 410.475 24.2521C410.832 23.8952 411.256 23.6123 411.722 23.4195C412.189 23.2267 412.688 23.1284 413.193 23.1296ZM399.104 32.0118C400.005 31.1108 401.154 30.4972 402.404 30.2485C403.654 29.9999 404.949 30.1275 406.126 30.6146C407.303 31.1018 408.309 31.927 409.017 32.9864C409.725 34.0454 410.102 35.291 410.103 36.5652C409.969 38.1811 409.232 39.6876 408.038 40.7855C406.843 41.8827 405.28 42.4902 403.659 42.4865C402.037 42.4827 400.477 41.8682 399.29 40.7659C398.102 39.6629 397.374 38.1525 397.251 36.5363C397.24 35.6964 397.399 34.8628 397.717 34.0858C398.035 33.3084 398.507 32.6029 399.104 32.0118ZM403.661 32.661C404.429 32.6597 405.179 32.8859 405.817 33.3112C406.455 33.737 406.952 34.342 407.246 35.0506C407.54 35.7592 407.617 36.5391 407.467 37.2918C407.317 38.0444 406.947 38.7358 406.405 39.2786C405.862 39.8213 405.171 40.191 404.418 40.3408C403.666 40.4905 402.885 40.4138 402.177 40.12C401.468 39.8263 400.863 39.3289 400.437 38.6906C400.012 38.0524 399.786 37.3026 399.787 36.5353C399.789 35.5082 400.197 34.5237 400.924 33.7976C401.65 33.071 402.634 32.6625 403.661 32.661Z" fill="#2D8CFF"/>
<path d="M336.206 218.644C335.047 219.794 334.223 221.238 333.824 222.82C333.425 224.402 333.465 226.063 333.94 227.624C332.695 227.254 331.384 227.157 330.097 227.338C328.811 227.519 327.578 227.975 326.482 228.674C325.387 229.373 324.454 230.3 323.747 231.391C323.041 232.481 322.577 233.712 322.387 234.997L317.043 229.653C316.707 229.317 316.252 229.128 315.776 229.128C315.3 229.129 314.844 229.318 314.507 229.654C314.171 229.991 313.982 230.447 313.982 230.923C313.982 231.398 314.17 231.854 314.506 232.19L325.023 242.707C326.46 244.088 328.315 244.954 330.299 245.168C332.281 245.382 334.28 244.932 335.98 243.889C337.682 242.846 338.989 241.269 339.698 239.404C340.408 237.54 340.479 235.493 339.9 233.585C341.417 234.046 343.029 234.097 344.572 233.732C346.115 233.368 347.534 232.601 348.685 231.51C349.836 230.418 350.677 229.042 351.122 227.52C351.568 225.998 351.602 224.385 351.222 222.847C350.842 221.308 350.06 219.898 348.957 218.761C347.853 217.623 346.468 216.799 344.941 216.372C343.415 215.945 341.803 215.93 340.268 216.329C338.733 216.728 337.331 217.527 336.206 218.644ZM335.134 240.064C334.38 240.832 333.415 241.358 332.362 241.576C331.308 241.795 330.214 241.696 329.218 241.291C328.221 240.887 327.368 240.195 326.766 239.304C326.163 238.414 325.84 237.364 325.835 236.288C325.831 235.212 326.146 234.159 326.741 233.263C327.336 232.366 328.184 231.666 329.177 231.252C330.17 230.838 331.263 230.727 332.318 230.936C333.374 231.144 334.343 231.661 335.103 232.421C336.115 233.433 336.686 234.804 336.691 236.235C336.697 237.666 336.138 239.042 335.134 240.064ZM346.38 228.818C345.626 229.586 344.661 230.112 343.607 230.331C342.554 230.55 341.46 230.45 340.463 230.046C339.467 229.641 338.613 228.949 338.011 228.059C337.409 227.168 337.085 226.118 337.081 225.042C337.077 223.967 337.392 222.914 337.987 222.017C338.582 221.12 339.43 220.421 340.422 220.006C341.415 219.592 342.509 219.482 343.564 219.69C344.619 219.898 345.589 220.416 346.349 221.176C347.361 222.187 347.931 223.558 347.937 224.989C347.943 226.42 347.384 227.797 346.38 228.818Z" fill="#0075C9"/>
<path d="M361.842 214.452L354.234 213.359L353.106 205.717C353.028 205.256 352.773 204.844 352.395 204.569C352.018 204.294 351.548 204.177 351.085 204.244C350.617 204.318 350.196 204.57 349.908 204.946C349.621 205.323 349.49 205.796 349.542 206.267L350.499 212.846L343.919 211.889C343.476 211.871 343.042 212.018 342.701 212.302C342.359 212.585 342.135 212.985 342.071 213.423C342.007 213.862 342.108 214.309 342.354 214.678C342.6 215.046 342.974 215.31 343.403 215.42L351.045 216.547L352.139 224.155C352.248 224.584 352.512 224.958 352.881 225.205C353.249 225.451 353.696 225.551 354.135 225.487C354.574 225.423 354.973 225.199 355.257 224.858C355.54 224.516 355.687 224.082 355.669 223.639L354.746 217.094L361.292 218.017C361.763 218.068 362.235 217.937 362.612 217.65C362.989 217.362 363.24 216.941 363.314 216.473C363.381 216.01 363.264 215.541 362.989 215.163C362.714 214.786 362.302 214.53 361.842 214.452Z" fill="#0075C9"/>
<path d="M272.597 141.184L256.174 157.607C255.076 158.705 255.075 160.485 256.172 161.583L272.588 177.998C273.685 179.095 275.465 179.095 276.564 177.997L292.986 161.574C294.085 160.475 294.085 158.696 292.988 157.598L276.572 141.183C275.475 140.085 273.695 140.086 272.597 141.184Z" fill="url(#paint1_linear_104_2290)"/>
<path d="M273.658 145.468L269.338 149.788C268.808 150.318 268.808 151.178 269.337 151.707L276.339 158.709C276.869 159.239 277.728 159.238 278.258 158.708L282.578 154.388C283.108 153.858 283.109 152.999 282.579 152.469L275.577 145.467C275.047 144.938 274.188 144.938 273.658 145.468Z" fill="white"/>
<path d="M264.778 154.348L260.458 158.668C259.927 159.198 259.927 160.058 260.457 160.587L272.556 172.686C273.086 173.216 273.945 173.216 274.475 172.686L278.795 168.366C279.325 167.836 279.326 166.976 278.796 166.446L266.697 154.347C266.167 153.818 265.308 153.818 264.778 154.348Z" fill="white"/>
<g opacity="0.46">
<path d="M285.833 175.564L286.272 176.004L285.53 176.746L287.571 178.787L287.049 179.31L285.007 177.268L284.261 178.014L283.822 177.575L285.833 175.564Z" fill="black"/>
<path d="M287.51 175.092C287.519 175.083 287.527 175.076 287.534 175.072C287.541 175.065 287.555 175.052 287.578 175.032L288.069 175.523C288.035 175.55 288.006 175.575 287.981 175.597C287.956 175.62 287.937 175.638 287.922 175.653C287.729 175.846 287.663 176.038 287.722 176.23C287.755 176.338 287.845 176.465 287.992 176.612L288.869 177.489L288.386 177.972L286.552 176.138L287.01 175.68L287.33 176C287.282 175.803 287.262 175.655 287.273 175.555C287.287 175.39 287.366 175.236 287.51 175.092Z" fill="black"/>
<path d="M288.972 174.411C288.861 174.522 288.809 174.644 288.817 174.775C288.826 174.905 288.882 175.037 288.985 175.172L289.731 174.426C289.596 174.307 289.462 174.25 289.327 174.255C289.192 174.257 289.074 174.309 288.972 174.411ZM288.576 174.016C288.729 173.863 288.895 173.754 289.075 173.689C289.255 173.624 289.446 173.613 289.649 173.657C289.83 173.694 290.002 173.773 290.168 173.896C290.264 173.967 290.39 174.083 290.546 174.244L289.29 175.5C289.48 175.678 289.667 175.749 289.85 175.714C289.963 175.694 290.065 175.637 290.158 175.544C290.257 175.445 290.309 175.337 290.315 175.219C290.319 175.155 290.306 175.083 290.278 175.003L290.768 174.513C290.864 174.634 290.918 174.801 290.929 175.015C290.951 175.35 290.82 175.66 290.537 175.943C290.303 176.176 290.022 176.307 289.693 176.335C289.364 176.363 289.031 176.208 288.692 175.869C288.374 175.552 288.211 175.228 288.202 174.898C288.195 174.567 288.32 174.273 288.576 174.016Z" fill="black"/>
<path d="M292.145 174.213L291.666 174.693L289.185 172.212L289.665 171.733L292.145 174.213Z" fill="black"/>
<path d="M293.105 173.253L292.625 173.733L290.145 171.253L290.625 170.773L293.105 173.253Z" fill="black"/>
<path d="M294.06 171.622C294.2 171.481 294.259 171.324 294.234 171.149C294.209 170.974 294.105 170.794 293.921 170.61C293.737 170.426 293.558 170.323 293.384 170.299C293.209 170.274 293.051 170.332 292.911 170.472C292.771 170.613 292.712 170.771 292.736 170.947C292.759 171.121 292.863 171.3 293.047 171.484C293.231 171.668 293.41 171.773 293.586 171.797C293.762 171.821 293.92 171.762 294.06 171.622ZM294.424 170.106C294.694 170.376 294.847 170.684 294.884 171.03C294.92 171.376 294.78 171.707 294.464 172.022C294.149 172.338 293.818 172.477 293.472 172.442C293.126 172.405 292.818 172.252 292.548 171.982C292.284 171.718 292.132 171.411 292.093 171.062C292.054 170.713 292.192 170.381 292.507 170.065C292.823 169.75 293.155 169.612 293.504 169.651C293.853 169.69 294.16 169.842 294.424 170.106Z" fill="black"/>
</g>
<path d="M385.061 167.939L384.198 172.231L388.467 171.345L387.581 175.615L383.289 176.479L384.175 172.208L379.905 173.095L380.791 168.825L385.061 167.939ZM388.123 176.156L389.009 171.886L393.257 171.022L392.393 175.27L388.123 176.156ZM388.445 171.322L389.331 167.052L385.061 167.939L385.925 163.69L390.196 162.804L389.332 167.097L393.602 166.21L392.716 170.481L388.445 171.322Z" fill="#0061FF"/>
<path d="M392.206 160.794L394.303 158.697C395.636 157.364 397.518 157.061 399.345 158.888L399.729 159.272C401.534 161.077 401.341 162.938 399.987 164.293L397.845 166.434L392.206 160.794ZM394.401 160.629L397.988 164.216L398.883 163.321C399.626 162.578 399.632 161.579 398.482 160.428L398.189 160.135C397.061 159.007 396.017 159.013 395.253 159.777L394.401 160.629ZM398.423 156.743L399.362 155.803L400.576 156.711C400.029 155.814 400.082 154.993 400.912 154.163L401.196 153.879L402.415 155.097L401.934 155.578C400.994 156.517 401.092 157.096 402.062 158.066L404.138 160.142L403.002 161.277L398.445 156.721L398.423 156.743ZM403.851 156.053L403.738 155.939C402.204 154.405 402.309 152.632 403.598 151.342C404.887 150.054 406.661 149.948 408.195 151.482L408.308 151.595C409.819 153.107 409.736 154.815 408.403 156.148C407.07 157.481 405.362 157.564 403.851 156.053ZM407.128 152.776L407.015 152.662C406.158 151.805 405.224 151.701 404.568 152.357C403.913 153.012 403.971 153.901 404.874 154.804L404.987 154.917C405.799 155.729 406.688 155.787 407.343 155.132C407.999 154.476 407.94 153.587 407.128 152.776ZM406.551 148.615L407.512 147.654L408.478 148.402C408.295 147.992 408.243 147.54 408.327 147.108C408.412 146.676 408.63 146.285 408.95 145.99C410.087 144.854 411.642 144.967 413.176 146.501L413.312 146.637C414.801 148.125 414.804 149.746 413.756 150.795C413.057 151.494 412.237 151.636 411.5 151.336L413.801 153.637L412.665 154.773L406.529 148.637L406.551 148.615ZM412.131 147.772L412.018 147.659C411.116 146.757 410.206 146.764 409.616 147.354C409.026 147.944 409.064 148.944 409.899 149.778L409.989 149.869C410.802 150.681 411.713 150.762 412.346 150.128C412.98 149.495 412.966 148.607 412.131 147.772ZM416.347 146.263L417.094 147.185L416.111 148.168L410.02 142.078L411.134 140.963L413.481 143.31C413.112 142.46 413.299 141.642 413.998 140.943C415.069 139.916 416.6 139.874 418.111 141.386L418.247 141.521C419.758 143.032 419.895 144.655 418.781 145.77C418.015 146.49 417.174 146.609 416.347 146.263ZM417.067 142.701L416.954 142.588C416.119 141.753 415.208 141.717 414.597 142.328C413.985 142.94 414.068 143.941 414.857 144.73L414.947 144.82C415.805 145.678 416.716 145.759 417.35 145.125C417.983 144.491 417.969 143.603 417.067 142.701ZM418.795 141.108L418.682 140.995C417.148 139.461 417.275 137.665 418.564 136.376C419.853 135.087 421.627 134.982 423.161 136.516L423.274 136.629C424.785 138.141 424.68 139.87 423.369 141.182C422.058 142.492 420.307 142.62 418.795 141.108ZM422.116 137.787L422.003 137.674C421.146 136.817 420.212 136.713 419.556 137.369C418.901 138.024 418.96 138.913 419.862 139.815L419.975 139.928C420.787 140.74 421.676 140.799 422.331 140.144C422.987 139.488 422.928 138.599 422.116 137.787ZM424.601 134.941L420.862 134.304L422.194 132.971L424.466 133.452L423.986 131.18L425.297 129.869L425.912 133.63L429.941 134.338L428.63 135.649L426.114 135.143L426.642 137.637L425.287 138.992L424.601 134.941Z" fill="black"/>
<path d="M389.915 282.982C389.885 281.732 390.11 280.488 390.576 279.328C391.041 278.166 391.739 277.112 392.625 276.23C393.804 275.058 395.272 274.221 396.881 273.804C398.489 273.388 400.179 273.408 401.777 273.861C402.345 272.38 403.222 271.036 404.349 269.919C406.542 267.993 409.385 266.974 412.301 267.067C415.216 267.161 417.987 268.36 420.049 270.422C422.11 272.484 423.31 275.254 423.403 278.17C423.497 281.086 422.477 283.929 420.552 286.122C420.029 286.656 419.454 287.139 418.838 287.562C419.393 289.606 419.153 291.785 418.166 293.662C417.18 295.538 415.521 296.971 413.521 297.674C414.238 299.433 414.407 301.368 414.008 303.226C413.608 305.084 412.658 306.779 411.28 308.09C409.904 309.4 408.164 310.265 406.288 310.573C404.413 310.88 402.489 310.615 400.767 309.812C400.439 310.337 400.047 310.82 399.602 311.252C398.778 312.067 397.801 312.711 396.729 313.149C395.656 313.587 394.507 313.809 393.349 313.804C392.191 313.797 391.045 313.564 389.978 313.115C388.91 312.666 387.941 312.011 387.127 311.188C386.025 310.096 385.227 308.733 384.813 307.236C384.398 305.74 384.382 304.161 384.766 302.656C383.469 302.132 382.292 301.352 381.306 300.361C379.389 298.444 378.312 295.843 378.313 293.131C378.315 290.419 379.393 287.817 381.312 285.899C382.418 284.774 383.773 283.924 385.267 283.417C386.762 282.91 388.354 282.761 389.915 282.982Z" fill="#00A1E0"/>
<path d="M390.489 303.785C390.557 303.853 390.557 303.853 390.592 303.819L390.934 303.75C391.456 303.602 391.93 303.318 392.305 302.927C393.094 302.139 393.163 301.247 392.512 300.597C391.93 300.014 391.141 300.323 390.49 300.7L390.421 300.769C389.907 301.009 389.496 301.215 389.256 300.975C389.016 300.735 389.051 300.427 389.359 300.118C389.696 299.786 390.107 299.539 390.559 299.398C390.559 299.398 390.696 299.329 390.628 299.261C390.559 299.192 390.388 298.747 390.388 298.678C390.388 298.61 390.32 298.61 390.285 298.644C389.749 298.762 389.26 299.036 388.88 299.433L388.811 299.502C388.091 300.222 388.022 301.113 388.639 301.729C389.29 302.38 390.044 302.037 390.661 301.694L390.764 301.591C391.209 301.351 391.655 301.111 391.929 301.385C392.169 301.625 392.135 302.002 391.792 302.345C391.445 302.7 391.006 302.95 390.523 303.065L390.352 303.099C390.283 303.099 390.181 303.134 390.283 303.236L390.523 303.819L390.489 303.785ZM401.7 292.573C401.734 292.676 401.769 292.642 401.769 292.642L402.146 292.539C402.668 292.391 403.141 292.107 403.517 291.716C404.305 290.927 404.34 290.07 403.689 289.42C403.107 288.837 402.353 289.112 401.701 289.489L401.633 289.557C401.119 289.798 400.707 290.003 400.468 289.764C400.228 289.524 400.262 289.215 400.571 288.907C400.911 288.578 401.321 288.332 401.771 288.187C401.785 288.183 401.799 288.177 401.811 288.168C401.822 288.159 401.832 288.148 401.839 288.135C401.845 288.121 401.849 288.107 401.849 288.092C401.849 288.077 401.846 288.063 401.839 288.049C401.739 287.864 401.658 287.669 401.6 287.467L401.531 287.398C400.995 287.516 400.505 287.79 400.126 288.187L400.023 288.29C399.337 288.976 399.268 289.867 399.885 290.484C400.536 291.134 401.255 290.826 401.907 290.448L401.975 290.38C402.455 290.105 402.866 289.9 403.141 290.174C403.38 290.413 403.346 290.79 403.037 291.099C402.691 291.454 402.252 291.704 401.769 291.819L401.563 291.888C401.529 291.854 401.461 291.922 401.495 292.025L401.769 292.573L401.7 292.573ZM408.044 283.626C408.372 283.919 408.609 284.299 408.729 284.722C408.758 284.891 408.747 285.064 408.695 285.227C408.643 285.39 408.553 285.539 408.432 285.66C408.311 285.781 408.163 285.871 408 285.922C407.837 285.974 407.663 285.986 407.495 285.957C407.072 285.836 406.692 285.599 406.398 285.272C406.085 284.987 405.859 284.618 405.748 284.209C405.718 284.041 405.73 283.867 405.782 283.705C405.833 283.541 405.923 283.393 406.045 283.272C406.166 283.151 406.314 283.061 406.477 283.009C406.64 282.957 406.813 282.946 406.982 282.975C407.391 283.086 407.759 283.312 408.044 283.626ZM408.01 282.289C407.742 282.158 407.452 282.077 407.154 282.05C406.864 282.035 406.575 282.07 406.297 282.153C405.996 282.291 405.718 282.476 405.474 282.702C405.245 282.942 405.06 283.22 404.925 283.524C404.827 283.799 404.792 284.092 404.822 284.381C404.85 284.679 404.931 284.969 405.062 285.238C405.371 285.822 405.848 286.299 406.432 286.608C406.707 286.761 407.01 286.854 407.323 286.882C407.605 286.917 407.891 286.869 408.146 286.744C408.461 286.632 408.743 286.443 408.968 286.196C409.212 285.967 409.4 285.686 409.517 285.373C409.629 285.114 409.676 284.832 409.654 284.55C409.627 284.237 409.534 283.934 409.381 283.66C409.02 283.116 408.554 282.65 408.01 282.289ZM415.037 278.825C415.024 278.818 415.01 278.815 414.995 278.815C414.98 278.815 414.965 278.819 414.952 278.825C414.939 278.832 414.927 278.842 414.918 278.853C414.91 278.865 414.903 278.879 414.9 278.894L414.695 279.236L414.317 279.613C414.19 279.75 414.036 279.86 413.866 279.936C413.694 280.013 413.51 280.055 413.323 280.059C412.872 280.005 412.457 279.785 412.158 279.443C411.863 279.154 411.661 278.785 411.576 278.381C411.562 278.189 411.592 277.997 411.663 277.819C411.735 277.641 411.846 277.481 411.988 277.353L412.742 276.735C412.742 276.735 412.811 276.735 412.776 276.633C412.742 276.53 412.605 276.256 412.468 276.05C412.331 275.845 412.4 275.982 412.365 276.016L411.851 276.325L411.371 276.805C411.131 277.056 410.934 277.345 410.788 277.662C410.676 277.945 410.63 278.249 410.651 278.553C410.678 278.85 410.76 279.141 410.89 279.409C411.042 279.701 411.238 279.967 411.473 280.197C411.904 280.685 412.504 280.991 413.152 281.053C413.483 281.06 413.812 280.993 414.115 280.856C414.417 280.72 414.685 280.518 414.9 280.264C415.208 279.961 415.453 279.6 415.62 279.202C415.62 279.202 415.688 279.133 415.586 279.099L415.037 278.825ZM414.696 276.289C414.548 276.079 414.433 275.848 414.353 275.604C414.318 275.436 414.329 275.262 414.383 275.099C414.437 274.937 414.534 274.791 414.662 274.678C414.772 274.545 414.917 274.446 415.081 274.391C415.245 274.336 415.42 274.329 415.588 274.369C415.841 274.419 416.069 274.552 416.239 274.746L414.696 276.289ZM416.41 273.684C416.159 273.571 415.894 273.491 415.622 273.444C415.379 273.44 415.136 273.474 414.903 273.547C414.623 273.657 414.367 273.82 414.148 274.027C413.908 274.279 413.711 274.569 413.565 274.884C413.467 275.159 413.432 275.452 413.462 275.741C413.502 276.051 413.594 276.353 413.736 276.632C414.045 277.216 414.522 277.694 415.106 278.002C415.371 278.144 415.663 278.226 415.963 278.242C416.28 278.251 416.596 278.192 416.888 278.07C417.219 277.889 417.52 277.658 417.78 277.384C418.174 277.025 418.479 276.579 418.671 276.082C418.671 276.082 418.671 276.013 418.569 275.979L418.02 275.705L417.952 275.774C417.798 276.179 417.552 276.543 417.232 276.836C416.97 277.118 416.619 277.3 416.238 277.351C415.872 277.306 415.533 277.137 415.278 276.871L417.438 274.711C417.447 274.702 417.455 274.692 417.459 274.68C417.464 274.668 417.467 274.656 417.467 274.643C417.467 274.63 417.464 274.617 417.459 274.605C417.454 274.594 417.447 274.583 417.438 274.574C417.165 274.227 416.828 273.937 416.445 273.718L416.41 273.684ZM397.416 293.638C397.268 293.427 397.153 293.196 397.073 292.952C397.039 292.784 397.049 292.61 397.103 292.448C397.157 292.285 397.254 292.14 397.382 292.027C397.492 291.893 397.637 291.794 397.801 291.74C397.965 291.685 398.14 291.677 398.308 291.718C398.561 291.768 398.789 291.9 398.959 292.095L397.416 293.638ZM399.13 291.032C398.879 290.919 398.614 290.839 398.342 290.793C398.099 290.788 397.856 290.823 397.623 290.896C397.343 291.006 397.087 291.168 396.868 291.376C396.628 291.627 396.431 291.917 396.285 292.233C396.192 292.521 396.146 292.821 396.148 293.124C396.22 293.42 396.324 293.707 396.456 293.981C396.765 294.564 397.242 295.042 397.826 295.351C398.091 295.493 398.383 295.575 398.683 295.59C399 295.6 399.316 295.541 399.608 295.419C399.94 295.238 400.24 295.006 400.5 294.733C400.894 294.374 401.199 293.927 401.391 293.43C401.391 293.43 401.391 293.362 401.289 293.327L400.74 293.053L400.672 293.122C400.518 293.528 400.272 293.892 399.952 294.185C399.69 294.467 399.339 294.649 398.958 294.699C398.592 294.655 398.253 294.485 397.998 294.22L400.158 292.06C400.176 292.042 400.187 292.017 400.187 291.991C400.187 291.966 400.176 291.941 400.158 291.923C399.885 291.576 399.548 291.285 399.165 291.066L399.13 291.032ZM394.192 299.739L393.952 299.773C393.81 299.724 393.68 299.642 393.575 299.534C393.492 299.456 393.429 299.359 393.393 299.251C393.358 299.144 393.35 299.029 393.37 298.917C393.394 298.765 393.449 298.619 393.531 298.49C393.614 298.36 393.722 298.249 393.85 298.163L394.433 297.58L395.426 298.573L394.912 299.225C394.728 299.471 394.459 299.642 394.157 299.705L394.192 299.739ZM393.507 297.34L393.164 297.683C392.977 297.844 392.825 298.042 392.719 298.266C392.578 298.472 392.484 298.706 392.444 298.952C392.422 299.169 392.433 299.389 392.478 299.603C392.565 299.838 392.706 300.049 392.889 300.219C393.052 300.387 393.252 300.516 393.472 300.596C393.668 300.672 393.88 300.696 394.089 300.664C394.316 300.615 394.535 300.534 394.74 300.424L395.974 299.19L396.42 298.539L396.489 298.333C396.557 298.264 396.454 298.23 396.454 298.23L394.467 296.243C394.312 296.048 394.113 295.892 393.888 295.785C393.662 295.679 393.415 295.624 393.165 295.627C392.658 295.675 392.19 295.922 391.863 296.313L391.383 296.93C391.173 297.205 391.021 297.52 390.937 297.856C390.928 297.864 390.922 297.877 390.923 297.89C390.923 297.903 390.928 297.915 390.937 297.924C390.946 297.933 390.958 297.938 390.971 297.938C390.984 297.938 390.996 297.933 391.005 297.924L391.554 298.198C391.656 298.232 391.656 298.164 391.656 298.164L391.691 298.129C391.836 297.68 392.083 297.269 392.411 296.93C392.592 296.738 392.835 296.616 393.096 296.587C393.302 296.518 393.473 296.621 393.782 296.929L393.85 296.998L393.507 297.34ZM409.828 278.759C409.8 278.734 409.763 278.722 409.725 278.724L409.28 279.033C409.078 279.208 408.924 279.432 408.834 279.684L408.731 280.336L408.457 280.062C408.439 280.043 408.414 280.033 408.389 280.033C408.363 280.033 408.338 280.043 408.32 280.062L407.771 280.61C407.753 280.628 407.743 280.653 407.743 280.679C407.743 280.704 407.753 280.729 407.771 280.747L410.991 283.967C411.009 283.985 411.034 283.996 411.06 283.995C411.085 283.996 411.11 283.985 411.128 283.967L411.711 283.384C411.729 283.366 411.74 283.342 411.74 283.316C411.74 283.29 411.729 283.265 411.711 283.247L410.067 281.603C409.866 281.433 409.703 281.223 409.587 280.986C409.5 280.827 409.442 280.653 409.416 280.472L409.554 280.061L410.102 279.512C410.171 279.512 410.136 279.478 410.136 279.41L409.828 278.759Z" fill="white"/>
<path d="M402.972 282.6L402.698 282.737L402.389 283.045C402.044 283.352 401.835 283.784 401.806 284.245C401.824 284.772 402.017 285.279 402.354 285.684L402.491 285.821L402.011 286.301C402.002 286.31 401.995 286.321 401.99 286.333C401.985 286.345 401.983 286.357 401.983 286.37C401.983 286.383 401.985 286.395 401.99 286.407C401.995 286.419 402.002 286.43 402.011 286.438L402.354 286.987C402.372 287.005 402.396 287.015 402.422 287.015C402.448 287.015 402.472 287.005 402.491 286.987L402.971 286.507L405.197 289.693C405.364 289.902 405.502 290.132 405.608 290.378C405.694 290.514 405.752 290.665 405.779 290.824L405.71 291.166L405.299 291.578L405.093 291.646C405.093 291.646 405.059 291.681 405.093 291.783C405.194 291.968 405.274 292.164 405.333 292.366C405.35 292.386 405.371 292.403 405.394 292.414C405.418 292.426 405.444 292.433 405.47 292.434L405.744 292.297L406.053 291.989C406.25 291.835 406.409 291.637 406.516 291.411C406.624 291.184 406.676 290.936 406.67 290.686C406.646 290.425 406.576 290.17 406.465 289.932C406.313 289.618 406.129 289.319 405.917 289.041L403.622 285.787L404.342 285.067C404.36 285.048 404.371 285.024 404.371 284.998C404.371 284.972 404.36 284.948 404.342 284.93L404 284.381C403.991 284.372 403.98 284.365 403.968 284.36C403.956 284.355 403.944 284.353 403.931 284.353C403.918 284.353 403.906 284.355 403.894 284.36C403.882 284.365 403.871 284.372 403.863 284.381L403.143 285.101C403.177 285.067 402.937 284.827 402.8 284.485C402.754 284.363 402.72 284.236 402.697 284.108L402.8 283.799L403.28 283.319C403.383 283.285 403.349 283.251 403.315 283.216L403.041 282.6C403.041 282.531 402.972 282.531 402.938 282.565L402.972 282.6ZM397.963 296.927C397.997 296.961 398.031 296.996 397.997 297.03L397.414 297.613C397.405 297.622 397.394 297.629 397.383 297.634C397.371 297.639 397.358 297.641 397.346 297.641C397.333 297.641 397.32 297.638 397.308 297.634C397.296 297.629 397.286 297.622 397.277 297.613L392.687 293.022C392.678 293.014 392.67 293.003 392.666 292.991C392.661 292.979 392.658 292.967 392.658 292.954C392.658 292.941 392.66 292.929 392.666 292.917C392.67 292.905 392.678 292.894 392.687 292.885L393.269 292.303C393.304 292.268 393.338 292.302 393.372 292.337L397.963 296.927Z" fill="white"/>
<mask id="mask1_104_2290" style="mask-type:luminance" maskUnits="userSpaceOnUse" x="29" y="141" width="395" height="395">
<path d="M126.371 141.341L29 238.712L325.66 535.373L423.031 438.002L126.371 141.341Z" fill="white"/>
</mask>
<g mask="url(#mask1_104_2290)">
<path d="M126.371 141.341L29 238.712L379.786 589.498L477.157 492.127L126.371 141.341Z" fill="#272727"/>
<path opacity="0.4" d="M233.936 248.906L136.565 346.277L156.091 365.803L253.462 268.432L233.936 248.906Z" fill="#F5F5F5"/>
<mask id="mask2_104_2290" style="mask-type:luminance" maskUnits="userSpaceOnUse" x="135" y="306" width="22" height="22">
<path d="M145.835 306.862L135.549 317.147L145.826 327.424L156.112 317.139L145.835 306.862Z" fill="white"/>
</mask>
<g mask="url(#mask2_104_2290)">
<mask id="mask3_104_2290" style="mask-type:luminance" maskUnits="userSpaceOnUse" x="136" y="308" width="19" height="18">
<path d="M145.378 308.004L136.692 316.69L145.37 325.368L154.056 316.683L145.378 308.004Z" fill="white"/>
</mask>
<g mask="url(#mask3_104_2290)">
<path d="M148.812 311.623L141.683 312.729C141.545 312.75 141.437 312.858 141.416 312.995L140.311 320.124C140.284 320.298 140.403 320.461 140.577 320.488C140.751 320.515 140.914 320.396 140.941 320.221L142.011 313.323L148.909 312.254C148.979 312.243 149.039 312.21 149.086 312.164C149.155 312.095 149.192 311.994 149.176 311.89C149.149 311.716 148.986 311.596 148.812 311.623Z" fill="white"/>
<path d="M148.136 313.129C148.011 313.254 148.011 313.456 148.136 313.581L151.725 317.17L149.92 318.975L147.961 317.016C147.339 316.394 146.327 316.394 145.704 317.017C145.082 317.639 145.082 318.651 145.704 319.273L147.663 321.232L145.857 323.037L142.268 319.448C142.144 319.324 141.942 319.324 141.817 319.448C141.692 319.573 141.692 319.775 141.817 319.9L145.631 323.714C145.756 323.839 145.958 323.838 146.083 323.714L148.339 321.457C148.458 321.338 148.464 321.15 148.356 321.024C148.352 321.019 148.346 321.012 148.34 321.006L146.155 318.821C145.782 318.448 145.782 317.841 146.156 317.468C146.529 317.094 147.136 317.094 147.509 317.467L149.694 319.652C149.7 319.658 149.706 319.664 149.712 319.668C149.837 319.776 150.026 319.77 150.145 319.651L152.402 317.395C152.526 317.27 152.527 317.068 152.402 316.944L148.587 313.129C148.463 313.005 148.261 313.004 148.136 313.129Z" fill="white"/>
</g>
</g>
<path d="M168.501 334.137L168.654 334.24L168.795 334.118C169.773 333.267 171.244 333.299 172.169 334.224C173.138 335.194 173.138 336.767 172.168 337.737L167.153 342.752C165.971 343.934 164.051 343.935 162.87 342.753C162.342 342.226 162.028 341.522 161.988 340.777C161.948 340.032 162.185 339.298 162.653 338.716L162.735 338.615L162.696 338.491C162.279 337.167 162.596 335.662 163.644 334.614C164.274 333.984 165.102 333.592 165.987 333.505C166.873 333.418 167.761 333.641 168.501 334.137Z" stroke="white"/>
<path d="M187.713 351.14L191.42 354.847C191.921 355.348 191.93 356.163 191.428 356.665L185.353 362.741C184.851 363.243 184.036 363.234 183.534 362.732L179.828 359.026C179.326 358.524 179.327 357.718 179.828 357.216L185.904 351.141C186.406 350.639 187.212 350.639 187.713 351.14Z" stroke="white" stroke-width="0.8" stroke-miterlimit="10" stroke-linecap="round" stroke-linejoin="round"/>
<path d="M183.376 359.325C182.389 360.155 180.909 360.107 179.98 359.179L179.826 359.024C179.326 358.524 179.326 357.716 179.827 357.215L180.904 356.138L181.318 355.724L184.483 352.559L184.898 352.144L185.902 351.14C186.403 350.639 187.212 350.639 187.712 351.139L187.866 351.293C188.794 352.221 188.842 353.701 188.013 354.688" stroke="white" stroke-width="0.8" stroke-miterlimit="10" stroke-linecap="round" stroke-linejoin="round"/>
<path d="M187.162 355.553L184.241 358.475" stroke="white" stroke-width="0.8" stroke-miterlimit="10" stroke-linecap="round" stroke-linejoin="round"/>
<path d="M188.022 355.555C187.786 355.792 187.402 355.792 187.166 355.556L186.737 355.127L187.594 354.27L188.023 354.699C188.259 354.935 188.259 355.319 188.022 355.555Z" stroke="white" stroke-width="0.8" stroke-miterlimit="10" stroke-linecap="round" stroke-linejoin="round"/>
<path d="M184.243 359.335C184.006 359.572 183.623 359.572 183.386 359.335L182.958 358.907L183.815 358.05L184.243 358.478C184.48 358.715 184.48 359.098 184.243 359.335Z" stroke="white" stroke-width="0.8" stroke-miterlimit="10" stroke-linecap="round" stroke-linejoin="round"/>
<path d="M181.478 355.567C181.033 355.122 181.046 354.388 181.507 353.926L182.685 352.748C183.147 352.286 183.881 352.274 184.326 352.719" stroke="white" stroke-width="0.8" stroke-miterlimit="10" stroke-linecap="round" stroke-linejoin="round"/>
<path d="M185.197 357.524L187.883 360.21" stroke="white" stroke-width="0.8" stroke-miterlimit="10" stroke-linecap="round" stroke-linejoin="round"/>
<path d="M186.212 356.51L188.898 359.196" stroke="white" stroke-width="0.8" stroke-miterlimit="10" stroke-linecap="round" stroke-linejoin="round"/>
<path d="M60.3509 241.949L65.3126 246.911L69.158 232.68L64.4277 227.949L60.3509 241.949Z" fill="#F5F5F5"/>
<path d="M73.9441 237.433L69.1743 232.663L75.5961 230.87L80.3207 235.595L73.9441 237.433Z" fill="#F5F5F5"/>
<path d="M76.7526 248.51L78.6181 242.106L73.9443 237.433L72.0498 243.764L76.7526 248.51Z" fill="#F5F5F5"/>
<path d="M81.7305 221.199L85.8811 217.048L86.9456 218.113L84.0104 221.048L85.4037 222.441L87.9734 219.871L89.0256 220.924L86.4559 223.493L88.9959 226.033L87.7805 227.249L81.7305 221.199Z" fill="#F5F5F5"/>
<path d="M88.8114 216.189L87.6635 217.337L86.5825 216.256L87.7304 215.108L88.8114 216.189ZM88.1978 217.872L89.3457 216.724L93.8256 221.204L92.6778 222.352L88.1978 217.872Z" fill="#F5F5F5"/>
<path d="M96.0816 218.948L94.9498 220.08L88.8916 214.021L90.0234 212.89L96.0816 218.948Z" fill="#F5F5F5"/>
<path d="M95.2641 212.499C95.0022 212.761 94.8831 213.05 94.9073 213.365C94.9342 213.678 95.0746 213.998 95.328 214.325L97.0875 212.566C96.759 212.275 96.4335 212.132 96.1104 212.137C95.7873 212.137 95.5052 212.258 95.2641 212.499ZM94.2983 211.533C94.6586 211.172 95.0528 210.918 95.4813 210.769C95.9093 210.62 96.3682 210.603 96.8578 210.716C97.293 210.812 97.7113 211.011 98.1121 211.311C98.3467 211.488 98.6546 211.771 99.0359 212.163L96.0729 215.126C96.538 215.559 96.9896 215.738 97.4272 215.662C97.6956 215.619 97.94 215.486 98.1597 215.267C98.3925 215.034 98.5136 214.776 98.522 214.493C98.5276 214.34 98.4951 214.167 98.4243 213.975L99.58 212.819C99.8167 213.114 99.9529 213.517 99.9886 214.03C100.054 214.836 99.7524 215.573 99.0852 216.24C98.5345 216.791 97.8651 217.093 97.0769 217.147C96.2888 217.201 95.4809 216.814 94.6534 215.986C93.878 215.211 93.4727 214.427 93.4374 213.635C93.4053 212.84 93.6921 212.139 94.2983 211.533Z" fill="#F5F5F5"/>
<path d="M100.824 210.465C101.138 210.704 101.418 210.838 101.663 210.867C102.111 210.918 102.576 210.702 103.058 210.22C103.347 209.932 103.548 209.664 103.662 209.418C103.878 208.951 103.814 208.546 103.472 208.203C103.272 208.003 103.032 207.933 102.753 207.993C102.477 208.056 102.116 208.227 101.671 208.508L100.908 208.984C100.156 209.45 99.5806 209.716 99.1803 209.782C98.5066 209.897 97.8721 209.657 97.2775 209.063C96.7349 208.52 96.4748 207.879 96.4971 207.139C96.5194 206.399 96.9002 205.659 97.639 204.92C98.2558 204.303 98.9513 203.948 99.7255 203.853C100.499 203.753 101.219 204.015 101.884 204.637L100.708 205.813C100.323 205.47 99.9101 205.364 99.4707 205.497C99.1787 205.586 98.8911 205.772 98.6076 206.056C98.2925 206.371 98.1069 206.688 98.0502 207.008C97.9938 207.327 98.0835 207.605 98.3191 207.84C98.5356 208.057 98.7898 208.126 99.0822 208.047C99.2724 208 99.6104 207.829 100.095 207.535L101.355 206.778C101.907 206.445 102.387 206.258 102.796 206.216C103.43 206.152 104.017 206.389 104.557 206.929C105.111 207.483 105.366 208.148 105.322 208.926C105.279 209.698 104.884 210.457 104.137 211.204C103.375 211.967 102.596 212.387 101.8 212.465C101.001 212.54 100.287 212.263 99.6564 211.632L100.824 210.465Z" fill="#F5F5F5"/>
<path d="M106.855 202.428C106.667 202.282 106.462 202.185 106.24 202.139C105.932 202.085 105.645 202.192 105.377 202.459C104.996 202.84 104.931 203.297 105.183 203.829C105.317 204.112 105.556 204.426 105.902 204.771C106.23 205.1 106.532 205.327 106.806 205.453C107.314 205.69 107.754 205.622 108.128 205.249C108.392 204.984 108.507 204.722 108.47 204.463C108.433 204.204 108.309 203.945 108.097 203.685L109.253 202.529C109.582 202.912 109.795 203.374 109.89 203.914C110.048 204.781 109.779 205.563 109.082 206.259C108.386 206.956 107.66 207.254 106.904 207.155C106.148 207.056 105.429 206.665 104.747 205.983C103.977 205.213 103.56 204.433 103.495 203.643C103.43 202.853 103.717 202.138 104.355 201.5C104.898 200.958 105.467 200.64 106.064 200.548C106.663 200.453 107.313 200.693 108.015 201.268L106.855 202.428Z" fill="#F5F5F5"/>
<path d="M107.82 197.181L106.672 198.329L105.591 197.248L106.739 196.1L107.82 197.181ZM107.207 198.863L108.354 197.715L112.834 202.195L111.687 203.343L107.207 198.863Z" fill="#F5F5F5"/>
<path d="M112.009 195.754C111.747 196.016 111.628 196.305 111.652 196.62C111.679 196.933 111.819 197.253 112.073 197.581L113.832 195.821C113.504 195.53 113.178 195.387 112.855 195.392C112.532 195.392 112.25 195.513 112.009 195.754ZM111.043 194.788C111.403 194.428 111.797 194.173 112.226 194.024C112.654 193.875 113.113 193.858 113.602 193.971C114.038 194.068 114.456 194.266 114.857 194.566C115.092 194.743 115.399 195.027 115.78 195.418L112.818 198.381C113.283 198.815 113.734 198.994 114.172 198.918C114.441 198.874 114.685 198.742 114.904 198.522C115.138 198.289 115.258 198.031 115.267 197.748C115.272 197.595 115.24 197.422 115.169 197.23L116.325 196.074C116.562 196.369 116.698 196.772 116.734 197.285C116.799 198.091 116.497 198.828 115.83 199.495C115.279 200.046 114.61 200.348 113.822 200.402C113.033 200.456 112.226 200.069 111.398 199.242C110.623 198.466 110.218 197.682 110.182 196.89C110.15 196.095 110.437 195.394 111.043 194.788Z" fill="#F5F5F5"/>
<path d="M116.274 189.581C116.722 189.134 117.209 188.89 117.736 188.851C118.263 188.806 118.808 189.064 119.369 189.626L122.386 192.643L121.226 193.803L118.501 191.078C118.266 190.842 118.055 190.691 117.868 190.626C117.526 190.507 117.199 190.604 116.887 190.917C116.503 191.301 116.408 191.733 116.602 192.213C116.706 192.465 116.896 192.729 117.173 193.006L119.598 195.431L118.47 196.559L113.998 192.087L115.091 190.995L115.744 191.648C115.659 191.273 115.631 190.969 115.66 190.738C115.712 190.324 115.917 189.939 116.274 189.581Z" fill="#F5F5F5"/>
<path d="M123.147 186.136C122.959 185.99 122.754 185.893 122.532 185.847C122.224 185.793 121.937 185.9 121.669 186.167C121.288 186.548 121.223 187.005 121.475 187.537C121.609 187.82 121.848 188.134 122.194 188.479C122.522 188.808 122.824 189.035 123.098 189.161C123.606 189.399 124.046 189.331 124.42 188.957C124.684 188.692 124.798 188.431 124.762 188.171C124.725 187.912 124.601 187.653 124.389 187.393L125.545 186.237C125.874 186.62 126.087 187.082 126.182 187.622C126.34 188.489 126.071 189.271 125.374 189.967C124.678 190.664 123.952 190.962 123.196 190.863C122.44 190.764 121.721 190.373 121.039 189.691C120.269 188.921 119.852 188.141 119.787 187.351C119.722 186.561 120.009 185.846 120.647 185.208C121.19 184.666 121.759 184.348 122.356 184.256C122.955 184.161 123.605 184.401 124.307 184.976L123.147 186.136Z" fill="#F5F5F5"/>
<path d="M126.037 181.725C125.775 181.988 125.656 182.277 125.681 182.592C125.708 182.905 125.848 183.225 126.101 183.552L127.86 181.793C127.532 181.502 127.206 181.359 126.883 181.364C126.56 181.364 126.278 181.485 126.037 181.725ZM125.072 180.759C125.432 180.399 125.826 180.145 126.254 179.996C126.683 179.847 127.141 179.829 127.631 179.943C128.066 180.039 128.484 180.238 128.885 180.538C129.12 180.715 129.428 180.998 129.809 181.39L126.846 184.353C127.311 184.787 127.763 184.965 128.2 184.889C128.469 184.845 128.713 184.714 128.933 184.494C129.166 184.261 129.287 184.003 129.295 183.72C129.301 183.567 129.268 183.394 129.198 183.201L130.353 182.046C130.59 182.341 130.726 182.744 130.762 183.256C130.827 184.063 130.526 184.8 129.858 185.467C129.307 186.018 128.638 186.32 127.85 186.374C127.062 186.428 126.254 186.041 125.426 185.213C124.651 184.438 124.246 183.654 124.211 182.862C124.178 182.067 124.465 181.366 125.072 180.759Z" fill="#F5F5F5"/>
<path d="M157.243 300.743C158.896 299.091 160.986 299.535 162.226 300.803C163.452 302.057 163.931 304.058 162.244 305.745C160.558 307.432 158.563 307.001 157.303 305.74C156.042 304.479 155.584 302.403 157.243 300.743ZM158.065 301.566C156.934 302.697 157.379 304.074 158.208 304.862C159.016 305.63 160.284 306.047 161.415 304.916C162.547 303.784 162.122 302.51 161.348 301.708C160.553 300.886 159.197 300.434 158.065 301.566ZM164.408 296.592L165.32 295.68L167.279 300.519L166.374 301.424L161.528 299.472L162.44 298.56L164.023 299.211L165.97 300.115L165.073 298.189L164.408 296.592ZM171.074 293.914L168.434 296.554C168.907 296.918 169.572 296.856 170.161 296.266C170.47 295.957 170.758 295.436 170.751 295.046L171.814 295.038C171.827 295.765 171.422 296.526 170.908 297.04C169.742 298.206 168.33 298.179 167.248 297.096C166.22 296.069 166.18 294.629 167.277 293.532C168.408 292.401 169.813 292.393 171.074 293.914ZM167.756 295.849L169.58 294.025C169.086 293.641 168.524 293.765 168.044 294.245C167.592 294.697 167.441 295.287 167.756 295.849ZM169.732 291.283L170.507 290.508L170.959 290.837C170.802 290.158 171.09 289.747 171.433 289.404C171.782 289.054 172.255 288.855 172.625 288.855L172.975 289.958C172.659 289.986 172.426 290.068 172.152 290.343C171.713 290.781 171.541 291.419 172.165 292.042L173.946 293.824L173.11 294.66L169.732 291.283ZM175.504 285.497L176.416 284.585L178.374 289.423L177.469 290.328L172.624 288.377L173.536 287.465L175.119 288.115L177.066 289.019L176.168 287.093L175.504 285.497ZM177.653 283.334L181.044 286.726L180.208 287.562L176.816 284.171L177.653 283.334ZM175.802 283.308C176.453 283.959 177.441 282.971 176.79 282.32C176.139 281.669 175.151 282.657 175.802 283.308ZM183.764 281.225L181.124 283.865C181.596 284.228 182.261 284.166 182.851 283.576C183.16 283.267 183.448 282.746 183.441 282.356L184.503 282.348C184.517 283.075 184.112 283.836 183.598 284.35C182.432 285.516 181.02 285.489 179.938 284.407C178.91 283.379 178.869 281.94 179.967 280.842C181.098 279.711 182.503 279.704 183.764 281.225ZM180.445 283.159L182.269 281.335C181.776 280.951 181.214 281.075 180.734 281.555C180.281 282.008 180.13 282.597 180.445 283.159ZM184.653 276.348L185.387 275.614L188.669 277.415L186.902 274.098L187.828 273.173L190.047 277.75L189.073 278.724L187.723 278.073L186.291 277.245L187.12 278.677L187.77 280.027L186.797 281.001L182.212 278.789L183.145 277.856L186.461 279.623L184.653 276.348Z" fill="#F5F5F5"/>
<path d="M184.245 324.632L182.936 324.133L180.427 326.642L180.92 327.958L179.939 328.939L177.296 321.99L178.284 321.002L185.233 323.645L184.245 324.632ZM181.73 323.653L178.797 322.503L179.948 325.436L181.73 323.653ZM184.36 317.749L185.272 316.837L187.23 321.675L186.325 322.58L181.48 320.629L182.392 319.717L183.975 320.368L185.921 321.271L185.024 319.346L184.36 317.749ZM188.805 314.249L188.367 313.756L189.169 312.954L192.547 316.331L191.758 317.12L191.224 316.668C191.429 317.257 191.093 317.977 190.723 318.361C189.728 319.369 188.371 319.493 187.186 318.307C186.021 317.143 186.186 315.758 187.18 314.778C187.633 314.325 188.277 314.105 188.805 314.249ZM188.003 315.449C187.447 316.004 187.378 316.827 188.022 317.471C188.666 318.115 189.496 318.053 190.051 317.497C191.368 316.181 189.319 314.132 188.003 315.449ZM190.7 311.395L194.092 314.786L193.255 315.623L189.864 312.231L190.7 311.395ZM188.85 311.368C189.5 312.019 190.488 311.032 189.837 310.381C189.186 309.73 188.199 310.717 188.85 311.368ZM190.06 309.24L190.89 308.41L195.679 313.199L194.849 314.029L190.06 309.24ZM196.151 306.903L195.712 306.41L196.515 305.608L199.892 308.986L199.104 309.774L198.569 309.322C198.775 309.911 198.439 310.631 198.068 311.015C197.074 312.023 195.717 312.147 194.532 310.962C193.367 309.797 193.532 308.412 194.526 307.432C194.979 306.979 195.623 306.76 196.151 306.903ZM195.348 308.103C194.793 308.659 194.724 309.481 195.368 310.125C196.012 310.769 196.841 310.707 197.397 310.152C198.713 308.835 196.665 306.787 195.348 308.103ZM199.727 303.793C199.199 304.321 199.144 305.171 199.733 305.76C200.343 306.37 201.179 306.301 201.707 305.773C202.242 305.238 202.263 304.409 201.674 303.819C201.064 303.21 200.262 303.258 199.727 303.793ZM195.745 303.555L196.582 302.718L198.452 304.588C198.302 304.04 198.665 303.293 199.022 302.936C200.009 301.949 201.346 301.818 202.51 302.983C203.62 304.093 203.531 305.498 202.536 306.492C202.125 306.904 201.57 307.185 200.905 307.041L201.316 307.562L200.534 308.344L195.745 303.555ZM200.031 299.269L200.861 298.439L205.65 303.228L204.82 304.058L200.031 299.269ZM208.342 297.754L205.702 300.394C206.175 300.757 206.84 300.695 207.43 300.105C207.738 299.797 208.026 299.276 208.02 298.885L209.082 298.878C209.095 299.604 208.691 300.365 208.176 300.88C207.011 302.045 205.599 302.019 204.516 300.936C203.488 299.908 203.448 298.469 204.545 297.372C205.677 296.24 207.082 296.233 208.342 297.754ZM205.024 299.688L206.848 297.864C206.355 297.481 205.792 297.604 205.312 298.084C204.86 298.537 204.709 299.126 205.024 299.688ZM214.213 292.212L215.454 292.218C215.446 293.198 215.035 294.062 214.342 294.755C212.559 296.538 210.579 296.066 209.325 294.826C208.064 293.579 207.606 291.489 209.341 289.753C209.992 289.102 210.856 288.731 211.836 288.724L211.815 289.91C211.191 289.917 210.622 290.198 210.204 290.617C209.045 291.776 209.408 293.139 210.216 293.934C211.018 294.722 212.306 295.092 213.493 293.905C213.911 293.487 214.213 292.843 214.213 292.212ZM211.649 287.651L212.479 286.821L217.268 291.61L216.438 292.44L211.649 287.651ZM216.143 285.843C217.219 284.766 218.707 284.868 219.673 285.834C220.646 286.807 220.768 288.26 219.671 289.357C218.574 290.454 217.128 290.325 216.155 289.352C215.189 288.386 215.066 286.919 216.143 285.843ZM216.91 286.596C216.307 287.2 216.485 288.008 216.992 288.515C217.505 289.029 218.294 289.2 218.904 288.59C219.514 287.98 219.343 287.192 218.829 286.678C218.322 286.171 217.472 286.034 216.91 286.596ZM218.578 283.544L219.415 282.707L221.183 284.475C221.696 284.989 222.368 285.098 222.903 284.563C223.417 284.049 223.335 283.268 222.822 282.754L221.095 281.027L221.925 280.198L225.309 283.582L224.562 284.33L224.048 283.926C224.041 284.618 223.883 285.105 223.41 285.578C222.601 286.387 221.401 286.367 220.353 285.319L218.578 283.544ZM225.001 278.52C224.466 279.054 224.417 279.856 225.027 280.466C225.616 281.055 226.446 281.034 226.981 280.5C227.509 279.972 227.577 279.135 226.968 278.526C226.379 277.936 225.529 277.992 225.001 278.52ZM223.926 275.374L224.762 274.537L229.551 279.326L228.77 280.108L228.249 279.697C228.393 280.362 228.111 280.917 227.7 281.329C226.706 282.323 225.301 282.413 224.191 281.303C223.026 280.138 223.157 278.801 224.144 277.814C224.501 277.457 225.248 277.094 225.796 277.244L223.926 275.374ZM229.925 272.896L230.007 273.91C229.541 273.924 229.191 274.123 228.869 274.446C228.471 274.843 228.375 275.186 228.588 275.398C228.807 275.618 229.129 275.542 229.588 275.137C230.267 274.541 231.22 273.876 232.118 274.773C232.714 275.369 232.741 276.37 231.774 277.337C231.239 277.872 230.615 278.317 229.608 278.297L229.423 277.29C229.93 277.317 230.678 276.967 231.062 276.597C231.384 276.288 231.514 275.829 231.268 275.582C231.035 275.349 230.747 275.445 230.239 275.898C229.554 276.488 228.56 277.016 227.792 276.249C227.011 275.468 227.546 274.384 228.163 273.767C228.691 273.239 229.192 272.944 229.925 272.896Z" fill="#F5F5F5"/>
<path d="M196.638 340.138C198.291 338.485 200.381 338.93 201.621 340.197C202.847 341.451 203.326 343.452 201.639 345.139C199.953 346.826 197.958 346.395 196.698 345.135C195.437 343.874 194.979 341.797 196.638 340.138ZM197.46 340.96C196.329 342.091 196.774 343.469 197.603 344.257C198.411 345.024 199.679 345.442 200.81 344.31C201.942 343.179 201.517 341.904 200.743 341.103C199.949 340.28 198.592 339.829 197.46 340.96ZM201.218 338.586L201.993 337.811L202.445 338.14C202.288 337.461 202.576 337.05 202.919 336.707C203.269 336.357 203.742 336.158 204.112 336.158L204.461 337.262C204.146 337.289 203.912 337.372 203.638 337.646C203.199 338.085 203.028 338.722 203.651 339.346L205.433 341.127L204.596 341.964L201.218 338.586ZM206.591 333.377L206.503 332.616L207.586 332.465L207.688 333.322C208.243 333.356 208.675 333.596 209.045 333.966C209.463 334.383 209.894 335.13 209.592 335.939C210.436 335.658 210.977 335.925 211.409 336.357C212.34 337.288 212.203 338.577 211.222 339.558C210.242 340.538 208.912 340.676 208.001 339.765L208.83 338.935C209.269 339.373 209.961 339.257 210.441 338.777C210.921 338.297 211.038 337.659 210.572 337.193C210.106 336.727 209.455 336.954 209.037 337.372C207.981 338.428 206.678 338.442 205.623 337.387C204.568 336.332 204.678 334.906 205.625 333.96C205.892 333.693 206.201 333.453 206.591 333.377ZM206.385 334.721C205.898 335.207 205.864 335.968 206.453 336.558C207.042 337.147 207.789 337.098 208.276 336.612C208.756 336.132 208.798 335.378 208.215 334.795C207.633 334.213 206.865 334.241 206.385 334.721ZM211.095 329.641L210.656 329.148L211.458 328.346L214.836 331.723L214.047 332.512L213.513 332.06C213.718 332.649 213.382 333.369 213.012 333.753C212.018 334.761 210.66 334.885 209.475 333.7C208.31 332.535 208.476 331.15 209.47 330.17C209.922 329.717 210.567 329.498 211.095 329.641ZM210.292 330.841C209.737 331.397 209.668 332.219 210.312 332.863C210.956 333.507 211.785 333.445 212.341 332.89C213.657 331.573 211.609 329.525 210.292 330.841ZM218.87 327.689L218.034 328.526L216.266 326.758C215.752 326.244 215.081 326.135 214.546 326.67C214.032 327.184 214.113 327.965 214.627 328.479L216.354 330.206L215.524 331.035L212.14 327.651L212.887 326.903L213.401 327.308C213.408 326.629 213.58 326.115 214.005 325.69C214.8 324.894 216.034 324.853 217.096 325.915L218.87 327.689ZM217.035 322.742L220.426 326.134L219.589 326.97L216.198 323.579L217.035 322.742ZM215.184 322.716C215.835 323.366 216.822 322.379 216.171 321.728C215.52 321.077 214.533 322.065 215.184 322.716ZM220.829 319.674L220.911 320.688C220.445 320.702 220.095 320.901 219.773 321.223C219.375 321.621 219.279 321.964 219.491 322.176C219.711 322.396 220.033 322.32 220.492 321.915C221.171 321.319 222.124 320.654 223.022 321.551C223.618 322.147 223.645 323.148 222.678 324.115C222.143 324.65 221.519 325.095 220.511 325.075L220.327 324.068C220.834 324.095 221.581 323.745 221.965 323.375C222.287 323.066 222.418 322.607 222.171 322.36C221.938 322.127 221.65 322.223 221.143 322.676C220.457 323.266 219.463 323.794 218.696 323.027C217.915 322.246 218.45 321.162 219.067 320.545C219.595 320.017 220.096 319.722 220.829 319.674ZM224.293 316.443L223.855 315.95L224.657 315.147L228.035 318.525L227.246 319.313L226.712 318.861C226.917 319.451 226.581 320.171 226.211 320.555C225.216 321.563 223.859 321.686 222.674 320.501C221.509 319.336 221.674 317.952 222.668 316.971C223.121 316.519 223.765 316.299 224.293 316.443ZM223.491 317.643C222.935 318.198 222.866 319.021 223.51 319.665C224.154 320.309 224.984 320.247 225.539 319.691C226.856 318.375 224.807 316.326 223.491 317.643ZM224.698 313.38L225.445 312.454L226.404 313.413L227.337 312.481L228.056 313.2L227.117 314.14L228.576 315.599C228.898 315.921 229.234 315.9 229.495 315.64C229.625 315.509 229.735 315.317 229.797 315.132L230.742 315.612C230.598 315.948 230.44 316.188 230.194 316.448C229.487 317.209 228.589 317.271 227.747 316.429L226.287 314.969L225.656 315.6L224.937 314.881L225.568 314.25L224.698 313.38ZM228.78 310.997L232.171 314.388L231.335 315.225L227.943 311.834L228.78 310.997ZM226.929 310.97C227.58 311.621 228.567 310.634 227.917 309.983C227.266 309.332 226.278 310.319 226.929 310.97ZM231.147 308.52C232.223 307.444 233.711 307.546 234.677 308.512C235.65 309.485 235.772 310.938 234.675 312.035C233.578 313.132 232.132 313.002 231.159 312.03C230.193 311.064 230.07 309.597 231.147 308.52ZM231.914 309.274C231.311 309.877 231.489 310.686 231.996 311.193C232.51 311.707 233.298 311.878 233.908 311.268C234.518 310.657 234.347 309.869 233.833 309.355C233.326 308.848 232.477 308.712 231.914 309.274ZM240.265 306.294L239.429 307.131L237.661 305.363C237.147 304.849 236.476 304.74 235.941 305.275C235.426 305.789 235.508 306.57 236.022 307.084L237.749 308.811L236.919 309.64L233.534 306.256L234.282 305.509L234.796 305.913C234.803 305.234 234.975 304.72 235.4 304.295C236.195 303.499 237.429 303.458 238.491 304.52L240.265 306.294Z" fill="#F5F5F5"/>
<path d="M217.931 364.215L219.164 365.448L220.549 364.063C220.919 363.692 221.324 363.041 220.872 362.589C220.44 362.157 219.686 362.459 219.316 362.829L217.931 364.215ZM216.033 362.317L217.136 363.42L218.521 362.035C219.09 361.466 219.035 361.041 218.761 360.767C218.542 360.547 217.994 360.356 217.418 360.932L216.033 362.317ZM216.596 360.109C217.542 359.163 218.673 358.882 219.639 359.848C220.009 360.218 220.187 360.752 219.94 361.397C220.674 361.006 221.475 361.396 221.777 361.697C222.846 362.766 222.386 363.911 221.392 364.905C220.63 365.667 219.876 366.421 219.115 367.182L214.319 362.386C215.073 361.632 215.835 360.871 216.596 360.109ZM221.207 358.308L224.598 361.699L223.761 362.536L220.37 359.144L221.207 358.308ZM219.356 358.281C220.007 358.932 220.994 357.944 220.343 357.294C219.693 356.643 218.705 357.63 219.356 358.281ZM220.566 356.153L221.396 355.323L226.185 360.112L225.355 360.942L220.566 356.153ZM222.127 354.592L222.956 353.763L227.745 358.552L226.916 359.381L222.127 354.592ZM225.921 353.593L229.312 356.985L228.476 357.821L225.084 354.43L225.921 353.593ZM224.07 353.567C224.721 354.218 225.709 353.23 225.058 352.579C224.407 351.928 223.419 352.916 224.07 353.567ZM233.395 352.902L232.559 353.738L230.791 351.971C230.277 351.457 229.606 351.347 229.071 351.882C228.556 352.397 228.638 353.178 229.152 353.692L230.879 355.418L230.049 356.248L226.665 352.863L227.412 352.116L227.926 352.52C227.933 351.842 228.105 351.327 228.53 350.902C229.325 350.107 230.559 350.065 231.621 351.127L233.395 352.902ZM233.137 346.57L233.048 345.809L234.131 345.657L234.233 346.514C234.788 346.548 235.22 346.788 235.59 347.158C236.008 347.576 236.44 348.323 236.138 349.132C236.981 348.85 237.522 349.117 237.954 349.549C238.886 350.481 238.748 351.769 237.767 352.75C236.787 353.731 235.457 353.868 234.546 352.957L235.375 352.127C235.814 352.566 236.506 352.449 236.986 351.969C237.466 351.489 237.583 350.852 237.117 350.386C236.651 349.92 236 350.146 235.582 350.564C234.526 351.62 233.223 351.635 232.168 350.58C231.113 349.525 231.224 348.099 232.17 347.153C232.437 346.885 232.746 346.645 233.137 346.57ZM232.93 347.913C232.443 348.4 232.409 349.161 232.998 349.75C233.587 350.339 234.334 350.291 234.821 349.804C235.301 349.324 235.343 348.57 234.76 347.988C234.178 347.405 233.41 347.433 232.93 347.913Z" fill="#F5F5F5"/>
<path d="M210.003 380.405L209.092 381.316C208.762 381.645 208.227 381.645 207.897 381.316L207.249 380.668C207.034 380.777 206.811 380.869 206.581 380.945L206.58 381.862C206.58 382.328 206.201 382.707 205.735 382.707L204.448 382.708C203.982 382.708 203.603 382.329 203.603 381.864L203.604 380.946C203.374 380.871 203.15 380.778 202.935 380.67L202.286 381.319C201.957 381.648 201.421 381.648 201.092 381.319L200.182 380.409C199.853 380.08 199.853 379.544 200.182 379.214L200.831 378.566C200.722 378.351 200.63 378.127 200.555 377.897L199.637 377.897C199.172 377.898 198.793 377.519 198.793 377.053L198.794 375.766C198.794 375.3 199.173 374.921 199.639 374.921L200.556 374.92C200.631 374.69 200.724 374.466 200.833 374.252L200.185 373.604C199.856 373.274 199.856 372.738 200.185 372.409L201.096 371.498C201.426 371.169 201.962 371.168 202.291 371.498L202.939 372.146C203.154 372.037 203.377 371.944 203.608 371.869L203.608 370.951C203.608 370.486 203.987 370.107 204.453 370.106L205.741 370.106C206.206 370.106 206.585 370.485 206.585 370.95L206.584 371.868C206.814 371.943 207.038 372.035 207.253 372.144L207.902 371.495C208.231 371.166 208.767 371.166 209.096 371.495L210.006 372.405C210.335 372.734 210.335 373.27 210.006 373.599L209.357 374.248C209.466 374.463 209.558 374.687 209.633 374.917L210.551 374.916C211.016 374.916 211.395 375.295 211.395 375.76L211.395 377.048C211.394 377.514 211.015 377.893 210.55 377.893L209.632 377.893C209.557 378.123 209.464 378.347 209.355 378.562L210.003 379.21C210.332 379.539 210.332 380.075 210.003 380.405ZM206.152 380.582C206.182 380.552 206.219 380.529 206.261 380.518C206.58 380.427 206.887 380.3 207.173 380.14C207.271 380.085 207.394 380.102 207.473 380.182L208.252 380.961C208.386 381.095 208.603 381.094 208.737 380.961L209.648 380.05C209.782 379.916 209.782 379.699 209.648 379.565L208.869 378.786C208.79 378.707 208.772 378.584 208.827 378.486C208.987 378.199 209.115 377.893 209.205 377.574C209.235 377.466 209.334 377.392 209.446 377.392L210.55 377.391C210.739 377.391 210.892 377.237 210.892 377.048L210.893 375.761C210.893 375.572 210.739 375.418 210.55 375.418L209.447 375.419C209.335 375.419 209.236 375.344 209.206 375.236C209.116 374.918 208.989 374.611 208.829 374.324C208.774 374.226 208.791 374.104 208.871 374.024L209.651 373.244C209.784 373.111 209.784 372.893 209.651 372.76L208.741 371.85C208.607 371.716 208.39 371.716 208.257 371.85L207.477 372.63C207.397 372.71 207.275 372.727 207.177 372.672C206.89 372.512 206.583 372.385 206.265 372.295C206.157 372.265 206.082 372.166 206.082 372.054L206.083 370.95C206.083 370.762 205.929 370.608 205.74 370.608L204.453 370.609C204.264 370.609 204.11 370.762 204.11 370.951L204.11 372.055C204.109 372.167 204.035 372.265 203.927 372.296C203.609 372.387 203.301 372.514 203.015 372.674C202.917 372.728 202.794 372.711 202.715 372.632L201.936 371.853C201.802 371.719 201.585 371.719 201.451 371.853L200.54 372.764C200.407 372.897 200.406 373.115 200.54 373.248L201.319 374.028C201.398 374.107 201.416 374.229 201.361 374.327C201.201 374.614 201.074 374.921 200.983 375.239C200.953 375.348 200.854 375.422 200.742 375.422L199.639 375.423C199.45 375.423 199.296 375.577 199.296 375.766L199.295 377.053C199.295 377.242 199.449 377.396 199.638 377.396L200.741 377.395C200.853 377.395 200.952 377.47 200.982 377.577C201.072 377.896 201.199 378.203 201.359 378.489C201.414 378.587 201.397 378.71 201.317 378.789L200.537 379.569C200.404 379.703 200.404 379.92 200.537 380.054L201.447 380.964C201.581 381.097 201.798 381.097 201.932 380.964L202.712 380.184C202.791 380.104 202.913 380.087 203.011 380.142C203.298 380.302 203.605 380.428 203.923 380.518C204.031 380.549 204.106 380.648 204.106 380.76L204.105 381.863C204.105 382.052 204.259 382.206 204.448 382.206L205.735 382.205C205.924 382.205 206.078 382.051 206.078 381.862L206.078 380.759C206.079 380.691 206.106 380.628 206.152 380.582ZM206.932 378.245C205.918 379.26 204.268 379.26 203.254 378.247C202.241 377.233 202.241 375.583 203.256 374.569C204.27 373.554 205.92 373.553 206.934 374.567C207.948 375.581 207.947 377.231 206.932 378.245ZM203.611 374.924C202.792 375.742 202.791 377.074 203.609 377.892C204.427 378.71 205.759 378.709 206.577 377.89C207.396 377.071 207.397 375.74 206.579 374.922C205.761 374.104 204.429 374.105 203.611 374.924Z" fill="white"/>
<path d="M202.963 378.893C202.865 378.991 202.706 378.991 202.608 378.893C202.127 378.411 201.798 377.806 201.657 377.142C201.52 376.496 201.566 375.827 201.791 375.208C201.839 375.077 201.983 375.01 202.113 375.057C202.243 375.104 202.31 375.248 202.263 375.378C201.865 376.474 202.14 377.714 202.964 378.538C203.061 378.636 203.061 378.794 202.963 378.893Z" fill="white"/>
<path d="M204.08 373.546C204.056 373.57 204.028 373.589 203.994 373.602C203.608 373.754 203.261 373.981 202.965 374.277C202.867 374.375 202.708 374.376 202.61 374.278C202.512 374.18 202.512 374.021 202.61 373.922C202.956 373.577 203.36 373.312 203.812 373.135C203.94 373.084 204.086 373.148 204.137 373.277C204.174 373.373 204.149 373.478 204.08 373.546Z" fill="white"/>
</g>
</g>
</g>
</g>
<defs>
<filter id="filter0_d_104_2290" x="183.468" y="68.4956" width="198.578" height="198.578" filterUnits="userSpaceOnUse" color-interpolation-filters="sRGB">
<feFlood flood-opacity="0" result="BackgroundImageFix"/>
<feColorMatrix in="SourceAlpha" type="matrix" values="0 0 0 0 0 0 0 0 0 0 0 0 0 0 0 0 0 0 127 0" result="hardAlpha"/>
<feOffset dx="8" dy="8"/>
<feGaussianBlur stdDeviation="20"/>
<feComposite in2="hardAlpha" operator="out"/>
<feColorMatrix type="matrix" values="0 0 0 0 0.72549 0 0 0 0 0.72549 0 0 0 0 0.72549 0 0 0 0.25 0"/>
<feBlend mode="normal" in2="BackgroundImageFix" result="effect1_dropShadow_104_2290"/>
<feBlend mode="normal" in="SourceGraphic" in2="effect1_dropShadow_104_2290" result="shape"/>
</filter>
<filter id="filter1_d_104_2290" x="247.185" y="132.213" width="198.578" height="198.578" filterUnits="userSpaceOnUse" color-interpolation-filters="sRGB">
<feFlood flood-opacity="0" result="BackgroundImageFix"/>
<feColorMatrix in="SourceAlpha" type="matrix" values="0 0 0 0 0 0 0 0 0 0 0 0 0 0 0 0 0 0 127 0" result="hardAlpha"/>
<feOffset dx="8" dy="8"/>
<feGaussianBlur stdDeviation="20"/>
<feComposite in2="hardAlpha" operator="out"/>
<feColorMatrix type="matrix" values="0 0 0 0 0.72549 0 0 0 0 0.72549 0 0 0 0 0.72549 0 0 0 0.25 0"/>
<feBlend mode="normal" in2="BackgroundImageFix" result="effect1_dropShadow_104_2290"/>
<feBlend mode="normal" in="SourceGraphic" in2="effect1_dropShadow_104_2290" result="shape"/>
</filter>
<filter id="filter2_d_104_2290" x="312.957" y="197.985" width="198.578" height="198.578" filterUnits="userSpaceOnUse" color-interpolation-filters="sRGB">
<feFlood flood-opacity="0" result="BackgroundImageFix"/>
<feColorMatrix in="SourceAlpha" type="matrix" values="0 0 0 0 0 0 0 0 0 0 0 0 0 0 0 0 0 0 127 0" result="hardAlpha"/>
<feOffset dx="8" dy="8"/>
<feGaussianBlur stdDeviation="20"/>
<feComposite in2="hardAlpha" operator="out"/>
<feColorMatrix type="matrix" values="0 0 0 0 0.72549 0 0 0 0 0.72549 0 0 0 0 0.72549 0 0 0 0.25 0"/>
<feBlend mode="normal" in2="BackgroundImageFix" result="effect1_dropShadow_104_2290"/>
<feBlend mode="normal" in="SourceGraphic" in2="effect1_dropShadow_104_2290" result="shape"/>
</filter>
<filter id="filter3_d_104_2290" x="249.982" y="1.98193" width="198.578" height="198.578" filterUnits="userSpaceOnUse" color-interpolation-filters="sRGB">
<feFlood flood-opacity="0" result="BackgroundImageFix"/>
<feColorMatrix in="SourceAlpha" type="matrix" values="0 0 0 0 0 0 0 0 0 0 0 0 0 0 0 0 0 0 127 0" result="hardAlpha"/>
<feOffset dx="8" dy="8"/>
<feGaussianBlur stdDeviation="20"/>
<feComposite in2="hardAlpha" operator="out"/>
<feColorMatrix type="matrix" values="0 0 0 0 0.72549 0 0 0 0 0.72549 0 0 0 0 0.72549 0 0 0 0.25 0"/>
<feBlend mode="normal" in2="BackgroundImageFix" result="effect1_dropShadow_104_2290"/>
<feBlend mode="normal" in="SourceGraphic" in2="effect1_dropShadow_104_2290" result="shape"/>
</filter>
<filter id="filter4_d_104_2290" x="313.699" y="65.6987" width="198.578" height="198.578" filterUnits="userSpaceOnUse" color-interpolation-filters="sRGB">
<feFlood flood-opacity="0" result="BackgroundImageFix"/>
<feColorMatrix in="SourceAlpha" type="matrix" values="0 0 0 0 0 0 0 0 0 0 0 0 0 0 0 0 0 0 127 0" result="hardAlpha"/>
<feOffset dx="8" dy="8"/>
<feGaussianBlur stdDeviation="20"/>
<feComposite in2="hardAlpha" operator="out"/>
<feColorMatrix type="matrix" values="0 0 0 0 0.72549 0 0 0 0 0.72549 0 0 0 0 0.72549 0 0 0 0.25 0"/>
<feBlend mode="normal" in2="BackgroundImageFix" result="effect1_dropShadow_104_2290"/>
<feBlend mode="normal" in="SourceGraphic" in2="effect1_dropShadow_104_2290" result="shape"/>
</filter>
<filter id="filter5_d_104_2290" x="379.471" y="131.471" width="198.578" height="198.578" filterUnits="userSpaceOnUse" color-interpolation-filters="sRGB">
<feFlood flood-opacity="0" result="BackgroundImageFix"/>
<feColorMatrix in="SourceAlpha" type="matrix" values="0 0 0 0 0 0 0 0 0 0 0 0 0 0 0 0 0 0 127 0" result="hardAlpha"/>
<feOffset dx="8" dy="8"/>
<feGaussianBlur stdDeviation="20"/>
<feComposite in2="hardAlpha" operator="out"/>
<feColorMatrix type="matrix" values="0 0 0 0 0.72549 0 0 0 0 0.72549 0 0 0 0 0.72549 0 0 0 0.25 0"/>
<feBlend mode="normal" in2="BackgroundImageFix" result="effect1_dropShadow_104_2290"/>
<feBlend mode="normal" in="SourceGraphic" in2="effect1_dropShadow_104_2290" result="shape"/>
</filter>
<filter id="filter6_d_104_2290" x="316.838" y="-64.5322" width="198.235" height="198.235" filterUnits="userSpaceOnUse" color-interpolation-filters="sRGB">
<feFlood flood-opacity="0" result="BackgroundImageFix"/>
<feColorMatrix in="SourceAlpha" type="matrix" values="0 0 0 0 0 0 0 0 0 0 0 0 0 0 0 0 0 0 127 0" result="hardAlpha"/>
<feOffset dx="8" dy="8"/>
<feGaussianBlur stdDeviation="20"/>
<feComposite in2="hardAlpha" operator="out"/>
<feColorMatrix type="matrix" values="0 0 0 0 0.72549 0 0 0 0 0.72549 0 0 0 0 0.72549 0 0 0 0.25 0"/>
<feBlend mode="normal" in2="BackgroundImageFix" result="effect1_dropShadow_104_2290"/>
<feBlend mode="normal" in="SourceGraphic" in2="effect1_dropShadow_104_2290" result="shape"/>
</filter>
<filter id="filter7_d_104_2290" x="380.556" y="-0.81543" width="198.235" height="198.235" filterUnits="userSpaceOnUse" color-interpolation-filters="sRGB">
<feFlood flood-opacity="0" result="BackgroundImageFix"/>
<feColorMatrix in="SourceAlpha" type="matrix" values="0 0 0 0 0 0 0 0 0 0 0 0 0 0 0 0 0 0 127 0" result="hardAlpha"/>
<feOffset dx="8" dy="8"/>
<feGaussianBlur stdDeviation="20"/>
<feComposite in2="hardAlpha" operator="out"/>
<feColorMatrix type="matrix" values="0 0 0 0 0.72549 0 0 0 0 0.72549 0 0 0 0 0.72549 0 0 0 0.25 0"/>
<feBlend mode="normal" in2="BackgroundImageFix" result="effect1_dropShadow_104_2290"/>
<feBlend mode="normal" in="SourceGraphic" in2="effect1_dropShadow_104_2290" result="shape"/>
</filter>
<filter id="filter8_d_104_2290" x="383.353" y="-131.389" width="198.578" height="198.578" filterUnits="userSpaceOnUse" color-interpolation-filters="sRGB">
<feFlood flood-opacity="0" result="BackgroundImageFix"/>
<feColorMatrix in="SourceAlpha" type="matrix" values="0 0 0 0 0 0 0 0 0 0 0 0 0 0 0 0 0 0 127 0" result="hardAlpha"/>
<feOffset dx="8" dy="8"/>
<feGaussianBlur stdDeviation="20"/>
<feComposite in2="hardAlpha" operator="out"/>
<feColorMatrix type="matrix" values="0 0 0 0 0.72549 0 0 0 0 0.72549 0 0 0 0 0.72549 0 0 0 0.25 0"/>
<feBlend mode="normal" in2="BackgroundImageFix" result="effect1_dropShadow_104_2290"/>
<feBlend mode="normal" in="SourceGraphic" in2="effect1_dropShadow_104_2290" result="shape"/>
</filter>
<radialGradient id="paint0_radial_104_2290" cx="0" cy="0" r="1" gradientUnits="userSpaceOnUse" gradientTransform="translate(340.822 88.0382) rotate(-45) scale(13.7445 12.6935)">
<stop stop-color="#FFB900"/>
<stop offset="0.6" stop-color="#F95D8F"/>
<stop offset="1" stop-color="#F95353"/>
</radialGradient>
<linearGradient id="paint1_linear_104_2290" x1="266.156" y1="143.775" x2="291.849" y2="169.467" gradientUnits="userSpaceOnUse">
<stop stop-color="#0091E6"/>
<stop offset="1" stop-color="#0079BF"/>
</linearGradient>
<clipPath id="clip0_104_2290">
<rect x="0.666504" width="442.8" height="430.66" rx="36" fill="white"/>
</clipPath>
<clipPath id="clip1_104_2290">
<rect width="698.214" height="419.541" fill="white" transform="translate(29 238.712) rotate(-45)"/>
</clipPath>
</defs>
</svg>
