<svg xmlns="http://www.w3.org/2000/svg" width="64" height="64" fill="none"><g clip-path="url(#a)"><path fill="#000" d="M14 17a2 2 0 0 0 2 1h10v3a2 2 0 0 0 4 0v-3h1a2 2 0 0 0 0-4h-1V2a2 2 0 0 0-4-1L15 15a2 2 0 0 0-1 2ZM26 7v7h-6l6-7Zm10 43 10-16h-7a2 2 0 1 1 0-4h11a2 2 0 0 1 2 3L39 52a2 2 0 1 1-3-2Zm10-37a2 2 0 0 1 0 3L17 45a2 2 0 0 1-3-2l30-30a2 2 0 0 1 2 0ZM11 9c1-2 0-3-1-4L6 4C4 5 4 6 4 7a2 2 0 1 1-4 1c0-3 1-6 4-7 2-2 6-1 9 1 2 2 3 5 2 8 0 2-3 4-5 6l-4 3h8a2 2 0 1 1 0 4H2a2 2 0 0 1-2-3l7-7 4-4Zm53 23a32 32 0 1 1-64 0 2 2 0 1 1 4 0A28 28 0 1 0 35 4a2 2 0 0 1 1-4 32 32 0 0 1 28 32Z"/></g><defs><clipPath id="a"><path fill="#fff" d="M0 0h64v64H0z"/></clipPath></defs></svg>