<svg xmlns="http://www.w3.org/2000/svg" width="333" height="87" fill="none"><path fill="#EEE" d="M46.8.7H9.2A9.4 9.4 0 0 0 0 10l.5 67.3c0 2.5 1 4.7 2.8 6.4a9.5 9.5 0 0 0 6.5 2.7l50.4-.3c2.4 0 4.7-1 6.4-2.8a9 9 0 0 0 2.7-6.4L69 22 46.8.7Z"/><path fill="#907C9C" d="M46.3.7v13.7A9 9 0 0 0 52 23c1.1.4 2.3.7 3.5.6h13.1v-1L46.7.6h-.4Z"/><path fill="#272727" d="M11.3 54.1c0-.3 0-.5.2-.8a2.1 2.1 0 0 1 2-1.3l.8.1a2.1 2.1 0 0 1 1.3 2c0 .3 0 .6-.2.9a2.1 2.1 0 0 1-3.5.7 2.2 2.2 0 0 1-.6-1.6Zm9.7-7.7v9.4h-3.3v-9.4H21Zm-3.6-3.6.1-.7a1.9 1.9 0 0 1 2.5-1 1.9 1.9 0 0 1 1 2.4 2 2 0 0 1-1 1l-.7.2a1.9 1.9 0 0 1-1.9-1.9Zm16.1 3.7c-.8-1-1.8-1.5-3-1.5a3.6 3.6 0 0 0-2.7 1.1 3.7 3.7 0 0 0-1 2.7c0 .6 0 1.1.2 1.6l.8 1.2a3.8 3.8 0 0 0 2.7 1c1.1 0 2.2-.4 3-1.4v4.2l-.3.2a9.8 9.8 0 0 1-3 .6 7.3 7.3 0 0 1-5-2 7.2 7.2 0 0 1-2.2-5.3 7.1 7.1 0 0 1 4.4-6.8 7.1 7.1 0 0 1 4.4-.4l1.7.5v4.3Zm5.1 4.5a2.3 2.3 0 0 0 .6 1.5 2.2 2.2 0 0 0 3.5-.7c.2-.3.2-.5.2-.8 0-.3 0-.6-.2-.8a2.1 2.1 0 0 0-2-1.4l-.8.2-.7.5-.4.7a2 2 0 0 0-.2.8Zm4.2-4.7H46v9.4h-3.3v-1c-.7.8-1.6 1.3-2.8 1.3a4.7 4.7 0 0 1-4.4-3 5.6 5.6 0 0 1-.1-4 5 5 0 0 1 1-1.5c.4-.5.9-.8 1.4-1.1.6-.3 1.2-.4 2-.4a4 4 0 0 1 2.9 1.2v-1Zm8.9-6v15.3h-3.3V40.4h3.3Z"/><path fill="#EEE" d="M134.7.7H97a9.2 9.2 0 0 0-6.5 2.8A9.4 9.4 0 0 0 88 10l.5 67.3c0 2.5 1 4.7 2.8 6.4 1.7 1.7 4 2.7 6.5 2.7l50.3-.3c2.5 0 4.8-1 6.5-2.8a9 9 0 0 0 2.7-6.4l-.5-54.8-22-21.4Z"/><path fill="#6799C1" d="M134.2.7v13.7A9 9 0 0 0 140 23a8 8 0 0 0 3.5.6h13v-1L134.8.6h-.5Z"/><path fill="#272727" d="m99.2 54.1.1-.8a2.1 2.1 0 0 1 2-1.3l.8.1a2.1 2.1 0 0 1 1.4 2c0 .3 0 .6-.2.9a2.2 2.2 0 0 1-4.1-.9Zm10.3-5.8h1.1c1.4 0 2-.6 2-1.7 0-1.2-.7-1.7-2-1.7h-1.2v3.4Zm0 7.5H106V42h5.6c1.6 0 2.8.3 3.6 1.2.9.8 1.3 1.9 1.3 3.4 0 1.4-.4 2.6-1.2 3.4a5 5 0 0 1-3.6 1.2h-2.1v4.6ZM126 45.4l-1.2-.7a3 3 0 0 0-1.1-.2c-.5 0-.9.1-1.2.3a1 1 0 0 0-.4.9c0 .2 0 .4.2.6l.6.4.8.3 1 .3c1 .4 2 .9 2.5 1.5.5.7.8 1.5.8 2.6 0 .7 0 1.3-.3 2a4 4 0 0 1-1 1.4l-1.7 1a8.3 8.3 0 0 1-7.1-1.2l1.4-3c.6.6 1.1 1 1.7 1.1.5.3 1 .4 1.5.4.6 0 1-.2 1.3-.4a1.2 1.2 0 0 0 .3-1.5 1 1 0 0 0-.3-.4l-.7-.4a18.8 18.8 0 0 0-2.4-.8l-1.2-.7-.8-1.1c-.3-.5-.4-1-.4-1.7s.1-1.3.3-1.9a4.2 4.2 0 0 1 2.5-2.4c.6-.2 1.3-.3 2-.3s1.4 0 2.1.3c.8.2 1.5.4 2.2.8l-1.4 2.8Zm9.6-.6v10.8H132l-.1-10.7h-3v-3l9.5-.1v3h-2.9Z"/><path fill="#EEE" d="M222.5.7H185a9.2 9.2 0 0 0-6.5 2.8 9.4 9.4 0 0 0-2.7 6.5l.5 67.3c0 2.5 1 4.7 2.8 6.4 1.7 1.7 4 2.7 6.5 2.7l50.3-.3c2.5 0 4.8-1 6.5-2.8a9 9 0 0 0 2.7-6.4l-.5-54.8-22-21.4Z"/><path fill="#93A47B" d="M222 .7v13.7a9 9 0 0 0 5.8 8.5 9 9 0 0 0 3.6.6h13v-1L222.6.6h-.4Z"/><path fill="#272727" d="m187 54.1.2-.8a2.1 2.1 0 0 1 2-1.3l.8.1a2.1 2.1 0 0 1 1.4 2c0 .3 0 .6-.2.9a2.2 2.2 0 0 1-4.1-.9Zm9.2-12.1 3.4 8.4 3.3-8.5h3.9L201 55.8h-2.8l-6-13.8h4Zm21.4 4.5c-.9-1-2-1.5-3.1-1.5-.6 0-1 0-1.5.3-.5.2-.9.4-1.2.8a3.7 3.7 0 0 0-1 2.7c0 .5 0 1 .2 1.5s.5.9.8 1.2a3.8 3.8 0 0 0 2.7 1.1 4 4 0 0 0 3.1-1.5v4.3l-.3.1a9.8 9.8 0 0 1-3 .6 7.3 7.3 0 0 1-5-2 7.2 7.2 0 0 1-2.2-5.3 7.1 7.1 0 0 1 4.4-6.8 7.1 7.1 0 0 1 4.3-.4l1.7.6v4.3Zm9.8-1.2-1.1-.7a3 3 0 0 0-1.2-.2 2 2 0 0 0-1.1.3 1 1 0 0 0-.5.9l.3.6.5.4.9.3.9.3a6 6 0 0 1 2.5 1.5c.6.7.9 1.5.9 2.6 0 .7-.1 1.3-.4 2a4 4 0 0 1-1 1.4l-1.7 1a8.3 8.3 0 0 1-7.1-1.2l1.5-3c.5.6 1 1 1.6 1.1.5.3 1 .4 1.6.4.6 0 1-.2 1.3-.4a1.2 1.2 0 0 0 .3-1.5 1 1 0 0 0-.4-.4l-.7-.4a19.1 19.1 0 0 0-2.3-.8c-.5-.2-.9-.4-1.2-.7-.4-.3-.7-.7-.9-1.1-.2-.5-.3-1-.3-1.7s0-1.3.3-1.9a4.2 4.2 0 0 1 2.4-2.4c.6-.2 1.3-.3 2-.3s1.5 0 2.2.3c.7.2 1.5.4 2.2.8l-1.5 2.8Z"/><path fill="#EEE" d="M310.4.7h-37.6a9.2 9.2 0 0 0-6.4 2.8 9.4 9.4 0 0 0-2.7 6.5l.4 67.3a9.6 9.6 0 0 0 9.4 9.1l50.3-.3a9 9 0 0 0 6.5-2.8 9 9 0 0 0 2.7-6.4l-.5-54.8-22-21.4Z"/><path fill="#C47A78" d="M310 .7v13.7a9 9 0 0 0 5.7 8.5 9 9 0 0 0 3.6.6h13v-1L310.5.6h-.5Z"/><path fill="#272727" d="m275 54.1.1-.8a2 2 0 0 1 1.1-1.2 2.2 2.2 0 0 1 2.4.5l.5.7.1.8-.1.9a2.2 2.2 0 0 1-4.2-.9ZM285.1 42v13.8h-3.5l-.1-13.8h3.6Zm12.9 4.5a4 4 0 0 0-3.1-1.5 3.6 3.6 0 0 0-2.7 1.1 3.7 3.7 0 0 0-1 2.7c0 .6 0 1.1.2 1.6l.8 1.2a3.8 3.8 0 0 0 2.7 1 4 4 0 0 0 3.1-1.4v4.2l-.3.2a9.8 9.8 0 0 1-3 .5 7.3 7.3 0 0 1-5-2 7.2 7.2 0 0 1-2.2-5.3 7.1 7.1 0 0 1 4.4-6.7 7.1 7.1 0 0 1 4.4-.4l1.6.5v4.3Zm9.9-1.1c-.4-.3-.8-.6-1.2-.7a3 3 0 0 0-1.2-.3c-.4 0-.8.2-1.1.4a1 1 0 0 0-.4.9c0 .2 0 .4.2.6l.6.4.8.3.9.2c1.1.4 2 1 2.6 1.6.5.6.8 1.5.8 2.5 0 .8-.1 1.4-.4 2a4 4 0 0 1-1 1.5c-.4.4-1 .7-1.7 1a8.3 8.3 0 0 1-7.1-1.2l1.5-3c.6.5 1 .9 1.6 1 .5.3 1 .4 1.6.4.6 0 1-.1 1.3-.4a1.2 1.2 0 0 0 .3-1.4 1 1 0 0 0-.4-.5l-.7-.3a18.8 18.8 0 0 0-2.3-.8c-.5-.2-.9-.5-1.2-.8-.4-.2-.7-.6-.9-1-.2-.5-.3-1-.3-1.8a4.2 4.2 0 0 1 2.8-4.2 6 6 0 0 1 2-.3c.6 0 1.4 0 2.1.2l2.2.8-1.4 2.9Z"/></svg>