<svg width="142" height="142" viewBox="0 0 142 142" fill="none" xmlns="http://www.w3.org/2000/svg">
<g id="replace_9291642 1" clip-path="url(#clip0_501_262)">
<path id="Vector" d="M65.0833 17.75V65.0833H0V17.75C0 7.9875 7.9875 0 17.75 0H47.3333C57.0958 0 65.0833 7.9875 65.0833 17.75ZM124.25 76.9167H94.6667C84.9042 76.9167 76.9167 84.9042 76.9167 94.6667V142H142V94.6667C142 84.9042 134.012 76.9167 124.25 76.9167ZM99.8733 57.4508L108.216 49.1083L94.6667 35.5592H112.417C118.925 35.5592 124.25 40.8842 124.25 47.3925V65.1425H136.083V47.3925C136.083 34.3167 125.493 23.7258 112.417 23.7258H94.6667L108.216 10.1767L99.8733 1.83417L80.4075 21.3C75.7925 25.915 75.7925 33.4292 80.4075 38.0442L99.8733 57.51V57.4508ZM42.1267 84.5492L33.7842 92.8917L47.3333 106.441H29.5833C23.075 106.441 17.75 101.116 17.75 94.6075V76.8575H5.91667V94.6075C5.91667 107.683 16.5075 118.274 29.5833 118.274H47.3333L33.7842 131.823L42.1267 140.166L61.5925 120.7C66.2075 116.085 66.2075 108.571 61.5925 103.956L42.1267 84.49V84.5492Z" fill="#272727"/>
</g>
<defs>
<clipPath id="clip0_501_262">
<rect width="142" height="142" fill="white"/>
</clipPath>
</defs>
</svg>
