<svg width="308" height="20" viewBox="0 0 308 20" fill="none" xmlns="http://www.w3.org/2000/svg">
<g clip-path="url(#clip0_996_1214)">
<path d="M58.0966 3.86455C58.0539 3.48565 57.9951 3.10847 57.9622 2.729C58.1214 3.08796 58.254 3.45603 58.402 3.81897C58.4447 3.95799 58.5822 4.03947 58.6912 4.13291C59.1198 4.47762 59.533 4.83942 59.9659 5.179C60.6008 5.51573 61.2796 5.78296 61.9144 6.11969C62.6298 7.00112 63.308 7.91047 64.0197 8.79531C64.2959 9.03519 64.592 9.25797 64.8936 9.47049C64.7784 9.30981 64.6465 9.16054 64.5176 9.01012C64.8063 8.93149 65.103 8.87964 65.3866 8.7862C65.1203 8.76284 64.8527 8.75657 64.587 8.73378C64.9673 8.64774 65.3587 8.61185 65.7397 8.52752C65.2714 8.47055 64.797 8.4751 64.3306 8.40445C64.8478 8.32526 65.3649 8.24663 65.8815 8.16344C66.1949 8.10248 66.4916 8.25176 66.7994 8.2848C66.5709 8.17712 66.3423 8.06544 66.0989 7.98909C65.7372 7.97827 65.3755 8.01131 65.0144 8.00049C65.3947 7.91844 65.7799 7.84836 66.167 7.79594C66.4278 7.83583 66.6687 7.95149 66.9251 8.01188C66.7108 7.87457 66.4947 7.73783 66.2667 7.62159C65.9986 7.58285 65.7254 7.60279 65.4566 7.57316C65.7514 7.52132 66.0481 7.46776 66.3485 7.44554C66.6148 7.531 66.8564 7.67116 67.1221 7.76005C66.9239 7.57544 66.722 7.39312 66.5064 7.22618C66.2711 7.18059 66.0221 7.22276 65.7824 7.20452C66.0611 7.11849 66.3528 7.07519 66.639 7.01422C66.8874 7.19883 67.1277 7.39255 67.3847 7.56747C67.2045 7.30594 67.0075 7.05411 66.8192 6.79771C66.6068 6.76182 66.3943 6.72763 66.1868 6.6735C66.4488 6.65356 66.7127 6.64615 66.9759 6.62678C67.223 6.88546 67.446 7.1635 67.7006 7.41705C67.542 7.0843 67.3674 6.7584 67.2007 6.42964C66.9716 6.35614 66.7387 6.29461 66.5114 6.21826C66.8006 6.20914 67.0886 6.2513 67.3779 6.2684C67.6071 6.61026 67.8096 6.96693 68.0487 7.30366C67.9229 6.91679 67.783 6.53391 67.6436 6.15103C67.6318 6.06784 67.5327 6.05872 67.4683 6.03023C67.2348 5.95275 66.9964 5.88836 66.7709 5.79435C67.1159 5.83025 67.4553 5.90204 67.7984 5.95503C67.9985 6.36754 68.1614 6.79657 68.3856 7.19883C68.2741 6.73219 68.1391 6.27011 68.0165 5.80575C67.7229 5.64222 67.4082 5.51004 67.1289 5.326C67.49 5.43312 67.8399 5.571 68.1967 5.69179C68.3763 6.1533 68.5268 6.6245 68.7238 7.08032C68.6334 6.57094 68.5132 6.06613 68.411 5.55847C68.0877 5.3317 67.7396 5.13342 67.4343 4.88557C67.8245 5.06562 68.2004 5.27074 68.585 5.46161C68.7424 5.94477 68.8625 6.43876 69.0452 6.91451C68.9684 6.39887 68.8749 5.88437 68.7721 5.37329C68.4636 5.05764 68.0703 4.81378 67.7514 4.50497C68.1651 4.73686 68.5541 5.00465 68.9591 5.24965C69.0737 5.74478 69.1976 6.23877 69.2979 6.73675C69.2955 6.20971 69.2106 5.68382 69.1468 5.16134C68.8272 4.7984 68.45 4.48104 68.128 4.11981C68.5374 4.42121 68.9474 4.7306 69.3246 5.06448C69.4435 5.53283 69.4757 6.01884 69.607 6.48491C69.5897 5.97952 69.5358 5.47528 69.5011 4.97104C69.1784 4.58246 68.8452 4.20071 68.5361 3.80301C68.9294 4.15285 69.306 4.52149 69.6751 4.89241C69.7612 5.28042 69.7965 5.67869 69.8547 6.07126C69.8647 6.0724 69.8851 6.07411 69.895 6.07525C69.8634 5.6992 69.8603 5.32201 69.8417 4.94597C69.838 4.87703 69.8281 4.80637 69.7835 4.7494C69.5098 4.35284 69.2174 3.96711 68.9505 3.56599C69.3122 3.94261 69.6404 4.34771 69.9737 4.74541C70.0647 5.04397 70.0511 5.3619 70.1471 5.66046C70.1372 5.33341 70.1353 5.00408 70.0938 4.67932C69.9086 4.24743 69.6696 3.83549 69.4862 3.40247C69.7389 3.73692 69.939 4.10271 70.1731 4.44856C70.3323 4.65026 70.2988 4.91064 70.3577 5.14254C70.3893 4.87532 70.4425 4.59784 70.3552 4.33518C70.2623 3.99218 70.1626 3.65032 70.0845 3.30447C70.2648 3.64747 70.3942 4.01098 70.5676 4.3574C70.6779 4.02237 70.751 3.67824 70.8519 3.34093C70.878 3.67881 70.8024 4.01326 70.7968 4.35056C71.0755 4.0201 71.3022 3.65431 71.5915 3.33125C71.4335 3.65431 71.2428 3.96312 71.0848 4.28618C71.4936 4.03548 71.8789 3.75345 72.292 3.50845C71.8813 4.02978 71.4589 4.54371 71.0439 5.06163C70.8402 5.3448 70.554 5.58582 70.4376 5.91514C70.2245 6.44559 70.0133 6.97605 69.7984 7.50536C69.7587 7.6102 69.685 7.70478 69.5686 7.74466C69.1338 7.91502 68.6897 8.06373 68.2537 8.23181C68.0728 8.30247 67.9589 8.45972 67.7978 8.55601C67.3959 8.62837 66.9815 8.63065 66.5808 8.70871C66.9858 8.75372 67.3959 8.70073 67.8022 8.73492C68.0338 8.79588 68.2518 8.89559 68.4791 8.97137C68.6569 9.03918 68.8625 9.09387 68.9765 9.24999C69.0496 9.34343 69.052 9.46251 69.07 9.57248C69.2416 9.75537 69.5184 9.92061 69.4937 10.1935C69.4782 10.3855 69.2738 10.4778 69.1078 10.5473C69.2286 10.3491 69.0136 9.981 68.764 10.173C68.8346 10.2784 68.9065 10.3844 68.9746 10.4921C68.7969 10.5132 68.6154 10.4881 68.4754 10.3804C68.1472 10.3764 67.8183 10.3713 67.4906 10.3827C67.6882 10.4357 67.892 10.4642 68.0945 10.5001C67.4801 11.19 66.831 11.8527 66.2203 12.545C66.4563 12.3894 66.6582 12.1957 66.8787 12.023C66.8861 12.3706 66.8205 12.7136 66.8725 13.0606C67.0818 13.2304 67.2906 13.4025 67.5185 13.5523C67.6362 13.6247 67.6956 13.7477 67.7749 13.852C67.7904 13.6959 67.7179 13.5614 67.5829 13.4703C67.6312 13.4606 67.7272 13.4418 67.7749 13.4321C67.9112 13.5215 68.0028 13.6503 68.0877 13.7802C68.097 13.6264 68.0412 13.4537 67.8616 13.4076C68.4698 13.317 69.0669 13.1728 69.6745 13.0777C70.0678 13.297 70.4685 13.505 70.8612 13.7261C71.0576 13.8321 71.1598 14.0873 71.0309 14.2725C70.9058 14.4542 70.6537 14.4833 70.4407 14.4907C69.7191 14.5027 68.9988 14.5739 68.2877 14.6833C68.4667 14.5243 68.6606 14.379 68.8322 14.2121C68.3899 14.4702 67.9502 14.7386 67.4683 14.9306C67.0441 15.0947 66.6204 15.2616 66.2017 15.4371C66.4637 15.1921 66.756 14.9744 67.0038 14.7158C66.2996 15.1858 65.6195 15.7106 64.8044 16.0126C64.4198 16.1533 64.0525 16.4011 63.6208 16.3726C63.2987 16.3288 63.0014 16.1966 62.6948 16.1037C62.4929 16.0308 62.2768 15.9829 62.0922 15.8769C61.9404 15.7818 61.9281 15.5385 62.099 15.4553C62.3263 15.355 62.5759 15.3072 62.8138 15.232C63.1519 15.3681 63.4926 15.4998 63.8264 15.6445C63.9856 15.7134 63.9937 15.8866 63.9918 16.0274C64.0847 15.8638 64.0091 15.6633 63.837 15.5744C63.3334 15.3049 62.8268 15.0411 62.3226 14.7727C63.1414 14.5408 63.9621 14.3169 64.7895 14.113C64.875 14.142 64.9617 14.1716 65.0503 14.2001C64.841 14.0395 64.6434 13.8543 64.3832 13.7654C64.3436 13.6697 64.3052 13.574 64.2674 13.4782C64.2315 13.4628 64.1597 13.4332 64.1243 13.4178C64.0618 13.1905 64.0184 12.9592 63.9509 12.733C63.9522 12.9791 63.9837 13.2235 64.006 13.4691C63.8617 13.5443 63.7168 13.6178 63.5725 13.6919C63.5675 13.378 63.5824 13.0634 63.562 12.7495C63.4951 13.0783 63.4734 13.4133 63.4226 13.7443C63.2294 13.7768 63.0374 13.811 62.8453 13.8446C62.9067 13.4862 62.9897 13.1301 63.0367 12.7694C62.8806 13.1244 62.7871 13.4999 62.6589 13.8634C62.4694 13.8754 62.2799 13.8873 62.0916 13.8987C62.2235 13.5084 62.3913 13.1278 62.5053 12.7318C62.2792 13.0965 62.1064 13.4856 61.8928 13.856C61.868 13.934 61.7689 13.9084 61.7051 13.9221C61.5719 13.9306 61.4394 13.9369 61.3081 13.9449C61.5242 13.5403 61.7615 13.1455 61.9627 12.7347C61.6376 13.1347 61.3527 13.5614 61.0386 13.9688C60.8411 13.995 60.6429 14.0235 60.4465 14.0514C60.7655 13.6076 61.1086 13.178 61.4127 12.725C61.0182 13.1039 60.6652 13.5181 60.2867 13.9107C60.0941 14.1044 59.9331 14.3266 59.7076 14.4907C59.6717 14.3682 59.7782 14.2759 59.8371 14.179C60.2812 13.5603 60.693 12.9204 61.1501 12.3108C61.9343 12.0145 62.7407 11.7667 63.5285 11.4755C63.9354 11.3581 64.2829 11.0351 64.3021 10.6277C64.2216 10.7998 64.1634 10.9912 64.0036 11.1177C63.7744 11.3205 63.4474 11.3707 63.1612 11.4732C63.1135 11.3855 63.0652 11.2977 63.0188 11.21C63.1247 11.1228 63.2312 11.0345 63.3303 10.9388C63.0541 11.0818 62.7896 11.2419 62.5189 11.3929C62.457 11.2812 62.3957 11.169 62.3344 11.0573C62.688 10.8049 63.0696 10.5838 63.4034 10.3086C62.8503 10.5929 62.3145 10.9052 61.7676 11.1997C61.72 11.0801 61.6729 10.961 61.627 10.8413C62.1275 10.5257 62.6472 10.2351 63.134 9.90294C62.4719 10.2118 61.8302 10.557 61.1755 10.8784C61.1439 10.7684 61.1136 10.659 61.0832 10.5496C61.6394 10.2175 62.2093 9.90294 62.758 9.56051C62.0625 9.85394 61.3929 10.1981 60.7042 10.5063C60.6825 10.3747 60.6639 10.2437 60.6497 10.1115C61.2133 9.8397 61.7732 9.56108 62.3313 9.28019C61.6221 9.50411 60.9426 9.80437 60.2452 10.0596C60.239 9.93314 60.2347 9.80722 60.2304 9.68073C60.7909 9.46137 61.3719 9.28759 61.9262 9.05456C61.2344 9.19985 60.5562 9.39699 59.8687 9.55994C59.8748 9.42092 59.8823 9.2819 59.8897 9.14287C60.418 9.02151 60.9569 8.93548 61.4778 8.78962C60.8027 8.86768 60.1294 8.95827 59.4555 9.04088C59.4735 8.92066 59.4939 8.80044 59.5138 8.68022C60.0086 8.61869 60.5116 8.60501 61.0021 8.5167C60.3146 8.51157 59.6271 8.54006 58.939 8.54063C58.9489 8.43864 58.9588 8.33608 58.9712 8.23409C59.5181 8.23352 60.0662 8.23808 60.6138 8.21985C59.629 8.11159 58.6343 8.08424 57.6457 8.00106C57.8154 7.93383 57.9901 7.88027 58.1654 7.82557C57.7504 7.65806 57.3187 7.53043 56.9025 7.36862C57.084 7.35039 57.2661 7.33785 57.4488 7.32247C57.092 7.09969 56.7111 6.91052 56.3556 6.6849C56.6194 6.68946 56.8839 6.70655 57.1478 6.71794C56.8678 6.45243 56.5538 6.21997 56.28 5.94933C56.4268 5.97041 56.5718 5.99605 56.7185 6.01998C56.568 5.8086 56.337 5.64108 56.2546 5.39266C56.1902 5.21832 56.1239 5.04454 56.062 4.86962C56.2243 5.01377 56.3352 5.20179 56.5055 5.33854C56.783 5.49522 57.0679 5.64108 57.3559 5.78182C57.1447 5.4297 56.7749 5.14368 56.7179 4.72718C56.6721 4.53517 56.6219 4.34429 56.5829 4.15114C56.8145 4.40697 56.9477 4.74028 57.2518 4.93628C57.4853 5.10493 57.7102 5.28384 57.9461 5.45021C57.7578 5.03029 57.3751 4.67533 57.3522 4.20299C57.3131 3.94944 57.2568 3.69818 57.2376 3.44292C57.4438 3.74661 57.5782 4.09018 57.7969 4.38589C58.1518 4.66678 58.5091 4.94711 58.882 5.20806C58.659 4.84797 58.4057 4.50497 58.1728 4.15C58.1109 4.06568 58.1115 3.96084 58.0966 3.86455ZM58.6974 4.4064C58.9074 4.77504 59.1663 5.11804 59.3942 5.47699C59.458 5.61943 59.6327 5.64564 59.7714 5.6992C60.1969 5.83936 60.6094 6.01371 61.0424 6.13678C60.5877 5.86557 60.0625 5.71117 59.598 5.45819C59.2778 5.12317 59.0331 4.72946 58.6974 4.4064ZM58.0273 4.93115C58.236 5.2394 58.4763 5.53055 58.7172 5.81771C58.9508 5.92027 59.2065 5.97155 59.4493 6.05246C59.7739 6.14362 60.0892 6.26783 60.4224 6.33164C59.9238 6.09576 59.3843 5.94135 58.877 5.72256C58.5692 5.48326 58.3376 5.16932 58.0273 4.93115ZM57.2915 5.27073C57.5658 5.59265 57.8508 5.91058 58.1542 6.20857C58.8207 6.37551 59.4896 6.54644 60.1666 6.6735C59.5509 6.42736 58.8832 6.30258 58.2614 6.07126C57.9245 5.81942 57.6457 5.50377 57.2915 5.27073ZM56.8226 5.73908C57.1118 6.0553 57.4407 6.34247 57.7634 6.62963C58.5413 6.79714 59.3242 6.96009 60.1114 7.09C59.3794 6.84956 58.6095 6.71396 57.8706 6.49346C57.5051 6.26156 57.1911 5.96699 56.8226 5.73908ZM60.6181 6.72079C60.5939 6.64729 60.5692 6.57493 60.5438 6.50257C60.5357 6.62849 60.5363 6.75441 60.5376 6.8809C60.8157 6.71566 61.1093 6.5698 61.3706 6.38178C61.108 6.47237 60.8683 6.60684 60.6181 6.72079ZM60.7426 7.23529C60.7277 7.18173 60.6968 7.07462 60.6813 7.02106C60.6583 7.14413 60.6584 7.26891 60.6621 7.39312C61.0157 7.18857 61.3886 7.00738 61.7206 6.77264C61.3849 6.90939 61.069 7.08203 60.7426 7.23529ZM56.9793 6.84785C57.3602 7.00909 57.7578 7.15894 58.179 7.19997C58.8126 7.28828 59.4456 7.3783 60.0792 7.46776L60.0898 7.42389C59.0517 7.23757 58.0205 7.01593 56.9793 6.84785ZM61.0108 7.68541C61.0033 7.64438 60.9891 7.56177 60.9817 7.52075C60.9705 7.52188 60.947 7.52359 60.9358 7.52416C60.9377 7.629 60.9395 7.73384 60.9433 7.83868C61.3149 7.61875 61.7094 7.4273 62.0569 7.1749C61.6983 7.32702 61.3613 7.51904 61.0108 7.68541ZM57.8278 7.47573C58.2484 7.63641 58.6956 7.75321 59.1539 7.76859C59.5435 7.7817 59.9337 7.87229 60.3233 7.83355C59.4946 7.70136 58.6615 7.57772 57.8278 7.47573ZM61.4177 8.06544C61.3966 7.99023 61.375 7.91616 61.3527 7.84209C61.3316 7.96801 61.3316 8.09564 61.3335 8.22327C61.7057 8.01473 62.091 7.82329 62.4428 7.5857C62.0916 7.72814 61.7584 7.90477 61.4177 8.06544ZM61.9231 8.39192C61.8996 8.31728 61.8773 8.24378 61.8525 8.17028C61.8426 8.29677 61.8389 8.42383 61.8376 8.55031C62.1715 8.36115 62.5183 8.1868 62.8317 7.96858C62.5202 8.09336 62.2254 8.25005 61.9231 8.39192ZM62.4632 8.71042C62.4477 8.6523 62.4167 8.53493 62.4019 8.47681C62.3814 8.60558 62.3777 8.73663 62.3771 8.86711C62.6571 8.70301 62.9556 8.56228 63.2114 8.36685C62.9531 8.46428 62.7109 8.59362 62.4632 8.71042ZM62.9952 9.00784C62.9692 8.94117 62.9463 8.87451 62.9209 8.80842C62.9147 8.92807 62.9135 9.04772 62.9141 9.16737C63.1284 9.04145 63.3489 8.92294 63.5471 8.77537C63.3582 8.84317 63.1767 8.92636 62.9952 9.00784ZM65.9478 9.06367C65.9366 9.11267 65.9694 9.17592 66.0134 9.20441C66.0785 9.18276 66.1286 9.14344 66.1633 9.08647C66.1361 9.01354 66.0047 9.03348 65.9478 9.06367ZM66.7053 9.06254C66.7406 9.07906 66.8118 9.11097 66.8471 9.12692C66.8248 9.17478 66.8037 9.22207 66.7833 9.26993C66.8812 9.19928 66.9784 9.12692 67.0738 9.05171C66.9493 9.05342 66.8279 9.05627 66.7053 9.06254ZM63.3446 9.4665C63.513 9.37648 63.6809 9.28304 63.8301 9.1668C63.6945 9.21124 63.5632 9.26423 63.4331 9.31722C63.4176 9.27734 63.3879 9.19757 63.3731 9.15769C63.3613 9.26081 63.352 9.36337 63.3446 9.4665ZM67.4782 9.17478C67.4844 9.22036 67.4974 9.31038 67.5042 9.35597C67.5711 9.30526 67.6393 9.25512 67.7086 9.20555C67.6306 9.19586 67.5538 9.18561 67.4782 9.17478ZM65.2082 9.35824C65.2627 9.38844 65.3179 9.41921 65.3742 9.44998C65.3445 9.5041 65.316 9.5588 65.2881 9.6135C65.4071 9.53316 65.5235 9.44998 65.6368 9.36223C65.4931 9.35938 65.3507 9.35824 65.2082 9.35824ZM68.3887 9.50923C68.3961 9.64313 68.6358 9.68244 68.6971 9.56108C68.7219 9.51094 68.7052 9.45283 68.7095 9.39984C68.6755 9.43516 68.6061 9.50581 68.572 9.54114C68.4271 9.52917 68.5206 9.393 68.5237 9.31836C68.4568 9.36622 68.3559 9.41351 68.3887 9.50923ZM66.0908 9.45226C66.1342 9.47334 66.2209 9.51493 66.2643 9.53601C66.242 9.5759 66.198 9.65623 66.1757 9.69669C66.2959 9.61977 66.4111 9.53715 66.5244 9.45112C66.3795 9.44314 66.2345 9.44428 66.0908 9.45226ZM63.7682 9.64598C63.7441 9.59356 63.7211 9.54171 63.6988 9.48986C63.6926 9.59128 63.6858 9.69327 63.6803 9.79583C63.8735 9.69042 64.0686 9.58672 64.2464 9.45966C64.0828 9.51208 63.9243 9.5776 63.7682 9.64598ZM66.8818 9.59527C66.9381 9.62433 66.9951 9.65338 67.0527 9.68244C67.0242 9.736 66.9988 9.79013 66.9728 9.84369C67.0886 9.76563 67.2032 9.68415 67.3129 9.59698C67.1685 9.59413 67.0248 9.59356 66.8818 9.59527ZM68.9691 9.68586C68.9523 9.70466 68.9189 9.74284 68.9022 9.76164C69.1059 9.89212 69.324 10.0249 69.3797 10.2653C69.4057 9.99866 69.158 9.84198 68.9691 9.68586ZM63.9354 9.99638C63.9237 9.97131 63.8989 9.92117 63.8865 9.89667C63.8772 9.97758 63.8685 10.0596 63.8605 10.1411C64.0104 10.0494 64.1609 9.9565 64.299 9.84938C64.1745 9.89155 64.0544 9.9434 63.9354 9.99638ZM65.3327 9.95593C65.4027 9.98157 65.4715 10.0055 65.5439 10.0306C65.5179 10.1007 65.4925 10.1713 65.469 10.2425C65.5972 10.1286 65.7205 10.0095 65.8419 9.88927C65.6709 9.90408 65.5006 9.92687 65.3327 9.95593ZM64.6297 10.0209C64.6688 10.0323 64.7462 10.0556 64.7846 10.0676C64.7716 10.1046 64.7456 10.1787 64.7326 10.2157C64.8205 10.1331 64.9072 10.0488 64.9927 9.96334C64.8707 9.98157 64.7499 10.0004 64.6297 10.0209ZM66.2029 10.0727C66.2742 10.0921 66.3435 10.1103 66.4179 10.1291C66.3949 10.1981 66.3733 10.267 66.3522 10.3365C66.4718 10.2243 66.5839 10.1058 66.6885 9.98157C66.525 10.0066 66.3634 10.038 66.2029 10.0727ZM68.398 10.0294C68.3218 10.0938 68.3491 10.1855 68.3819 10.2619C68.403 10.0984 68.546 10.0511 68.7071 10.0522C68.6117 10.0101 68.4897 9.9434 68.398 10.0294ZM66.9363 10.259C66.9734 10.2744 67.0484 10.3052 67.0855 10.3206C67.0688 10.3684 67.0546 10.4169 67.0397 10.4653C67.1264 10.3907 67.2138 10.316 67.3011 10.2414C67.1785 10.2465 67.0571 10.2528 66.9363 10.259ZM63.9658 10.3445C63.959 10.4078 63.9534 10.471 63.9484 10.5348C64.0562 10.4619 64.1627 10.3872 64.2687 10.3115C64.1689 10.336 64.0686 10.357 63.9658 10.3445ZM64.6954 10.5758C64.753 10.5929 64.8106 10.6106 64.8701 10.6277C64.8608 10.6676 64.8428 10.7468 64.8335 10.7861C64.9283 10.6921 65.0187 10.5952 65.1079 10.4961C64.9698 10.5194 64.8317 10.5468 64.6954 10.5758ZM65.4517 10.6567C65.5099 10.6664 65.6263 10.6847 65.6845 10.6943C65.6765 10.7445 65.6598 10.8448 65.6517 10.8955C65.7651 10.7781 65.8648 10.6499 65.9583 10.5189C65.7867 10.557 65.6176 10.6026 65.4517 10.6567ZM66.2779 10.7377C66.3293 10.7468 66.4327 10.7644 66.4848 10.7735C66.4662 10.8339 66.4488 10.8943 66.4334 10.9547C66.5331 10.8545 66.6278 10.749 66.7189 10.6414C66.5702 10.6693 66.4228 10.7006 66.2779 10.7377ZM67.0948 10.8602C67.1171 10.9086 67.1407 10.957 67.1654 11.006C67.2187 10.9479 67.2738 10.8903 67.329 10.8328C67.2503 10.8419 67.1723 10.851 67.0948 10.8602ZM64.8019 11.173C64.8484 11.1809 64.9413 11.1969 64.9877 11.2054C64.9754 11.2664 64.9648 11.3279 64.9549 11.3895C65.0453 11.2835 65.1339 11.1752 65.2194 11.0641C65.0782 11.0966 64.9388 11.1319 64.8019 11.173ZM65.6294 11.3336C65.7068 11.3439 65.7849 11.3541 65.8635 11.3633C65.8518 11.4345 65.8419 11.5051 65.8326 11.5763C65.9385 11.4487 66.037 11.3154 66.1274 11.1775C65.9589 11.2231 65.7923 11.2749 65.6294 11.3336ZM66.5393 11.3376C66.5764 11.353 66.6508 11.3838 66.6879 11.3991L66.6433 11.5359C66.7294 11.4544 66.8149 11.3712 66.8991 11.2875C66.7783 11.3029 66.6582 11.32 66.5393 11.3376ZM64.2569 11.4362C64.3343 11.4806 64.3752 11.5439 64.3808 11.6265C64.4501 11.5604 64.5232 11.4972 64.5969 11.4345C64.483 11.4362 64.3696 11.4379 64.2569 11.4362ZM65.0385 11.7279C65.0838 11.7387 65.1748 11.7598 65.22 11.7706C65.2033 11.8299 65.1878 11.8891 65.1736 11.949C65.2727 11.8498 65.368 11.7467 65.4585 11.6402C65.3166 11.6641 65.176 11.6932 65.0385 11.7279ZM63.837 11.8043C63.8159 11.8544 63.827 11.8994 63.8704 11.9399C63.9435 11.9564 64.0203 11.888 64.0438 11.8276C63.9992 11.7741 63.897 11.7826 63.837 11.8043ZM66.0388 11.8584C66.0785 11.8721 66.1577 11.8988 66.198 11.9119C66.1856 11.949 66.1614 12.0225 66.1491 12.0595C66.2339 11.9769 66.3188 11.8931 66.4024 11.8088C66.281 11.8242 66.159 11.8407 66.0388 11.8584ZM64.4192 11.9062C64.4594 11.9245 64.5406 11.9609 64.5808 11.9792C64.5635 12.0156 64.5288 12.0891 64.5115 12.1256C64.6081 12.055 64.7066 11.9843 64.8026 11.9119C64.6743 11.9091 64.5455 11.9074 64.4192 11.9062ZM65.4845 12.1706C65.5086 12.2202 65.534 12.2698 65.5607 12.3199C65.6133 12.2601 65.6672 12.2002 65.7217 12.141C65.6418 12.1507 65.5625 12.1604 65.4845 12.1706ZM62.6434 12.1746C62.6719 12.2361 62.6818 12.3005 62.6614 12.3655C62.7332 12.3017 62.81 12.2413 62.8881 12.182C62.8057 12.1797 62.7239 12.1775 62.6434 12.1746ZM63.3254 12.1746C63.3656 12.2316 63.3749 12.2925 63.3538 12.3564C63.4276 12.2965 63.5044 12.2396 63.5824 12.1831C63.4957 12.1803 63.4102 12.1775 63.3254 12.1746ZM64.0265 12.3102C64.0184 12.3592 64.0475 12.4247 64.0928 12.4532C64.159 12.4327 64.2086 12.3934 64.2414 12.3353C64.2098 12.2663 64.0847 12.2806 64.0265 12.3102ZM64.7654 12.3444C64.7809 12.3923 64.8118 12.488 64.8273 12.5358C64.8979 12.4726 64.9729 12.4133 65.0484 12.3546C64.9531 12.3518 64.8589 12.3484 64.7654 12.3444ZM65.176 12.6435C65.2231 12.9267 65.2708 13.2099 65.3358 13.4896C65.4752 13.8001 65.8598 13.9306 66.0153 14.2326C66.0394 14.0668 65.9509 13.9261 65.7966 13.8446C65.8549 13.8378 65.9719 13.8246 66.0301 13.8178C66.1491 13.9113 66.2426 14.0275 66.3404 14.1397C66.3423 13.9905 66.268 13.8605 66.1323 13.7808C66.2996 13.7472 66.4662 13.709 66.634 13.6714C66.3745 13.562 66.1441 13.3506 65.8394 13.3774C65.6139 13.1358 65.4071 12.8805 65.176 12.6435ZM68.2314 13.7016C68.6643 13.6617 69.1047 13.6041 69.5166 13.4708C69.083 13.4965 68.634 13.5483 68.2314 13.7016ZM67.0849 13.5329C67.246 13.6292 67.3581 13.7722 67.4646 13.9164C67.49 13.7067 67.3234 13.517 67.0849 13.5329ZM68.31 13.9329C68.5225 13.9625 68.7356 13.9209 68.9468 13.8936C69.3233 13.836 69.7086 13.8093 70.0771 13.713C69.4807 13.7027 68.8923 13.8275 68.31 13.9329ZM65.3476 13.9403C65.4969 14.0338 65.609 14.1642 65.7062 14.3033C65.7384 14.1021 65.5755 13.9113 65.3476 13.9403ZM66.9319 14.2326C67.2769 14.1933 67.6275 14.1346 67.9496 14.0081C67.6021 14.0303 67.2422 14.0805 66.9319 14.2326ZM64.3256 14.6086C64.0314 14.7044 63.731 14.7898 63.4536 14.922C63.7645 14.8884 64.0531 14.7631 64.3535 14.6844C64.6917 14.5722 65.0466 14.4953 65.3699 14.3483C65.01 14.3876 64.6688 14.5078 64.3256 14.6086ZM65.3364 14.6753C64.8738 14.8383 64.3913 14.9699 63.9627 15.2012C64.3727 15.0935 64.766 14.9391 65.1692 14.8121C65.6294 14.6474 66.1088 14.5277 66.5597 14.342C66.1385 14.4035 65.7397 14.5528 65.3364 14.6753ZM62.4867 15.7111C62.8522 15.8211 63.2139 15.9425 63.5843 16.0399C63.3117 15.8986 63.0194 15.7943 62.7357 15.6753C62.8565 15.6143 62.9779 15.5545 63.0943 15.4867C62.8943 15.5533 62.6149 15.5328 62.4867 15.7111Z" fill="#272727"/>
<path d="M-0.0756836 0.0227893C5.96379 0.0233591 12.0026 0.02108 18.0421 0.0239289C18.0403 2.06654 18.0415 4.10859 18.0409 6.1512C17.9412 6.14779 17.8414 6.1438 17.7417 6.13867C17.481 5.52446 17.2115 4.91424 16.9458 4.30174C16.607 3.53426 16.2837 2.75254 15.7975 2.05059C15.4723 1.58395 15.0654 1.15378 14.5489 0.859777C13.9611 0.516208 13.2662 0.361801 12.5774 0.317359C11.9457 0.276905 11.3114 0.299126 10.6784 0.293429C10.679 5.43729 10.6778 10.5811 10.679 15.7244C10.6846 16.3455 10.767 17.0081 11.1733 17.5255C11.5926 18.0525 12.2832 18.3288 12.9651 18.4411C13.2538 18.4907 13.5449 18.5283 13.8347 18.5727C13.8323 18.6616 13.8298 18.7505 13.8279 18.8393C10.5942 18.8382 7.35985 18.8411 4.12612 18.8382C4.1286 18.7493 4.13045 18.6604 4.13293 18.5721C4.75911 18.4758 5.41131 18.4234 5.98175 18.1448C6.51812 17.9095 6.93991 17.4656 7.10838 16.9397C7.28366 16.4554 7.29048 15.9387 7.28738 15.4339C7.28738 10.3874 7.28614 5.34043 7.288 0.293998C6.53608 0.301405 5.78107 0.263801 5.03288 0.350975C4.28096 0.440429 3.53834 0.702522 2.97099 1.17543C2.23456 1.78451 1.78614 2.61922 1.40027 3.4431C0.993967 4.34105 0.617391 5.24983 0.216659 6.1495C0.118798 6.14836 0.0215574 6.14779 -0.0756836 6.14665C-0.0750642 4.10574 -0.0756836 2.06427 -0.0756836 0.0227893Z" fill="#272727"/>
<path d="M76.6419 0.0224609C80.0013 0.0230307 83.3614 0.0230307 86.7209 0.0224609C86.7209 0.0577865 86.7215 0.129007 86.7221 0.164333C86.068 0.287403 85.3917 0.377995 84.7965 0.673705C84.3481 0.882809 83.9671 1.2184 83.7466 1.63547C83.4853 2.13402 83.4432 2.69638 83.4394 3.24108C83.4438 7.26819 83.4382 11.2959 83.4419 15.3236C83.4512 15.9269 83.4122 16.5332 83.4834 17.1343C83.5553 17.7132 83.8228 18.2932 84.3326 18.6584C85.0083 19.1632 85.8928 19.2886 86.7209 19.4384C86.7209 19.472 86.7215 19.5398 86.7215 19.5735C83.3614 19.5729 80.0013 19.5729 76.6412 19.5729C76.6412 19.5398 76.6412 19.4726 76.6412 19.439C77.2649 19.3182 77.9116 19.2384 78.4876 18.9706C79.0407 18.7325 79.525 18.312 79.7177 17.769C79.8874 17.3514 79.9202 16.9012 79.9239 16.4597C79.9239 12.3385 79.9239 8.21742 79.9239 4.09573C79.9109 3.48722 79.9679 2.8713 79.8421 2.26962C79.7468 1.74999 79.4575 1.25999 79.0029 0.934088C78.3334 0.437251 77.4588 0.312472 76.6406 0.163763C76.6406 0.128438 76.6419 0.0577865 76.6419 0.0224609Z" fill="#272727"/>
<path d="M87.3132 0.0235064C89.7764 0.0200878 92.2397 0.0235064 94.7035 0.0217971C95.3693 1.1129 96.2253 2.09005 97.0788 3.05979C98.4736 4.62153 99.905 6.15534 101.32 7.70112C103.44 10.0001 105.553 12.3043 107.672 14.6038C107.64 11.3471 107.612 8.09027 107.58 4.83348C107.576 3.85177 107.526 2.83759 107.101 1.92197C106.852 1.38012 106.406 0.911773 105.832 0.647401C105.15 0.328332 104.376 0.25996 103.629 0.164809C103.63 0.128913 103.63 0.0571227 103.631 0.0217971C108.874 0.0229367 114.118 0.021797 119.361 0.0223668C120.723 0.0286342 122.085 0.00527378 123.446 0.0405993C125.113 0.108971 126.793 0.368785 128.331 0.981285C130.343 1.73452 132.12 3.06435 133.23 4.79303C134.4 6.58893 134.837 8.75006 134.595 10.8223C134.362 12.853 133.442 14.834 131.901 16.316C130.286 17.9159 128.055 18.9267 125.736 19.3209C124.005 19.6514 122.231 19.5608 120.477 19.5722C117.68 19.5711 114.883 19.5745 112.087 19.5705C112.093 19.5386 112.105 19.4742 112.111 19.4423C112.586 19.3506 113.076 19.313 113.538 19.1677C114.116 18.9979 114.671 18.6839 114.987 18.1939C115.303 17.6891 115.383 17.0932 115.382 16.52C115.382 12.3783 115.384 8.2367 115.381 4.09506C115.371 3.05524 115.187 1.92596 114.399 1.12715C113.692 0.400122 112.582 0.146006 111.555 0.165948C110.734 0.171076 109.883 0.340297 109.218 0.803517C108.514 1.28839 108.123 2.06612 107.972 2.8467C107.82 3.55834 107.853 4.28707 107.85 5.0084C107.849 10.003 107.849 14.9976 107.849 19.9921C107.799 19.9927 107.697 19.9938 107.646 19.9944C104.529 16.6362 101.435 13.2592 98.3244 9.89415C96.2792 7.67491 94.2322 5.45681 92.187 3.23756C92.2161 6.52569 92.2471 9.81381 92.275 13.1019C92.2805 14.3531 92.3152 15.6271 92.7135 16.8339C92.9098 17.4185 93.2133 17.9888 93.7032 18.4139C94.3883 19.0287 95.3545 19.2269 96.2513 19.4372C96.2519 19.4708 96.2519 19.5386 96.2519 19.5722C93.5088 19.5728 90.7656 19.5722 88.0224 19.5728C88.0224 19.5392 88.0218 19.4719 88.0218 19.4389C88.7309 19.2702 89.4674 19.1284 90.0954 18.7649C90.8498 18.333 91.3286 17.5951 91.58 16.8271C91.9882 15.585 92.0161 14.2739 92.0037 12.9863C92.0043 9.69359 91.9994 6.40091 92.0074 3.10879C91.2642 2.3493 90.5054 1.58695 89.5882 1.00237C88.9533 0.60011 88.2255 0.328332 87.4693 0.195006C87.3547 0.191018 87.2971 0.131192 87.3132 0.0235064ZM118.905 0.164809C118.905 5.5776 118.905 10.9904 118.905 16.4032C118.905 16.937 118.929 17.4783 119.092 17.994C119.218 18.4908 119.571 18.9438 120.069 19.1779C120.611 19.4434 121.243 19.4423 121.841 19.4377C123.274 19.4543 124.734 19.2452 126.033 18.6686C127.169 18.1677 128.146 17.3797 128.855 16.4237C129.606 15.4277 130.07 14.2705 130.352 13.0923C130.628 11.9163 130.729 10.7089 130.706 9.50728C130.68 8.18086 130.495 6.84818 130.043 5.585C129.656 4.49675 129.063 3.45977 128.234 2.60113C127.45 1.79263 126.462 1.15165 125.364 0.757366C124.208 0.335169 122.957 0.16025 121.717 0.164809C120.78 0.164809 119.842 0.164809 118.905 0.164809Z" fill="#272727"/>
<path d="M135.377 0.0241754C141.362 0.0207568 147.349 0.0236057 153.335 0.0230359C153.335 1.8668 153.335 3.71114 153.335 5.55547C153.298 5.55661 153.224 5.55832 153.187 5.55946C152.778 4.89283 152.378 4.22222 151.977 3.55217C151.719 3.13111 151.472 2.70208 151.149 2.3192C150.658 1.70613 150.012 1.19448 149.264 0.864581C148.402 0.473721 147.443 0.317036 146.494 0.231571C145.061 0.123885 143.622 0.179152 142.186 0.165478C142.185 3.24735 142.193 6.32979 142.186 9.41166C143.268 9.3826 144.353 9.39969 145.432 9.31423C146.092 9.25782 146.777 9.15355 147.345 8.81853C147.917 8.48293 148.307 7.94451 148.582 7.38499C148.935 6.68133 149.16 5.93266 149.413 5.19595C149.452 5.19538 149.528 5.19424 149.566 5.19367C149.566 8.05162 149.565 10.909 149.567 13.767C149.529 13.7675 149.454 13.7681 149.416 13.7681C149.121 12.955 148.873 12.122 148.445 11.3557C148.134 10.7871 147.664 10.2606 147.017 10.0008C146.211 9.66976 145.308 9.6595 144.442 9.62133C143.69 9.60082 142.937 9.5974 142.186 9.57917C142.19 11.893 142.187 14.2068 142.189 16.5201C142.197 17.1576 142.265 17.8186 142.6 18.3895C142.849 18.802 143.275 19.1108 143.759 19.2624C144.455 19.4891 145.205 19.4299 145.931 19.4378C147.19 19.4321 148.482 19.3245 149.646 18.8498C150.356 18.5627 150.994 18.1314 151.513 17.6015C151.989 17.1331 152.364 16.589 152.715 16.0386C153.12 15.4056 153.536 14.7789 153.937 14.1441C153.975 14.0644 154.045 14.0279 154.149 14.0336C154.154 15.8802 154.146 17.7268 154.147 19.5729C147.89 19.5717 141.633 19.5757 135.375 19.5712C135.382 19.5387 135.394 19.4737 135.401 19.4413C135.935 19.3444 136.488 19.3091 136.999 19.1211C137.576 18.9325 138.087 18.5501 138.357 18.0385C138.602 17.5474 138.668 16.9998 138.666 16.4648C138.666 12.1898 138.666 7.91545 138.665 3.64049C138.656 3.03482 138.708 2.40865 138.483 1.82749C138.325 1.34945 137.925 0.962582 137.456 0.724989C136.824 0.397943 136.095 0.309629 135.399 0.161489C135.393 0.127303 135.382 0.0583615 135.377 0.0241754Z" fill="#272727"/>
<path d="M156.647 0.0217144C159.413 0.0239934 162.179 0.0217144 164.945 0.0228539C166.43 0.00234229 167.942 0.0849585 169.355 0.542481C170.53 0.905423 171.637 1.50824 172.466 2.36517C173.326 3.24375 173.854 4.39866 173.901 5.58321C173.999 6.99395 173.448 8.43433 172.388 9.46048C171.662 10.2006 170.712 10.7259 169.713 11.0951C168.416 11.5589 167.015 11.7344 165.63 11.7247C165.254 11.7242 164.88 11.7247 164.507 11.7242C164.507 11.6843 164.506 11.6034 164.506 11.5629C165.903 11.5772 167.361 11.184 168.364 10.2553C169.32 9.40122 169.814 8.19787 169.981 7.00022C170.147 5.70058 170.062 4.34511 169.535 3.1184C169.151 2.24438 168.51 1.44727 167.638 0.93847C167.033 0.57154 166.335 0.34933 165.623 0.245633C164.912 0.134528 164.187 0.172133 163.469 0.165296C163.473 5.54105 163.469 10.9162 163.473 16.2914C163.487 16.9079 163.497 17.562 163.832 18.1158C164.106 18.5551 164.61 18.8178 165.116 18.9813C165.765 19.1938 166.444 19.3072 167.116 19.4377C167.116 19.4713 167.115 19.5391 167.115 19.5733C163.624 19.5727 160.132 19.5727 156.641 19.5727C156.641 19.5391 156.641 19.4719 156.641 19.4382C157.33 19.31 158.047 19.2126 158.667 18.885C159.181 18.6212 159.599 18.1791 159.756 17.6514C159.943 17.1204 159.915 16.5558 159.918 16.0054C159.915 11.8062 159.92 7.60702 159.915 3.40841C159.93 2.71785 159.9 1.97488 159.465 1.38346C159.027 0.784632 158.26 0.486075 157.52 0.333947C157.226 0.271842 156.931 0.221133 156.638 0.165296C156.64 0.1294 156.645 0.0576097 156.647 0.0217144Z" fill="#272727"/>
<path d="M174.753 0.024109C180.739 0.0212602 186.725 0.0229695 192.711 0.0229695C192.711 1.86731 192.711 3.71164 192.711 5.55598C192.658 5.55598 192.608 5.55655 192.561 5.55712C192.002 4.65404 191.479 3.73272 190.908 2.83591C190.312 1.92371 189.44 1.14427 188.356 0.745434C186.989 0.228086 185.485 0.177376 184.028 0.165411C183.209 0.165981 182.389 0.164841 181.57 0.165981C181.571 3.24785 181.569 6.32972 181.571 9.41159C182.473 9.38823 183.376 9.39393 184.278 9.34892C184.904 9.31473 185.539 9.26801 186.136 9.07828C186.711 8.90222 187.212 8.53928 187.541 8.07207C188.183 7.21058 188.434 6.17475 188.8 5.20215C188.836 5.19759 188.906 5.18848 188.942 5.18392C188.94 8.04244 188.951 10.9015 188.936 13.7595C188.901 13.764 188.832 13.7732 188.797 13.7777C188.445 12.8103 188.165 11.7989 187.554 10.9352C187.248 10.5141 186.825 10.154 186.309 9.96541C185.642 9.71129 184.911 9.67426 184.2 9.63437C183.324 9.60019 182.447 9.60076 181.57 9.5791C181.57 11.9117 181.569 14.2444 181.571 16.577C181.574 17.2254 181.664 17.9 182.031 18.4663C182.343 18.9415 182.898 19.2435 183.481 19.3517C184.107 19.4765 184.751 19.4287 185.386 19.4366C186.789 19.4281 188.247 19.2777 189.489 18.6344C190.476 18.1336 191.238 17.3296 191.82 16.4545C192.347 15.6585 192.85 14.8489 193.384 14.0569C193.42 14.0518 193.491 14.0404 193.526 14.0347C193.529 15.8807 193.523 17.7268 193.524 19.5728C187.267 19.5723 181.009 19.5751 174.752 19.5711C174.758 19.5386 174.77 19.4731 174.777 19.4401C175.346 19.3415 175.937 19.3016 176.474 19.0857C177.102 18.8572 177.639 18.3854 177.846 17.786C178.043 17.2698 178.052 16.716 178.047 16.1753C178.047 12.0724 178.047 7.97008 178.047 3.86719C178.033 3.18119 178.109 2.47069 177.857 1.81147C177.704 1.35509 177.323 0.988155 176.882 0.749992C176.239 0.401865 175.489 0.312981 174.775 0.161423C174.77 0.127237 174.759 0.0582951 174.753 0.024109Z" fill="#272727"/>
<path d="M195.074 0.0225341C197.533 0.0236736 199.993 0.022534 202.452 0.0231038C203.113 1.10737 203.962 2.07939 204.811 3.0423C206.277 4.68836 207.788 6.30023 209.277 7.92862C211.324 10.1541 213.371 12.3808 215.419 14.6057C215.389 11.5586 215.363 8.51149 215.333 5.46438C215.323 4.58124 215.347 3.68842 215.151 2.81895C215.026 2.27767 214.822 1.73753 214.446 1.29881C214.09 0.877754 213.573 0.591731 213.022 0.440173C212.523 0.307987 212.007 0.239615 211.495 0.17979C211.39 0.17979 211.347 0.127941 211.366 0.0242433C216.54 0.0208247 221.714 0.0236735 226.888 0.0231038C228.31 0.029941 229.733 0.00658047 231.155 0.0401967C232.834 0.10515 234.528 0.365534 236.078 0.981452C238.139 1.74722 239.943 3.12719 241.055 4.90601C243.108 8.20097 242.814 12.6132 240.294 15.6296C239.073 17.0853 237.38 18.1839 235.504 18.81C233.863 19.3667 232.102 19.5855 230.358 19.5735C226.852 19.5718 223.347 19.5758 219.842 19.5712C219.849 19.5388 219.86 19.4732 219.866 19.4408C220.358 19.3507 220.865 19.3091 221.342 19.1525C221.904 18.9804 222.441 18.663 222.743 18.1816C223.061 17.6819 223.127 17.0876 223.129 16.5196C223.131 12.4549 223.129 8.38956 223.13 4.32485C223.14 3.23032 222.995 2.03552 222.19 1.17175C221.461 0.388894 220.28 0.12965 219.199 0.168964C218.191 0.182069 217.118 0.491452 216.475 1.24411C216.057 1.7193 215.823 2.31129 215.71 2.9084C215.589 3.52432 215.597 4.15278 215.598 4.77667C215.601 9.85102 215.595 14.9259 215.6 20.0003C215.517 19.9923 215.436 19.9838 215.36 19.9746C212.222 16.5458 209.059 13.1369 205.909 9.71712C203.918 7.55656 201.925 5.39886 199.934 3.2383C199.963 6.42956 199.992 9.6214 200.02 12.8132C200.026 14.1488 200.031 15.5099 200.448 16.8016C200.686 17.5406 201.118 18.2648 201.832 18.6995C202.396 19.0573 203.07 19.214 203.723 19.373C203.847 19.4117 204.052 19.3946 204.019 19.5712C201.267 19.5747 198.515 19.5747 195.763 19.5712C195.726 19.4032 195.916 19.4128 196.036 19.3775C196.732 19.2134 197.457 19.0471 198.039 18.6391C198.766 18.148 199.186 17.3668 199.404 16.5783C199.823 15.1282 199.745 13.616 199.751 12.1307C199.741 9.11887 199.767 6.1048 199.739 3.09415C198.955 2.29704 198.155 1.48627 197.166 0.900545C196.533 0.518801 195.806 0.297162 195.069 0.160987C195.07 0.126231 195.073 0.0572899 195.074 0.0225341ZM226.652 0.165546C226.653 5.59827 226.652 11.031 226.652 16.4637C226.651 17.0774 226.7 17.703 226.94 18.2813C227.131 18.7234 227.522 19.0869 228.006 19.259C228.612 19.4835 229.279 19.4328 229.92 19.4368C230.939 19.4265 231.963 19.2915 232.93 18.9889C234.043 18.6448 235.065 18.0505 235.868 17.2614C236.796 16.3669 237.424 15.2393 237.821 14.065C238.262 12.7597 238.437 11.3882 238.456 10.0248C238.47 8.68356 238.334 7.33265 237.939 6.03814C237.604 4.93108 237.078 3.85935 236.3 2.95399C235.567 2.07939 234.596 1.37858 233.509 0.91137C232.253 0.383196 230.861 0.162127 229.485 0.165546C228.54 0.165546 227.596 0.164976 226.652 0.165546Z" fill="#272727"/>
<path d="M243.136 0.0226239C249.117 0.0226239 255.098 0.0243332 261.079 0.0214844C261.086 1.86468 261.077 3.70731 261.084 5.54994C261.03 5.55335 260.981 5.55734 260.935 5.56019C260.377 4.65882 259.853 3.73865 259.282 2.84354C258.678 1.91254 257.782 1.12057 256.673 0.725717C255.38 0.249391 253.964 0.183868 252.587 0.166205C251.704 0.165066 250.822 0.165635 249.94 0.165635C249.94 3.24751 249.94 6.32938 249.94 9.41125C250.844 9.38903 251.75 9.39358 252.653 9.34914C253.282 9.31496 253.921 9.2671 254.521 9.07452C255.093 8.89561 255.591 8.52925 255.919 8.06261C256.555 7.20169 256.805 6.17155 257.172 5.20352C257.207 5.19839 257.277 5.18813 257.312 5.183C257.317 8.04267 257.308 10.9029 257.315 13.7626C257.278 13.7648 257.203 13.7694 257.166 13.7717C256.811 12.8071 256.54 11.7934 255.924 10.9331C255.618 10.5149 255.2 10.1565 254.687 9.96734C254.046 9.72063 253.343 9.67904 252.659 9.63858C251.753 9.59927 250.847 9.60212 249.941 9.57933C249.94 11.9114 249.94 14.2429 249.941 16.5744C249.944 17.2114 250.032 17.8711 250.379 18.4335C250.663 18.8842 251.164 19.1919 251.707 19.3201C252.378 19.4842 253.078 19.4289 253.764 19.4369C255.149 19.4266 256.587 19.2808 257.819 18.6551C258.836 18.1435 259.627 17.3196 260.215 16.412C260.682 15.6986 261.142 14.9813 261.609 14.2674C261.68 14.1631 261.731 14.0127 261.9 14.0343C261.904 15.8804 261.9 17.7264 261.902 19.573C255.642 19.5725 249.382 19.5753 243.123 19.5713C243.129 19.5389 243.14 19.4739 243.147 19.4409C243.731 19.3417 244.338 19.2973 244.889 19.0694C245.416 18.8705 245.866 18.499 246.115 18.0238C246.356 17.5361 246.417 16.9931 246.418 16.4621C246.417 12.149 246.418 7.83641 246.418 3.52327C246.416 2.96091 246.44 2.38203 246.238 1.84303C246.077 1.35018 245.668 0.948496 245.179 0.711472C244.547 0.395821 243.827 0.3001 243.134 0.163356C243.134 0.128031 243.135 0.0579495 243.136 0.0226239Z" fill="#272727"/>
<path d="M263.462 0.0239265C265.924 0.0193684 268.386 0.0256357 270.848 0.0205078C271.496 1.07515 272.321 2.02267 273.143 2.96449C274.596 4.5889 276.086 6.18539 277.558 7.79498C279.648 10.0627 281.731 12.336 283.821 14.6037C283.789 11.4238 283.763 8.24396 283.73 5.06409C283.719 4.29547 283.653 3.52287 283.448 2.7759C283.231 1.97709 282.783 1.18511 282.008 0.733856C281.345 0.339577 280.545 0.248985 279.779 0.164659C279.779 0.129333 279.78 0.0581126 279.78 0.0222173C282.502 0.022787 285.225 0.0222172 287.947 0.0227869C287.947 0.0586823 287.947 0.129903 287.947 0.165798C287.455 0.227333 286.956 0.267787 286.484 0.412508C285.923 0.572042 285.4 0.869461 285.034 1.29508C284.606 1.7657 284.377 2.35712 284.229 2.94797C283.928 4.16556 284.016 5.42247 284.001 6.66114C284.003 11.1053 283.996 15.5489 284.003 19.9926C283.951 19.9931 283.846 19.9937 283.794 19.9943C278.632 14.4162 273.491 8.8217 268.336 3.23798C268.365 6.5056 268.396 9.77378 268.424 13.0414C268.431 14.3809 268.458 15.7518 268.934 17.0326C269.209 17.7767 269.73 18.4724 270.498 18.8468C271.089 19.1447 271.753 19.2832 272.401 19.4376C272.401 19.4712 272.401 19.539 272.401 19.5726C269.66 19.5726 266.919 19.5726 264.179 19.5726C264.179 19.539 264.178 19.4718 264.178 19.4382C264.769 19.2969 265.374 19.1755 265.927 18.9277C266.486 18.6787 266.961 18.273 267.276 17.7796C267.831 16.9181 267.997 15.905 268.1 14.9233C268.203 13.4813 268.131 12.0346 268.153 10.5903C268.15 8.09867 268.158 5.6065 268.149 3.11491C268.054 2.97646 267.915 2.87219 267.802 2.74969C266.943 1.89675 266.034 1.029 264.86 0.550961C264.423 0.359519 263.949 0.266077 263.485 0.160101C263.479 0.125915 263.468 0.0581125 263.462 0.0239265Z" fill="#272727"/>
<path d="M289.101 0.0227142C295.374 0.0227142 301.648 0.0221444 307.922 0.0227142C307.922 2.14852 307.923 4.27489 307.924 6.40069C307.887 6.39556 307.812 6.38474 307.775 6.37961C307.3 5.34491 306.886 4.28514 306.388 3.25899C305.928 2.33483 305.338 1.40953 304.4 0.832353C303.576 0.320702 302.561 0.164016 301.586 0.165726C301.147 0.164016 300.709 0.165726 300.273 0.165156C300.276 5.48279 300.274 10.8004 300.275 16.1181C300.268 16.7152 300.276 17.3305 300.52 17.8946C300.745 18.4359 301.242 18.8598 301.822 19.0763C302.37 19.2945 302.971 19.3481 303.555 19.4375C303.555 19.4711 303.555 19.5389 303.555 19.5726C300.195 19.5726 296.835 19.5726 293.475 19.5726C293.475 19.5389 293.475 19.4711 293.475 19.4375C294.039 19.3504 294.62 19.2996 295.156 19.0957C295.7 18.9037 296.176 18.5339 296.436 18.049C296.69 17.5556 296.754 17.0018 296.752 16.4616C296.752 11.0295 296.753 5.59732 296.75 0.165156C295.904 0.178261 295.05 0.117296 294.215 0.263156C293.336 0.402749 292.506 0.802156 291.908 1.41238C291.13 2.18954 290.661 3.17182 290.236 4.13871C289.943 4.80705 289.653 5.47653 289.364 6.146C289.307 6.25882 289.287 6.43373 289.106 6.4024C289.098 4.27603 289.102 2.14909 289.101 0.0227142Z" fill="#272727"/>
<path d="M19.2409 0.0227142C20.9169 0.0227142 22.5929 0.0221444 24.2683 0.0227142C24.2677 2.7217 24.2708 5.42012 24.2646 8.1191C24.7799 7.35904 25.5014 6.72261 26.332 6.25825C27.1378 5.78933 28.1034 5.54889 29.0572 5.59675C30.1659 5.63378 31.2944 5.98988 32.0915 6.71919C32.8515 7.41145 33.2547 8.3755 33.3891 9.33841C33.4839 9.92413 33.4702 10.5184 33.4709 11.1087C33.4709 13.0054 33.4715 14.9028 33.4702 16.7995C33.4634 17.2114 33.5241 17.6616 33.845 17.9744C34.2116 18.3538 34.779 18.4461 35.2869 18.5721C35.2844 18.6604 35.2831 18.7492 35.2819 18.8387C33.0032 18.8398 30.7252 18.8387 28.4465 18.8393C28.4459 18.7498 28.4453 18.6609 28.4459 18.5726C28.9445 18.449 29.4964 18.3584 29.8661 17.9966C30.1597 17.7077 30.2576 17.2981 30.2576 16.9135C30.2588 15.2064 30.2576 13.4988 30.2582 11.7918C30.2458 10.9508 30.3238 10.0882 30.0489 9.27345C29.8457 8.62221 29.3973 8.0194 28.7507 7.67924C27.9894 7.27528 27.0461 7.21261 26.2125 7.44792C25.4946 7.63252 24.8629 8.00914 24.2683 8.4114C24.2664 11.2272 24.2701 14.0435 24.2677 16.8599C24.2602 17.302 24.3767 17.7892 24.7619 18.0855C25.1286 18.38 25.6235 18.4552 26.0775 18.5726C26.0768 18.6615 26.0768 18.7504 26.0768 18.8393C23.7982 18.8387 21.5189 18.8398 19.2402 18.8387C19.2402 18.7498 19.2402 18.6609 19.2402 18.5726C19.7456 18.4444 20.3142 18.3561 20.679 17.9755C20.9788 17.6775 21.0556 17.2559 21.0525 16.8633C21.0519 11.9035 21.0531 6.94311 21.0519 1.98328C21.0587 1.57818 20.9608 1.14402 20.6375 0.848876C20.2671 0.504167 19.7283 0.415853 19.2402 0.293354C19.2402 0.202761 19.2402 0.112737 19.2409 0.0227142Z" fill="#272727"/>
<path d="M39.696 6.37603C40.6331 5.86894 41.7195 5.6114 42.804 5.59602C43.9164 5.57323 45.0517 5.76809 46.0346 6.26093C46.9767 6.727 47.7565 7.47397 48.195 8.37363C48.5623 9.07843 48.7047 9.86528 48.7022 10.6419C45.6339 10.6493 42.5637 10.6288 39.4959 10.6521C39.3975 11.864 39.5381 13.1078 40.0137 14.2474C40.4126 15.1755 41.0592 16.0416 41.974 16.5988C42.8616 17.1611 43.9672 17.393 45.0356 17.3207C46.5667 17.2101 48.0036 16.3093 48.6614 15.0314C48.7524 15.0627 48.8422 15.0952 48.9333 15.1288C48.7208 15.9606 48.2024 16.7025 47.593 17.3366C46.6763 18.279 45.4152 18.9388 44.0576 19.1513C42.9365 19.3211 41.7703 19.2391 40.6901 18.916C39.6192 18.5901 38.648 17.9833 37.9426 17.1725C37.1547 16.2866 36.6685 15.196 36.4493 14.0742C36.0714 12.199 36.3136 10.1701 37.3907 8.51607C37.95 7.64148 38.7409 6.88711 39.696 6.37603ZM42.031 6.00853C41.3218 6.20852 40.7656 6.72131 40.4157 7.30931C39.857 8.23917 39.6415 9.30007 39.4941 10.3427C41.4711 10.3433 43.4481 10.3433 45.4252 10.3427C45.4258 9.29437 45.4636 8.19928 44.9972 7.21814C44.8039 6.74524 44.4329 6.32361 43.9374 6.0957C43.3484 5.83076 42.6491 5.83646 42.031 6.00853Z" fill="#272727"/>
<path d="M63.709 0.0359297C65.3094 -0.0882795 66.9427 0.10886 68.444 0.638174C69.8444 1.13501 71.1271 1.90078 72.1968 2.86881C73.8617 4.40206 74.9895 6.44353 75.2639 8.60238C75.5761 11.021 74.8396 13.5263 73.2863 15.4937C72.2563 16.8224 70.8652 17.9129 69.2765 18.6388C66.4831 19.9544 63.0221 20.0689 60.1786 18.8177C58.7844 18.2371 57.5407 17.3671 56.5342 16.3073C55.1821 14.863 54.2753 13.058 54.0127 11.1629C53.6925 8.96988 54.1917 6.67657 55.454 4.78893C57.1678 2.1133 60.3421 0.283209 63.709 0.0359297ZM58.0969 3.86533C58.1117 3.96163 58.1111 4.06646 58.173 4.15079C58.4059 4.50575 58.6592 4.84875 58.8822 5.20885C58.5094 4.94789 58.152 4.66757 57.7971 4.38667C57.5784 4.09096 57.444 3.74739 57.2378 3.44371C57.257 3.69896 57.3134 3.95023 57.3524 4.20378C57.3753 4.67611 57.7581 5.03108 57.9463 5.451C57.7104 5.28463 57.4855 5.10572 57.252 4.93707C56.9479 4.74107 56.8148 4.40775 56.5831 4.15193C56.6221 4.34508 56.6723 4.53595 56.7181 4.72796C56.7751 5.14446 57.1449 5.43048 57.3561 5.7826C57.0681 5.64187 56.7832 5.49601 56.5057 5.33932C56.3354 5.20258 56.2245 5.01455 56.0622 4.8704C56.1242 5.04532 56.1904 5.2191 56.2548 5.39345C56.3372 5.64187 56.5682 5.80938 56.7188 6.02076C56.572 5.99683 56.427 5.97119 56.2802 5.95011C56.554 6.22075 56.868 6.45322 57.148 6.71873C56.8841 6.70733 56.6197 6.69024 56.3558 6.68568C56.7113 6.91131 57.0922 7.10047 57.449 7.32325C57.2663 7.33864 57.0842 7.35117 56.9027 7.3694C57.3189 7.53122 57.7506 7.65884 58.1656 7.82636C57.9903 7.88105 57.8157 7.93461 57.646 8.00184C58.6345 8.08503 59.6292 8.11238 60.614 8.22063C60.0664 8.23887 59.5183 8.23431 58.9714 8.23488C58.959 8.33687 58.9491 8.43942 58.9392 8.54141C59.6273 8.54084 60.3148 8.51235 61.0023 8.51748C60.5118 8.6058 60.0088 8.61947 59.514 8.68101C59.4942 8.80123 59.4737 8.92145 59.4558 9.04167C60.1296 8.95905 60.8029 8.86846 61.478 8.7904C60.9571 8.93626 60.4183 9.0223 59.8899 9.14366C59.8825 9.28268 59.8751 9.4217 59.8689 9.56073C60.5564 9.39777 61.2346 9.20063 61.9264 9.05534C61.3721 9.28838 60.7911 9.46216 60.2306 9.68152C60.2349 9.80801 60.2393 9.93392 60.2455 10.0604C60.9429 9.80516 61.6223 9.50489 62.3315 9.28097C61.7734 9.56187 61.2135 9.84048 60.6499 10.1123C60.6641 10.2444 60.6827 10.3755 60.7044 10.5071C61.3931 10.1989 62.0627 9.85473 62.7582 9.5613C62.2095 9.90373 61.6396 10.2182 61.0835 10.5504C61.1138 10.6598 61.1442 10.7692 61.1757 10.8792C61.8304 10.5578 62.4721 10.2125 63.1342 9.90373C62.6474 10.2359 62.1277 10.5265 61.6273 10.8421C61.6731 10.9618 61.7202 11.0809 61.7679 11.2005C62.3148 10.9059 62.8505 10.5937 63.4036 10.3094C63.0698 10.5846 62.6882 10.8057 62.3346 11.0581C62.3959 11.1697 62.4572 11.282 62.5192 11.3937C62.7898 11.2427 63.0543 11.0826 63.3305 10.9396C63.2314 11.0353 63.1249 11.1236 63.019 11.2108C63.0654 11.2985 63.1137 11.3863 63.1614 11.474C63.4476 11.3714 63.7746 11.3213 64.0038 11.1185C64.1636 10.992 64.2218 10.8005 64.3023 10.6285C64.2831 11.0359 63.9357 11.3589 63.5287 11.4763C62.7409 11.7674 61.9345 12.0153 61.1503 12.3116C60.6933 12.9212 60.2814 13.5611 59.8373 14.1798C59.7784 14.2767 59.6719 14.369 59.7078 14.4915C59.9333 14.3274 60.0943 14.1052 60.2869 13.9115C60.6654 13.5189 61.0184 13.1047 61.413 12.7258C61.1088 13.1787 60.7657 13.6084 60.4467 14.0522C60.6431 14.0243 60.8413 13.9958 61.0389 13.9696C61.3529 13.5622 61.6378 13.1354 61.963 12.7355C61.7617 13.1463 61.5244 13.5411 61.3083 13.9457C61.4396 13.9377 61.5721 13.9314 61.7053 13.9229C61.7691 13.9092 61.8682 13.9348 61.893 13.8568C62.1067 13.4864 62.2795 13.0973 62.5055 12.7326C62.3916 13.1286 62.2237 13.5092 62.0918 13.8995C62.2801 13.8881 62.4696 13.8761 62.6591 13.8642C62.7873 13.5007 62.8809 13.1252 63.0369 12.7702C62.9899 13.1309 62.9069 13.487 62.8456 13.8454C63.0376 13.8118 63.2296 13.7776 63.4228 13.7451C63.4736 13.4141 63.4953 13.079 63.5622 12.7503C63.5826 13.0642 63.5677 13.3787 63.5727 13.6927C63.717 13.6186 63.8619 13.5451 64.0063 13.4699C63.984 13.2243 63.9524 12.9799 63.9511 12.7338C64.0186 12.96 64.062 13.1913 64.1246 13.4186C64.1599 13.434 64.2317 13.4636 64.2676 13.479C64.3054 13.5747 64.3438 13.6705 64.3835 13.7662C64.6436 13.8551 64.8412 14.0402 65.0505 14.2009C64.9619 14.1724 64.8752 14.1428 64.7898 14.1137C63.9623 14.3177 63.1416 14.5416 62.3228 14.7735C62.827 15.0419 63.3336 15.3057 63.8372 15.5752C64.0094 15.6641 64.0849 15.8646 63.992 16.0282C63.9939 15.8874 63.9858 15.7142 63.8266 15.6453C63.4928 15.5005 63.1521 15.3689 62.814 15.2328C62.5761 15.308 62.3265 15.3558 62.0992 15.4561C61.9283 15.5393 61.9407 15.7826 62.0924 15.8777C62.277 15.9837 62.4931 16.0316 62.6951 16.1045C63.0016 16.1974 63.2989 16.3296 63.621 16.3734C64.0527 16.4019 64.42 16.1541 64.8046 16.0133C65.6197 15.7114 66.2998 15.1866 67.004 14.7166C66.7563 14.9752 66.4639 15.1929 66.2019 15.4379C66.6206 15.2624 67.0443 15.0954 67.4685 14.9314C67.9504 14.7393 68.3902 14.471 68.8324 14.2129C68.6608 14.3798 68.467 14.5251 68.288 14.6841C68.999 14.5747 69.7193 14.5035 70.4409 14.4915C70.654 14.4841 70.906 14.455 71.0311 14.2733C71.16 14.0881 71.0578 13.8328 70.8614 13.7269C70.4688 13.5058 70.068 13.2978 69.6747 13.0785C69.0671 13.1736 68.4701 13.3178 67.8618 13.4084C68.0415 13.4545 68.0972 13.6272 68.0879 13.781C68.0031 13.6511 67.9114 13.5223 67.7751 13.4329C67.7274 13.4425 67.6314 13.4614 67.5831 13.471C67.7181 13.5622 67.7906 13.6967 67.7751 13.8528C67.6958 13.7485 67.6364 13.6254 67.5187 13.5531C67.2908 13.4032 67.082 13.2312 66.8727 13.0614C66.8207 12.7144 66.8863 12.3714 66.8789 12.0238C66.6584 12.1965 66.4565 12.3902 66.2205 12.5457C66.8312 11.8535 67.4803 11.1908 68.0947 10.5008C67.8922 10.4649 67.6884 10.4365 67.4908 10.3835C67.8185 10.3721 68.1474 10.3772 68.4756 10.3812C68.6156 10.4889 68.7971 10.5139 68.9748 10.4929C68.9067 10.3852 68.8349 10.2792 68.7643 10.1738C69.0139 9.98178 69.2288 10.3499 69.108 10.5481C69.274 10.4786 69.4784 10.3863 69.4939 10.1943C69.5186 9.92139 69.2418 9.75616 69.0702 9.57326C69.0523 9.4633 69.0498 9.34422 68.9767 9.25077C68.8627 9.09466 68.6571 9.03996 68.4793 8.97216C68.252 8.89638 68.034 8.79667 67.8024 8.7357C67.3961 8.70152 66.986 8.75451 66.581 8.7095C66.9817 8.63144 67.3961 8.62916 67.798 8.5568C67.9591 8.46051 68.073 8.30325 68.2539 8.2326C68.6899 8.06452 69.134 7.91581 69.5688 7.74545C69.6853 7.70556 69.759 7.61098 69.7986 7.50615C70.0135 6.97683 70.2247 6.44638 70.4378 5.91593C70.5542 5.5866 70.8404 5.34559 71.0442 5.06242C71.4591 4.5445 71.8815 4.03057 72.2922 3.50923C71.8791 3.75423 71.4938 4.03626 71.085 4.28696C71.243 3.9639 71.4337 3.65509 71.5917 3.33203C71.3024 3.65509 71.0757 4.02088 70.797 4.35135C70.8026 4.01404 70.8782 3.67959 70.8521 3.34172C70.7512 3.67902 70.6781 4.02316 70.5679 4.35818C70.3944 4.01176 70.265 3.64825 70.0848 3.30525C70.1628 3.6511 70.2625 3.99296 70.3554 4.33596C70.4427 4.59862 70.3895 4.8761 70.3579 5.14332C70.2991 4.91143 70.3325 4.65104 70.1733 4.44935C69.9392 4.1035 69.7391 3.73771 69.4864 3.40325C69.6698 3.83628 69.9089 4.24822 70.094 4.6801C70.1355 5.00487 70.1374 5.33419 70.1473 5.66124C70.0513 5.36268 70.0649 5.04475 69.9739 4.74619C69.6407 4.3485 69.3124 3.94339 68.9507 3.56678C69.2176 3.96789 69.51 4.35363 69.7837 4.75018C69.8283 4.80716 69.8382 4.87781 69.842 4.94675C69.8605 5.3228 69.8636 5.69999 69.8952 6.07603C69.8853 6.07489 69.8649 6.07318 69.855 6.07204C69.7967 5.67947 69.7614 5.28121 69.6753 4.89319C69.3062 4.52228 68.9296 4.15364 68.5363 3.8038C68.8454 4.2015 69.1786 4.58324 69.5013 4.97182C69.536 5.47607 69.5899 5.98031 69.6072 6.48569C69.4759 6.01962 69.4437 5.53361 69.3248 5.06526C68.9476 4.73138 68.5376 4.422 68.1282 4.12059C68.4502 4.48182 68.8274 4.79918 69.147 5.16212C69.2108 5.6846 69.2957 6.2105 69.2981 6.73753C69.1978 6.23955 69.0739 5.74557 68.9594 5.25044C68.5543 5.00544 68.1653 4.73765 67.7516 4.50575C68.0706 4.81457 68.4639 5.05843 68.7723 5.37408C68.8751 5.88516 68.9686 6.39966 69.0454 6.9153C68.8627 6.43954 68.7426 5.94555 68.5853 5.46239C68.2006 5.27152 67.8247 5.0664 67.4345 4.88636C67.7398 5.13421 68.0879 5.33248 68.4112 5.55925C68.5134 6.06691 68.6336 6.57173 68.724 7.0811C68.527 6.62529 68.3765 6.15409 68.1969 5.69258C67.8402 5.57179 67.4902 5.4339 67.1291 5.32679C67.4085 5.51082 67.7231 5.64301 68.0167 5.80653C68.1393 6.27089 68.2743 6.73297 68.3858 7.19961C68.1616 6.79736 67.9987 6.36832 67.7987 5.95581C67.4555 5.90282 67.1161 5.83103 66.7711 5.79514C66.9966 5.88915 67.235 5.95353 67.4685 6.03102C67.5329 6.05951 67.632 6.06862 67.6438 6.15181C67.7832 6.53469 67.9232 6.91758 68.0489 7.30445C67.8098 6.96772 67.6073 6.61104 67.3781 6.26918C67.0889 6.25209 66.8008 6.20993 66.5116 6.21904C66.7389 6.29539 66.9718 6.35693 67.201 6.43043C67.3676 6.75918 67.5422 7.08509 67.7008 7.41783C67.4462 7.16429 67.2233 6.88624 66.9761 6.62757C66.7129 6.64694 66.449 6.65435 66.1871 6.67429C66.3945 6.72842 66.607 6.7626 66.8194 6.7985C67.0077 7.05489 67.2047 7.30673 67.3849 7.56825C67.1279 7.39333 66.8876 7.19961 66.6392 7.01501C66.3531 7.07597 66.0613 7.11927 65.7826 7.20531C66.0223 7.22354 66.2713 7.18138 66.5067 7.22696C66.7222 7.3939 66.9241 7.57623 67.1223 7.76083C66.8566 7.67195 66.615 7.53179 66.3487 7.44632C66.0483 7.46854 65.7516 7.5221 65.4568 7.57395C65.7256 7.60358 65.9988 7.58364 66.267 7.62238C66.4949 7.73861 66.711 7.87536 66.9253 8.01267C66.6689 7.95227 66.428 7.83661 66.1672 7.79673C65.7801 7.84915 65.3949 7.91923 65.0146 8.00127C65.3757 8.0121 65.7374 7.97905 66.0991 7.98988C66.3425 8.06623 66.5711 8.1779 66.7996 8.28559C66.4918 8.25254 66.1951 8.10326 65.8817 8.16423C65.3652 8.24741 64.848 8.32604 64.3308 8.40524C64.7972 8.47589 65.2716 8.47133 65.7399 8.52831C65.359 8.61263 64.9675 8.64853 64.5872 8.73456C64.8529 8.75735 65.1205 8.76362 65.3868 8.78698C65.1032 8.88043 64.8065 8.93227 64.5179 9.0109C64.6467 9.16132 64.7786 9.3106 64.8938 9.47127C64.5922 9.25875 64.2961 9.03597 64.0199 8.7961C63.3082 7.91125 62.63 7.0019 61.9146 6.12047C61.2798 5.78374 60.601 5.51652 59.9661 5.17979C59.5332 4.84021 59.1201 4.4784 58.6915 4.1337C58.5824 4.04025 58.4449 3.95878 58.4022 3.81975C58.2542 3.45681 58.1216 3.08874 57.9625 2.72979C57.9953 3.10925 58.0541 3.48644 58.0969 3.86533Z" fill="#ED1B2F"/>
<path d="M58.6973 4.40625C59.0329 4.72923 59.2775 5.12284 59.5976 5.45778C60.062 5.71069 60.5871 5.86506 61.0416 6.13621C60.6088 6.01317 60.1964 5.83886 59.771 5.69873C59.6323 5.64519 59.4577 5.61898 59.3939 5.47658C59.166 5.11771 58.9072 4.7748 58.6973 4.40625Z" fill="#E41C29"/>
<path d="M58.0269 4.93164C58.3371 5.16974 58.5687 5.48361 58.8764 5.72285C59.3836 5.94159 59.9229 6.09596 60.4214 6.33178C60.0882 6.26798 59.773 6.1438 59.4486 6.05266C59.2058 5.97178 58.9501 5.92051 58.7167 5.81798C58.4758 5.53089 58.2355 5.23981 58.0269 4.93164Z" fill="#E41C29"/>
<path d="M57.2915 5.271C57.6457 5.50397 57.9243 5.81955 58.2612 6.07132C58.8829 6.30259 59.5504 6.42734 60.1659 6.67342C59.4891 6.54639 58.8204 6.3755 58.1541 6.2086C57.8507 5.91069 57.5658 5.59283 57.2915 5.271Z" fill="#E41C29"/>
<path d="M56.8228 5.73877C57.1912 5.96662 57.5051 6.26112 57.8705 6.49295C58.6092 6.7134 59.3789 6.84897 60.1108 7.08935C59.3238 6.95948 58.5411 6.79657 57.7633 6.6291C57.4407 6.342 57.1119 6.05491 56.8228 5.73877Z" fill="#E41C29"/>
<path d="M60.618 6.72071C60.8684 6.60664 61.1084 6.47204 61.3713 6.38135C61.1096 6.56957 60.8157 6.71558 60.5374 6.88099C60.5361 6.75436 60.5355 6.62832 60.5436 6.50227C60.569 6.5747 60.5938 6.64714 60.618 6.72071Z" fill="#E41C29"/>
<path d="M60.7424 7.2351C61.0685 7.082 61.384 6.90954 61.7193 6.77295C61.3877 7.00744 61.0153 7.18843 60.662 7.39275C60.6583 7.26868 60.6583 7.14403 60.6812 7.0211C60.6966 7.0746 60.7276 7.1816 60.7424 7.2351Z" fill="#E41C29"/>
<path d="M56.9785 6.84766C58.0194 7.0157 59.0504 7.23728 60.0882 7.42355L60.0777 7.46741C59.4442 7.37798 58.8114 7.28798 58.1779 7.19968C57.7569 7.15867 57.3593 7.00886 56.9785 6.84766Z" fill="#E41C29"/>
<path d="M61.0114 7.68476C61.3616 7.51857 61.6981 7.32677 62.0564 7.1748C61.7093 7.42694 61.3152 7.61817 60.944 7.83786C60.9402 7.73314 60.9384 7.62841 60.9365 7.52369C60.9477 7.52312 60.9712 7.52141 60.9823 7.52028C60.9897 7.56126 61.004 7.64378 61.0114 7.68476Z" fill="#E41C29"/>
<path d="M57.8271 7.47607C58.6606 7.57804 59.4935 7.70165 60.322 7.8338C59.9325 7.87253 59.5424 7.78196 59.1529 7.76886C58.6947 7.75348 58.2476 7.63671 57.8271 7.47607Z" fill="#E41C29"/>
<path d="M61.4179 8.06516C61.7582 7.90466 62.091 7.72822 62.4418 7.58594C62.0904 7.82327 61.7056 8.0145 61.3338 8.22281C61.3319 8.09532 61.3319 7.96783 61.3529 7.84205C61.3752 7.91604 61.3969 7.99003 61.4179 8.06516Z" fill="#E41C29"/>
<path d="M61.9225 8.39302C62.225 8.251 62.5202 8.09415 62.832 7.96924C62.5183 8.18769 62.1711 8.36222 61.8369 8.55158C61.8382 8.42496 61.8419 8.29777 61.8518 8.17115C61.8766 8.24472 61.8989 8.3183 61.9225 8.39302Z" fill="#E41C29"/>
<path d="M62.4631 8.71112C62.7111 8.59419 62.9536 8.46472 63.2121 8.36719C62.9561 8.56282 62.6572 8.7037 62.377 8.86797C62.3776 8.73735 62.3813 8.60617 62.4018 8.47727C62.4166 8.53544 62.4476 8.65294 62.4631 8.71112Z" fill="#E41C29"/>
<path d="M62.9949 9.00859C63.1766 8.92702 63.3583 8.84375 63.5474 8.77588C63.349 8.9236 63.1282 9.04224 62.9137 9.16829C62.9131 9.04851 62.9143 8.92874 62.9205 8.80896C62.946 8.87512 62.9689 8.94185 62.9949 9.00859Z" fill="#E41C29"/>
<path d="M65.9465 9.06393C66.0036 9.03371 66.135 9.01374 66.1623 9.08675C66.1276 9.14379 66.0774 9.18314 66.0123 9.20481C65.9682 9.1763 65.9354 9.11299 65.9465 9.06393Z" fill="#E41C29"/>
<path d="M66.7051 9.06259C66.8278 9.05632 66.9494 9.05347 67.074 9.05176C66.9785 9.12705 66.8812 9.19948 66.7832 9.27021C66.8037 9.2223 66.8247 9.17496 66.8471 9.12705C66.8117 9.11108 66.7404 9.07914 66.7051 9.06259Z" fill="#E41C29"/>
<path d="M63.3447 9.46685C63.3522 9.36362 63.3615 9.26095 63.3733 9.15771C63.3881 9.19764 63.4179 9.27749 63.4334 9.31742C63.5636 9.26437 63.695 9.21133 63.8308 9.16684C63.6814 9.28319 63.5134 9.37673 63.3447 9.46685Z" fill="#E41C29"/>
<path d="M67.478 9.17432C67.5537 9.18515 67.6306 9.19542 67.7087 9.20512C67.6392 9.25474 67.571 9.30493 67.5041 9.35569C67.4973 9.31006 67.4842 9.21995 67.478 9.17432Z" fill="#E41C29"/>
<path d="M65.208 9.35889C65.3506 9.35889 65.4932 9.36003 65.6371 9.36288C65.5236 9.45071 65.407 9.53399 65.288 9.61441C65.3159 9.55965 65.3444 9.5049 65.3742 9.45072C65.3177 9.41992 65.2626 9.38912 65.208 9.35889Z" fill="#E41C29"/>
<path d="M68.3887 9.50992C68.3559 9.4141 68.4569 9.36676 68.5239 9.31885C68.5208 9.39357 68.4272 9.52988 68.5722 9.54186C68.6063 9.5065 68.6758 9.43577 68.7099 9.40041C68.7055 9.45345 68.7223 9.51163 68.6975 9.56182C68.6361 9.68331 68.3962 9.64395 68.3887 9.50992Z" fill="#E41C29"/>
<path d="M66.0898 9.45239C66.2337 9.4444 66.3788 9.44326 66.5239 9.45125C66.4104 9.53737 66.2951 9.62008 66.1748 9.69708C66.1971 9.65658 66.2411 9.57616 66.2634 9.53623C66.22 9.51513 66.1332 9.47349 66.0898 9.45239Z" fill="#E41C29"/>
<path d="M63.7677 9.64647C63.924 9.57803 64.0827 9.51243 64.2464 9.45996C64.0684 9.58715 63.8731 9.69096 63.6797 9.79647C63.6853 9.69381 63.6921 9.59171 63.6983 9.49019C63.7206 9.54209 63.7436 9.594 63.7677 9.64647Z" fill="#E41C29"/>
<path d="M66.8818 9.59569C67.0251 9.59398 67.1689 9.59455 67.3134 9.5974C67.2036 9.68467 67.0889 9.76623 66.973 9.84437C66.999 9.79075 67.0244 9.73657 67.053 9.68295C66.9953 9.65387 66.9383 9.62478 66.8818 9.59569Z" fill="#E41C29"/>
<path d="M68.9693 9.68555C69.1584 9.84183 69.4064 9.99868 69.3804 10.2656C69.3246 10.0249 69.1063 9.89202 68.9023 9.76141C68.9191 9.74258 68.9526 9.70437 68.9693 9.68555Z" fill="#E41C29"/>
<path d="M63.9354 9.99627C64.0544 9.94323 64.1747 9.89133 64.2993 9.84912C64.1611 9.95635 64.0104 10.0493 63.8604 10.1411C63.8684 10.0596 63.8771 9.97745 63.8864 9.89646C63.8988 9.92099 63.9236 9.97118 63.9354 9.99627Z" fill="#E41C29"/>
<path d="M65.3325 9.95638C65.5005 9.92729 65.671 9.90448 65.8422 9.88965C65.7206 10.01 65.5973 10.1292 65.4689 10.2433C65.4925 10.172 65.5179 10.1013 65.5439 10.0311C65.4714 10.006 65.4026 9.98205 65.3325 9.95638Z" fill="#E41C29"/>
<path d="M64.6294 10.0205C64.7497 9.99996 64.8706 9.98114 64.9927 9.96289C64.9072 10.0484 64.8204 10.1329 64.7323 10.2156C64.7453 10.1785 64.7714 10.1043 64.7844 10.0673C64.746 10.0553 64.6685 10.0319 64.6294 10.0205Z" fill="#E41C29"/>
<path d="M66.2031 10.0727C66.3637 10.0379 66.5255 10.0065 66.6892 9.98145C66.5844 10.1058 66.4722 10.2244 66.3526 10.3368C66.3736 10.2672 66.3953 10.1982 66.4183 10.1292C66.3439 10.1103 66.2744 10.0921 66.2031 10.0727Z" fill="#E41C29"/>
<path d="M68.3977 10.0297C68.4895 9.94354 68.6116 10.0103 68.7071 10.0525C68.5459 10.0513 68.4027 10.0987 68.3816 10.2624C68.3487 10.1859 68.3215 10.0941 68.3977 10.0297Z" fill="#E41C29"/>
<path d="M66.9365 10.2594C67.0574 10.2531 67.179 10.2468 67.3017 10.2417C67.2143 10.3164 67.1269 10.3911 67.0401 10.4659C67.0549 10.4174 67.0692 10.3689 67.0859 10.321C67.0487 10.3056 66.9737 10.2748 66.9365 10.2594Z" fill="#E41C29"/>
<path d="M63.9656 10.3441C64.0685 10.3567 64.169 10.3356 64.2688 10.311C64.1628 10.3869 64.0561 10.4616 63.9482 10.5346C63.9532 10.4707 63.9588 10.4074 63.9656 10.3441Z" fill="#E41C29"/>
<path d="M64.6943 10.5759C64.8307 10.5469 64.969 10.5195 65.1073 10.4961C65.018 10.5953 64.9275 10.6923 64.8326 10.7864C64.8419 10.7471 64.8599 10.6678 64.8692 10.6278C64.8097 10.6107 64.752 10.5931 64.6943 10.5759Z" fill="#E41C29"/>
<path d="M65.4507 10.6571C65.6168 10.6029 65.7861 10.5573 65.9579 10.519C65.8642 10.6502 65.7644 10.7786 65.6509 10.8961C65.659 10.8453 65.6758 10.7449 65.6838 10.6947C65.6255 10.685 65.509 10.6668 65.4507 10.6571Z" fill="#E41C29"/>
<path d="M66.2773 10.7375C66.4224 10.7004 66.57 10.6691 66.7188 10.6411C66.6277 10.7489 66.5328 10.8544 66.433 10.9548C66.4485 10.8944 66.4658 10.8339 66.4844 10.7734C66.4324 10.7643 66.3288 10.7466 66.2773 10.7375Z" fill="#E41C29"/>
<path d="M67.0942 10.8609C67.1717 10.8517 67.2499 10.8426 67.3286 10.8335C67.2734 10.8911 67.2182 10.9487 67.1649 11.0069C67.1401 10.9578 67.1166 10.9094 67.0942 10.8609Z" fill="#E41C29"/>
<path d="M64.8022 11.1734C64.9393 11.1323 65.0788 11.097 65.2201 11.0645C65.1346 11.1757 65.0459 11.284 64.9554 11.3901C64.9653 11.3285 64.9759 11.2669 64.9883 11.2059C64.9417 11.1973 64.8487 11.1814 64.8022 11.1734Z" fill="#E41C29"/>
<path d="M65.6284 11.334C65.7915 11.2753 65.9583 11.2234 66.1269 11.1777C66.0364 11.3158 65.9378 11.4492 65.8318 11.577C65.8411 11.5057 65.851 11.435 65.8628 11.3637C65.784 11.3545 65.7059 11.3443 65.6284 11.334Z" fill="#E41C29"/>
<path d="M66.5386 11.3378C66.6576 11.3201 66.7779 11.303 66.8988 11.2876C66.8145 11.3714 66.7289 11.4547 66.6427 11.5363L66.6874 11.3994C66.6502 11.384 66.5758 11.3532 66.5386 11.3378Z" fill="#E41C29"/>
<path d="M64.2559 11.4363C64.3687 11.438 64.4822 11.4363 64.5962 11.4346C64.5225 11.4973 64.4493 11.5606 64.3799 11.6268C64.3743 11.5441 64.3334 11.4808 64.2559 11.4363Z" fill="#E41C29"/>
<path d="M65.0386 11.728C65.1762 11.6932 65.317 11.6641 65.4589 11.6401C65.3684 11.7468 65.2729 11.85 65.1737 11.9493C65.188 11.8894 65.2035 11.8301 65.2202 11.7708C65.175 11.7599 65.0838 11.7388 65.0386 11.728Z" fill="#E41C29"/>
<path d="M63.8375 11.8044C63.8976 11.7827 63.9999 11.7742 64.0446 11.8278C64.021 11.8883 63.9441 11.9567 63.871 11.9402C63.8276 11.8997 63.8164 11.8546 63.8375 11.8044Z" fill="#E41C29"/>
<path d="M66.0386 11.8587C66.1589 11.841 66.281 11.8245 66.4025 11.8091C66.3188 11.8935 66.2339 11.9773 66.1489 12.06C66.1613 12.023 66.1855 11.9494 66.1979 11.9123C66.1576 11.8992 66.0783 11.8724 66.0386 11.8587Z" fill="#E41C29"/>
<path d="M64.4189 11.9062C64.5454 11.9074 64.6744 11.9091 64.8027 11.912C64.7066 11.9844 64.608 12.0551 64.5113 12.1258C64.5287 12.0893 64.5634 12.0158 64.5808 11.9793C64.5405 11.961 64.4592 11.9245 64.4189 11.9062Z" fill="#E41C29"/>
<path d="M65.4844 12.1703C65.5625 12.16 65.6419 12.1503 65.7218 12.1406C65.6673 12.1999 65.6133 12.2598 65.5606 12.3197C65.534 12.2695 65.5086 12.2199 65.4844 12.1703Z" fill="#E41C29"/>
<path d="M62.6426 12.1748C62.7232 12.1777 62.805 12.1799 62.8875 12.1822C62.8094 12.2415 62.7325 12.302 62.6606 12.3659C62.681 12.3009 62.6711 12.2364 62.6426 12.1748Z" fill="#E41C29"/>
<path d="M63.3247 12.1748C63.4096 12.1777 63.4952 12.1805 63.582 12.1834C63.5039 12.2398 63.427 12.2969 63.3532 12.3568C63.3743 12.2929 63.365 12.2318 63.3247 12.1748Z" fill="#E41C29"/>
<path d="M64.0262 12.3112C64.0845 12.2815 64.2098 12.2673 64.2414 12.3363C64.2085 12.3945 64.1589 12.4338 64.0926 12.4543C64.0473 12.4258 64.0182 12.3602 64.0262 12.3112Z" fill="#E41C29"/>
<path d="M64.7642 12.3447C64.8578 12.3487 64.952 12.3521 65.0475 12.355C64.9719 12.4137 64.8968 12.4731 64.8262 12.5364C64.8107 12.4885 64.7797 12.3926 64.7642 12.3447Z" fill="#E41C29"/>
<path d="M65.1758 12.6436C65.4067 12.8805 65.6136 13.1357 65.839 13.3772C66.1436 13.3505 66.374 13.5618 66.6334 13.6712C66.4656 13.7088 66.299 13.7469 66.1318 13.7805C66.2675 13.8603 66.3418 13.9902 66.3399 14.1394C66.2421 14.0272 66.1486 13.911 66.0297 13.8176C65.9715 13.8244 65.8544 13.8375 65.7962 13.8443C65.9504 13.9258 66.039 14.0665 66.0148 14.2322C65.8594 13.9303 65.4749 13.7999 65.3355 13.4895C65.2705 13.2098 65.2228 12.9267 65.1758 12.6436Z" fill="#E41C29"/>
<path d="M68.2314 13.7017C68.6336 13.5486 69.0821 13.4968 69.5152 13.4712C69.1038 13.6044 68.6639 13.6619 68.2314 13.7017Z" fill="#E41C29"/>
<path d="M67.085 13.5332C67.3237 13.5172 67.4905 13.7071 67.465 13.917C67.3584 13.7727 67.2462 13.6296 67.085 13.5332Z" fill="#E41C29"/>
<path d="M68.3101 13.9329C68.8923 13.8275 69.4807 13.7027 70.0771 13.713C69.7086 13.8093 69.3233 13.8361 68.9468 13.8936C68.7356 13.921 68.5225 13.9626 68.3101 13.9329Z" fill="#E41C29"/>
<path d="M65.3472 13.9409C65.5753 13.9118 65.7384 14.1029 65.7062 14.3043C65.6088 14.1651 65.4966 14.0345 65.3472 13.9409Z" fill="#E41C29"/>
<path d="M66.9321 14.2325C67.2421 14.0806 67.6016 14.0305 67.9486 14.0083C67.6269 14.1347 67.2767 14.1933 66.9321 14.2325Z" fill="#E41C29"/>
<path d="M64.3257 14.609C64.6688 14.5082 65.0101 14.3879 65.3699 14.3486C65.0466 14.4956 64.6917 14.5726 64.3536 14.6848C64.0532 14.7634 63.7645 14.8888 63.4536 14.9224C63.7311 14.7902 64.0315 14.7047 64.3257 14.609Z" fill="#E41C29"/>
<path d="M65.3363 14.6755C65.7394 14.553 66.1382 14.4038 66.5593 14.3423C66.1085 14.528 65.6292 14.6476 65.1691 14.8122C64.766 14.9393 64.3728 15.0936 63.9629 15.2013C64.3914 14.97 64.8738 14.8384 65.3363 14.6755Z" fill="#E41C29"/>
<path d="M62.4868 15.7111C62.6149 15.5329 62.8939 15.5534 63.0938 15.4868C62.9774 15.5545 62.8562 15.6143 62.7355 15.6752C63.0189 15.7942 63.3109 15.8983 63.5831 16.0395C63.2132 15.9421 62.8518 15.8209 62.4868 15.7111Z" fill="#E41C29"/>
</g>
<defs>
<clipPath id="clip0_996_1214">
<rect width="308" height="20" fill="white"/>
</clipPath>
</defs>
</svg>
