<svg width="60" height="60" viewBox="0 0 60 60" fill="none" xmlns="http://www.w3.org/2000/svg">
<path d="M30.3794 1.87919C20.7752 1.6672 12.9172 9.52532 13.1292 19.1295C13.3276 28.1162 20.634 35.4225 29.6205 35.6208C39.2247 35.8327 47.0827 27.9746 46.8708 18.3704C46.6724 9.38376 39.3659 2.07747 30.3794 1.87919ZM24.1073 9.42712C26.3777 9.28251 28.2471 11.2102 28.004 13.497C27.8229 15.2021 26.4521 16.5727 24.747 16.754C22.4602 16.9971 20.5325 15.1277 20.6771 12.8573C20.7936 11.028 22.2779 9.5436 24.1073 9.42712ZM35.8927 28.0728C33.6224 28.2174 31.753 26.2897 31.996 24.0029C32.1772 22.2978 33.5479 20.9272 35.253 20.7459C37.5398 20.5029 39.4676 22.3722 39.3229 24.6426C39.2065 26.4719 37.7222 27.9563 35.8927 28.0728ZM39.0563 11.0203L22.2703 27.8062C22.0863 27.989 21.8472 28.0804 21.607 28.0804C21.3668 28.0804 21.1277 27.989 20.9437 27.8062C20.5781 27.4394 20.5781 26.8465 20.9437 26.4797L37.7297 9.69372C38.0965 9.3281 38.6894 9.3281 39.0562 9.69372C39.4218 10.0605 39.4218 10.6535 39.0562 11.0203H39.0563Z" fill="black"/>
<path d="M26.1352 13.3325C26.0328 14.135 25.385 14.7828 24.5825 14.8852C23.4053 15.0353 22.4103 14.0412 22.5593 12.8627C22.6607 12.0594 23.3095 11.4107 24.1127 11.3093C25.2912 11.1603 26.2853 12.1553 26.1352 13.3325Z" fill="black"/>
<path d="M37.4406 24.6372C37.3392 25.4405 36.6904 26.0892 35.8872 26.1906C34.7086 26.3396 33.7145 25.3445 33.8647 24.1674C33.9671 23.3649 34.6149 22.7171 35.4174 22.6147C36.5945 22.4645 37.5896 23.4586 37.4406 24.6372Z" fill="black"/>
<path d="M44.1824 31.0022C43.9307 31.2926 43.6703 31.5774 43.3991 31.8546C40.9717 34.3362 37.9875 36.057 34.725 36.9015V53.186H31.7194L39.4537 59.0624L47.1881 53.186H44.1825L44.1824 31.0022Z" fill="black"/>
<path d="M15.8176 30.991V46.6235H12.812L20.5464 52.4999L28.2808 46.6235H25.2751V36.8957C22.0828 36.0635 19.1478 34.3907 16.7536 31.9966C16.4282 31.6711 16.1161 31.3357 15.8176 30.991Z" fill="black"/>
</svg>
