<svg width="60" height="60" viewBox="0 0 60 60" fill="none" xmlns="http://www.w3.org/2000/svg">
<g clip-path="url(#clip0_99_937)">
<path d="M37.6032 24.722H31.8467V20.2342H52.959C56.8414 20.2342 60 17.0755 60 13.1931C60 9.31066 56.8414 6.15211 52.959 6.15211H47.2324C45.2885 6.15211 43.707 4.57055 43.707 2.62664V0H40.1914V2.62664C40.1914 6.50906 43.3501 9.66773 47.2324 9.66773H52.959C54.9029 9.66773 56.4843 11.2493 56.4843 13.1931C56.4843 15.137 54.9028 16.7186 52.959 16.7186H28.3311V24.722H22.3967V28.2322H37.6032V24.722Z" fill="black"/>
<path d="M45.8035 43.582C44.5983 43.582 43.6179 44.5625 43.6179 45.7676C43.6179 46.9726 44.5983 47.9531 45.8035 47.9531C47.0086 47.9531 47.989 46.9727 47.989 45.7676C47.989 44.5624 47.0086 43.582 45.8035 43.582Z" fill="black"/>
<path d="M45.8154 31.6309H14.1846C6.36316 31.6309 0 37.994 0 45.8155C0 53.6369 6.36316 60.0001 14.1846 60.0001C19.5553 60.0001 24.3868 57.0146 26.8036 52.2996H33.1964C35.6132 57.0146 40.4447 60.0001 45.8154 60.0001C53.6368 60.0001 60 53.6369 60 45.8155C60 37.994 53.6368 31.6309 45.8154 31.6309ZM12.4716 47.2914H8.95594V43.7756H12.4716V47.2914ZM15.9875 50.8071H12.4717L12.4716 47.2914H15.9875V50.8071ZM15.9875 43.7755H12.4717V40.2598H15.9875V43.7755ZM19.5033 47.2914H15.9875L15.9877 43.7756H19.5033V47.2914ZM28.2421 41.8975H24.7262V38.3819H28.2421V41.8975ZM35.2738 41.8975H31.7579V38.3819H35.2738V41.8975ZM45.8036 51.4691C42.6599 51.4691 40.1024 48.9116 40.1024 45.7679C40.1024 42.6242 42.6599 40.0667 45.8036 40.0667C48.9472 40.0667 51.5047 42.6243 51.5047 45.7679C51.5047 48.9114 48.9472 51.4691 45.8036 51.4691Z" fill="black"/>
</g>
<defs>
<clipPath id="clip0_99_937">
<rect width="60" height="60" fill="white"/>
</clipPath>
</defs>
</svg>
