<svg xmlns="http://www.w3.org/2000/svg" width="174" height="42" fill="none"><g fill="#272727" clip-path="url(#a)"><path d="M0 12.7v12.6l23.8-13.2V.1L0 12.7Zm23.8 11.6V12l10.8 6v12l-10.8-5.7Z"/><path d="m13 42 10.8-5.8v-12L13 30v12Zm42.4-28.5h11v2.7h-7.8v3.6h6.7v2.6h-6.7V29h-3.2V13.5Zm15.9 2.6h-3v-2.7h3V16Zm-3 1.4h3v11.4h-3V17.5ZM77.2 29h-3V13.4h3v15.4Zm7.4-9.3a2 2 0 0 0-1.6.6c-.4.4-.6 1-.7 1.8H87c0-.8-.3-1.4-.7-1.8-.4-.4-1-.6-1.6-.6Zm0-2.5c1 0 1.8.2 2.6.5.7.4 1.4 1 1.9 1.7.4.7.7 1.5.8 2.4L90 24h-7.8c0 1.2.4 2 1.1 2.4.4.3 1 .5 1.5.5a2 2 0 0 0 1.5-.6c.2-.1.4-.4.5-.7h3c0 .6-.4 1.3-1 2a5.2 5.2 0 0 1-4 1.7 6 6 0 0 1-3.9-1.4c-1.1-1-1.7-2.5-1.7-4.6 0-2 .5-3.5 1.5-4.5s2.3-1.6 4-1.6Zm10 6.9c.1.7.3 1.3.6 1.6.5.7 1.4 1 2.7 1 .7 0 1.3-.1 1.8-.3 1-.3 1.4-.9 1.4-1.8 0-.5-.3-.9-.7-1.1a7 7 0 0 0-2.1-.8l-1.6-.3a14 14 0 0 1-3.4-1.2c-1-.7-1.5-1.8-1.5-3.4 0-1.3.5-2.5 1.5-3.4 1-1 2.5-1.4 4.4-1.4 1.6 0 3 .5 4.2 1.3a5 5 0 0 1 1.8 3.8h-3.1c0-1-.5-1.6-1.2-2a4 4 0 0 0-2-.4c-.7 0-1.4.2-1.9.5s-.7.8-.7 1.4c0 .6.2 1 .7 1.2l2 .7 2.7.6c1.1.3 2 .7 2.6 1.1 1 .8 1.4 1.8 1.4 3.2 0 1.4-.6 2.6-1.7 3.5-1 1-2.5 1.4-4.5 1.4s-3.6-.5-4.7-1.4a4.6 4.6 0 0 1-1.8-3.8h3.1Zm18.5-2.5c0-.4-.2-.8-.4-1.2-.4-.4-.9-.7-1.6-.7-1 0-1.7.5-2 1.5-.2.6-.3 1.3-.3 2.2 0 .8 0 1.5.3 2 .3 1 1 1.4 2 1.4.7 0 1.2-.2 1.5-.6.2-.3.4-.8.5-1.4h3a5 5 0 0 1-1 2.5c-.9 1.4-2.3 2-4.1 2-1.8 0-3.2-.5-4-1.6-1-1.1-1.3-2.5-1.3-4.3 0-2 .4-3.5 1.4-4.5a5 5 0 0 1 4-1.7 6 6 0 0 1 3.4 1c1 .6 1.5 1.8 1.7 3.4h-3Zm8.2-5.5h-3v-2.7h3V16Zm-3 1.4h3v11.4h-3V17.5Zm10.4 2.2a2 2 0 0 0-1.7.6c-.3.4-.6 1-.7 1.8h4.7c0-.8-.3-1.4-.8-1.8-.4-.4-1-.6-1.5-.6Zm0-2.5c.9 0 1.8.2 2.5.5.8.4 1.4 1 1.9 1.7.4.7.7 1.5.9 2.4V24h-7.7c0 1.2.4 2 1 2.4.5.3 1 .5 1.5.5a2 2 0 0 0 1.5-.6l.6-.7h3c0 .6-.4 1.3-1 2a5.2 5.2 0 0 1-4.1 1.7 6 6 0 0 1-3.9-1.4c-1-1-1.6-2.5-1.6-4.6 0-2 .5-3.5 1.5-4.5s2.3-1.6 3.9-1.6Zm13.7 0c1.2 0 2.1.3 2.9 1 .7.6 1 1.6 1 3V29h-3v-7c0-.5 0-1-.2-1.3-.3-.6-.8-.9-1.7-.9-1 0-1.7.4-2 1.3a4 4 0 0 0-.3 1.7V29h-3V17.5h2.9v1.7c.3-.6.7-1 1-1.3.7-.4 1.4-.7 2.4-.7Zm13.6 4.4-.5-1.2c-.3-.4-.8-.7-1.5-.7-1 0-1.7.5-2.1 1.5-.2.6-.3 1.3-.3 2.2 0 .8.1 1.5.3 2 .4 1 1 1.4 2 1.4.7 0 1.2-.2 1.5-.6.3-.3.5-.8.5-1.4h3a5 5 0 0 1-1 2.5c-.9 1.4-2.2 2-4 2-1.9 0-3.2-.5-4.1-1.6a6.5 6.5 0 0 1-1.3-4.3c0-2 .5-3.5 1.4-4.5a5 5 0 0 1 4-1.7 6 6 0 0 1 3.5 1c.9.6 1.4 1.8 1.6 3.4h-3Zm9.5-1.9a2 2 0 0 0-1.6.6c-.3.4-.6 1-.7 1.8h4.7c-.1-.8-.3-1.4-.8-1.8-.4-.4-1-.6-1.6-.6Zm0-2.5c1 0 1.8.2 2.6.5.8.4 1.4 1 1.9 1.7.4.7.7 1.5.8 2.4.1.5.2 1.2.1 2.2h-7.7c0 1.2.4 2 1 2.4.4.3 1 .5 1.5.5a2 2 0 0 0 1.5-.6l.6-.7h3c0 .6-.4 1.3-1 2a5.2 5.2 0 0 1-4.2 1.7 6 6 0 0 1-3.8-1.4c-1-1-1.6-2.5-1.6-4.6 0-2 .5-3.5 1.4-4.5 1-1 2.3-1.6 4-1.6Z"/></g><defs><clipPath id="a"><path fill="#fff" d="M0 0h174v42H0z"/></clipPath></defs></svg>