<svg width="217" height="55" viewBox="0 0 217 55" fill="none" xmlns="http://www.w3.org/2000/svg">
<path d="M0 16.5963V33.1926L31.1585 15.8222V0L0 16.5963Z" fill="#DD5981"/>
<path d="M31.2148 31.7766V15.8223L45.3744 23.5634V39.3667L31.2148 31.7766Z" fill="#60BDD6"/>
<path d="M16.9614 55.0001L31.215 47.41V31.7766L17.0366 39.1968L16.9614 55.0001Z" fill="#655F9E"/>
<path d="M59.5449 21.5764H73.8528V25.137H63.7346V29.7975H72.5932V33.3169H63.7346V41.8129H59.5449V21.5764Z" fill="#1D1D1B"/>
<path d="M80.3838 25.0408H76.4269V21.4252H80.3838V25.0408ZM76.4269 26.828H80.3838V41.8129H76.4269V26.828Z" fill="#1D1D1B"/>
<path d="M88.1607 41.8129H84.2586V21.5489H88.1607V41.8129Z" fill="#1D1D1B"/>
<path d="M97.8682 29.66C96.9646 29.66 96.2617 29.9441 95.7597 30.5124C95.2668 31.0806 94.9564 31.8505 94.8286 32.822H100.894C100.83 31.7863 100.515 31.0027 99.9494 30.4711C99.3926 29.9304 98.6988 29.66 97.8682 29.66ZM97.8682 26.4293C99.1096 26.4293 100.228 26.663 101.223 27.1305C102.218 27.5979 103.039 28.3357 103.687 29.3438C104.271 30.2328 104.65 31.2639 104.824 32.437C104.924 33.1244 104.965 34.1143 104.947 35.4065H94.7328C94.7876 36.9096 95.2576 37.9636 96.143 38.5685C96.6816 38.9443 97.3297 39.1321 98.0873 39.1321C98.8905 39.1321 99.5432 38.903 100.045 38.4448C100.319 38.1973 100.561 37.8536 100.771 37.4137H104.755C104.655 38.3027 104.194 39.2055 103.372 40.122C102.094 41.5792 100.305 42.3078 98.0051 42.3078C96.1065 42.3078 94.4316 41.6938 92.9802 40.4657C91.5289 39.2375 90.8033 37.2396 90.8033 34.4717C90.8033 31.878 91.4559 29.8891 92.7612 28.5052C94.0756 27.1213 95.7779 26.4293 97.8682 26.4293Z" fill="#1D1D1B"/>
<path d="M110.958 35.5578C111.085 36.4834 111.336 37.1754 111.711 37.6336C112.395 38.4677 113.568 38.8847 115.229 38.8847C116.224 38.8847 117.032 38.7747 117.653 38.5547C118.83 38.1331 119.419 37.3495 119.419 36.2039C119.419 35.5348 119.127 35.017 118.543 34.6504C117.959 34.293 117.041 33.9768 115.791 33.7018L113.655 33.2207C111.555 32.7441 110.104 32.2262 109.301 31.6672C107.941 30.7323 107.261 29.2705 107.261 27.2817C107.261 25.467 107.918 23.9593 109.232 22.7587C110.547 21.5581 112.477 20.9578 115.024 20.9578C117.151 20.9578 118.963 21.526 120.46 22.6625C121.966 23.7898 122.755 25.4303 122.828 27.5841H118.776C118.703 26.3652 118.173 25.4991 117.187 24.9858C116.53 24.6467 115.713 24.4772 114.736 24.4772C113.65 24.4772 112.783 24.6971 112.135 25.137C111.487 25.577 111.163 26.191 111.163 26.9792C111.163 27.7033 111.482 28.244 112.121 28.6015C112.532 28.8397 113.408 29.1193 114.75 29.4401L118.228 30.2787C119.752 30.6453 120.902 31.1356 121.678 31.7497C122.883 32.7028 123.486 34.0822 123.486 35.8877C123.486 37.739 122.778 39.2788 121.363 40.5069C119.958 41.7259 117.968 42.3353 115.394 42.3353C112.765 42.3353 110.697 41.735 109.191 40.5344C107.685 39.3246 106.932 37.6657 106.932 35.5578H110.958Z" fill="#1D1D1B"/>
<path d="M135.206 32.2033C135.133 31.6443 134.946 31.1402 134.644 30.6911C134.206 30.0862 133.526 29.7837 132.604 29.7837C131.29 29.7837 130.391 30.4391 129.907 31.7497C129.651 32.4462 129.524 33.3719 129.524 34.5267C129.524 35.6265 129.651 36.5109 129.907 37.18C130.372 38.4264 131.249 39.0497 132.536 39.0497C133.449 39.0497 134.097 38.8022 134.48 38.3073C134.863 37.8124 135.096 37.1708 135.178 36.3826H139.163C139.071 37.5741 138.642 38.7014 137.876 39.7645C136.652 41.4784 134.841 42.3353 132.44 42.3353C130.039 42.3353 128.273 41.6205 127.141 40.1907C126.009 38.761 125.443 36.905 125.443 34.6229C125.443 32.0475 126.069 30.045 127.319 28.6152C128.57 27.1854 130.295 26.4706 132.495 26.4706C134.366 26.4706 135.895 26.8922 137.081 27.7353C138.277 28.5785 138.985 30.0679 139.204 32.2033H135.206Z" fill="#1D1D1B"/>
<path d="M145.913 25.0408H141.956V21.4252H145.913V25.0408ZM141.956 26.828H145.913V41.8129H141.956V26.828Z" fill="#1D1D1B"/>
<path d="M155.593 29.66C154.689 29.66 153.986 29.9441 153.484 30.5124C152.991 31.0806 152.681 31.8505 152.553 32.822H158.619C158.555 31.7863 158.24 31.0027 157.674 30.4711C157.117 29.9304 156.423 29.66 155.593 29.66ZM155.593 26.4293C156.834 26.4293 157.952 26.663 158.947 27.1305C159.942 27.5979 160.764 28.3357 161.412 29.3438C161.996 30.2328 162.375 31.2639 162.548 32.437C162.649 33.1244 162.69 34.1143 162.671 35.4065H152.457C152.512 36.9096 152.982 37.9636 153.868 38.5685C154.406 38.9443 155.054 39.1321 155.812 39.1321C156.615 39.1321 157.268 38.903 157.77 38.4448C158.044 38.1973 158.285 37.8536 158.495 37.4137H162.48C162.379 38.3027 161.918 39.2055 161.097 40.122C159.819 41.5792 158.03 42.3078 155.73 42.3078C153.831 42.3078 152.156 41.6938 150.705 40.4657C149.253 39.2375 148.528 37.2396 148.528 34.4717C148.528 31.878 149.18 29.8891 150.486 28.5052C151.8 27.1213 153.502 26.4293 155.593 26.4293Z" fill="#1D1D1B"/>
<path d="M173.584 26.4706C175.126 26.4706 176.386 26.8784 177.363 27.6941C178.348 28.5006 178.841 29.8433 178.841 31.7222V41.8129H174.843V32.6982C174.843 31.91 174.738 31.3052 174.528 30.8836C174.145 30.1137 173.415 29.7288 172.338 29.7288C171.014 29.7288 170.106 30.2924 169.613 31.4197C169.358 32.0154 169.23 32.7762 169.23 33.7018V41.8129H165.341V26.8555H169.107V29.0414C169.609 28.2715 170.083 27.717 170.53 27.3779C171.334 26.773 172.351 26.4706 173.584 26.4706Z" fill="#1D1D1B"/>
<path d="M191.369 32.2033C191.296 31.6443 191.109 31.1402 190.808 30.6911C190.37 30.0862 189.69 29.7837 188.768 29.7837C187.454 29.7837 186.554 30.4391 186.071 31.7497C185.815 32.4462 185.687 33.3719 185.687 34.5267C185.687 35.6265 185.815 36.5109 186.071 37.18C186.536 38.4264 187.412 39.0497 188.699 39.0497C189.612 39.0497 190.26 38.8022 190.644 38.3073C191.027 37.8124 191.26 37.1708 191.342 36.3826H195.326C195.235 37.5741 194.806 38.7014 194.039 39.7645C192.816 41.4784 191.004 42.3353 188.604 42.3353C186.203 42.3353 184.437 41.6205 183.305 40.1907C182.173 38.761 181.607 36.905 181.607 34.6229C181.607 32.0475 182.232 30.045 183.483 28.6152C184.733 27.1854 186.459 26.4706 188.658 26.4706C190.53 26.4706 192.059 26.8922 193.245 27.7353C194.441 28.5785 195.148 30.0679 195.367 32.2033H191.369Z" fill="#1D1D1B"/>
<path d="M203.952 29.66C203.048 29.66 202.346 29.9441 201.844 30.5124C201.351 31.0806 201.04 31.8505 200.913 32.822H206.978C206.914 31.7863 206.599 31.0027 206.033 30.4711C205.476 29.9304 204.783 29.66 203.952 29.66ZM203.952 26.4293C205.193 26.4293 206.312 26.663 207.307 27.1305C208.302 27.5979 209.123 28.3357 209.771 29.3438C210.355 30.2328 210.734 31.2639 210.908 32.437C211.008 33.1244 211.049 34.1143 211.031 35.4065H200.817C200.871 36.9096 201.342 37.9636 202.227 38.5685C202.765 38.9443 203.414 39.1321 204.171 39.1321C204.974 39.1321 205.627 38.903 206.129 38.4448C206.403 38.1973 206.645 37.8536 206.855 37.4137H210.839C210.739 38.3027 210.278 39.2055 209.456 40.122C208.178 41.5792 206.389 42.3078 204.089 42.3078C202.19 42.3078 200.515 41.6938 199.064 40.4657C197.613 39.2375 196.887 37.2396 196.887 34.4717C196.887 31.878 197.54 29.8891 198.845 28.5052C200.159 27.1213 201.862 26.4293 203.952 26.4293Z" fill="#1D1D1B"/>
</svg>
