<svg width="214" height="48" fill="none" xmlns="http://www.w3.org/2000/svg"><g clip-path="url(#a)" fill="#EEE"><path d="M0 14.5v14.3l30.7-15V.3L0 14.5ZM30.7 27.6V13.9l14 6.6v13.6l-14-6.5ZM16.7 47.6l14-6.5V27.6l-14 6.4v13.6ZM58.6 18.8h14.1v3h-10v4h8.8V29h-8.7v7.3h-4.2V18.8ZM79.2 21.8h-4v-3.1h4v3.1Zm-4 1.5h4v13h-4v-13ZM86.8 36.2H83V18.8h3.8v17.4ZM96.4 25.8c-.9 0-1.6.2-2 .7-.6.5-.9 1.2-1 2h6c0-.9-.4-1.6-1-2a3 3 0 0 0-2-.7Zm0-2.8c1.2 0 2.3.2 3.3.6 1 .4 1.8 1 2.4 1.9a6 6 0 0 1 1.1 2.7l.2 2.5h-10c0 1.3.4 2.2 1.3 2.8.5.3 1.2.4 2 .4a3 3 0 0 0 1.8-.6l.8-.8h3.9c-.1.7-.6 1.5-1.4 2.3a7.2 7.2 0 0 1-5.3 1.9c-1.8 0-3.5-.6-5-1.6-1.3-1-2-2.8-2-5.2 0-2.2.6-4 1.9-5.1 1.3-1.2 3-1.8 5-1.8ZM109.3 30.9c.1.8.4 1.4.7 1.7.7.8 1.9 1.1 3.5 1.1 1 0 1.8 0 2.4-.3 1.1-.3 1.7-1 1.7-2 0-.6-.3-1-.8-1.3-.6-.3-1.5-.6-2.8-.8l-2-.5c-2.1-.4-3.6-.8-4.3-1.3-1.4-.8-2-2-2-3.8 0-1.5.6-2.8 1.9-3.9 1.3-1 3.2-1.5 5.7-1.5 2 0 3.9.5 5.3 1.4A5 5 0 0 1 121 24h-4c0-1-.6-1.8-1.6-2.3-.6-.2-1.4-.4-2.4-.4s-2 .2-2.6.6c-.6.4-1 .9-1 1.6 0 .6.4 1 1 1.4l2.6.7 3.4.7c1.5.3 2.7.7 3.4 1.3a4 4 0 0 1 1.8 3.5c0 1.6-.7 3-2 4a9.6 9.6 0 0 1-6 1.6c-2.5 0-4.6-.5-6-1.6a5 5 0 0 1-2.3-4.2h4ZM133.2 28c-.1-.5-.3-1-.6-1.3-.4-.6-1-.8-2-.8-1.3 0-2.2.5-2.6 1.7-.3.6-.4 1.4-.4 2.4s.1 1.7.4 2.3c.4 1 1.3 1.6 2.5 1.6 1 0 1.6-.2 2-.7.3-.4.6-1 .6-1.6h4c-.1 1-.5 2-1.3 2.9-1.2 1.5-3 2.2-5.4 2.2-2.3 0-4-.6-5.2-1.8a6.9 6.9 0 0 1-1.6-4.8c0-2.3.6-4 1.8-5.2 1.2-1.3 3-1.9 5.1-1.9 1.8 0 3.3.4 4.5 1.1 1.2.7 1.9 2 2.1 3.9h-4ZM143.7 21.8h-3.9v-3.1h4v3.1Zm-3.9 1.5h4v13h-4v-13ZM153.3 25.8c-1 0-1.6.2-2.1.7-.5.5-.8 1.2-1 2h6c0-.9-.3-1.6-.9-2a3 3 0 0 0-2-.7Zm0-2.8c1.2 0 2.3.2 3.3.6a6 6 0 0 1 3.5 4.6l.1 2.5h-10c0 1.3.5 2.2 1.4 2.8.5.3 1.1.4 1.9.4a3 3 0 0 0 1.9-.6l.7-.8h4c-.2.7-.6 1.5-1.4 2.3a7.2 7.2 0 0 1-5.3 1.9 8 8 0 0 1-5-1.6c-1.4-1-2.1-2.8-2.1-5.2 0-2.2.6-4 2-5.1 1.2-1.2 2.9-1.8 5-1.8ZM171 23c1.5 0 2.7.4 3.7 1 1 .8 1.5 2 1.5 3.6v8.6h-4v-7.8c0-.7 0-1.2-.3-1.6-.4-.6-1-1-2.2-1-1.3 0-2.2.5-2.6 1.5-.3.5-.4 1.2-.4 2v7h-3.8v-13h3.7v2a6 6 0 0 1 1.4-1.5c.8-.5 1.8-.8 3-.8ZM188.5 28c0-.5-.3-1-.6-1.3-.4-.6-1-.8-2-.8-1.3 0-2.2.5-2.6 1.7-.3.6-.4 1.4-.4 2.4s.1 1.7.4 2.3c.4 1 1.3 1.6 2.6 1.6.9 0 1.5-.2 1.9-.7.4-.4.6-1 .7-1.6h3.9c-.1 1-.5 2-1.3 2.9-1.2 1.5-3 2.2-5.3 2.2-2.4 0-4.1-.6-5.3-1.8A6.9 6.9 0 0 1 179 30c0-2.3.6-4 1.8-5.2 1.3-1.3 3-1.9 5.1-1.9 1.9 0 3.4.4 4.5 1.1 1.2.7 2 2 2.1 3.9h-4ZM200.9 25.8c-1 0-1.6.2-2 .7-.6.5-.9 1.2-1 2h6c-.1-.9-.4-1.6-1-2a3 3 0 0 0-2-.7Zm0-2.8c1.2 0 2.3.2 3.3.6 1 .4 1.8 1 2.4 1.9a6 6 0 0 1 1.1 2.7l.2 2.5h-10.1c0 1.3.5 2.2 1.4 2.8.5.3 1.2.4 1.9.4a3 3 0 0 0 2-.6l.6-.8h4c-.1.7-.6 1.5-1.4 2.3a7.2 7.2 0 0 1-5.3 1.9c-1.9 0-3.5-.6-5-1.6-1.4-1-2-2.8-2-5.2 0-2.2.6-4 1.9-5.1 1.2-1.2 3-1.8 5-1.8Z"/></g><defs><clipPath id="a"><path fill="#fff" transform="translate(0 .2)" d="M0 0h213.7v47.4H0z"/></clipPath></defs></svg>