<svg width="60" height="66" viewBox="0 0 60 66" fill="none" xmlns="http://www.w3.org/2000/svg">
<path d="M46.6494 42.435C45.4641 36.4664 38.9295 34.1048 34.7052 37.9063C31.9935 35.4496 28.0278 35.4497 25.2927 37.9076C21.0709 34.1043 14.5326 36.4663 13.3463 42.4324C10.2462 43.1699 7.80553 46.0977 7.55249 49.7173H52.4444C52.1973 46.1843 49.8406 43.1948 46.6494 42.435Z" fill="black"/>
<path d="M3.64866 29.6243H56.3519C57.3264 29.6243 58.1166 28.7592 58.1166 27.6923C58.1166 14.6953 48.4589 4.12171 36.5882 4.12171H31.7649V1.93202C31.7649 0.865078 30.9748 0 30.0003 0C29.0258 0 28.2357 0.865078 28.2357 1.93202V4.12158H23.4124C11.5416 4.12158 1.88403 14.6953 1.88403 27.6921C1.88403 28.7595 2.67416 29.6243 3.64866 29.6243Z" fill="black"/>
<path d="M58.234 53.5813C55.7786 53.5813 4.266 53.5813 1.76614 53.5813C0.520305 53.5813 -0.335158 54.9608 0.127203 56.2295L3.13172 64.4728C3.39937 65.2071 4.0486 65.6886 4.77066 65.6886H55.2094C55.9299 65.6886 56.5783 65.2088 56.8468 64.4768L59.8714 56.2335C60.3365 54.966 59.4828 53.5813 58.234 53.5813Z" fill="black"/>
</svg>
