<svg width="405" height="574" fill="none" xmlns="http://www.w3.org/2000/svg"><g clip-path="url(#a)"><path d="M0 20C0 9 9 0 20 0h365c11 0 20 9 20 20v534c0 11-9 20-20 20H20c-11 0-20-9-20-20V20Z" fill="#A7B88F"/><path d="m132.1 126.6-35.4 35.5a8.4 8.4 0 0 1-13.6-2.4c-9.3-20.3-13.8-26.4-15.6-28.3a23.4 23.4 0 0 0-33 33c1.8 2 7.9 6.4 28.2 15.7a8.4 8.4 0 0 1 2.4 13.5l-35.4 35.5a20 20 0 0 1-28.2 0l-102.4-102.5a20 20 0 0 1 0-28.1l22.7-22.7a6.6 6.6 0 1 1 9.3 9.4l-22.6 22.7a6.6 6.6 0 0 0 0 9.4L10.9 219.7a6.6 6.6 0 0 0 9.4 0l30.5-30.5c-17.7-8.5-23.2-12.8-25.7-15.3A36.7 36.7 0 0 1 76.9 122c2.5 2.5 6.8 8 15.3 25.7l30.6-30.5a6.6 6.6 0 0 0 0-9.4l-35-35a8.4 8.4 0 0 1 2.5-13.5c18.8-8.7 24.5-12.9 26.2-14.6a23.4 23.4 0 0 0-33-33c-1.8 1.7-6 7.4-14.7 26.2a8.4 8.4 0 0 1-13.5 2.4l-35-35a6.6 6.6 0 0 0-9.4 0L-46.7 63a6.6 6.6 0 1 1-9.4-9.4L1.5-4a20 20 0 0 1 28.2 0l30 30.1c8-16.2 12-21.3 14.4-23.8a36.7 36.7 0 0 1 51.8 51.9c-2.4 2.4-7.5 6.4-23.8 14.3l30 30a20 20 0 0 1 0 28.1ZM-5 510.5l35.5-35.4a8.4 8.4 0 0 1 13.6 2.4c9.3 20.3 13.7 26.4 15.5 28.2a23.4 23.4 0 0 0 33-33c-1.7-1.8-7.8-6.3-28.1-15.6a8.4 8.4 0 0 1-2.5-13.6l35.5-35.4a20 20 0 0 1 28.1 0l102.5 102.4a20 20 0 0 1 0 28.2l-22.7 22.7a6.6 6.6 0 1 1-9.4-9.4l22.7-22.7a6.6 6.6 0 0 0 0-9.4L116.3 417.5a6.6 6.6 0 0 0-9.4 0L76.3 448c17.8 8.5 23.2 12.8 25.8 15.3a36.7 36.7 0 0 1-51.8 51.8c-2.6-2.5-6.9-8-15.3-25.7L4.4 519.9a6.6 6.6 0 0 0 0 9.4l34.9 34.9a8.4 8.4 0 0 1-2.4 13.5c-18.8 8.8-24.5 13-26.3 14.7a23.4 23.4 0 0 0 33 33c1.8-1.7 6-7.4 14.8-26.2a8.4 8.4 0 0 1 13.5-2.4l35 35a6.6 6.6 0 0 0 9.4 0l57.6-57.7a6.6 6.6 0 1 1 9.4 9.4L125.6 641a20 20 0 0 1-28.1 0l-30-30c-8 16.2-12 21.3-14.4 23.7A36.7 36.7 0 0 1 1.3 583c2.4-2.4 7.5-6.4 23.7-14.3l-30-30a20 20 0 0 1 0-28.2ZM440.7 134 403 171.8a9 9 0 0 0 2.6 14.5c21.7 10 28.2 14.7 30.1 16.6a25 25 0 0 1-35.3 35.3c-2-2-6.7-8.4-16.6-30.1a9 9 0 0 0-14.5-2.6l-37.8 37.8a21.3 21.3 0 0 0 0 30l109.3 109.4a21.3 21.3 0 0 0 30 0l24.3-24.2a7 7 0 0 0-10-10l-24.3 24.2a7 7 0 0 1-10 0L341.4 263.3a7 7 0 0 1 0-10l32.6-32.6c9 19 13.6 24.8 16.3 27.5a39.1 39.1 0 0 0 55.3-55.3c-2.7-2.7-8.5-7.3-27.5-16.3l32.6-32.6a7 7 0 0 1 10 0l37.3 37.2a9 9 0 0 0 14.4-2.5c9.3-20.1 13.8-26.2 15.7-28a25 25 0 0 1 35.2 35.2c-1.8 1.9-8 6.4-28 15.7a9 9 0 0 0-2.5 14.4l37.3 37.3a7 7 0 0 1 0 10L508.5 325a7 7 0 1 0 10 10l61.6-61.5a21.3 21.3 0 0 0 0-30L548 211.1c17.3-8.4 22.8-12.7 25.4-15.3a39.1 39.1 0 0 0-55.3-55.3c-2.6 2.6-7 8-15.3 25.4l-32-32a21.3 21.3 0 0 0-30 0Zm-190.2 41.1-35.4-35.4a8.4 8.4 0 0 1 2.4-13.6c20.3-9.3 26.4-13.8 28.2-15.6a23.4 23.4 0 0 0-33-33c-1.8 1.8-6.3 7.9-15.6 28.2a8.4 8.4 0 0 1-13.6 2.4l-35.4-35.4a20 20 0 0 1 0-28.2L250.5-57.9a20 20 0 0 1 28.2 0l22.7 22.7A6.6 6.6 0 1 1 292-26l-22.7-22.6a6.6 6.6 0 0 0-9.4 0L157.5 53.9a6.6 6.6 0 0 0 0 9.4L188 93.8c8.5-17.7 12.8-23.2 15.3-25.7a36.7 36.7 0 0 1 51.8 51.8c-2.5 2.5-8 6.8-25.7 15.3l30.5 30.6a6.6 6.6 0 0 0 9.4 0l34.9-35a8.4 8.4 0 0 1 13.5 2.5c8.8 18.8 13 24.5 14.7 26.2a23.4 23.4 0 0 0 33-33c-1.7-1.8-7.4-6-26.2-14.7a8.4 8.4 0 0 1-2.4-13.5l35-35a6.6 6.6 0 0 0 0-9.4L314-3.7a6.6 6.6 0 1 1 9.4-9.4L381 44.5a20 20 0 0 1 0 28.2l-30 30c16.2 8 21.3 12 23.7 14.4a36.7 36.7 0 0 1-51.8 51.8c-2.4-2.4-6.4-7.5-14.3-23.8l-30 30a20 20 0 0 1-28.2 0Zm95 398-35.4-35.4a8.4 8.4 0 0 1 2.4-13.6c20.3-9.3 26.4-13.8 28.2-15.6a23.4 23.4 0 0 0-33-33c-1.8 1.8-6.3 7.9-15.6 28.2a8.4 8.4 0 0 1-13.6 2.4l-35.4-35.4a20 20 0 0 1 0-28.2l102.4-102.4a20 20 0 0 1 28.2 0l22.7 22.7a6.6 6.6 0 1 1-9.4 9.3l-22.7-22.6a6.6 6.6 0 0 0-9.4 0L252.5 451.9a6.6 6.6 0 0 0 0 9.4l30.5 30.5c8.5-17.7 12.8-23.2 15.3-25.7a36.7 36.7 0 0 1 51.8 51.8c-2.5 2.5-8 6.8-25.7 15.3l30.5 30.6a6.6 6.6 0 0 0 9.4 0l34.9-35a8.4 8.4 0 0 1 13.5 2.5c8.8 18.8 13 24.5 14.7 26.2a23.4 23.4 0 0 0 33-33c-1.7-1.8-7.4-6-26.2-14.7a8.4 8.4 0 0 1-2.4-13.5l35-35a6.6 6.6 0 0 0 0-9.4L409 394.3a6.6 6.6 0 1 1 9.4-9.4l57.6 57.6a20 20 0 0 1 0 28.2l-30 30c16.2 8 21.3 12 23.7 14.4a36.7 36.7 0 0 1-51.8 51.8c-2.4-2.4-6.4-7.5-14.3-23.8l-30 30a20 20 0 0 1-28.2 0ZM211.6 179l35.5 35.5a8.4 8.4 0 0 1-2.4 13.6c-20.3 9.3-26.4 13.7-28.3 15.5a23.4 23.4 0 0 0 33 33.1c2-1.8 6.4-8 15.7-28.2a8.4 8.4 0 0 1 13.5-2.5l35.5 35.5a20 20 0 0 1 0 28.1L211.6 412.1a20 20 0 0 1-28.1 0l-22.7-22.7a6.6 6.6 0 1 1 9.4-9.4l22.7 22.7a6.6 6.6 0 0 0 9.4 0l102.4-102.4a6.6 6.6 0 0 0 0-9.4l-30.5-30.6c-8.5 17.8-12.8 23.2-15.3 25.8a36.7 36.7 0 0 1-51.8-51.8c2.5-2.6 8-6.9 25.7-15.3l-30.5-30.6a6.6 6.6 0 0 0-9.4 0l-35 34.9a8.4 8.4 0 0 1-13.5-2.4c-8.7-18.8-12.9-24.5-14.6-26.3a23.4 23.4 0 0 0-33 33.1c1.7 1.7 7.4 6 26.2 14.7a8.4 8.4 0 0 1 2.4 13.5l-35 35a6.6 6.6 0 0 0 0 9.4l57.7 57.6a6.6 6.6 0 1 1-9.4 9.4L81 309.6a20 20 0 0 1 0-28.1l30.1-30c-16.2-8-21.3-12-23.8-14.4a36.7 36.7 0 0 1 51.9-51.8c2.4 2.4 6.4 7.5 14.3 23.7l30-30a20 20 0 0 1 28.1 0Zm-243 76 35.5 35.5a8.4 8.4 0 0 1-2.4 13.6c-20.3 9.3-26.4 13.7-28.3 15.5a23.4 23.4 0 0 0 33 33.1c2-1.8 6.4-8 15.7-28.2a8.4 8.4 0 0 1 13.5-2.5l35.5 35.5a20 20 0 0 1 0 28.1L-31.4 488.1a20 20 0 0 1-28.1 0l-22.7-22.7a6.6 6.6 0 1 1 9.4-9.4l22.7 22.7a6.6 6.6 0 0 0 9.4 0L61.7 376.3a6.6 6.6 0 0 0 0-9.4l-30.5-30.6c-8.5 17.8-12.8 23.2-15.3 25.8A36.7 36.7 0 0 1-36 310.3c2.5-2.6 8-6.9 25.7-15.3l-30.5-30.6a6.6 6.6 0 0 0-9.4 0l-35 34.9a8.4 8.4 0 0 1-13.5-2.4c-8.7-18.8-12.9-24.5-14.6-26.3a23.4 23.4 0 0 0-33 33.1c1.7 1.7 7.4 6 26.2 14.7a8.4 8.4 0 0 1 2.4 13.5l-35 35a6.6 6.6 0 0 0 0 9.4l57.7 57.6a6.6 6.6 0 1 1-9.4 9.4l-57.7-57.7a20 20 0 0 1 0-28.1l30.1-30c-16.2-8-21.3-12-23.8-14.4a36.7 36.7 0 0 1 51.9-51.8c2.4 2.4 6.4 7.5 14.3 23.7l30-30a20 20 0 0 1 28.1 0Z" fill="#272727"/></g><defs><clipPath id="a"><path fill="#fff" d="M0 0h405v574H0z"/></clipPath></defs></svg>