<svg width="222" height="48" fill="none" xmlns="http://www.w3.org/2000/svg"><path d="M4 15v12l23-12.6V3L4 15Z" fill="#D88E8C"/><path d="M27 26.2V14l10 6v12l-10-5.8Z" fill="#7BADD5"/><path d="m16 43 11-5.6V26l-11 5.4V43Z" fill="#EBCA71"/><path d="M70.2 12.6c1.6 0 3 .3 4.2 1 1.3.6 2.2 1.5 2.9 2.7a8 8 0 0 1 1 4.1 8 8 0 0 1-1 4.1 7 7 0 0 1-2.9 2.8 9 9 0 0 1-4.2 1h-6.7V35h-3.7V12.6h10.4ZM70 24.8c1.4 0 2.5-.4 3.3-1.2.9-.8 1.3-1.8 1.3-3.2a4 4 0 0 0-1.3-3.2c-.8-.8-2-1.2-3.3-1.2h-6.5v8.8H70Zm25.5-5.6V35h-3.2v-2.1c-.7.8-1.5 1.4-2.5 1.8a8.6 8.6 0 0 1-7.4-.3 9 9 0 0 1-2.8-3 9 9 0 0 1-1-4.3c0-1.6.4-3 1-4.3a7.1 7.1 0 0 1 2.8-2.9 8 8 0 0 1 4-1 8 8 0 0 1 3.4.6c1 .4 1.8 1 2.4 1.8v-2.1h3.3ZM87 32c1.5 0 2.6-.5 3.5-1.4a5 5 0 0 0 1.4-3.6 5 5 0 0 0-1.4-3.6c-.9-1-2-1.4-3.5-1.4-1.4 0-2.6.5-3.5 1.4a5 5 0 0 0-1.3 3.6 5 5 0 0 0 1.3 3.6c1 1 2.1 1.4 3.5 1.4Zm19.6-13.2a6.4 6.4 0 0 1 4 1.3l-1.6 3c-.9-.6-1.8-.9-2.7-.9-1.3 0-2.3.4-3 1.3-.8 1-1.2 2.2-1.2 3.7V35h-3.6V19.2h3.2v2.4c.7-1 1.4-1.6 2.2-2a5 5 0 0 1 2.7-.7Zm15.3 15.6a8 8 0 0 1-3.6.7c-1.6 0-2.9-.5-3.8-1.4-.9-1-1.3-2.4-1.3-4.2v-7.4h-3v-3h3V15l3.5-.4v4.5h4.6v3h-4.6v7.4c0 .8.2 1.4.6 1.8.3.4.9.7 1.6.7a5 5 0 0 0 2-.5l1 2.9Zm10-15.6c1.4 0 2.6.3 3.6.9a6 6 0 0 1 2.4 2.6c.6 1 .8 2.4.8 3.9V35h-3.6v-8.5c0-1.4-.3-2.5-1-3.2a3.6 3.6 0 0 0-2.8-1.2 4 4 0 0 0-3.2 1.3c-.8.9-1.2 2-1.2 3.3V35h-3.6V19.2h3.2v2A6.8 6.8 0 0 1 132 19Zm16.8 0a8 8 0 0 1 6 2.2 8.3 8.3 0 0 1 2.2 6v1.3h-12.7a4 4 0 0 0 1.6 2.8c.9.7 2 1 3.4 1 .9 0 1.8-.1 2.6-.4a5 5 0 0 0 2-1.2l2.1 2.1c-.8.8-1.8 1.5-3 2a10 10 0 0 1-3.8.7c-1.7 0-3.2-.3-4.5-1a7.5 7.5 0 0 1-3-3c-.7-1.2-1-2.6-1-4.3 0-1.6.3-3 1-4.3a7.2 7.2 0 0 1 2.8-2.9c1.3-.7 2.7-1 4.3-1Zm.1 3a5 5 0 0 0-3 1c-.8.7-1.3 1.6-1.6 2.8h9.2c-.1-1.2-.6-2-1.4-2.7-.8-.7-1.9-1-3.2-1Zm18-3a6.4 6.4 0 0 1 4 1.3l-1.5 3c-.9-.6-1.8-.9-2.7-.9-1.3 0-2.3.4-3 1.3-.8 1-1.2 2.2-1.2 3.7V35h-3.6V19.2h3.2v2.4c.7-1 1.4-1.6 2.2-2a5 5 0 0 1 2.7-.7Zm15.8-6.3c1.6 0 3 .3 4.2 1 1.2.6 2.2 1.5 2.8 2.7a8 8 0 0 1 1 4.1 8 8 0 0 1-1 4.1 7 7 0 0 1-2.8 2.8 9 9 0 0 1-4.2 1h-6.7V35H172V12.6h10.5Zm-.2 12.2c1.4 0 2.5-.4 3.3-1.2.8-.8 1.3-1.8 1.3-3.2 0-1.3-.5-2.4-1.3-3.2-.8-.8-2-1.2-3.3-1.2h-6.6v8.8h6.6Zm18-6a6.4 6.4 0 0 1 4 1.4l-1.7 3c-.8-.6-1.7-.9-2.6-.9-1.3 0-2.3.4-3.1 1.3-.8 1-1.1 2.2-1.1 3.7V35h-3.6V19.2h3.2v2.4a5 5 0 0 1 2.1-2 5 5 0 0 1 2.7-.7Zm11.8 16.6a9 9 0 0 1-4.5-1.1 7.7 7.7 0 0 1-4-7.2c0-1.6.4-3 1-4.2a7.5 7.5 0 0 1 3-3c1.3-.7 2.8-1 4.5-1 1.6 0 3.1.3 4.4 1 1.3.7 2.3 1.7 3 3 .6 1.2 1 2.6 1 4.2s-.4 3-1 4.3a7.5 7.5 0 0 1-3 2.9 9 9 0 0 1-4.4 1Zm0-3.3a4.7 4.7 0 0 0 4.2-2.5c.4-.7.6-1.6.6-2.5 0-1-.2-1.8-.6-2.5a4.7 4.7 0 0 0-4.2-2.5 4.6 4.6 0 0 0-4.3 2.5c-.4.7-.6 1.6-.6 2.5 0 1 .2 1.8.6 2.5a4.7 4.7 0 0 0 4.3 2.5Z" fill="#272727"/></svg>