<svg width="1080" height="215" fill="none" xmlns="http://www.w3.org/2000/svg"><path d="M20.7 56.8v2.9H.5v-3h20.2Zm31.5 0a11 11 0 0 1-7.5 2.9H23.5v-3h28.7Zm30 0-1 2.9-1-3h2Zm-9.7 0v2.9H58.1v-3h14.4Zm31.7 0v2.9H89.8v-3h14.4Zm-48.8-5.5c-.2 1-.6 2-1.1 2.9H23.5v-3h32Zm28.7 0-1 2.9h-3.9l-1-3h5.9Zm-11.6 0v2.9H58.1v-3h14.4Zm31.7 0v2.9H89.8v-3h14.4Zm-83.5 0v2.9H.5v-3h20.2Zm-5.8-5.5v2.9H6.3v-2.9h8.6Zm23 0v2.9h-8.6v-2.9h8.6Zm17.5 0c.2 1 .3 1.9.3 2.9h-9.6v-2.9h9.3Zm30.6 0-1 2.9h-7.7l-1-2.9H86Zm-13.5 0v2.9h-8.6v-2.9h8.6Zm26 0v2.9h-8.7v-2.9h8.6Zm-83.6-5.5v2.9H6.3v-2.9h8.6Zm57.6 0v2.9h-8.6v-2.9h8.6Zm26 0v2.9h-8.7v-2.9h8.6Zm-46.6 0a11 11 0 0 1 2.4 2.9h-25v-2.9h22.6Zm36 0-1 2.9H75.4l-1-2.9h13.5Zm-7.6-5.5.8 2.3.8-2.3h16.5v2.9h-8.6V35l-1 2.7H73.4l-.9-2.7v2.7h-8.6v-2.9h16.4Zm-51 0h25c-.7 1.1-1.5 2-2.4 2.9H29.3v-2.9Zm-14.4 0v2.9H6.3v-2.9h8.6Zm0-5.5v2.9H6.3v-2.9h8.6Zm23 0v2.9h-8.6v-2.9h8.6Zm17.8 0c0 1 0 2-.3 2.9H46v-2.9h9.6Zm22.7 0 1 2.9H64v-2.9h14.5Zm20 0v2.9H83l1-2.9h14.5Zm-77.7-5.5v2.9H.5v-2.9h20.2Zm33.6 0c.5 1 .9 1.9 1.1 2.9H23.5v-2.9h30.8Zm49.9 0v2.9H84.8l1-2.9h18.4Zm-27.7 0 1 2.9H58.1v-2.9h18.4Zm-55.8-5.5v3H.5v-3h20.2Zm24 0c2.8 0 5.4 1 7.5 3H23.5v-3h21.2Zm59.5 0v3H86.7l1-3h16.5Zm-29.6 0 1 3H58v-3h16.5Zm92.9 18.2a4 4 0 0 0-1.6 1.3c-.4.5-.6 1.2-.6 2a3 3 0 0 0 1.3 2.4 3 3 0 0 0 2.6.4c1-.3 1.7-1 2.1-2.2.2-.5.3-1.1.3-1.8v-3l-2 .3c-.7.1-1.4.3-2 .6Zm1.6-23.3a26 26 0 1 0 0 51.8 26 26 0 0 0 0-51.8Zm2 15.1c-.3-.6-1-.9-2.2-.9h-.3l-.7.2c-.4.2-.7.3-1 .6a6 6 0 0 0-2 2.8l-5.4-.5c0-.8.1-1.5.4-2.2.3-.7.7-1.4 1.2-2 .6-.6 1.2-1.2 2-1.7s1.7-.9 2.8-1.2a13.5 13.5 0 0 1 6.9 0 6.8 6.8 0 0 1 4.7 4.1c.2.5.2 1 .2 1.4v10.5l.3 1.2.6 1a10 10 0 0 0 1.3 1.4l.2.2-4.2 4a63.3 63.3 0 0 1-2.5-2.4l-.3-.3-.5-.6a7.7 7.7 0 0 1-4.2 3c-.8.2-1.7.4-2.5.4-1 0-1.8-.1-2.6-.4-.8-.3-1.5-.7-2.2-1.2a5.1 5.1 0 0 1-1.5-2 7 7 0 0 1-.6-3 7.2 7.2 0 0 1 2-4.7 13.2 13.2 0 0 1 6.6-3.1 21.3 21.3 0 0 1 4-.4V30c0-.8 0-1.4-.3-1.8Zm10.5 22a14.2 14.2 0 0 1-2.6 2 19.9 19.9 0 0 1-10.3 2.8 19.8 19.8 0 0 1-11.5-3.8 24.5 24.5 0 0 1-4-3.4.8.8 0 0 1-.1-.3v-.2l.1-.2a.4.4 0 0 1 .5 0 32 32 0 0 0 5.5 3A24 24 0 0 0 174 52a33.6 33.6 0 0 0 7.7-2.5c.1 0 .2.1.2.3l-.3.6Zm3.5-1.7-.5 1.9c-.5 1-1 1.7-1.6 2.2-.2.2-.4.2-.5.2v-.5c.3-.5.5-1.2.8-2.2.3-.9.4-1.5.1-1.7l-.2-.2a2 2 0 0 0-.5-.1h-.6a6 6 0 0 0-1.2 0 50 50 0 0 1-1.4 0l-.2.1h-.4c-.1-.3.2-.5.8-.8a5 5 0 0 1 2-.5h2c.7 0 1.2.2 1.3.4.2.2.2.6 0 1.2Zm235.2-22.3c0-.8.8-1.2 2.1-1.2s2.1.3 2.1 1.2c0 1-1.3 1.2-2 1.2-1.4 0-2.2-.3-2.2-1.2Zm5.5 0c0-1.6-1.3-2.8-3.4-2.8-1.5 0-3.3.8-3.3 2.8 0 2 1.6 2.8 3.3 2.8 1.8 0 3.4-.9 3.4-2.8Zm-5.5 7.7v-1c0-.8.5-1 .8-1 .4 0 .9.3.9 1v1h-1.7Zm2.8 0v-1l2.6-1v-1.8l-2.9 1.2c-.2-.7-1-1.1-1.7-1.1-1.2 0-2 .8-2 2.3v3h6.6V34H423Zm-1.5 3c-1.6.2-2.5 1-2.5 2.7 0 2 1.5 2.9 3.3 2.9 1.8 0 3.4-1 3.4-2.9 0-1.5-1-2.5-2.4-2.7l-.1 1.5c.6 0 1.2.4 1.2 1.1 0 1.2-1.1 1.3-2 1.3-.8 0-2.2-.1-2.2-1.2 0-.8.6-1 1.4-1l-.1-1.7Zm4 7h-6.5v1.6h6.6v-1.5Zm0 6.7v1l-5.3 1.6h5.4v1.3H419v-2.4l4-1.1-4-1.2v-2.4h6.6V49h-5.4l5.4 1.7Zm-134.4 4h-24.7l-6-22.2v22.1h-10V24h17.4l5.8 21.6V24H284v4.6c-2.5 2.7-4 6-4 10.2 0 6 3.4 13.5 11.3 15.8ZM411.3 24v30.6h-10.6v-24h-.1l-6.1 24h-9.8l-6-24h-.2v24H360l-2-6.6h-10l-1.8 6.6h-17.7L328 49c-.6-3.8-1.7-4.7-4-4.7h-3v10.3h-18.2c5.3-1.2 10-3.6 12.7-5.2l-3.8-14.5-10.1 2.7 2.1 8.2c-.6.5-2.7 1.2-4.2 1.2-4.8 0-7-4.9-7-9 0-6.8 6.7-9.4 12.8-9.4l3.4.2-1.2-4.8h21.1c8.4 0 11.7 4 11.7 8.3 0 6.4-6.1 7.7-7.3 7.9v.2a7 7 0 0 1 5.4 3.7l7-20.1h16.2l6.9 19.2V24H386l4 16.8 4-16.8h17.4Zm-177.2 0h11.7v30.6h-11.7V24Zm119 6.6-3.3 10h6.8l-3.3-10h-.2Zm-32.2 6.8h3.5c2.8 0 4-1.5 4-3.3 0-2.3-2-3.2-4-3.2h-3.5v6.5Zm151-11.8a8.2 8.2 0 0 0-5.3 3.5 10 10 0 0 0-1.6 4.2c-.3 1.4-.2 3.4.2 5.3a20 20 0 0 0 4.5 8.9 17 17 0 0 0 6.9 4.5c2.4.8 5 .8 7.4 0a18.1 18.1 0 0 0 7-5.2l.4-.4a19 19 0 0 0 4-11.9l-.2-1.2c-.6-4-2.8-6.6-6.3-7.6l-2.2-.1c-1.5 0-1.7 0-2.5.2-1.2.3-2.6.9-3.8 1.6l-.3.1-.9-.4c-1.2-.7-2-1-3.1-1.3-.8-.2-1-.2-2.4-.2H472Zm3.2 2.8c.7 0 1.4.3 2.2.7l.4.2-.8.9a13.1 13.1 0 0 0-1.7 2 19.5 19.5 0 0 0-3.4 7.4c-.2 1-.2 1.2-.2 3a11.3 11.3 0 0 0 .2 3l-1.5-1.8c-2-2.9-3-6.7-2.7-9.8.2-1 .6-2.5 1-3.2.6-1 1.8-2 2.9-2.3 1-.3 2.4-.4 3.6-.1Zm13.3 0c3 .8 4.7 4.2 4.2 8.6a15.5 15.5 0 0 1-4.1 8.6V45a15 15 0 0 0-1-8.4l-.7-1.3c-.3-.7-.5-.8-.8-.7a73.8 73.8 0 0 0-6.4 4c-.2.1-.1.6.2 1l.5.8c.3.4.4.5.6.5l3.4-2.1.8-.5.6 2a10 10 0 0 1-1.2 7.6 5.3 5.3 0 0 1-4.7 2c-1.5 0-2.4-.4-3.5-1.5-.6-.6-.8-.8-1-1.4a10.5 10.5 0 0 1-.5-7.5c1.1-4.8 5-9.2 9.1-10.7l2.1-.5c.6 0 1.8 0 2.4.2Zm20.6 2.7c-.8 0-1.6.2-1.8.3l-1 .4c-1 .4-1.8 1-2.7 1.9-.8.7-1 1-1.3 1.6-.7 1.4-1 2.7-1 4.4a8 8 0 0 0 1.2 3.9 10 10 0 0 0 2 2.1c.9.6 2.2 1.2 3 1.4h3.3a8.5 8.5 0 0 0 3.5-1.9l.4-.4v.8l.1 1 .2.3h2.3c.2-.2.2-.5.2-3.6l-.1-3.4H511l-.2.1c-.2.2-.2.3-.2 1.1 0 1 0 1 .2 1.1.3.2.3.2 1.3.2l1 .1c0 .2-.8.8-1.3 1-.8.4-1.7.6-2.6.5a4.4 4.4 0 0 1-4.2-3.4l-.2-1.5c0-.9 0-1 .3-1.6a4.7 4.7 0 0 1 2.9-3 6 6 0 0 1 2.7-.2c1.3.3 2.4 1 3 2.1.3.6.4.7 1 .4 1.1-.3 2.2-.8 2.3-1 0 0-.2-.7-.7-1.5-.8-1.2-1.8-2-3.2-2.6l-.8-.3a11 11 0 0 0-3.3-.3Zm22.2.3-.2.2v7.5l.1 7.6.1.2h3.6c3.6 0 3.7 0 5-.3a7.2 7.2 0 0 0 5.7-7.5c0-1.8-.1-2.3-.7-3.6-1-2-2.7-3.3-5.3-4-1.2-.2-1.6-.2-5-.2l-3.3.1Zm7.6 3.2c1 .3 1.9.9 2.5 1.9l.6 1c.2.7.2 1.7.1 2.4 0 .6-.3 1.4-.4 1.5l-.4.5a4 4 0 0 1-2.5 1.8 9 9 0 0 1-2.5.1h-1.9v-4.6l.1-4.8h2c1.4 0 2 0 2.4.2Zm29-3.3c-.4.1-.4.3-.4 3v2.8l-.4-.3c-1.3-1.3-3.7-1.4-5.5-.3l-1 .8a6.1 6.1 0 0 0-1 6.9c1 2 3 3.2 5 3 1.2 0 1.8-.3 2.6-1.1l.3-.3v.4c0 .2 0 .4.2.5 0 .2.1.2 1.4.2l1.4-.1c.1-.1.2-1 .2-7.6 0-7.5 0-7.6-.2-7.7-.2-.2-.2-.2-1.3-.2h-1.4Zm-1.9 7.6c.5.2 1.1.9 1.4 1.4.1.4.2.5.2 1.2s0 .8-.3 1.3c-.5 1-1.3 1.4-2.3 1.4-1.6 0-2.7-1.2-2.6-2.9 0-.8.3-1.4.9-1.9.6-.6 1-.7 1.8-.7l.9.2Zm14.4-7.4-.2.2V37l-.5-.3a4 4 0 0 0-1.5-1l-2.6.1c-1 .3-2.2 1-2.8 1.9l-.4.5-.5 1.2c-.3.8-.4 1.8-.3 2.7 0 .7.4 1.8.6 2.1a7 7 0 0 0 2.3 2.3c.8.4 1.4.6 2.2.6 1.2.1 2.1-.2 3-1l.4-.4v.3c0 .4.2.7.3.8h2.7c.3-.2.3-.6.3-7.8 0-7.7 0-7.6-.4-7.8h-1.3c-1 0-1.1 0-1.3.2Zm-1.8 7.4c.5.3 1 .7 1.2 1.2l.3.5.1.8c0 .7 0 .8-.2 1.2-.5 1-1.2 1.5-2.2 1.6-1.1 0-2-.4-2.4-1.4-.3-.5-.3-.6-.3-1.3 0-.7 0-.8.2-1.2l.8-1c.6-.6 1.8-.8 2.5-.4Zm18-5.3v.6l.1.6.1-.4v-.3l.2.3.2.2s.2 0 .2-.2l.2-.3v.3l.1.4c.2 0 .2 0 .2-.6 0-.5 0-.6-.2-.6l-.3.3-.2.3-.1-.2-.2-.4h-.2ZM523.2 36c-2 .4-3.7 1.7-4.4 3.6a6 6 0 0 1-.2.7 6 6 0 0 0 0 2.7l.1.4a7 7 0 0 0 1.2 2 6.1 6.1 0 0 0 2 1.4l.7.3a7 7 0 0 0 3.2 0c.7-.1 1.8-.7 2.5-1.2a5.7 5.7 0 0 0-1.4-9.5c-1-.5-2.6-.7-3.7-.4Zm2 3 .5.3c1 .9 1.2 1.3 1.3 2.3 0 .6 0 .7-.3 1.2-.4.7-1 1.2-2 1.4-1 .2-2.2-.3-2.8-1.4-.2-.6-.3-1.6 0-2.2.2-.5.8-1.3 1.3-1.5.6-.3 1.3-.3 2 0Zm26-3.1-1.6.4a5 5 0 0 0-3 3.1 6.2 6.2 0 0 0 .3 4.9 5 5 0 0 0 2.4 2.4l.4.2c0 .2 1.6.5 2.4.4 1 0 1.6-.3 2.4-1.1l.4-.3v.4l.1.5c.1.2.1.2 1.5.2l1.4-.1c.2-.1.2-.6.2-5.3 0-4.9 0-5.2-.2-5.3l-1.4-.1c-1.5 0-1.6 0-1.6.6v.4l-.4-.3a4 4 0 0 0-1.8-1H551Zm2 3 .9.7c.5.5.5.6.7 1.1.4 1.4-.1 2.8-1.4 3.4-.6.3-1.5.3-2.2 0a3 3 0 0 1-1.2-1.3l-.1-1.2c0-.7 0-.9.2-1.2a3 3 0 0 1 1.5-1.4c.6-.2 1-.2 1.6 0Zm31-2.7c-.2.2-.2.5.2 1.8l2.8 8.8c.2.2.2.2 1 .2.7 0 .9 0 .8.1l-.1.6c-.3 1-.7 1.3-1.6 1.3-.5 0-.6 0-1.1-.3-.7-.4-1-.4-1.2-.1-.3.3-1 1.4-1 1.6 0 .3.3.6 1 1 1.4.6 3.5.6 4.8 0 .6-.4 1.3-1.1 1.6-1.8l.8-2.3a348.3 348.3 0 0 1 3-10.6v-.2l-1.6-.1-1.5.1-1 3.2-1.2 4.7a161.2 161.2 0 0 1-2.3-7.5c-.1-.5-.2-.5-1.8-.5h-1.5Z" fill="#272727"/><path d="M661.2 37.8h-24.4V13.2h24.4v24.6Z" fill="#A5CCE2"/><path d="M688.2 37.8h-24.4V13.2h24.4v24.6Z" fill="#6990A6"/><path d="M661.2 65h-24.4V40.4h24.4V65Z" fill="#194056"/><path d="M688.2 65h-24.4V40.4h24.4V65Zm68.6-5.5h-3.7V44.7h3.7v14.8Zm30-10.5c-.1-.1-1.3-.8-3.1-.8-2.4 0-4 1.6-4 3.9 0 2.2 1.5 4 4 4 1.7 0 3-.8 3.1-.9v4c-.4.1-1.7.5-3.4.5-4.2 0-7.8-2.9-7.8-7.6 0-4.4 3.3-7.6 7.8-7.6 1.8 0 3 .4 3.4.5v4ZM748 49c-.2-.1-1.4-.8-3.2-.8-2.4 0-4 1.6-4 3.9 0 2.2 1.6 4 4 4 1.8 0 3-.8 3.2-.9v4c-.5.1-1.8.5-3.4.5-4.2 0-7.9-2.9-7.9-7.6 0-4.4 3.3-7.6 7.9-7.6 1.7 0 3 .4 3.4.5v4Zm50.5-.8a3.8 3.8 0 0 0-3.8 3.9c0 2.1 1.6 3.9 3.8 3.9a4 4 0 0 0 3.9-4c0-2-1.7-3.8-3.9-3.8Zm7.8 3.9c0 4.2-3.2 7.6-7.8 7.6a7.6 7.6 0 0 1-7.8-7.6c0-4.2 3.3-7.6 7.8-7.6 4.6 0 7.8 3.4 7.8 7.6ZM771 48s-1.6-.5-2.9-.5c-1.5 0-2.3.5-2.3 1.2 0 1 1.1 1.2 1.7 1.4l1 .4c2.5.7 3.6 2.4 3.6 4.2 0 3.7-3.3 5-6.1 5-2 0-3.9-.4-4-.5V56c.3.1 1.8.6 3.4.6 1.9 0 2.8-.6 2.8-1.4 0-.7-.8-1.2-1.7-1.5l-.8-.2c-2-.7-3.8-1.9-3.8-4.3 0-2.8 2-4.6 5.5-4.6 1.8 0 3.5.4 3.6.4v3.2Zm-38.2-19.1a1.8 1.8 0 0 0-3.7 0v3.8a1.9 1.9 0 0 0 3.1 1.3c.4-.3.6-.8.6-1.3V29Zm10.1-5.1a1.8 1.8 0 0 0-3.7 0v9a1.9 1.9 0 0 0 3.7 0v-9Zm10.2-7a1.8 1.8 0 0 0-3.7 0v19.6a1.9 1.9 0 0 0 3.1 1.3c.4-.3.6-.8.6-1.3V16.8Zm10.1 7a1.8 1.8 0 0 0-3.7 0v9a1.9 1.9 0 0 0 3.7 0v-9Zm10.2 5a1.8 1.8 0 1 0-3.7 0v4a1.8 1.8 0 1 0 3.7 0v-4Zm10.1-5a1.8 1.8 0 0 0-3.7 0v9a1.8 1.8 0 1 0 3.7 0v-9Zm10.2-7a1.8 1.8 0 0 0-3.7 0v19.6a1.8 1.8 0 0 0 1.8 2 1.8 1.8 0 0 0 1.9-2V16.8Zm10.1 7c0-1-.8-1.9-1.8-1.9a1.8 1.8 0 0 0-1.9 1.9v9c0 1 .9 1.8 1.9 1.8 1 0 1.8-.8 1.8-1.9v-9Zm10.2 5a1.8 1.8 0 0 0-3.7 0v4a1.8 1.8 0 1 0 3.7 0v-4Zm-2.2 28.7v.3h-.6v1.7h-.3v-1.7h-.6v-.3h1.5Zm.2 0h.4l.6 1.6.6-1.6h.4v2h-.3v-1.6l-.6 1.6h-.3l-.5-1.6v1.6h-.3v-2Z" fill="#272727"/><g clip-path="url(#a)"><path d="M896.2 77.4a38.4 38.4 0 1 0 0-76.8 38.4 38.4 0 0 0 0 76.8Z" fill="#272727"/><path d="m921.2 42.3-2 .6.5.1-.7.5.2-1.2 1-.9.1.5 1.2-1.6-1.8.8.4.1-.8.7.1-1.5 1-1.1.1.5 1-1.8-1.7 1 .4.1-.8 1v-1c0-2.3-.3-4.5-1-6.6-1 0-2-.3-2.5-.4a4 4 0 0 1 2 2.6 4 4 0 0 1-3.3-.7 4 4 0 0 1 1.3 2.8 4 4 0 0 1-2.9-1.2c.5.5 1.1 2 1 2.9-1-.1-2-.7-2.6-1.5.5 1.1.7 2 .6 3a5 5 0 0 1-2.4-1.2c.4 1 .5 2 .4 2.7a4 4 0 0 1-2.3-1.7c.3.8.5 2 .3 2.7a3 3 0 0 1-2-1.8c.5 1 .4 2.1.3 2.7-.4 0-.9-.3-1.1-.6v.5c-.1.7-.2 1.3-.5 1.8l.3.3c.5.6 1.1 1 1.6 1.2l-.8.2c.3.4 1 .5 1.4 1l-.8.2c.8.6 1.5.6 1.9.6h1c.4 0 1 .2 1.1.3.3.2.3.6.2.8 0 0 0 .2-.3.3-.1 0-.2 0 0 0 0 0 .1-.6-.1-.8l-.8-.2h-1c-.3 0-.5.3-.5.4 0 .3-.2.7-.6.5-.6-.3-1.3-.3-2.2-.6 0 .2 0 .5.2.8-.8-.2-1-.6-1.8-.9l.3.8c-.7-.1-1.2-.7-2.1-1h-.1l-.9.4a6 6 0 0 1 1.4 2.6l-1.1-.2.3 1.8s-.5 0-1.2-.5v2s-.6-.3-1.3-1c0 .7-.3 1.3-.5 2 0 0-.6-.4-1-1.2l-1 1.9s-.6-.6-1-1.8c-.5.8-1 1-1 1-.3-.5-.5-1.2-.5-1.9-.7.7-1.3 1-1.3 1v-2l-1.3.5c0-.6.2-1.2.4-1.8l-1.1.2c.2-1 1-2.2 1.4-2.7l-.8-.2c-1 .2-1.5.8-2.2.9l.3-.8c-.7.3-1 .7-1.7.9 0-.3 0-.6.2-.8l-2.2.7c-.5 0-.5-.7-.7-.8h-1.7c-.4 0-.6 0-.8.2-.3.2-.1.7 0 .8h-.1a.5.5 0 0 1-.3-.4c0-.2 0-.6.2-.7.2-.1.7-.4 1.1-.3a4.5 4.5 0 0 0 3-.8c-.3 0-.4-.2-.7-.3.4-.4 1.1-.5 1.4-.9-.3 0-.5-.2-.8-.3.7-.3 1.2-.5 1.6-1l.3-.3c-.2-.6-.4-1.2-.4-1.9v-.5l-1 .6c-.3-.6-.2-1.8.1-2.7-.5 1-1 1.5-1.9 1.8a5 5 0 0 1 .2-2.7 4 4 0 0 1-2.3 1.8c0-.8 0-1.9.4-2.8a5 5 0 0 1-2.4 1.2c0-1 .2-1.9.7-3-.6.8-1.8 1.3-2.8 1.4.1-.9.7-2 1-2.7-.8.6-1.8 1-2.8 1.1.2-1 .6-2 1.3-2.8-.8.7-2.1 1-3.1.9.2-1 .8-2.1 1.7-2.6-.5 0-1.4.3-2.4.2a23 23 0 0 0-1 6.5c-.5-.4-.9-.5-1.3-.9l.2 1.4c.1 1 .5 1.7 1.2 2l.1 1c-.5-.3-1.1-.5-2-.5.5 1.8 1.3 2 2.3 2l.1.6c-.5-.2-1.2-.2-2 0 .6.8 1.3 1.3 2.5 1.5a4 4 0 0 0-2.1.4c.9.8 1.7 1 2.6 1v.3c-.6.2-1.2.5-1.5.8l2 .3c-.3.3-.6.8-.8 1.5l1.5-.3.3.6c-.3.5-.4 1.1-.2 1.8l1-.5.3.5c0 .8.1 1.6.6 2.1l.5-.7A23 23 0 0 0 918 47l1-.4v.4l1.5-1.3-2 .4.4.2-.8.4.4-1.3 1.2-.6v.4L921 44l-1.9.6.5.2-1 .5.4-1.4.8-.5v.4l1.4-1.4Z" fill="#375E74"/><path d="M887 31.2a7 7 0 0 1-1.6-1 4.8 4.8 0 0 1-1.6-5c.3-1.1.8-1.7.6-2.8 0-.7-.6-1.2-1-1.7a11 11 0 0 0-4.4-2.4c-1.2-.4-4.8-1.5-6.3-2.9-.4 1 .4 2.4 1.3 2.6-.8.1-1.5.5-1.8 1 .6.7 1.8 1.4 2.8 1.4-.5.3-1 1-1.2 1.3.8.5 2.2.9 3.2.8-.4.3-.8.8-1 1.2.7.3 2 .8 3.4.9-.5.2-1.2 1-1.6 1.6.8.3 2.4.5 3.4.6-.8.4-1.5 1-1.9 1.8.7.3 2 .7 3.2.7a3 3 0 0 0-1.1 1.7 8 8 0 0 0 2.7 0 6 6 0 0 0-1 2.6c.9 0 2-.2 2.7-.7-.1.7 0 1.5.2 2.1.3 0 .7-.2 1-.4v-3.4Zm33.6-13.9c-1.6 1.4-4 1.8-6.7 2.7-2 .6-3.2 1-5 2.4-.4.4-.9 1-.8 2l.2 3.2c0 1.1-.3 2-.8 2.5a7 7 0 0 1-1.7 1.4l-.2 3c.4.3 1 .5 1.3.5.3-.6.3-1.4.1-2a6 6 0 0 0 2.7.6c0-.7-.3-1.8-1-2.5a8 8 0 0 0 2.8 0c-.2-.7-.6-1.3-1.1-1.8 1.1 0 2.5-.4 3.2-.7a5.3 5.3 0 0 0-1.9-1.8c1-.1 2.6-.3 3.4-.6a6 6 0 0 0-1.6-1.6 11 11 0 0 0 3.4-1 5 5 0 0 0-1-1.1 8 8 0 0 0 3.2-.8c-.2-.3-.7-1-1.2-1.3 2.6-.7 2.7-2 2.7-3Z" fill="#375E74"/><path d="M909.5 20.1a23 23 0 0 0-25.3-.6c1 .7 1.5 1.4 1.6 2.2.1.7.2 1.5-.2 2.7-.4 1.3-.6 2.6.3 4a5 5 0 0 0 3.2 2l4.2-.5a4 4 0 0 1 1.3-1.6c.9-.6.7-1.2.5-1.6a2 2 0 0 0-.9-.9c-.4-.2-1.7-.3-1.7.6-.2-.4-.4-.8-.2-1.3.1-.8 1.4-1 1.7-1-.3-.1-.1-.5.4-.6.7-.2 1.3-.2 2-.2 1.1 0 1.3.3 2 .9.7.7 1.7.9 2.1.5-.3.6-1.2 1-1.7.9l.4 2.6.3 1.7 4.8.6a3 3 0 0 0 1.7-1.1c.6-.6 1-1.4.9-3.4-.1-.5-.4-2-.3-2.6 0-1.5 1.2-2.5 3-3.3Z" fill="#375E74"/><path d="m894.2 24.2.4.2.1.1.1.2.6-.3.6-.2c-1-.2-1.2.1-1.8 0Zm32.7 4.5c1.4-.6 2-2 1.4-3.4a2.6 2.6 0 0 0-3.5-1.3c-1.3.6-2 2.1-1.4 3.4a2.6 2.6 0 0 0 3.5 1.3Zm-1.6-3.7c1-.4 2.3-.2 2.6.5.3.7-.4 1.8-1.4 2.2-1.1.5-2.4.3-2.7-.4-.3-.7.4-1.8 1.5-2.3Zm-.3 7.3-.5-2 .3-.2.2.6 4.3-1-.2-.7h.4l.8 3h.2v.4l-1.1.3-.1-.4.5-.1-.4-1.6-1.8.5.3 1.2.6-.1v.4l-1.4.3-.1-.4.5-.1-.3-1.2-2 .5.1.5h-.3Zm-60.7-5.5-.2.6 2.8.8c.9.3 1.3.7 1.4 1.5v1.1c-.4 1.2-1.3 1.8-2.4 1.5l-3-.9-.1.6-.4-.1.7-2.1h.3l-.2.6 2.8.9c.7.2 1.1.2 1.4-.2l.4-.5c.2-1-.1-1.6-1-1.9L864 28l-.2.6h-.3l.5-1.8h.3Zm5 1.2a.5.5 0 0 1-.8.3.5.5 0 0 1 .4-1 .5.5 0 0 1 .3.7Zm.9-2.2-.2.3-1.2-.6.2-.4.5.3c.4-.2.6-.4.8-.7.2-.4.2-.9-.2-1-.3-.3-.6-.2-1.4.2l-1.2.6c-.3 0-.6 0-1-.2-.7-.4-.8-1.3-.4-2 .2-.4.3-.5.6-.7l-.2-.2.2-.3 1.1.6-.2.4-.4-.3c-.4.2-.5.4-.7.6-.2.4 0 .8.2 1 .3.1.6 0 1.3-.4l.8-.3.6-.2c.3 0 .6 0 .8.2.8.4 1 1.3.6 2a2 2 0 0 1-.8 1h.2Zm2-3.6a.5.5 0 1 1-1 0c0-.2.2-.5.5-.5s.5.3.5.5Zm12-10L881 14l-.2-.3.6-.2-2.1-4-.5.3-.2-.3 2.9-1.5-.1-.2.3-.2.6 1.1-.4.2-.2-.5-1.4.7.8 1.7 1.1-.6-.2-.5.3-.2.7 1.4-.3.2-.3-.5-1.1.6.9 1.7 1.5-.8-.3-.5.4-.2.5 1Zm3.2-1.1-2.1.7-.1-.3.6-.2-1.5-4.3-.5.2-.1-.3 2.2-.7c1-.3 1.7 0 2 .9.3.8-.2 1.7-1 2h-.5l-.1-.3h.2c.5-.2.6-.7.4-1.3-.2-.7-.6-1-1.1-.8l-.5.1 1.4 4.2.6-.2.1.3Zm6.4-1.7h-.4l-2.7-4.6-.5.1-1.1 5.3h-.5v.4l1.7-.3-.1-.3h-.6l.3-1.2 1.8-.4.7 1.2h-.5v.4l2-.3-.1-.3ZM890 8.3l.4-2.1 1 1.8-1.4.3Zm9.1 1h-.3c-.2 0-.2 0-.4-.3l-1.1-1.7c.7-.2 1-.7 1-1.4 0-.4 0-.7-.3-1-.3-.2-.7-.3-1.3-.3h-2.3v.3h.6v4.5h-.6v.3h2.1v-.3h-.5v-2h.2l1.1 1.8c.3.4.4.5.8.5h1v-.3ZM896 5h.5c.5 0 .8.3.8 1 0 .6-.3 1-.9 1h-.4V5Zm6.6 5.3-2.4-.4v-.3l.8.1.7-4.3-1.3-.2-.1.6h-.5l.3-1.4.4.1v.2l3.6.6v-.2l.4.1-.2 1.3h-.4l.1-.7-1.3-.2-.7 4.3h.7v.4Zm7.3 2.5-2.1-.9v-.3l.7.3 1.2-3.2-3 3-.4-4.2-1.2 3 .6.3v.3l-1.7-.6v-.3l.7.2 1.6-4.2-.6-.2.1-.3 1.3.5.4 4 2.8-2.8 1.5.6-.2.3-.6-.2-1.6 4.1.6.3v.3Zm3.8 2.4-3.1-2 .2-.2.4.3 2.5-3.8-.5-.3.1-.3 2.7 1.8.1-.2.4.2-.7 1-.3-.2.3-.5-1.4-.8-1 1.5 1 .7.4-.5.3.3-.8 1.3-.3-.3.2-.4-1-.7-1 1.6 1.4 1 .3-.5.4.2-.6.8Zm-35.5.3-.5.3-2.5-3.4.5-.4c.7-.5 2-.2 2.6.7.7 1 .7 2.2-.1 2.8Zm1-3.4a2.5 2.5 0 0 0-3.6-.5l-2 1.4.2.3.5-.4 2.6 3.6.4.1 1.3-1c.6-.4 1-.9 1-1.5.2-.7 0-1.5-.4-2Zm41.1 2-.2.3.4.4-2.1 2.5.5-4.4-1.1-1-.3.2.5.4-.1.4-2.8 3-.5-.4-.2.3 1.3 1.1.2-.2-.4-.4 2.3-2.5-.5 4 1.5-.4h.2l2-2.2.4.4.2-.2-1.3-1.2Zm5.2 5.7-.1.2-2.3-3h.2l-.2-.4-1.1.8.3.3.5-.4.8 1L920 21l-.1-.2-.3.1 1.2 1.7.3-.2-.5-.6 3.5-2.6.8 1-.5.4.3.4 1-.8-.3-.4Zm-22.7 53.5h-.4l-.3-1.3.4-.1.1.6c.4.2.7.2 1 .1.6 0 .8-.4.8-.8-.1-.4-.4-.6-1.2-.9-.8-.3-1-.3-1.2-.5l-.5-.8c-.2-.8.3-1.5 1.3-1.7.3-.1.5-.1.8 0v-.3h.4l.3 1.2-.4.1-.2-.5c-.3-.1-.5-.2-.8-.1-.4 0-.7.4-.6.8 0 .3.3.4 1.1.7l.8.3.5.4c.2.2.4.5.4.8.2.8-.3 1.6-1.2 1.8a2 2 0 0 1-1.1 0v.2Zm8-2.5-3.5 1.3-.1-.3.5-.2-1.6-4.2-.6.3-.1-.3 3-1.2-.1-.2.4-.2.4 1.2-.3.1-.2-.5-1.6.6.7 1.7 1.2-.4-.2-.5.4-.2.5 1.4-.4.2-.2-.5-1.1.4.7 1.8 1.6-.6-.2-.5.3-.2.4 1Zm5.1-3.2a3 3 0 0 1-1.3 1.2c-1.4.8-3 .5-3.7-.8a2.6 2.6 0 0 1 1-3.7 3 3 0 0 1 1.2-.5l-.2-.3.4-.2.7 1.2-.4.2-.2-.4c-.6 0-.8 0-1.2.2-.9.6-1 1.7-.4 2.8.6 1.1 1.9 1.5 2.8 1 .3-.2.5-.4.7-.8l-.3-.5.4-.3.5 1Zm2.3-8-.4.4 2 2.2c.5.6.7 1.3.4 2l-.7.9c-1 .8-2 .9-2.7 0l-2.1-2.3-.5.4-.2-.2 1.6-1.5.3.3-.5.4 2 2.1c.5.6.9.8 1.3.7l.6-.4c.7-.6.7-1.4 0-2l-2-2.2-.4.4-.2-.2 1.3-1.2.2.2Zm8.8-4.5-1 1.9-.3-.2.2-.5-4-2.1-.2.5-.3-.2 1-1.9.4.2-.3.5 4 2.1.2-.5.3.2Zm2-4.7-1 2.3h-.2l.2-.8-4-1.5-.5 1.2.6.3-.1.4-1.3-.5.2-.4h.2l1.3-3.4h-.2l.1-.4 1.3.4-.2.4-.6-.2-.5 1.2 4 1.6.4-.7.3.1Zm1.3-5.7-.4 2.1h-.3l.1-.6-2-.4-2.7 1v.5h-.4l.4-2.2h.3v.6l1.8-.7-1.5-1.4v.7h-.4l.3-1.9.4.1-.1.6 1.8 1.6 2.3.5.1-.6h.3Zm-10.6 13.1.3-.4c.3-.4.8-.5 1.3-.1s.6 1 .3 1.3l-.3.4-1.6-1.2Zm5.4 0-.2.3c0 .1-.2.2-.5.2l-2-.2c.2-.7 0-1.2-.5-1.7a2 2 0 0 0-1-.3c-.4.1-.7.3-1.1.9l-1.4 1.8.3.2.3-.5 3.6 2.7-.3.5.2.2 1.3-1.8-.2-.2-.4.5-1.6-1.2.2-.1 2.1.1c.5 0 .6 0 .9-.3l.6-.8-.3-.2Zm-61.6-8.3-.5-2.1.3-.1.1.6 2-.5-.6-2.5-2 .5.2.6h-.4l-.5-2 .3-.1.2.5 4.3-1-.1-.6h.3l.5 2-.3.1-.1-.6-2 .5.7 2.5 1.9-.5-.2-.6h.4l.5 2-.3.1-.2-.5-4.3 1 .1.6h-.3Zm4.6 4.9c1.4-.7 2-2.2 1.4-3.5a2.6 2.6 0 0 0-3.5-1.2c-1.4.6-2 2.1-1.4 3.4a2.6 2.6 0 0 0 3.5 1.3Zm-1.7-3.7c1.1-.5 2.4-.3 2.7.4.3.7-.4 1.8-1.4 2.3-1.1.4-2.3.2-2.7-.5-.3-.7.4-1.7 1.4-2.2Zm3.7 11-1.4-1.8.3-.2.4.5 2.7-2-4 .9 1.8-3.7-2.6 2 .4.4-.3.2-1-1.4.2-.2.4.5 3.6-2.6-.4-.6.3-.1.8 1-1.8 3.7 3.8-.8 1 1.2-.3.2-.4-.5L870 61l.4.6-.3.1Zm4 4-2.7-2.5.2-.2.5.4 3-3.3-.4-.4.2-.3 2.4 2.2.1-.1.3.2-.8 1-.3-.3.4-.4-1.2-1.1-1.3 1.3 1 .9.3-.4.3.2-1 1.2-.3-.3.3-.4-.9-.9L873 64l1.2 1.1.4-.4.3.3-.7.7Zm4.7 3.2-3-2 .1-.3.5.3 2.5-3.7-.5-.3.2-.3 1.8 1.2-.2.3-.5-.3-2.4 3.6 1.4.9.3-.5.4.2-.6.9Zm5.6 2.4-.3-.1.3-5.4-.4-.2-4 3.7-.4-.2-.1.3 1.5.7.1-.3-.6-.3 1-.9 1.7.8v1.3l-.5-.2-.2.3 1.7.8.2-.3Zm-2.5-3 1.5-1.5-.1 2-1.4-.6Zm7.9 4.8-.6-.1-1.7-4.3-.8 3.3.6.1v.3l-1.8-.4v-.3l.7.1 1-4-.2-.4-.5-.1V67l1.5.3 1.7 4.1.7-3.2h-.6l.1-.4 1.7.4v.3l-.7-.1-1.1 4.7Zm4.8.4c.8 0 1.3-.2 1.8-.6a3 3 0 0 0 1-1.9c0-1.4-1.1-2.6-2.6-2.6l-2.4-.1v.3h.6l-.2 4.5h-.6v.3l2.4.1ZM894 69h.7c.9 0 1.6 1 1.6 2.2 0 1.2-.8 2-1.8 2h-.6l.1-4.2Z" fill="#375E74"/><path d="M896.4 50.7h-.3c-.1-.8-.7-1.3-1.5-1.5l-3.5-1.1c-2.2-.7-3.4-2.5-3.5-4.8a435 435 0 0 1-.7-12.4 43.6 43.6 0 0 1 18.9 0c-.1 3.6-.5 9.2-.7 12.4a5 5 0 0 1-3.5 4.8l-3.5 1c-.8.3-1.4.8-1.5 1.6h-.2Z" fill="#272727"/><path d="m895.7 42.5-.4-.3-.3-.7-.7-.3-.8-.7-.4.5-.7.2-.3.5-.6.6-.7.4-.5.8-.3.4-.5.4-.3-.3-.3.3-.4.7c-.1-.5-.3-1-.3-1.7l-.3-5.4c2.4-.5 5.6-.9 8.2-.9v6c-.1 0-.3-.1-.4-.4Zm.3 2.8h-7.3a4.1 4.1 0 0 0 2.6 2.2l2.8.9.7.2c.6.2 1 .5 1.3.8v-4m7.8-3 .7-.4.2-2.2-.3.2c-.4.3-.8.6-1.6.6-.7 0-1.2-.2-1.6-.5-.3-.2-.5-.3-.9-.3s-.7.2-1 .4c-.5.2-1 .5-1.5.5s-1-.2-1.3-.3v2l.3.2c.3.2.6.3 1 .3l1-.3c.4-.3.9-.6 1.5-.6.7 0 1 .3 1.5.5.3.2.6.4 1 .4.5 0 .7-.2 1-.5Zm-6 4.8c-.5 0-1-.2-1.3-.4v2.6a3 3 0 0 1 1.3-.8l.8-.2a237.5 237.5 0 0 1 3.8-1.3l-1.2-.5c-.3-.2-.5-.3-.9-.3s-.7.2-1 .4c-.5.2-1 .5-1.5.5Z" fill="#375E74"/><path d="M903.9 39.3c.2-.2.5-.5 1-.6V38a44 44 0 0 0-8.3-.9v2.2l.3.2c.3.2.6.3 1 .3l1-.3a3 3 0 0 1 1.5-.6c.7 0 1 .3 1.5.5.3.2.6.4 1 .4.5 0 .7-.2 1-.5Zm-7.3 4.2v2.2l.3.1c.3.2.6.4 1 .4l1-.3c.4-.3.9-.6 1.5-.6.7 0 1 .3 1.5.5.3.2.6.4 1 .4s.6-.2.8-.3a5.2 5.2 0 0 0 .9-2.8h-.1a2 2 0 0 1-1.6.7c-.7 0-1.2-.3-1.6-.5-.3-.2-.5-.3-.9-.3s-.7.2-1 .4c-.5.2-1 .5-1.5.5s-1-.2-1.3-.4Z" fill="#375E74"/><path d="m887.8 37.4-.3-6a43.6 43.6 0 0 1 17.7 0l-.3 6a44.5 44.5 0 0 0-17 0Z" fill="#375E74"/><path d="m889.5 32.7.1-.4-.4-.2h.5v-.5l.2.4.5-.1-.4.3.3.4-.4-.2-.4.3Zm3-.3-.5-.3-.3.3.1-.4-.4-.2h.5v-.5l.2.4h.5l-.4.2.2.5Zm2-.2-.3-.3-.4.3.2-.4-.4-.3h.5v-.4l.2.4h.5l-.4.2.2.5Zm2.2 0-.3-.4-.4.3.2-.4-.4-.3h.5V31l.2.5h.5l-.4.2.1.4Zm6.2.2-.4.2.2-.4-.3-.3h.4l.2-.3v.4h.5l-.4.3.1.4-.3-.3Zm-2.4-.5-.3-.3.4.1.2-.4v.4h.6l-.5.3.2.4-.4-.3-.4.3.2-.5Zm-2.1-.1-.4-.3h.5l.1-.4.1.4h.5l-.4.3.1.4-.4-.3-.3.3.2-.4Zm-8.5 4.4v-.4l-.4-.2h.5V35l.2.5.5-.1-.4.3.3.4-.4-.2-.3.3Zm2.8-.3-.4-.3-.4.4.1-.5-.4-.2h.5v-.5l.2.4h.5l-.4.3.3.4Zm2-.2-.4-.3-.3.4.1-.5-.4-.2h.5l.1-.5.1.5h.5l-.4.2.2.4Zm2.1 0-.4-.3-.3.3.1-.5-.3-.2h.4l.1-.5.2.5h.4l-.4.2.2.5Zm6 .2-.5.2.2-.4-.3-.3.5.1.1-.4v.4l.6.1-.5.2.1.5-.3-.4Zm-2.4-.4-.3-.3h.4l.2-.4v.5h.6l-.5.2.2.5-.4-.4-.4.3.2-.4Zm-2-.2-.4-.3h.4l.2-.4v.5h.6l-.5.2.2.5-.4-.3-.3.2.1-.4Zm-7.5-1.1.1-.5-.4-.2h.4l.1-.5.2.4h.4l-.3.3.2.4-.4-.3-.3.4Zm-2 .3V34l-.4-.2h.5v-.5l.2.4h.5l-.4.3.2.4-.4-.3-.3.4Zm4.8-.6-.4-.3-.4.3.2-.4-.4-.3h.4l.1-.4.2.4h.5l-.4.2.2.5Zm2-.1-.3-.3-.4.3.2-.5-.4-.2h.4l.1-.5.2.5h.5l-.4.2.1.5Zm2.1 0-.3-.3-.4.3.2-.5-.4-.2h.5v-.5l.2.5h.5l-.4.3.1.4Zm6 .4-.5.2.2-.4-.3-.3h.5l.2-.4v.5h.5l-.5.2.1.5-.3-.3Zm-2.4-.5-.3-.3h.5l.1-.4v.5h.6l-.5.2.2.5-.4-.4-.4.3.2-.4Zm-2-.2-.4-.3h.5l.1-.4.1.4h.5l-.4.3v.4l-.3-.3-.3.3.2-.4Zm-24 10.9c.6-1 2-1.2 1.4-3.9-1.5.7-2.2 2.5-1.5 3.9Zm-.2-6.7a3 3 0 0 0-1.4 1.8c.5.5.7 1.3.7 1.9.9-.8 1.2-2.3.7-3.7Zm1 9.2h-.1a3 3 0 0 0-2.1-.4 8 8 0 0 1 2.1.4Zm2.8 3.3c0 1 .7 2.3-.5 4-.1.2-.2.6.4-.1 1.3-1.5.2-2.7.1-4Zm-2.4 1.6c0-.6.5-1.4 1.2-2 .4-.3.7-.5.3 0-.6.5-1.3 1.5-1.5 2Zm1.4 1.9c-.3-.7 0-1.7.2-2.3l.8-1.3c-.5.8-1 3-1 3.6Zm-2.1-8.8a.4.4 0 0 0-.7-.3.4.4 0 0 0 .3.8.4.4 0 0 0 .4-.5Zm3.8.6v-2.1c-1.3 1-1.7 2.6-1.2 3.8h-.2s-.2 0-.3.2a.5.5 0 1 0 .7-.1c-.3-1 0-2.4.5-3a8 8 0 0 0-.3 3.3l.5-.7.1.6c0-1 .4-2 1.4-2.6a6 6 0 0 0-1.2 2.9c.5-.7 1.8-1 1.8-3.7-.6.2-1.3.7-1.8 1.4Zm.9 2.8a.5.5 0 0 0-.8-.3.5.5 0 0 0-.2.3v.2a.5.5 0 0 0 1-.2Zm-.2 1.4a.5.5 0 0 0-.5-.3.5.5 0 0 0-.4.5.5.5 0 0 0 .8.2l.1-.4Z" fill="#272727"/><path d="M877.7 42.7a3 3 0 0 0-1.2 2.7.4.4 0 0 0-.3.2v.3a.4.4 0 0 0 .5.2c0 .3.2.5.3.7l-.2-1v-.1c0-.8.1-1.5.5-2.1-.1.8-.3 2.4-.1 3.4.3-1 1.8-1.5.5-4.3Zm3.8 6.2a.4.4 0 0 0-.7.2c0 .2.2.3.4.3a.4.4 0 0 0 .3-.5Zm-2 0a.3.3 0 0 0-.3-.3.3.3 0 0 0-.4.3.3.3 0 0 0 .2.4h.2c.2 0 .3-.2.3-.4Zm-4.7-4.7a.3.3 0 0 0-.3-.3 3.2 3.2 0 0 0-2.3-1.4 9 9 0 0 1 2.2 1.4.3.3 0 0 0-.2.4.3.3 0 0 0 .4.2h.2v-.3Zm0-2.2v-.1l-.1-.2a.4.4 0 0 0-.3 0c-.3-1-.6-1.8-1.7-2.6a16 16 0 0 1 1.6 2.6.4.4 0 0 0-.3.5.4.4 0 1 0 .8-.2Zm1.2 4-.1-.2a.3.3 0 0 0-.5 0c-1-.8-1.7-.8-2.2-.9.3.2 1.5.5 2.2 1v.2l.1.2a.3.3 0 0 0 .4 0 .3.3 0 0 0 .1-.2Zm.9 1.3c0-.3-.3-.4-.6-.4a.5.5 0 0 0-.3.6v.1a.5.5 0 0 0 .3.2h.2c.3 0 .4-.3.4-.5Zm.6.8V48a.3.3 0 0 0-.3-.2c-.2 0-.2.1-.3.2-.9-.1-1.8 0-2.7.5 1-.3 2-.5 2.7-.5v.2a.3.3 0 0 0 .5.2.3.3 0 0 0 .1-.3Zm1 .5a.4.4 0 0 0-.2-.3.4.4 0 0 0-.3 0c-.3 0-.4.2-.4.5-.7 0-1.8.1-2.4 1a8 8 0 0 1 2.4-1 .4.4 0 0 0 .5.3.4.4 0 0 0 .3-.5Zm5.7 2c1.9 1.5 3 3.5 3.2 5-.2-.1-.6-.3-1-.3-.2-1.6-1-3-2.4-4l.2-.6Zm-1.4 1.5c.4.2.6.2.8 0 .2-.3 0-.8 0-.9v.5c-.1.1-.2.3-.4.3-.1 0-.4 0-.5-.2-.1 0-.1-.2 0-.4v-.2s-.2 0-.3.2h-.4l-.2-.4c-.1-.2.2-.4.4-.5l-.7.1c-.2 0-.3-.4-.3-.6 0 0 .1-.2.3-.2h.4v-.2c-.3-.1-.8 0-.9.1v.6c.1.3.2.4.4.5h.3-.2l.2.6c.2.3.4.4.6.3l.2-.2-.1.2c0 .3.1.4.4.4Z" fill="#272727"/><path d="M882.4 50.2c.2-.2.5-.2.7 0-.2.1-.2.5-.1.7-.4 0-.5-.5-.6-.7Zm.7 0c.3 0 .4-.2.4-.3 0-.1.2-.2.2 0v.3h-.6Zm.2.4-.2.4-.2.2.4.1h.2l-.2-.7Zm26.2-.6v.7c.5 0 .6-.4.6-.7h-.6Zm-.1 0c-.3 0-.4-.1-.4-.3 0 0-.2-.2-.2 0l.1.3h.5Zm0 .8a1 1 0 0 1-.1-.4l-.2.7h.5l-.2-.3Z" fill="#272727"/><path d="M917.1 43.8h.5l-6.8 5.4-.1.2v.2h.3l.2.2c0 .2 0 .6-.3.6h-.6c.2 0 .5.2.3.4l-.2.4h-.4l-.4-.3.2.3v.4l-.6.2c-.2 0-.3-.2-.3-.4V51c-.2 0-.3.5 0 .9 0 .1.3.2.7 0 .3 0 .4-.1.4-.4v-.2l.1.2c.2 0 .4 0 .6-.3.3-.3.2-.4.2-.5l-.1-.1h.2c.2 0 .3-.2.4-.5v-.5l-.4-.2 6.7-5.3v.5L919 43l-1.9.8Zm-3.6 1.6 4.8-6 .1.4.8-1.8-1.6 1.2h.5l-4.3 5.5-1 1.5.7-.8Z" fill="#272727"/><path d="m913 47.2 1.2-1 4-3.6v.4l1-1.7-1.7 1h.5l-4 3.8-1 1.1Zm4.4-.9-5.6 2.8-.2.2v.1l5.9-2.8v.4l1.4-1.3-2 .4.5.2Zm-8.5 6-.2-.2-1 2.1-.3.1-1.2 2.3.5-.2.2.6 1.2-2.3-.2-.4 1-2Z" fill="#272727"/><path d="m912.8 48.3 1.3-.6 3.7-2.5v.5l1.3-1.5-1.9.7.5.1-4 2.7-.9.6Zm-4.3 3.4v-.3l-1.4 1.4h-.4l-1.8 2 .5-.1v.4l1.6-2h.3l1.2-1.4Zm2.4-2.9.7-.5 6.5-7.2.1.5 1-1.8-1.7 1.1h.4l-6.8 7.5-.2.4Zm-5.8 4.9 2.4-1.7.7-.8-3 2h-.6l-2 1.3.6.1v.4l1.6-1.3h.3Zm-2 .2 1-.6.9-.6h.3L908 51l-2.8 1.4h-.4l-2.3 1 .5.2v.3Zm11-13.4h.4l-4.2 8.4h.1l.1.1 4.2-8.5.2.4.4-2-1.3 1.6Zm.4 1.4h.5l-2.6 4-.9 1.7 3.7-5.6.2.5.6-2-1.5 1.4Z" fill="#272727"/></g><path d="M1058.8 44v-8.6l5.5 4-5.5 4.6Zm-72.2 4-.1-5.8c0-6.2 0-6 .6-6.8l.3-.5c-.1-.2.3-.6.5-.5l.6-.4c.5-.4 1-.6 1.1-.5h1.3c.7-.2 1.2-.2 1.3-.1h1l.3.3.5.2.6.4.5.5.3.4c.4.4.8 1.9.8 2.7l.2.8v.3a1 1 0 0 0-.1.8v.7l-.1.2-.1.5-.2.6-.3.5-.3.5v.2c-.2 0-.4.2-.5.3a3 3 0 0 1-1 .7l-1 .4h-.6c0 .2-.8.1-1 0l-.4-.2a4 4 0 0 1-1-.3l-.7-.3v2c-.1 1.9-.1 2-.4 2.2-.3.2-.5.3-1.2.3h-1Zm5.4-6h.5c0-.3.5-.8.7-.8 0 0 .2-.2.2-.5a10.5 10.5 0 0 0 0-3.5c0-.3-.6-1.2-1-1.2a.8.8 0 0 1-.5-.2.8.8 0 0 0-.5-.3l-.7.3-.6.2-.6.7c-.3.6-.4.9-.4 1.8-.1 1.1 0 2.4.3 2.4l.1.2.3.3c.2 0 .3.2.4.3l.3.3c.4.2 1.5.2 1.5 0Zm-12.6 2.4-.9-.2-1-.2-.5-.1c-.2 0-.4-.2-.5-.3-.1-.2-.3-.3-.4-.3l-.1-.1c0-.2-.1-.3-.3-.3-.2 0-.3-.2-.3-.3l-.1-.2-.2-.2-.1-.6c-.3-.4-.5-1.3-.4-1.6 0-.3.1-.3 1.4-.3h1.3v.4c0 .2 0 .5.2.6l.3.5c0 .1.2.3.4.3l.2.2c0 .2 1.3.5 2.2.4 1 0 1.1 0 1.7-.4.4-.3.6-.5.5-.6l.1-.3c.3-.2.2-.8-.2-1l-.3-.4c0-.2-.5-.6-1-.6h-.3l-.5-.2c-.2 0-.5 0-.6-.2a13 13 0 0 0-2.5-.6c-.5 0-1-.3-1.3-.7l-.4-.2c-.2 0-.5-.3-.4-.5l-.1-.3-.3-.6-.2-.4c-.7-1.2.5-3.6 2-4.4l.7-.3.2-.1.3-.1.4-.1h3.4c.3.1.7.2.8.4l.4.1c.2 0 .3 0 .4.2l.4.2c.2 0 .6.4.4.5l.2.2c.2.2.8 1.9.7 2.3 0 .2-.1.3-1 .3-1.2 0-1.5 0-1.6-.4l-.3-.5-.1-.3c.1 0-.2-.3-.4-.3h-.3c0-.2-.3-.3-.6-.4l-.4-.1-.6-.2-.5.1c0 .2-.5.4-1.1.4 0 0-.2 0-.2.2 0 0 0 .2-.2.2-.3.1-.4.6-.2.8v.3c-.2.2-.2.3.1.4.2.1.3.3.3.4h.3c.1 0 .2 0 .3.2l.3.2c.2 0 .4 0 .5.2.2.1 2 .7 2.5.7.2 0 .5 0 .8.2l1 .4c.4 0 .7.2.7.3 0 0 .1.3.4.4.6.6.8 1.2.9 2.5l-.1 1.2v.3c0 .2 0 .3-.2.4-.2.1-.3.3-.3.4l-.1.2-.2.3c0 .2-.1.3-.2.3l-.2.2c0 .1 0 .2-.2.2l-.3.1c0 .2-.3.3-.4.3h-.6c-.1.2-.5.2-1 .3l-.8.2c-.1.1-.4.2-.9.2-.4 0-.7 0-.8-.2Zm54.2-.2-1.5-.1h-.3c0 .2-.2.1-.5-.2l-.4-.3h-.2l-.6-.8c-.5-.6-.6-.7-.7-1.6-.1-.7-.2-2.2-.1-4.3v-3.2h2.5l.2 3.9c0 3.4 0 3.7.2 4l.5.2s.2 0 .3.2l.3.1h.4c0 .2.1.2.1 0h.8c0-.2.1-.2.2-.1.1 0 .2 0 .2-.2l.2-.2c.3 0 .3-.3.3-.6 0 0 0-.2.2-.3l.1-3.4c0-2.8 0-3.3.3-3.5.1-.2.4-.2 1.2-.2h1v3.7a42.2 42.2 0 0 1-.3 4.8c0 .3-.1.5-.5.8l-.4.6-.2.2a18.8 18.8 0 0 0-2 .6h-1.3ZM1000 44l-1-.5-.3-.2c-.1.2-.5-.2-.4-.4l-.1-.2-.2-.2-.3-.4-.3-.5c0-.3-.1-1.1-.4-1.7-.2-.6-.1-2 .1-2.3l.3-1.1c.1-.5.3-1 .5-1.1l.1-.4.1-.2.2-.1c0-.3.5-.7.6-.6l.3-.1c.4-.4 1.2-.6 2.9-.5 1.6 0 2.2.2 2.7.7.5.4.6.5.8.5v.2l.1.2c.2 0 .7 1.4.8 2.1l.2.7.1.8v.7h-3.4c-3.4 0-3.9.1-3.6.5l.1.3.1.3c.1 0 .2.1.1.2-.1.4.5 1 1 1l.3.3.8.1.8-.1.4-.2.3-.2c.1-.4.8-.6 1.7-.5 1 0 1 0 1 .3l-.5 1v.1c0 .2-.5.7-.7.7l-.4.2c-.4.5-1.2.7-2.7.8-1.1 0-1.5 0-2-.2Zm3.8-6.4c0-.4-.2-1.3-.5-1.5l-.6-.3c-.4-.3-1.2-.3-1.6 0-.5.3-1 .8-1 1l-.2.4c-.4.6-.3.7 1.9.7 1.8 0 1.9 0 2-.3Zm6.6 6.4-.8-.4h-.2c-.1 0-.2 0-.3-.2 0-.2-.3-.6-.6-.9-.3-.3-.6-.6-.6-.8 0-.6-.4-2-.5-2.2-.2-.2-.2-1 0-1.3.2-.1.2-.3.2-.6v-.8l.1-.5.3-.5.3-.5c.2-.1.3-.3.2-.4 0-.1.5-.7.7-.6h.1l.6-.5c.5-.3.7-.3 2-.3 1.9 0 2.7.1 3 .5l.5.3c.1-.1.9.6.8.7v.3l.4.7.3.6c0 .1 0 .2-1 .2-1.2 0-1.8-.2-2-.6l-.3-.2s-.3 0-.4-.2c-.3-.3-.4-.3-.6-.1h-.5c-.3-.2-.4-.2-.7.1l-.4.3c-.2-.1-.7.9-.7 1.6l-.2.6c-.2.1-.2.7 0 .9l.3 1.4c0 .5.7 1.2 1.3 1.4.6.2 1.7.1 1.8 0l.1-.2.5-.4c.3-.3.4-.4 1.5-.4.6 0 1.1.1 1.1.2.1.1-.1 1-.3 1v.2l-.5.5-.5.5c0 .2-.1.3-.3.3l-1 .3c-.8.3-2.5.3-3.7 0Zm42.7 0-.4-.1c-.3 0-.6-.6-.5-.8.1 0 .2-1.1.2-3.2 0-2.8 0-3-.3-3.5a2 2 0 0 0-1.6-1c-.6 0-1.4.4-1.4.6l-.2.2-.4.5c-.2.4-.2.8-.1 4V44h-2.5v-3c0-2.6 0-3-.2-3s-.2-.1-.1-.7v-.7c-.2 0-.2-.2-.1-.3l-.1-.2-.5-.4c-.4-.3-.5-.4-1-.4-.6 0-.8 0-1 .2l-.4.3c-.2 0-.3.2-.2.2v.5c-.2.2-.2 1.5-.2 3.8l-.1 3.5c-.1.2-.5.2-1.5.2h-1.3v-3l.2-4.3c0-1.2 0-1.3.4-1.6l.3-.4c-.1-.2.3-.6.5-.5l.5-.3c.3-.3.5-.4 1.5-.5l2-.1c1 .1 1.9.3 1.9.4l.3.3c.3.2.3.2.7 0 .2 0 .3-.2.4-.3l.7-.2 1-.2c.2-.1 2.1 0 3 .2a4 4 0 0 1 2.2 1.3c.2.2.3.6.3 4.7 0 3.4 0 4.4-.2 4.4-.5.2-1.7.2-1.8 0Zm-34.3 0c-.5-.2-.9-.7-.9-1.1 0-.2 0-.4-.2-.5-.1-.1-.2-1-.1-6v-5.8h2.1c.4.2.8.7.7 1v.1l.2 1v.9h1.4v2.7h-.7l-.6.1v3.8c0 2.5 0 3.8-.2 3.8a4 4 0 0 1-1.6 0Zm3.6-3.1c0-3.8 0-3.8.2-4.2l.3-.7c0-.2.2-.3.3-.3v-.2c0-.2 1-1 1.5-1.2l1.2-.5.8-.3.9.1h.8v2.7h-.9c-.5 0-1 0-1.2.2l-.5.3c-.4.1-.7.6-.6.8v.3c-.2.1-.2 1.2-.2 3.1v3h-2.6v-3ZM27 174.7h-.6c-2.8 0-4.8.2-5.9.5-1 .4-1.6 1-1.6 1.9 0 .6.3 1 .8 1.3.6.4 1.4.5 2.6.5 1.5 0 2.6-.3 3.4-1 .8-.6 1.3-1.6 1.3-2.8v-.4Zm.1 5c-.7 1-1.8 1.6-3.2 2.1a15 15 0 0 1-5 .8c-2.3 0-4-.5-5.3-1.3a4.4 4.4 0 0 1-1.8-3.8 5.3 5.3 0 0 1 2.7-4.7 15 15 0 0 1 3-1 49 49 0 0 1 6.1-.2H27v-.4c0-1-.3-1.6-.9-2.1-.5-.5-1.4-.7-2.5-.7-1.2 0-2.1.1-2.7.5a2 2 0 0 0-1.1 1.5h-6.9a5 5 0 0 1 3-4c1.8-1 4.4-1.4 7.9-1.4 3.3 0 5.8.6 7.3 1.6 1.6 1 2.4 2.6 2.4 4.8v8.6l.1 1.2c0 .4.1.7.3 1h-6.3a4 4 0 0 1-.4-1v-1.5Zm-16.5-20.9c0 2.6-2.3 4.7-5 4.7-2.8 0-5.1-2.1-5.1-4.7a5 5 0 0 1 5-4.8c2.8 0 5.1 2.1 5.1 4.8Zm63.9 20.4c1.5 0 2.7-.5 3.5-1.4a5 5 0 0 0 1.3-3.6c0-1.7-.4-3-1.2-4-1-.9-2.1-1.4-3.7-1.4-1.5 0-2.7.5-3.5 1.4-.9.9-1.3 2.2-1.3 3.8 0 1.7.4 3 1.2 3.9.9.9 2.1 1.3 3.7 1.3Zm-11.7 9.3v-19.3a24.4 24.4 0 0 0-.2-3.8h6.8a16.9 16.9 0 0 1 .2 2.6v.5a10.5 10.5 0 0 1 7.8-3.6 9 9 0 0 1 6.6 2.4 8.9 8.9 0 0 1 2.3 6.6c0 2.6-.8 4.8-2.4 6.3a9.2 9.2 0 0 1-6.7 2.3 12 12 0 0 1-4.1-.7c-1.3-.4-2.4-1.1-3.5-2v8.7h-6.8Zm-14.3-9.3c1.5 0 2.6-.4 3.5-1.3a5 5 0 0 0 1.3-3.6c0-1.7-.4-3-1.3-4-.8-1-2-1.4-3.6-1.4-1.5 0-2.7.4-3.6 1.3-.8 1-1.3 2.2-1.3 3.8 0 1.7.5 3 1.3 4 .9.8 2 1.2 3.7 1.2Zm-11.7 9.3v-19.3a25 25 0 0 0-.3-3.8h6.9a17.5 17.5 0 0 1 .2 2.6v.5a9.7 9.7 0 0 1 7.7-3.5 9 9 0 0 1 6.6 2.4 8.9 8.9 0 0 1 2.4 6.5c0 2.7-.8 4.8-2.5 6.4a9.2 9.2 0 0 1-6.6 2.3 12 12 0 0 1-4.2-.7 12 12 0 0 1-3.4-2.1v8.7h-6.8Zm-28.3-23H1.7v16.7h6.8v-16.7Zm121.2 18.7v-25.9h-1v26h1Zm85.6.1v-25.9h-1v26h1Zm-57.5-18.7h-2.2v5.9h2.2c1 0 2-.3 2.8-.8.3-.3.7-.6.9-1l.2-1.2c0-.4 0-.8-.2-1.2-.2-.4-.5-.7-1-1-.7-.5-1.7-.7-2.7-.7Zm-18.6 8h6.2l-3.1-5.9-3.1 5.9Z" fill="#272727"/><path d="M129 159.2v24.6h86.3v-24.6H129Zm20 20.3-2.5-4H138l-2.2 4H133l9.4-16.6 9.5 16.6H149Zm14-8.5c-.5.7-1.2 1.3-2.1 1.6a8 8 0 0 1-3 .6h-2.3v6.3H153v-15.7h4.8c1 0 2.1.2 3 .6 1 .3 1.7.9 2.3 1.6.5.8.8 1.6.8 2.5 0 .9-.3 1.8-.8 2.5Zm14-2.1-5.3 11-8.1-16.2h3l5.2 10.8 5-10.8 5.9 10.7 5.2-10.7h2.5l-8 16.2-5.5-11Zm32 5.8a8 8 0 0 1-1.8 2.7 10 10 0 0 1-7 2.5c-1.3 0-2.7-.2-4-.6-1.1-.4-2.2-1-3.1-1.7a7.3 7.3 0 0 1-2.8-6 7.3 7.3 0 0 1 2.8-6 10.9 10.9 0 0 1 7.2-2.2c1 0 2.2 0 3.3.4 1 .2 1.9.6 2.7 1a10 10 0 0 1 2.1 2l-1.7 1.3a6 6 0 0 0-2.6-2 9.9 9.9 0 0 0-7.7 0 7 7 0 0 0-2.7 2.4c-.7 1-1 2-1 3.1 0 1.2.4 2.3 1 3.3a7 7 0 0 0 2.7 2.3c1.2.4 2.5.7 3.8.7 1 0 1.8-.1 2.6-.3.8-.3 1.5-.6 2-1 .6-.4 1-1 1.4-1.5a4 4 0 0 0 .8-1.7h-6.5v-1.9h9.1c0 1.1-.2 2.2-.6 3.2Z" fill="#272727"/><path d="M216.5 159v-.7h-89.8v.8h1.9v24.7h-1.9v.8h89.8v-.8h-1v-24.7h1Zm-1.8 24.8h-85.1v-24.7h85v24.7Zm46.7-11.9c-.7-.7-.7-1.8 0-2.5.6-.7 1.7-.7 2.4 0 .4.5.6 1.1.4 1.7v.1l.9.9h.1a3 3 0 0 0-1.2-4.2 3 3 0 0 0-4.1 1.3 3 3 0 0 0 1.3 4.1c.9.5 2 .5 2.8 0v-.1l-.8-.9h-.1c-.6.2-1.3 0-1.7-.4Zm0 4.1c.7-.7 1.7-.7 2.4 0 .7.6.7 1.7 0 2.4-.4.5-1 .6-1.7.4h-.1l-.8 1a3 3 0 0 0 4.1-1.2 3 3 0 0 0-1.3-4.1 3 3 0 0 0-4 1.2 3 3 0 0 0 0 3l1-1c-.2-.6 0-1.3.4-1.7Z" fill="#272727"/><path d="M269.1 179a1.7 1.7 0 0 1 0-3.5c.7 0 1.3.3 1.5.9h1.4v-.1a3 3 0 0 0-3.8-2 3 3 0 0 0 1.8 5.8 3 3 0 0 0 2-2v-.1h-1.3c-.3.6-1 1-1.6 1Zm-1.7-8.4c0-1 .8-1.7 1.7-1.7a1.7 1.7 0 0 1 .8 3.3v1.2l.1.2a3 3 0 0 0-1.8-5.9 3 3 0 0 0 0 5.9l.2-.1v-1.3c-.6-.3-1-1-1-1.6Zm-3.1-6.5a1.7 1.7 0 1 1-2.5-1.5v-1.4h-.1a3 3 0 0 0 1.8 5.8 3 3 0 0 0 0-5.8h-.2v1.3c.7.4 1 1 1 1.6ZM277 176c.6.6.6 1.7 0 2.4a1.7 1.7 0 0 1-3-1.7v-.1l-.8-.9h-.2a3 3 0 0 0 1.3 4.2 3 3 0 0 0 4-1.3 3 3 0 0 0-1.2-4.1 3 3 0 0 0-2.8 0s-.1 0 0 .1l.8.9h.1c.6-.1 1.3 0 1.7.5Z" fill="#272727"/><path d="M277 171.9c-.8.6-1.9.6-2.5 0a1.7 1.7 0 0 1 1.7-3l1-.8v-.2a3 3 0 0 0-4.2 1.3 3 3 0 0 0 1.3 4.1 3 3 0 0 0 4-1.2c.5-1 .5-2 0-2.9h-.1l-.8.8v.1c.1.7 0 1.3-.5 1.8Zm-1.3-6.1a1.7 1.7 0 0 1 0-3.4c.6 0 1.2.3 1.5.9h1.4a3 3 0 0 0-3.8-2.1 3 3 0 0 0 1.8 5.8 3 3 0 0 0 2-2v-.1h-1.3c-.4.6-1 1-1.6 1Z" fill="#272727"/><path d="M268 162.9c.6-.7 1.7-.7 2.4 0 .6.7.6 1.8 0 2.4-.5.5-1.1.6-1.7.5h-.1l-.9.8v.2a3 3 0 0 0 4.2-1.3 3 3 0 0 0-1.3-4.1 3 3 0 0 0-4.1 1.3 3 3 0 0 0 0 2.8s0 .1.1 0l.9-.8c-.2-.7 0-1.4.4-1.8Zm17 1.7c0-.1.2-.3.4-.3h1.6c.2 0 .4.2.4.3v12c0 .2-.2.3-.4.3h-1.6a.4.4 0 0 1-.4-.3v-12Zm5.2 10.6.6-1.1c.2-.2.4-.3.6-.2.1 0 1.6 1.2 2.8 1.2.9 0 1.6-.6 1.6-1.4 0-1-.8-1.6-2.3-2.2-1.7-.7-3.4-1.8-3.4-3.9 0-1.6 1.2-3.5 4-3.5 1.4 0 2.6.5 3.7 1.3.1.1.2.4 0 .5l-.6 1c-.2.3-.4.4-.7.3-.1-.1-1.5-1-2.5-1s-1.5.7-1.5 1.3c0 .8.6 1.4 2.1 2 1.7.7 3.8 1.7 3.8 4 0 2-1.6 3.7-4.2 3.7-2.2 0-3.6-1.1-4-1.4 0-.2-.2-.3 0-.6Zm9 1.3 5.6-12.2.3-.2h.2c.1 0 .2 0 .3.2l5.5 12.2c.1.1 0 .3-.1.4h-1.7a.5.5 0 0 1-.6-.3l-.8-2h-5.4l-.9 2c0 .2-.3.4-.5.4h-1.6a.3.3 0 0 1-.3-.3v-.2Zm7.8-3.9-1.8-4-1.8 4h3.6Zm11.3-8.5c1.7 0 3.2.6 4.4 1.7.1.1.2.3 0 .5l-1 1.2h-.5a4.3 4.3 0 0 0-2.8-1.1c-2.3 0-4 2-4 4.2a4 4 0 0 0 6.8 3.1h.4l1.1 1.2c.2.1.1.4 0 .5a6.1 6.1 0 0 1-4.4 1.7 6.5 6.5 0 0 1-6.5-6.3 6.6 6.6 0 0 1 6.3-6.7h.2Zm5.4 12.4 5.6-12.2.3-.2h.2c.1 0 .2 0 .3.2l5.5 12.2c.1.1 0 .3-.1.4h-1.8a.5.5 0 0 1-.5-.3l-.9-2H327l-1 2c0 .2-.2.4-.5.4H324a.3.3 0 0 1-.4-.3v-.2Zm7.8-3.9-1.8-4h-.1l-1.8 4h3.7Zm5.9 2.4c.6 0 1.1.4 1.1 1a1 1 0 1 1-2.1 0c0-.6.5-1 1-1Zm0 1.9a.9.9 0 0 0 0-1.8.9.9 0 0 0 0 1.8Zm-.3-1.4h.4c.2 0 .4 0 .4.3 0 .2 0 .3-.2.3l.2.4h-.2l-.2-.4h-.2v.4h-.2v-1Zm.4.5c.1 0 .2 0 .2-.2l-.1-.2h-.4v.4h.4Zm53.2-.3c2.3 0 4.2-2.2 4.2-5 0-2.6-1.9-4.8-4.2-4.8-2.3 0-4.1 2.2-4.1 4.9s1.8 4.9 4.1 4.9Z" fill="#272727"/><path d="m385.6 175-.4 2.3c.6.9 1.5 1.6 2.4 2 1 .6 2 .7 3 .6 4.8-.3 9.8-6.6 10.6-19.8 0 0-2.6 13.6-7.7 16.7-5.2 3.1-8-1.8-8-1.8Zm17.6-9.9h-1V160h1v5.1Zm3.5-5c.4.1.6.4.8.7l.3.8.1.8c0 .7 0 1.3-.4 1.8-.1.3-.3.5-.6.7l-.8.2h-1.8V160h2.4v.1Zm-1.5.8v3.3h.8c.1 0 .3 0 .5-.2.1-.1.3-.3.3-.5.2-.3.2-.6.2-1s0-.8-.3-1.2c0-.3-.4-.4-.7-.4h-.8Zm6.8.1h-2.2v1h2v.9h-2v1.3h2.3v1h-3.2V160h3v1Zm1-1h1l1.7 3.6V160h.8v5.1h-.9l-1.6-3.6v3.6h-1V160Zm7.8 0v1h-1.3v4.1h-.9V161h-1.3v-.9h3.5Zm1.7 5.1h-1V160h1v5.1Zm4.1-5.1v1h-1.2v4.1h-1V161h-1.1v-.9h3.3Zm3.3 0h1l-1.4 3.1v2h-.9v-2l-1.5-3.1h1.1l.9 2.2.8-2.2Zm-24.7 7h1.2v5h-.7v-4.2l-.8 4.3h-1l-.7-4.3v4.3h-1V167h1.4l.8 4 .8-4Zm3.6 0h1l1.5 5h-1l-.2-1h-1.6l-.3 1h-1l1.6-5Zm0 3h1l-.5-1.9-.6 2Zm3.4-3h.9l1.7 3.6V167h.8v5h-.8l-1.8-3.5v3.6h-.8V167Zm5.8 0h1l1.5 5h-1l-.3-1h-1.6l-.3 1h-.9l1.5-5Zm0 3h1l-.6-1.9-.5 2Zm6.1-1.4v-.5l-.4-.2h-.5l-.5.1a1 1 0 0 0-.3.4c-.3.4-.4.9-.3 1.3 0 .5 0 1 .3 1.3.2.2.5.4.8.4l.8-.3.2-.8h-1v-.9h1.8v2.8h-.6v-.8l-.4.5-1 .3c-.2 0-.5 0-.7-.2l-.6-.5a3 3 0 0 1-.6-2l.1-1 .5-.8.6-.7.9-.2c.5 0 1 .3 1.3.6l.4.5.1.7h-.9Zm5.3-.7H427v1h2v1h-2v1.2h2.4v1h-3.3V167h3.2v.9Zm3.9-.9h1.3v5h-.9v-4.2l-.7 4.3h-1l-.7-4.3v4.3h-.8V167h1.3l.8 4 .7-4Zm5.6.9h-2.3v1h2v1h-2v1.2h2.4v1h-3.3V167h3.2v.9Zm1.1-.9h.9l1.7 3.6V167h.8v5h-.9l-1.7-3.5v3.6h-.8V167Zm7.7 0v.9h-1.3v4.2h-.9v-4.2h-1.3v-1h3.5Zm-44.5 12h-1v-5h1v5Zm1.1-5h.9l1.7 3.5V174h.8v5.1h-.9l-1.7-3.6v3.6h-.8v-5Zm5.2 3.4c0 .2 0 .4.2.6.1.2.4.2.7.2h.6l.2-.2c0-.1.1-.2 0-.4v-.4l-.6-.3h-.5l-1-.3c-.2-.3-.4-.7-.4-1l.1-.7c0-.2.2-.4.3-.5l.6-.4h.7a1.7 1.7 0 0 1 1.6.9v.6h-.8v-.3l-.3-.2h-1c-.3 0-.4.2-.4.4 0 .3.1.4.2.4l.3.2h.3l.8.2.7.4.3.4v1.3c0 .2-.2.3-.3.5a3 3 0 0 1-1.3.5c-.5 0-1-.2-1.4-.5l-.4-.6v-.7l.8-.1Zm6.7-3.4v.8H415v4.2h-1v-4.2h-1.2v-.9h3.4Zm1.6 5h-.9v-5h1v5Zm4.2-5v.8h-1.2v4.2h-.9v-4.2h-1.3v-.9h3.5Zm.9 0h1v3.7c.2.2.3.5.7.5h.5l.2-.5.1-.6v-3.2h1v3.2l-.3 1.2c-.1.3-.4.5-.6.6-.3.2-.6.3-.9.2l-.8-.1c-.3-.2-.5-.4-.6-.7-.3-.4-.4-.8-.3-1.2v-3.2Zm7.7 0v.8h-1.3v4.2h-.9v-4.2h-1.3v-.9h3.5Zm3.9.8h-2.2v1h2v1h-2v1.3h2.3v1h-3.1v-5.2h3v1Zm-31.2 6.2h.2l-.2.4-.3.1h-.4l-.2-.3a.8.8 0 0 1 0-.7l.3-.2h.6l.1.3h-.1l-.1-.2h-.5l-.1.2v.5l.1.2h.5l.1-.2Zm1 .2h.1l-.1.2-.3.1-.3-.1-.1-.4.1-.3.3-.1h.3l.1.4h-.6v.3h.4v-.1Zm-.5-.2h.5v-.2l-.3-.1h-.2v.3Zm.8.5v-1h.2v.2l.2-.1h.2l.1.2v.7h-.1v-.7l-.2-.1h-.2v.8h-.2Zm1.3-.1v.1h-.2v-.8h-.2v-.1h.1v-.2l.2-.1v.3h.1v.1h-.1v.6h.1Zm.8-.2h.1l-.1.2-.3.1-.3-.1v-.7l.3-.1h.3l.1.4h-.6v.3h.4v-.1Zm-.5-.2h.5v-.2l-.3-.1h-.1l-.1.3Zm.8.5v-1h.2v.2-.1h.4v.2h-.4v.7h-.2Zm1.1 0v-.8h-.1v-.1h.1v-.2l.1-.1h.3-.1l-.1.1v.1h.1v.2h-.1v.8h-.2Zm.4-.5.1-.3.3-.1h.3l.1.4v.3l-.2.2h-.2l-.3-.1-.1-.4Zm.2 0v.3h.4v-.5l-.2-.1h-.2v.3Zm.8.5v-1h.2v.2-.1h.3v.2h-.3v.7h-.2Zm1.1 0v-1.3h.2v1.3h-.2Zm1 0v-.1l-.2.1h-.2l-.1-.2-.1-.3v-.2a.4.4 0 0 1 .5-.2h.1v-.3h.2v1.2h-.2Zm-.4-.5v.3h.4v-.5a.2.2 0 0 0-.4 0v.2Zm1.4.2h.2l-.1.2-.3.1-.3-.1-.1-.4v-.3l.4-.1h.3v.4h-.6l.1.3h.3l.1-.1Zm-.5-.2h.5v-.2l-.2-.1h-.2v.3Zm.9.5v-1h.1v.2l.3-.1h.2l.1.2v.7h-.1v-.7h-.1l-.1-.1h-.2v.8h-.2Zm1.3-.1-.1.1h-.1l-.1-.1v-.7h-.1v-.3l.2-.1v.3h.2v.1h-.2v.6h.1Zm.1-1v-.2h.2v.2h-.2Zm0 1v-.8h.2v.9h-.2Zm.7 0v.1h-.2v-.8h-.2v-.1h.1v-.2l.2-.1v.3h.1v.1h-.1v.6h.1Zm.2.4v-.1h.1l.1-.2-.3-1h.2l.2.6v.2-.2l.3-.5h.1l-.3.9-.1.2-.1.1h-.2Zm2-.8v-.1h.5v.4l-.3.2a.7.7 0 0 1-.6 0 .5.5 0 0 1-.2-.3v-.7l.2-.2h.7l.1.3h-.1v-.1l-.2-.1h-.4a.4.4 0 0 0-.2.2v.5l.2.2h.6v-.3h-.4Zm.6 0c0-.1 0-.3.2-.3l.2-.1h.3l.2.4v.3l-.2.2h-.3l-.3-.1v-.4Zm.2 0v.3h.4l.1-.3v-.2l-.3-.1h-.1l-.1.3Zm1 .5-.3-1h.2l.2.6v.2l.1-.2.2-.5h.2l-.4.9h-.1Zm1.3-.3h.2l-.2.2-.2.1-.3-.1-.1-.4v-.3l.4-.1h.3v.4h-.6v.3h.4l.1-.1Zm-.5-.2h.5v-.2l-.2-.1h-.2v.3Zm.9.5v-1h.1v.2l.1-.1h.3l-.1.2h-.2v.7h-.2Zm.5 0v-1h.2v.2l.3-.1h.2v.9-.6l-.1-.1-.2-.1h-.1l-.1.3v.5h-.2Zm1.6-.1h-.2l-.1.1h-.3v-.5h.7v-.4h-.4v.2h-.2v-.2l.2-.1h.4l.1.2v.7h-.1Zm0-.4h-.3l-.1.1v.2h.3v-.2Zm.4.5v-1h.1v.2l.3-.1h.2v.9-.7h-.1l-.1-.1h-.2v.8h-.2Zm1.5-.3h.2l-.2.2-.2.1-.3-.1-.1-.4v-.2l.2-.2h.4l.1.3h-.1v-.2h-.4v.6h.3l.1-.1Zm.9 0h.2l-.2.2-.2.1-.3-.1-.2-.4c0-.1 0-.2.2-.3l.3-.1h.3v.4h-.6v.3h.4l.1-.1Zm-.5-.2h.5v-.2l-.2-.1h-.2l-.1.3Zm126.1-13.7h-4c.7-1 1.7-2 2.2-3 .3-.5.4-.8.4-1.3s-.4-1.2-1-1.2c-.5 0-1 .2-1.4.9v-1.2c.5-.4 1-.5 1.4-.5 1.2 0 2 .7 2 1.9s-.6 1.9-2 3.5h2.4v.9Zm2.2-4.4v-.6h.5c.2 0 .3 0 .3.3 0 .1-.1.3-.4.3h-.4Zm-.4 1h.4v-.8h.1c.3 0 .4.1.6.6l.2.3h.4l-.3-.4c-.1-.3-.2-.4-.4-.5a.6.6 0 0 0 .4-.2.5.5 0 0 0 .1-.4c0-.2-.1-.5-.6-.5h-.9v2Zm2.4-1a1.5 1.5 0 0 1-2.6 1.1 1.5 1.5 0 0 1 .2-2.3 1.5 1.5 0 0 1 2.4 1.3Zm.3 0a1.8 1.8 0 1 0-3.7 0 1.8 1.8 0 0 0 3.7 0Zm-52.4-1.7h-2.8v19.9h2.8v-19.9Zm14.1 4.4a6.7 6.7 0 0 0-4.6-2c-1.9 0-3.2.9-3.2 2.3 0 3.8 8.6 3.7 8.6 10 0 3.2-2.4 5.4-5.5 5.4a9 9 0 0 1-5.6-1.8v-3.6c1.5 1.8 3.3 2.9 5.2 2.9 2.2 0 3.3-1.4 3.3-2.5 0-4.1-8.6-4.6-8.6-10 0-3.3 2.4-5.3 6-5.3a8 8 0 0 1 4.4 1.4v3.2Zm20.2.1a13 13 0 0 0-6.8-2.1c-4.5 0-8 3.2-8 7.6 0 4.3 3.3 7.5 8.1 7.5a13 13 0 0 0 7-2.2v3c-2 1.1-4.2 1.8-7.3 1.8-7.4 0-10.7-5.7-10.7-9.9 0-6 4.6-10.4 11-10.4 2 0 4 .5 6.7 1.6v3Z" fill="#272727"/><path d="M490.6 171.7c0 5.7 3.5 11 9 14.6l1.4-1a18 18 0 0 1-6.7-13.6c0-5.8 3-11 7.8-14.6l-1.4-.7c-6.2 3.7-10 9.1-10 15.3Zm45.4-15.3-1.3.7c4.8 3.7 7.7 8.8 7.7 14.6a18 18 0 0 1-6.6 13.6l1.4 1c5.5-3.7 9-8.9 9-14.6 0-6.2-4-11.6-10.1-15.3Z" fill="#272727"/><g clip-path="url(#b)"><path d="m618.8 201.3.5-1.3h.2l-.5 1.4h-.2Zm-2.8-1.2.7-1.3.1.1.2 1.3.5-1 .1.1-.6 1.3h-.2l-.1-1.4-.5 1h-.2Zm-3.4-1.8.8-1.2.1.1-.8 1.2h-.1Zm-.4-.2v-.2l1 .6v.2l-1-.6Zm-2.1-3.2.1-.2.6.5-.1.2-.6-.5Zm-.2 1.4.9-1h.1l-.9 1.2-.1-.2Zm-.1-.9.6.4h-.1l-.5-.4Zm-.5.5.1-.2.6.5-.1.2-.6-.5Zm-2.1-1.9-.3-.3-.2-.3v-.2l.2-.2a.4.4 0 0 1 .3 0h.2l.3.3v.1l-.3-.2-.1-.1h-.3v.2c-.1 0-.1 0 0 .1v.2l.2.2 1-1v.2l-1 1Zm.5-1.6-.3.7v-.1l.1-.7.2.1Zm-3.7-2.2 1-.8.2.1-.5 1.3 1-.7v.2l-1.1.8-.1-.1.4-1.3-.9.7v-.2Zm-2.2-3.6 1.3-.2.1.2-1.5.2v-.1Zm1-1-1 1.1h-.1l1-1.2v.2Zm-.5.3h.1l.4.7h-.2l-.3-.7Zm-2.3-2.8 1.4-.5v.2l-1.3.5v-.2Zm-.1-.4h.1l.4 1h-.1l-.4-1Zm-.9-2.6 1.3-.4v.2l-1.3.4v-.2Zm-.2-3.1h.4l.2.1.2.2.1.2v.2l-.1.2-.2.2h-.3v.1a1 1 0 0 1-.4 0h-.2l-.2-.2v-.7l.2-.1.3-.1Zm.1.2-.3.1-.1.1a.3.3 0 0 0 0 .3v.2l.3.1h.5l.2-.2a.3.3 0 0 0 0-.3v-.1l-.1-.1h-.5Zm-1.4-5h1.4v.2l-1 .7h1v.2h-1.4v-.1l1.1-.8h-1.1v-.2Zm.2-4.2 1.3.6v.2l-1.4-.7v-.1h.1Zm1.3-.3-1.3.4h-.1v-.2l1.5-.3v.1Zm-.5 0h.2l-.1.8h-.2l.1-.8Zm1-4.1h.1l-.1.7h-.2l.2-.7Zm-1.4.4 1.4.3v.2l-1.5-.4v-.1Zm1.7-5.5 1 1v.1l-1.2-1v-.2l.2.1Zm1.3.2-1.4-.1v-.2h1.5v.3Zm-.5-.2h.2l-.3.8h-.2l.3-.8Zm1.9-3.6h-.2l-.2.1-.1.1-.2.1h-.3a.4.4 0 0 1-.1-.3v-.3l.2-.2a.4.4 0 0 1 .5 0l-.1.1h-.3l-.1.2v.3h.4l.1-.1.2-.2h.4l.1.1v.1c.1.1 0 .2 0 .2a.7.7 0 0 1-.1.4h-.2l-.2.1h-.1v-.2h.4v-.2l.1-.1v-.2Zm1.9-3h-.5l-.1.2h-.5v-.1l-.1-.2v-.2l.1-.1.2-.2h.4v.2l-.2-.1h-.1l-.2.1v.4h.4l.2-.2h.5v.1l.1.2v.2a.8.8 0 0 1-.3.3h-.1s-.1.1-.2 0h-.2l.1-.1h.3a.6.6 0 0 0 .2-.3v-.2Zm2.2-3.4.2.3v.6l-.3.2h-.4l-.3-.2v-.1l-.2-.2v-.3a.5.5 0 0 1 0-.4l.3-.1h.4c.1 0 .2 0 .3.2Zm-.1.2v-.1l-.2-.1-.2-.1h-.2l-.1.1-.1.1v.4l.2.2.2.2h.2a.3.3 0 0 0 .3 0l.1-.2v-.4l-.2-.1Zm3.5-3.1.2-.1v.5l-.2.2-.2.1h-.4l-.2-.3-.1-.1-.1-.2v-.3a.5.5 0 0 1 .2-.4l.2-.1h.2l.3.2h-.7v.2l-.1.1v.2l.1.2h.1c0 .2.1.2.2.2l.1.1h.4l.2-.2v-.3Zm2.2-2.8.7 1.2h-.1l-.8-1.1.2-.1Zm2-1.2.2 1.4h-.2l-.2-1.4.1-.1.1.1Zm1 1-1-1h-.1v-.1l1.2 1-.2.1Zm-.3-.5v.2l-.7.3v-.1l.7-.4Zm2.8-2.3.4 1.4h-.1l-.5-1.3h.2Zm.4-.1v.1l-1 .4v-.1l1-.4Zm2.7-.9.3 1.4h-.2l-.3-1.3h.1Zm3-.1v.7l-.2.1-.3.1h-.2l-.2-.1-.2-.2v-.9l.2-.2h.6l.2.3v.2Zm-.2.2v-.3l-.2-.2a.3.3 0 0 0-.3 0h-.1l-.1.1v.2c-.1 0-.1.1 0 .2v.3l.1.2a.3.3 0 0 0 .3 0h.2v-.1l.1-.2v-.2Zm4.8-1.4v1.5h-.2l-.7-1.1v1h-.2v-1.4h.2l.7 1.1v-1h.2Zm5.5.3-.3 1.5h-.1l.2-1.5h.2Zm.5.8v.1h-.7v-.2h.7Zm.2-.6v.1l-.8-.1v-.2l.8.2Zm3.6 1.3-.2.4-.1.1-.3.1h-.2l-.2-.1-.1-.2v-.3c-.1 0 0-.1 0-.2v-.1l.1-.3.2-.2a.5.5 0 0 1 .4 0h.2l.2.3v.5Zm-.2 0v-.5l-.2-.2h-.3l-.2.2v.3l-.1.2v.2l.1.2h.5v-.2l.2-.2Zm4 .7.4.1.2.2.1.2v.3a.4.4 0 0 1-.3.2h-.2l-.5-.2v-.2l.4.2h.2a.2.2 0 0 0 .2-.1v-.3l-.2-.1-.2-.1-.6 1.1h-.1l.5-1.4Zm.1 1.6v-.7h.1l.1.8h-.2Zm5 2.4h.2l-.2.2h-.3l-.2-.1-.2-.2v-.7h.2l.1-.3.3-.1h.4c0 .2.1.2.2.3v.5l-.2-.1v-.5h-.7v.2l-.2.1v.2l-.1.2v.1l.1.2h.5Zm3.2 1 .3.4.2.2v.5a.4.4 0 0 1-.4.1h-.2l-.4-.4h.1l.3.1.1.1h.2l.2-.2v-.1l-.2-.2-.2-.2-.8 1-.2-.1 1-1.1Zm-.3 1.7.1-.7.2.1-.2.8-.1-.2Zm3.2 1.1-.3.8.8-.2.2.1-1 .2-.4.4-.2-.1.4-.4.4-1 .1.2Zm2.1 3.9-.2-.3.3.2.1.2h.3v-.2l.1-.1v-.2l-.2-.3-1 .8-.2-.2 1.2-.8.3.4v.3a.4.4 0 0 1-.1.4h-.4c-.1 0-.2 0-.2-.2Zm2.7 2.9-1.3.6-.1-.1 1.3-.7v.2Zm.2.4h-.2l-.5-1h.2l.5 1Zm.9 3.6a1 1 0 0 1-.4 0h-.4l-.1-.3v-.4l.2-.2.2-.2h.6l.2.1.2.2v.5l-.2.1-.3.2Zm-.1-.2h.2l.2-.2v-.5h-.8l-.2.1-.1.2a.3.3 0 0 0 0 .3v.1h.1l.2.1h.3Zm.8 4.7h-.2l-.1-.6h.1l.2.6Zm1-1-1.3.4v-.2l1.3-.3v.2Zm.2 4.2a1 1 0 0 1-.4 0h-.2l-.1-.2-.1-.3v-.2l.1-.2.2-.1.3-.1h.4l.2.1a.5.5 0 0 1 .3.4v.2l-.2.2-.2.2h-.3Zm0-.1.2-.1h.2v-.2l.1-.2v-.1l-.2-.2h-.7l-.1.1-.1.2v.3l.1.1h.4Zm.1 5h-.5a.5.5 0 0 1-.1-.3.8.8 0 0 1 0-.5l.1-.2.3-.1h.6l.2.2.2.1v.6l-.2.1h-.3v-.1h.2l.1-.1v-.5l-.2-.1h-.8a.4.4 0 0 0-.1.3v.4h.4v-.2h.2v.5Zm.5 3.8-1.4-.3v-.2l1.5.2v.2Zm-1.4 2.3v.2l-.2-.1-.1-.2v-.5l.2-.2h.7l.2.1.2.2.1.2v.2l-.1.3-.2.1h-.3v-.1h.2l.2-.1v-.5l-.2-.1h-.2l-.1-.1h-.5v.2c-.1 0-.1.1 0 .2v.1l.1.1Zm-.6 5.2-.2.4-.2.2-.2.1h-.2l-.1-.1-.1-.2v-.2l.2-.4h.1l-.1.3v.2a.3.3 0 0 0 0 .2h.4v-.1l.2-.3-1.2-.5v-.2l1.4.6Zm-1.7.2.8-.1-.1.2h-.7v-.1Zm-1.4 3.6-.2-.1.4-.7.1.1-.3.7Zm1.4 0-1.2-.7v-.2l1.3.7v.2Zm-.8.2h-.2l.4-.6h.1l-.3.6Zm.4.4.3-.7h.1l-.4.7Zm-2.6 2.3h.2l.2-.1.1-.1.2-.1h.2l.2.2v.3l-.1.2-.2.2a.4.4 0 0 1-.4 0v-.2h.4l.2-.1v-.4h-.4l-.1.1-.2.1h-.2c0 .1 0 .1-.1 0h-.2a.4.4 0 0 1-.1-.3v-.1l.1-.2.2-.2h.5l-.1.2h-.4a.6.6 0 0 0-.1.2v.2Zm-2.6 2.7v-.1l.4-.6.1.2-.5.5Zm1.4.4-1-1 .1-.2 1 1v.2Zm-.8 0-.1-.1.4-.5.1.1-.4.5Zm.3.5v-.1l.4-.6.2.1-.6.6Zm-2.4 2.2-.4-1.2.1-.2.5 1.5-.1.1-.1-.1Zm-1.1-.7 1.2.7v.2l-1.4-.8h.2Zm.3.4v-.1l.6-.5v.1l-.6.5Zm-2.1 2.9-.4.2-.3.1h-.2l-.2-.2v-.3l.1-.2.4-.3v.1l-.2.2-.1.1a.3.3 0 0 0 0 .3v.1h.4l.2-.2-.6-1 .1-.2.8 1.3Zm-1.5-.8.7.4h-.2l-.6-.3.1-.1Zm-3 2.3-.2.1v-.5l.3-.1h.6l.2.3v.2l.1.2v.3a.5.5 0 0 1-.3.3h-.5l-.2-.2h.3l.2.1h.1l.2-.1v-.7l-.2-.3h-.1l-.2-.1h-.1l-.2.1v.4Zm-3.9 2v-.1l.7-.3v.2l-.7.2Zm1 .4-.5-1.4h.2l.4 1.3h-.2Zm-1 .2-.4-1.3h.2l.4 1.3h-.1Zm.9-30.7h-10.2v10.7h10.2V171Zm-10.9 0h-10.2v10.7h10.2V171Zm0-11.7h-10.2v11h10.2v-11Zm10.9 0h-10.2v11h10.2v-11Zm.8-.6h12.4c-2.6-5.6-7-10-12.4-12.8v12.8Zm0 11.5h15a27 27 0 0 0-2.3-10.9h-12.7v11Zm-22.7 11.5v-10.8h-15.3c0 3.8 1 7.4 2.6 10.8h12.7Zm0-22.4h-13a27 27 0 0 0-2.3 11h15.3v-11Zm0-.6v-13c-5.6 2.7-10 7.3-12.7 13h12.7Zm0 23.8h-12.4c2.7 5.3 7 9.6 12.4 12.1v-12Zm11-39.3c-3.5 0-7 .8-10.2 2.2v13.3h10.2v-15.5ZM656 171h-14.8v10.7h12.4c1.6-3.4 2.4-7 2.5-10.8Zm-14.8 11.5v12a27 27 0 0 0 12-12h-12Zm-11-39.3v15.5h10.2v-13.1a29.3 29.3 0 0 0-10.2-2.4Zm-.7 53.9v-14.6h-10.2V195c3.2 1.5 6.7 2.3 10.2 2.2Zm10.9-14.6h-10.2v14.6c3.5 0 7-.8 10.2-2.3v-12.3Z" fill="#272727"/><path d="M612.2 161.2h-1V160h1v1.2Zm0 7.4h-1v-6.4h1v6.4Zm25.9-13.3-1.1.7h-2.7l-1.1-.7-.9-1-.3-1.2v-.7c0-.4.2-.8.3-1.1l.9-1 1.1-.7h2.7l1.1.7-.8.8-.3-.3a.8.8 0 0 0-.4-.2h-2l-.6.3-.5.7-.2.8v.7c0 .3 0 .6.2.8l.5.7.6.5h2l.7-.3.8.5Zm-10.7 24.4h-1v-.9l-.8.7h-2.3l-1-.7-.7-1c-.1-.4-.2-.8-.1-1.2v-.6l.1-1.2.7-1 1-.7h2.3l.8.7v-.7h1v6.6Zm-1-3v-.7c0-.3 0-.6-.2-.9l-.3-.7-.6-.3h-1.7a.8.8 0 0 0-.7.3l-.3.7c-.1.3-.2.6-.1.9v.6l.1.9.3.6.7.4h1.7l.6-.4c.2-.1.2-.5.3-.6.2-.3.2-.6.2-.9Zm20.1 8.5h-1l-.6.5-.5.5-.2.8v3.7h-1v-6.5h1v1l1-.7 1-.3h.3v1Z" fill="#375E74"/><path d="M628.9 201.8c.9 0 1.6-.7 1.6-1.7 0-.9-.7-1.6-1.6-1.6-1 0-1.7.7-1.7 1.6 0 1 .8 1.7 1.7 1.7Z" fill="#272727"/></g><path d="M720.1 171.6c7.5 0 13.5-5.8 13.5-13 0-7.1-6-13-13.5-13s-13.5 5.9-13.5 13c0 7.2 6 13 13.5 13Z" stroke="#272727" stroke-width=".1" stroke-miterlimit="10"/><path d="M738 196.8h33.8l-24.6-40.6-15.4 25.7-.5-12.4a13.4 13.4 0 0 1-10.2 4.8v22.5h13.4l12.5-20.1 6.5 10.5h-10l-5.5 9.6Zm-29.9-28.1v28h10.7v-22.3a14.1 14.1 0 0 1-10.7-5.7Z" fill="#272727"/><path d="M717 171.5a19.3 19.3 0 0 1-4.2-9.8c-1-6.2 4.1-14 4.1-14s6.7 22.4 6.8 23.5" stroke="#272727" stroke-width=".1" stroke-miterlimit="10"/><path d="M729.7 167.7s1.5-9.3-5.3-15.4c-4.3-3.9-7.5-4.5-7.5-4.5s12.8-.5 16.7 9m-24.3-5.8c2-2.8 7.6-3.2 7.6-3.2s-.1-1.4.2-1.7" stroke="#272727" stroke-width=".1" stroke-miterlimit="10"/><path d="M720.1 145.7c-1.3.3-2.4 1-3.2 2 0 0-1.8-1-3-.5m-6 17s8 3.5 14.4 1.9c6.3-1.7 10.9-4.6 11.3-8.4" stroke="#272727" stroke-width=".1" stroke-miterlimit="10"/><path d="M706.6 158.6s7 5.3 15.4 2.5c8.3-2.7 10-8.8 10-8.8" stroke="#272727" stroke-width=".1" stroke-miterlimit="10"/><path d="M707.9 153.1s3.7 4.7 11.8 3c8-1.9 7.5-8.3 7.5-8.3a14 14 0 0 0-14.8 3c-2.5 2.3-4 5.6-4 9a13.2 13.2 0 0 0 5.8 10.5" stroke="#272727" stroke-width=".1" stroke-miterlimit="10"/><path d="M711.9 168.8s8 1.8 13-.2c3.1-1.4 6-3.4 8.2-6m20.9-1.9c1.4 0 2.4-1 2.4-2.2 0-1.2-1-2.2-2.3-2.2-1.3 0-2.3 1-2.3 2.2 0 1.2 1 2.2 2.3 2.2Z" stroke="#272727" stroke-width=".1" stroke-miterlimit="10"/><g clip-path="url(#c)"><path d="M852.3 212.6c-22.2 0-40-18.4-40-41.1a40.6 40.6 0 0 1 40-41.2c22 0 40 18.5 40 41.2 0 22.7-18 41.1-40 41.1Zm0-76a34.4 34.4 0 0 0-34 34.9 34.4 34.4 0 0 0 34 34.8 34.4 34.4 0 0 0 33.8-34.8 34.4 34.4 0 0 0-33.8-34.8Z" fill="#272727"/><path d="M865.5 200.3c-1.3 0-6-8.6-6.7-11-1.3-5.2-1-7.4-1-8 .3-2.2 2.3-3.2 2.4-6.1l.8-8.8c-.8-.1-1.7-.5-2.5-1.1 2.3 3-1 6.9-6 11.9-5.2 5.3-16.7 10.2-16.7 10.2s4.8-11.8 10-17.1c3.9-3.9 7-6.9 9.6-6.9.7 0 1.4.3 2.1.8a6 6 0 0 1-1.2-2.5l-8.6.8c-2.8.1-3.8 2.2-5.9 2.4l-1.3.1a28 28 0 0 1-6.5-1c-2.7-.8-12.4-6.4-10.7-7.1.9-.4 3.7-.6 7.4-.6 3.5 0 8 .2 12.2.8 5.3.7 10.2 1.6 13.5 2.2l.2-.5-3.4-1.7s-2.7-3.1-2.4-3.4c.5 0 2.6 2.6 2.9 2.8l2 .7-1-.8s-1.3-5-1-5.1c.4 0 1.6 4.3 1.7 4.6l2 1.1-1-2.7s.5-4.5.8-4.5c.4 0 0 3.8-.1 4.2l1.7 2.7c.5-.2 1-.3 1.6-.3.6 0 1.3.2 1.9.4-.8-1.7-.7-3.5.3-4.6.3-.4.8-.6 1.2-.7 0-.4.2-.7.4-.9a2 2 0 0 1 1.2-.5c.4 0 .8.2 1.2.5.3.4.4.8.5 1.2.5-1 1-2.5 1-3 0-1-1.3-3-1.3-3v-.3a.3.3 0 0 1 .4 0c.1.1 1.3 2 1.4 3.3.1.6-.7 2.4-1 3.2a7.5 7.5 0 0 1 2.9 3 10.8 10.8 0 0 1 3.2-1c1.2 0 3 1.3 3.2 1.3 0 .1.1.3 0 .4a.3.3 0 0 1-.3 0s-1.9-1.2-3-1.3c-.5 0-1.9.6-2.9 1.1.4 0 .8.2 1.2.5.6.7.6 1.8 0 2.4-.2.2-.5.4-.8.4a3 3 0 0 1-.8 1.3c-.5.6-1.3.8-2.2.8-.7 0-1.5-.2-2.3-.5a5 5 0 0 1 0 3.5c1.3.8 2.6 1.6 2.7 1.8l3.4-.3.8.1c0 .4-4.4.9-4.4.9l-2.7-1.1 1 2c.4.2 4.7 1.4 4.6 1.8h-.2c-1 0-4.8-1-4.8-1l-.8-1 .7 2c.3.3 3 2.7 2.7 3-.5 0-3.3-2.5-3.3-2.5l-1.6-3.5-.6.2c.7 3.4 1.6 8.4 2.3 13.8a70 70 0 0 1-.1 20.2Zm17.5 6.9h-2v5.2h-1.2v-5.2h-1.9v-1h5v1Zm2.4-1.1 1.6 4.6 1.6-4.6h1.6v6.3H889v-4.7l-1.6 4.7h-.9l-1.6-4.7.1 3v1.7h-1.3V206h1.7Z" fill="#272727"/></g><path d="m944.7 157.5 16.3-7.3v42.5s-9.6-4.3-13.4-14.7c-3.8-10.4-3-20.5-3-20.5Z" fill="#272727"/><path d="m977.2 157.5-16.3-7.3v42.5s9.6-4.3 13.4-14.7c3.7-10.4 3-20.5 3-20.5Z" fill="#375E74"/><path d="M947.6 178c-3.8-10.4-3-20.5-3-20.5l16.4-7.3" fill="#272727"/><path d="M951.5 170.8v-5.6c0-4.2 2.1-8 5.7-9.6a9 9 0 0 1 3.8-.9v2.9a6 6 0 0 0-3.4.8 7.7 7.7 0 0 0-3.6 6.4v3.7l-2.5 2.3Z" fill="#375E74"/><path d="M970.6 170.8v-5.6c0-4.2-2.2-8-5.7-9.6a9 9 0 0 0-3.9-.9v2.9a6 6 0 0 1 3.5.8c1.6 1 3.4 3.1 3.5 6.4v3.7l2.6 2.3Z" fill="#272727"/><path d="M961 178.1h-.3l-.3-.2a.8.8 0 0 1-.2-.6v-8.7l.3-.3.2-.1.3-.1v-4.5a10 10 0 0 0-7.2 3.5 12 12 0 0 0-3 7.9c0 3 1.1 5.8 3 8 1.9 2 4.5 3.3 7.2 3.4v-8.3Z" fill="#375E74"/><path d="M961 163.6v4.5c.2 0 .4 0 .5.2l.3.6v8.4l-.3.6c-.1.2-.3.2-.5.2v8.3a10 10 0 0 0 7.2-3.5 12 12 0 0 0 0-15.8 10.3 10.3 0 0 0-7.2-3.5Zm25.5-7.2v.6l-.4.4a1 1 0 0 1-.4.4h-.6l-.6-.1-.5-.5-.5.5-.7.2a1 1 0 0 1-.5-.1 1 1 0 0 1-.4-.4l-.3-.4-.1-.6v-1.7h.4v1.7l.1.4.2.3.3.2.3.1h.4l.3-.3.2-.3v-2.1h.5v1.7l.1.4.2.3.3.2.3.1h.4l.3-.3.2-.3v-2.1h.5v1.7Zm3.3 0-.1.6c0 .2-.2.3-.3.5l-.4.3h-.6a1 1 0 0 1-.5 0l-.4-.3c-.2-.2-.3-.3-.3-.5l-.1-.6v-.9l.4-.5.4-.3.5-.1.6.1.4.3.3.5.1.6v.3Zm-.5 0v-.7l-.2-.3-.3-.2-.4-.1h-.3l-.3.3-.2.3v1.1c0 .1 0 .2.2.3l.3.2.3.1h.4l.3-.3.2-.3v-.4Zm6.1 1.4h-.5v-2.1l-.2-.3-.3-.2-.4-.1h-.3l-.3.3-.2.3-.1.3v1.8h-.5v-2.1l-.2-.3-.3-.2-.4-.1h-.3l-.3.3-.2.3-.1.3v1.8h-.5v-1.7l.1-.6.3-.5.5-.3.5-.1c.3 0 .5 0 .7.2l.5.5c0-.2.2-.4.4-.5a1.2 1.2 0 0 1 1.2 0c.2 0 .4 0 .5.2l.3.5v2.3Zm3.3-1.3h-2.3v.3l.3.3.2.2a1 1 0 0 0 .7 0c.2 0 .3 0 .3-.2l.4.4c-.2 0-.3.2-.5.3a1 1 0 0 1-.5 0 1 1 0 0 1-.5 0l-.5-.3-.3-.5v-1.5l.3-.5.5-.3.5-.1h.4l.3.3c.2 0 .3.1.3.2l.3.4v1Zm-.5-.5v-.3a1 1 0 0 0-.4-.5.9.9 0 0 0-.9 0l-.2.1-.2.3-.1.4h1.8Zm3.8 1.8h-.5V156a1.1 1.1 0 0 0-.3-.6l-.2-.2-.4-.1h-.4l-.2.3-.2.3-.1.3v1.8h-.5v-1.7a1.5 1.5 0 0 1 .4-1l.4-.4.6-.1.5.1.5.3.3.5v2.3Zm3.5-3.5h-.4v-.7h.4v.7Zm0 3.5h-.4v-3.1h.4v3.1Zm3.5 0h-.5v-2.1l-.3-.3-.3-.2-.3-.1h-.4l-.2.3-.3.3v2.1h-.5v-1.7l.1-.6c0-.2.2-.3.3-.5l.5-.3.5-.1.5.1.5.3c0 .2.2.3.3.5v2.3Zm-24.6 3.2.4.5.1.6h-.5c0-.3-.2-.5-.4-.7a1 1 0 0 0-.7-.3c-.2 0-.4 0-.6.2l-.4.3c-.2.3-.3.8-.3 1.4 0 .4 0 .9.3 1.2 0 .2.2.3.4.4l.6.1.5-.1.4-.4.2-.7h.5c0 .4-.1.8-.4 1.2-.3.3-.8.5-1.2.5-.5 0-1-.1-1.3-.4-.4-.4-.6-1-.6-2 0-.5.1-1 .5-1.5.1-.2.3-.4.6-.5l.8-.2a1.5 1.5 0 0 1 1.1.5Zm.9-.2h.7l1.2 2 1.1-2h.7l-1.6 2.5v1.8h-.5v-1.8l-1.6-2.5Zm4.1 0h1.7c.5 0 .9.1 1 .4l.3.6c0 .3-.1.5-.3.7l-.3.3.5.2.2.4v.4c0 .3 0 .6-.2.8-.3.3-.6.5-1.2.5h-1.7v-4.3Zm1.5 1.8.6-.1s.2-.1.2-.3l.1-.3v-.3l-.3-.3h-1.6v1.3h1Zm.2 2h.4l.4-.3v-.5c.1-.1 0-.3 0-.4l-.3-.2-.6-.1h-1v1.5h1.1Zm2.1-3.8h3v.5h-2.4v1.3h2.2v.5h-2.2v1.5h2.4v.5h-3v-4.3Zm3.8 0h1.9l.7.1c.4.2.5.5.5 1v.6a1 1 0 0 1-.5.5l.4.2v1.2l.1.4v.1l.2.1v.1h-.6l-.1-.1v-1.1l-.1-.3-.2-.3a1 1 0 0 0-.5 0h-1.2v1.8h-.6v-4.3Zm1.8 2c.2 0 .4 0 .6-.2l.2-.3v-.7l-.3-.2a.8.8 0 0 0-.4-.1h-1.3v1.4h1.2Zm2.6.9.1.6c.2.3.5.5 1 .5.1 0 .3 0 .5-.2.3 0 .5-.3.5-.6v-.3l-.2-.2a3 3 0 0 0-.7-.3l-.5-.1a2 2 0 0 1-.7-.3.9.9 0 0 1-.3-.3l-.1-.5a1.3 1.3 0 0 1 .4-1c.3-.2.6-.4 1-.4s.8.1 1 .4l.4.4v.6h-.4l-.2-.5c-.2-.2-.4-.3-.8-.3a.9.9 0 0 0-.7.2l-.1.2v.6l.2.2.7.2.5.1.6.3c.2.1.3.2.3.4l.1.5c0 .5-.2.8-.5 1-.3.2-.7.4-1 .3-.5 0-1 0-1.2-.4a.5.5 0 0 1-.3-.5l-.1-.6h.5Zm3.4-2.9h3v.5h-2.4v1.3h2.2v.5h-2.2v1.5h2.4v.5h-3v-4.3Zm6.6.2a1.5 1.5 0 0 1 .5 1h-.5l-.4-.6a1 1 0 0 0-.8-.3c-.1 0-.3 0-.5.2-.2 0-.3.1-.4.3-.3.3-.4.8-.4 1.4 0 .4.1.9.4 1.2 0 .2.2.3.4.4l.5.1.5-.1.4-.4c.2-.2.3-.4.3-.7h.5c0 .4-.2.8-.4 1.2l-.6.4-.7.1c-.5 0-.9-.1-1.2-.4-.4-.4-.6-1-.6-2 0-.5.1-1 .4-1.5l.7-.5.7-.2.7.1.5.4Zm1.8-.2v2.7c0 .2 0 .5.2.7 0 .2.2.3.3.4l.5.1c.5 0 .8-.2 1-.5l.1-.7v-2.7h.6v2.4c0 .4 0 .9-.2 1.2-.3.6-.8.8-1.4.8-.7 0-1.2-.2-1.4-.8-.2-.3-.3-.8-.2-1.2v-2.4h.5Zm3.6 0h1.8l.8.1c.3.2.5.5.5 1l-.1.7-.4.4.3.2.1.6v1l.3.2v.1h-.7v-.5l-.1-.7c0-.3-.1-.5-.3-.6a.9.9 0 0 0-.5 0h-1.2v1.8h-.5v-4.3Zm1.8 2c.1 0 .4 0 .5-.2l.2-.3v-.3a.6.6 0 0 0-.3-.6.9.9 0 0 0-.4-.1h-1.3v1.4h1.3Zm2.3-2h.6v4.3h-.6v-4.3Zm4.4 0v.5h-1.4v3.8h-.5v-3.8h-1.4v-.5h3.3Zm.2 0h.6l1.2 2 1.1-2h.7l-1.5 2.5v1.8h-.6v-1.8l-1.5-2.5Zm-50.7 8.4h7.1v2.8h-2l2.6 9.9 4.2-11h1.5l4.3 11 2.6-9.9h-2.4v-3h7.3v3h-1.8l-4.6 16.4h-1.7l-4.4-11.6-4.6 11.7H981l-4.6-16.4h-1.7v-2.9Z" fill="#272727"/><path d="m997.5 177.2-.7 2.7h1.7s-1.4 5.8-1.1 6.6c.3.8.3 2 3 1.9 2.6-.1 2.8-3.6 2.8-3.6l-1.2-.6s-.5 1.8-1.3 2c-.8.3.3-4 .9-6.4l.6-2.6h-4.7Zm3.5-1.2c1 0 1.8-.8 1.8-1.9 0-1-.8-1.8-1.8-1.8s-1.7.8-1.7 1.8.8 2 1.7 2Z" fill="#272727"/><path d="M1016.9 183c-.8 1-1.8 1.7-2.9 2-1 .4-2.3.5-3.4.2s-2.2-.9-3-1.8a7 7 0 0 1-1.5-6.9c.4-1.2 1-2.2 2-3a5.8 5.8 0 0 1 6.5-1v.5c0 .4 0 .9.3 1.2.2.4.5.7.9 1a2.1 2.1 0 0 0 2.3-.2 2.4 2.4 0 0 0 1-2.2 2.5 2.5 0 0 0-1.4-2c-2-1.6-3-2.2-5.7-2.2-1.6 0-3.2.5-4.5 1.3-1.4.8-2.6 2-3.5 3.4a10.7 10.7 0 0 0-.5 9.7 10 10 0 0 0 3 3.9 8.8 8.8 0 0 0 9 1.3 9.4 9.4 0 0 0 3.6-3l-2.3-2.2Z" fill="#272727"/><path d="M1016.2 177.2v2.8h1l3.7 7.4s-.4 1.8-1.3 2c0 0-1.2-1.8-2.4.1 0 0-.4 1.7 1 2.1 1.6.5 3.4.3 4.6-2.4 1.3-2.8 4-9.5 4-9.5h1.3V177h-5.2v2.6h1.3l-1.8 4.8-2-4.8h1.2V177h-5.3v.1Z" fill="#272727"/><path d="M1035.5 172s-.6 2.7 1 3c1.7.2 2.5-.7 2.6-2 0-1.2-1-4-5-4.1-3.8-.1-7 2-6.8 5.2.2 3.2 1.7 4.7 5.6 6.2 3.8 1.5 3.4 5.2.5 5.5-3 .4-3.1-.8-3.1-.8s1-2.8-2-3c-3-.2-2.5 4.5-.5 5.2 2 .8 3.2 2 6.3 1.6 3.2-.4 5.2-2.6 5.2-5s-.7-5.5-6.6-7c-5.8-1.6-1-6.6 2.8-4.7Z" fill="#272727"/><defs><clipPath id="a"><path fill="#fff" transform="translate(857.2)" d="M0 0h78.3v78.1H0z"/></clipPath><clipPath id="b"><path fill="#fff" transform="translate(596.4 137)" d="M0 0h68.5v68.5H0z"/></clipPath><clipPath id="c"><path fill="#fff" transform="translate(811.5 130.1)" d="M0 0h83.5v82.3H0z"/></clipPath></defs></svg>