<svg width="60" height="60" viewBox="0 0 60 60" fill="none" xmlns="http://www.w3.org/2000/svg">
<path d="M30.0001 25.7625C24.1313 25.7625 19.3501 30.5906 19.3501 36.525C19.3501 38.1937 19.7438 39.3468 20.5595 40.0406C21.8251 41.1187 23.7188 40.8281 25.9126 40.4812C27.1501 40.2843 28.5563 40.0593 30.0001 40.0593C31.4438 40.0593 32.8501 40.2843 34.0876 40.4812C35.1282 40.6406 36.1032 40.8 36.9751 40.8C37.9407 40.8 38.7751 40.6125 39.4407 40.0406C40.2563 39.3468 40.6501 38.1937 40.6501 36.525C40.6501 30.5906 35.8688 25.7625 30.0001 25.7625ZM37.097 36.5437H36.9845C36.5157 36.5437 36.1126 36.1968 36.0563 35.7187C35.8313 33.6656 34.6595 32.4 33.7126 31.7062C33.3001 31.3968 33.2157 30.8062 33.5251 30.3937C33.8251 29.9812 34.4157 29.8875 34.8282 30.1968C36.0751 31.1156 37.6126 32.7843 37.922 35.5031C37.9782 36.0187 37.6032 36.4875 37.097 36.5437Z" fill="black"/>
<path d="M30.0001 24.7781C32.3345 24.7781 34.2282 22.5187 34.2282 19.7343C34.2282 16.95 32.3345 14.7 30.0001 14.7C27.6657 14.7 25.772 16.9593 25.772 19.7343C25.772 22.5093 27.6657 24.7781 30.0001 24.7781Z" fill="black"/>
<path d="M42.1407 17.9626C39.9563 17.1657 37.3969 18.6376 36.4407 21.2439C35.4938 23.8501 36.4969 26.6251 38.6813 27.4314C39.0844 27.5814 39.5063 27.6564 39.9376 27.6564C40.6594 27.6564 41.3907 27.4407 42.0844 27.0189C43.1157 26.4001 43.9313 25.3782 44.3813 24.1501C44.8313 22.922 44.8688 21.6189 44.4844 20.4751C44.0719 19.2564 43.2376 18.3657 42.1407 17.9626Z" fill="black"/>
<path d="M21.3188 27.4314C23.5032 26.6251 24.5063 23.8501 23.5594 21.2439C22.6032 18.6376 20.0438 17.1657 17.8594 17.9626C16.7625 18.3657 15.9282 19.2564 15.5157 20.4751C15.3375 21.0001 15.2532 21.5532 15.2532 22.1251C15.2532 22.8001 15.375 23.4845 15.6188 24.1501C16.0688 25.3782 16.8844 26.4001 17.9157 27.0189C18.6094 27.4407 19.3407 27.6564 20.0625 27.6564C20.4938 27.6564 20.9157 27.5814 21.3188 27.4314Z" fill="black"/>
<path d="M55.8468 1.94069C41.428 7.80944 30.8905 2.25944 30.4499 2.01569C30.1687 1.86569 29.8312 1.86569 29.5499 2.01569C29.1093 2.25944 18.5718 7.80944 4.15303 1.94069C3.87178 1.82819 3.54365 1.85632 3.28115 2.03444C3.01865 2.21257 2.86865 2.50319 2.86865 2.81257V26.3157C2.86865 41.1094 12.7312 53.9157 26.8593 57.4407C27.8155 57.6844 28.8093 57.9094 29.8218 58.1063C29.878 58.1157 29.9437 58.1251 29.9999 58.1251C30.0562 58.1251 30.1218 58.1157 30.178 58.1063C31.1905 57.9094 32.1843 57.6844 33.1405 57.4407C47.2687 53.9157 57.1312 41.1094 57.1312 26.3157V2.81257C57.1312 2.50319 56.9812 2.21257 56.7187 2.03444C56.4562 1.85632 56.128 1.82819 55.8468 1.94069ZM52.4437 26.3157C52.4437 38.9626 44.0437 49.8938 32.0062 52.8938C31.4155 53.0438 30.8062 53.1844 30.1968 53.3157C30.1312 53.3344 30.0655 53.3438 29.9999 53.3438C29.9343 53.3438 29.8687 53.3344 29.803 53.3157C29.1937 53.1844 28.5843 53.0438 28.003 52.9032C15.9655 49.8938 7.55615 38.9626 7.55615 26.3157V9.21569C7.55615 8.93444 7.6874 8.66257 7.9124 8.48444C8.12803 8.30632 8.42803 8.24069 8.70928 8.30632C11.5874 8.98132 14.5124 9.31882 17.3905 9.31882C22.8749 9.31882 27.0843 8.11882 29.653 7.10632C29.878 7.02194 30.1218 7.02194 30.3468 7.10632C32.9155 8.11882 37.1249 9.31882 42.6187 9.31882C45.4874 9.31882 48.4124 8.98132 51.2905 8.30632C51.5718 8.24069 51.8718 8.30632 52.0874 8.48444C52.3124 8.66257 52.4437 8.93444 52.4437 9.21569V26.3157Z" fill="black"/>
</svg>
