<svg width="21" height="24" viewBox="0 0 21 24" fill="none" xmlns="http://www.w3.org/2000/svg">
<path fill-rule="evenodd" clip-rule="evenodd" d="M8.94495 15.4344C12.529 15.4344 15.4344 12.529 15.4344 8.94495C15.4344 5.36092 12.529 2.45548 8.94495 2.45548C5.36092 2.45548 2.45548 5.36092 2.45548 8.94495C2.45548 12.529 5.36092 15.4344 8.94495 15.4344ZM8.94495 17.8899C13.8851 17.8899 17.8899 13.8851 17.8899 8.94495C17.8899 4.00479 13.8851 0 8.94495 0C4.00479 0 0 4.00479 0 8.94495C0 13.8851 4.00479 17.8899 8.94495 17.8899Z" fill="#272727"/>
<path d="M12.5684 16.0578L14.5324 14.5841L20.4275 22.4401L18.4634 23.9139L12.5684 16.0578Z" fill="#272727"/>
</svg>
