<svg width="60" height="60" viewBox="0 0 60 60" fill="none" xmlns="http://www.w3.org/2000/svg">
<path d="M5.74977 50.8676V57.8226C5.74887 58.0482 5.79263 58.2716 5.87852 58.4802C5.96441 58.6888 6.09074 58.8783 6.25022 59.0378C6.4097 59.1973 6.59917 59.3236 6.80772 59.4095C7.01627 59.4955 7.23976 59.5392 7.46531 59.5384H10.2288V56.4894C10.2292 56.2369 10.3297 55.9947 10.5083 55.8161C10.6869 55.6375 10.929 55.5369 11.1816 55.5365C11.7531 55.5365 12.1346 55.9173 12.1346 56.4894V59.5384H16.5178V56.4894C16.5178 55.9167 16.8993 55.5365 17.4708 55.5365C17.7234 55.5369 17.9655 55.6375 18.1441 55.8161C18.3227 55.9947 18.4233 56.2368 18.4237 56.4894V59.5384H22.807V56.4894C22.8056 56.3635 22.8292 56.2385 22.8764 56.1218C22.9237 56.005 22.9936 55.8988 23.0822 55.8092C23.1707 55.7197 23.2762 55.6486 23.3924 55.6001C23.5086 55.5516 23.6333 55.5266 23.7593 55.5266C23.8852 55.5266 24.0099 55.5516 24.1262 55.6001C24.2424 55.6486 24.3479 55.7197 24.4364 55.8092C24.525 55.8988 24.5949 56.005 24.6422 56.1218C24.6894 56.2385 24.713 56.3635 24.7116 56.4894V59.5384H29.0948V56.4894C29.0935 56.3634 29.1171 56.2384 29.1644 56.1216C29.2116 56.0047 29.2816 55.8984 29.3702 55.8088C29.4588 55.7192 29.5643 55.6481 29.6806 55.5995C29.7969 55.551 29.9217 55.526 30.0478 55.526C30.1738 55.526 30.2986 55.551 30.4149 55.5995C30.5312 55.6481 30.6367 55.7192 30.7253 55.8088C30.8139 55.8984 30.8839 56.0047 30.9312 56.1216C30.9784 56.2384 31.002 56.3634 31.0007 56.4894V59.5384H35.3839V56.4894C35.3839 56.2367 35.4843 55.9943 35.663 55.8156C35.8417 55.6369 36.0841 55.5365 36.3368 55.5365C36.5896 55.5365 36.832 55.6369 37.0107 55.8156C37.1894 55.9943 37.2898 56.2367 37.2898 56.4894V59.5384H41.673V56.4894C41.6733 56.2368 41.7738 55.9945 41.9524 55.8159C42.1311 55.6372 42.3733 55.5367 42.626 55.5365C43.1975 55.5365 43.5788 55.9173 43.5788 56.4894V59.5384H47.9622V56.4894C47.9622 55.9167 48.343 55.5365 48.915 55.5365C49.1676 55.5369 49.4098 55.6375 49.5884 55.8161C49.767 55.9947 49.8675 56.2368 49.868 56.4894V59.5384H52.5355C52.761 59.5393 52.9845 59.4955 53.193 59.4096C53.4015 59.3237 53.5909 59.1973 53.7503 59.0378C53.9097 58.8783 54.036 58.6888 54.1218 58.4802C54.2075 58.2716 54.2511 58.0481 54.2501 57.8226V50.8676H5.74977ZM51.773 41.9109C50.7272 40.4817 49.8928 38.9092 49.2956 37.2419C43.2439 38.1942 37.1271 38.672 31.001 38.6707C17.4711 38.6707 9.46746 44.1971 6.41738 46.77L6.03662 48.866H54.0597C53.3928 46.3887 53.4884 44.3884 51.773 41.9109ZM30.2391 27.7126L29.1905 30.8572H31.2865L30.2391 27.7126ZM30.2391 27.7126L29.1905 30.8572H31.2865L30.2391 27.7126ZM51.6783 18.1845C44.912 19.4232 38.0526 20.0903 31.0961 19.9947C24.2355 19.899 17.3749 21.5191 11.3715 24.7594C11.8485 26.3782 12.0387 28.1898 12.0387 29.9043C12.0427 31.0221 11.9471 32.138 11.7529 33.2389C11.2661 36.3637 10.0595 39.3326 8.22823 41.9109C7.87431 42.4615 7.556 43.0342 7.27527 43.6254C11.4674 40.6723 19.2807 36.6691 31.0961 36.6691C37.0281 36.6516 42.9512 36.206 48.8192 35.336C48.05 32.4381 47.9072 29.4095 48.4002 26.4521C48.8932 23.4947 50.0107 20.6762 51.6783 18.1845ZM13.7547 33.2389C13.7547 33.0488 13.659 32.1915 13.9447 32.1915C14.1349 32.1915 14.3262 32.4773 15.0878 32.6674C15.9463 32.9532 16.9937 32.763 16.9937 31.8101C16.9937 30.4758 13.8491 30.7616 13.8491 28.3798C13.8491 25.9024 17.185 25.8067 18.0423 26.6653C18.2324 26.8553 18.2324 27.9039 17.9466 27.9039C17.7565 27.9039 17.4708 27.6181 16.8993 27.4268C16.2321 27.2368 15.3748 27.4268 15.3748 28.1898C15.3748 29.5228 18.6138 29.0469 18.6138 31.5244C18.6138 34.4776 14.0405 34.2875 13.7547 33.2389ZM25.9508 33.1445C25.9508 33.5259 25.7603 33.7164 25.3793 33.716H24.7122C24.3314 33.716 24.1407 33.6203 23.8549 33.2389L21.0918 27.9039V33.4302C21.0918 33.716 20.7103 33.716 20.4246 33.716C20.1389 33.716 19.7573 33.716 19.7573 33.4302V26.7597C19.7542 26.6837 19.7668 26.6078 19.7945 26.537C19.8222 26.4661 19.8643 26.4018 19.9181 26.348C19.972 26.2943 20.0364 26.2524 20.1073 26.2248C20.1783 26.1973 20.2541 26.1848 20.3301 26.1882H21.1874C21.7589 26.1882 21.949 26.3782 22.2348 26.951L24.6177 31.62V26.4739C24.6177 26.1881 24.9992 26.1881 25.2848 26.1881C25.5705 26.1881 25.9508 26.1881 25.9508 26.4739V33.1445ZM33.0028 33.8116C32.3357 33.8116 32.24 33.8116 32.1455 33.6203L31.6684 32.0959H28.9047L28.4288 33.5258C28.3332 33.8116 28.0481 33.8116 27.5704 33.8116C27.1902 33.8116 26.9032 33.8116 26.9989 33.4302C26.9989 33.1445 26.9989 33.2389 29.3805 26.474C29.4762 26.1882 29.762 26.1882 30.3335 26.1882C31.0963 26.1882 31.2865 26.1882 31.3821 26.6653L33.6692 33.2389C33.8595 33.8116 33.6692 33.8116 33.0022 33.8116H33.0028ZM37.8613 32.573C39.1956 32.573 39.6715 31.4287 39.7671 32.2859C39.8628 33.1431 39.6715 33.2389 39.3858 33.4302C37.0997 34.7646 34.2409 33.5258 34.3365 30.1901C34.3365 25.8067 38.5285 25.6167 39.6715 26.7597C39.9573 27.0455 39.9573 28.4754 39.3858 27.9983C35.6697 25.2352 34.6223 32.573 37.8613 32.573ZM45.5792 33.8116C45.199 33.8116 44.8176 33.8116 44.722 33.5258L42.4347 29.9999V33.5258C42.4347 33.8116 41.9588 33.8116 41.6732 33.8116C41.3875 33.8116 40.9103 33.716 40.9103 33.5258V26.474C40.9103 26.1882 41.3873 26.1882 41.6732 26.1882C41.959 26.1882 42.4347 26.1882 42.4347 26.474V29.6184L44.6263 26.474C44.8176 26.1882 45.1033 26.1882 45.4848 26.1882C46.0563 26.1882 46.4377 26.2838 46.2463 26.6653C45.9605 27.1411 45.4848 27.7126 43.9602 29.7141C45.4847 32.0959 46.2463 33.1445 46.342 33.4302C46.4377 33.8116 46.0563 33.8116 45.5792 33.8116ZM29.1905 30.8572H31.2865L30.2391 27.7126L29.1905 30.8572ZM30.2391 27.7126L29.1905 30.8572H31.2865L30.2391 27.7126ZM30.2391 27.7126L29.1905 30.8572H31.2865L30.2391 27.7126ZM5.94108 11.1338C6.60835 13.6111 6.51269 15.6114 8.22846 18.0889C9.37146 19.6133 10.2288 21.2334 10.6101 23.1393C16.8586 19.8369 23.8397 18.1655 30.9063 18.2802C38.2428 18.2802 45.5792 17.613 52.7255 16.1829C53.3927 14.6586 53.3927 13.9913 53.9642 11.1338H5.94108ZM52.5355 0.461445H49.868V3.51037C49.8673 3.7629 49.7667 4.0049 49.5881 4.18347C49.4096 4.36204 49.1676 4.46266 48.915 4.46333C48.3424 4.46333 47.9622 4.08187 47.9622 3.51037V0.461445H43.5788V3.51037C43.5788 4.08187 43.1975 4.46333 42.626 4.46333C42.3734 4.46287 42.1313 4.36232 41.9527 4.18371C41.774 4.00509 41.6735 3.76297 41.673 3.51037V0.461445H37.2898V3.51037C37.2898 3.76311 37.1894 4.0055 37.0107 4.18421C36.832 4.36293 36.5896 4.46333 36.3368 4.46333C36.0841 4.46333 35.8417 4.36293 35.663 4.18421C35.4843 4.0055 35.3839 3.76311 35.3839 3.51037V0.461445H31.0007V3.51037C31.002 3.63639 30.9784 3.76143 30.9312 3.87826C30.8839 3.99509 30.8139 4.10138 30.7253 4.19098C30.6367 4.28059 30.5312 4.35172 30.4149 4.40027C30.2986 4.44882 30.1738 4.47382 30.0478 4.47382C29.9217 4.47382 29.7969 4.44882 29.6806 4.40027C29.5643 4.35172 29.4588 4.28059 29.3702 4.19098C29.2816 4.10138 29.2116 3.99509 29.1644 3.87826C29.1171 3.76143 29.0935 3.63639 29.0948 3.51037V0.461445H24.7116V3.51037C24.713 3.63631 24.6894 3.76128 24.6422 3.87804C24.5949 3.99479 24.525 4.10102 24.4364 4.19057C24.3479 4.28012 24.2424 4.35121 24.1262 4.39973C24.0099 4.44825 23.8852 4.47324 23.7593 4.47324C23.6333 4.47324 23.5086 4.44825 23.3924 4.39973C23.2762 4.35121 23.1707 4.28012 23.0822 4.19057C22.9936 4.10102 22.9237 3.99479 22.8764 3.87804C22.8292 3.76128 22.8056 3.63631 22.807 3.51037V0.461445H18.4237V3.51037C18.4231 3.7629 18.3224 4.0049 18.1439 4.18347C17.9653 4.36204 17.7233 4.46266 17.4708 4.46333C16.8993 4.46333 16.5178 4.08187 16.5178 3.51037V0.461445H12.1346V3.51037C12.1346 4.08187 11.7531 4.46333 11.1816 4.46333C10.9291 4.46266 10.6871 4.36204 10.5086 4.18347C10.33 4.00489 10.2294 3.76289 10.2288 3.51037V0.461445H7.56119C7.33568 0.460377 7.11219 0.503985 6.90363 0.589752C6.69506 0.67552 6.50555 0.801748 6.34603 0.961151C6.18651 1.12055 6.06014 1.30997 5.97422 1.51848C5.8883 1.72698 5.84452 1.95043 5.84542 2.17594V9.13225H54.2501V2.17594C54.2511 1.95051 54.2074 1.7271 54.1216 1.51863C54.0358 1.31017 53.9095 1.12076 53.7501 0.961356C53.5907 0.80195 53.4013 0.675701 53.1928 0.589898C52.9843 0.504095 52.7609 0.460437 52.5355 0.461445Z" fill="black"/>
</svg>
