<svg width="59" height="59" viewBox="0 0 59 59" fill="none" xmlns="http://www.w3.org/2000/svg">
<path d="M39.0442 19.9551C39.3817 20.2938 39.8231 20.4619 40.2668 20.4619C40.7083 20.4619 41.152 20.2926 41.4907 19.9551L44.5689 16.8758L55.6929 17.4281C55.7209 17.4304 55.7513 17.4304 55.7805 17.4304C56.6949 17.4304 57.4597 16.7123 57.5053 15.7862C57.5532 14.8322 56.8186 14.0206 55.8646 13.9727L47.869 13.5757L52.1161 9.32855C52.7922 8.65241 52.7922 7.55706 52.1161 6.88209C51.4411 6.20596 50.3458 6.20596 49.6708 6.88209L45.4248 11.1281L45.0255 3.13476C44.9788 2.18071 44.1543 1.44268 43.2119 1.4929C42.2579 1.54077 41.5234 2.35237 41.5712 3.30759L42.1259 14.427L39.0442 17.5087C38.3681 18.186 38.3681 19.2813 39.0442 19.9551Z" fill="black"/>
<path d="M19.9595 39.041C19.2834 38.3649 18.1892 38.3649 17.5131 39.041L14.4244 42.1298L3.305 41.5739C2.36028 41.5225 1.53935 42.2617 1.49147 43.2134C1.44359 44.1687 2.17811 44.9814 3.13334 45.0281L11.1266 45.4275L6.87833 49.677C6.2022 50.3508 6.2022 51.4473 6.87833 52.1222C7.21698 52.4609 7.6584 52.6302 8.10098 52.6302C8.54356 52.6302 8.98614 52.4609 9.32362 52.1222L13.5719 47.8751L13.9713 55.8684C14.0168 56.7921 14.7805 57.5103 15.6972 57.5103C15.7264 57.5103 15.7556 57.5091 15.7848 57.5079C16.7389 57.4601 17.4746 56.6496 17.4267 55.6944L16.8708 44.5762L19.9595 41.4875C20.6345 40.8114 20.6345 39.716 19.9595 39.041Z" fill="black"/>
<path d="M55.6929 41.575L44.5654 42.1262L41.4907 39.0503C40.8145 38.3742 39.7192 38.3742 39.0442 39.0503C38.3681 39.7241 38.3681 40.8206 39.0442 41.4968L42.1212 44.5738L41.5736 55.6944C41.5257 56.6484 42.2602 57.46 43.2143 57.5067C43.2435 57.509 43.2715 57.509 43.3007 57.509C44.2162 57.509 44.9799 56.7897 45.0278 55.866L45.4225 47.8739L49.6708 52.1222C50.0083 52.4608 50.452 52.6302 50.8934 52.6302C51.3372 52.6302 51.7786 52.4608 52.1161 52.1222C52.7922 51.4472 52.7922 50.3519 52.1161 49.6769L47.8666 45.4263L55.8646 45.0292C56.8163 44.9825 57.5532 44.1721 57.5053 43.2157C57.4574 42.2628 56.6376 41.5236 55.6929 41.575Z" fill="black"/>
<path d="M3.22205 17.4327C3.25125 17.4327 3.28044 17.4327 3.30963 17.4304L14.4243 16.8757L17.5107 19.9609C17.8494 20.2996 18.2896 20.4677 18.7345 20.4677C19.1759 20.4677 19.6197 20.2984 19.9572 19.9609C20.6333 19.2848 20.6333 18.1906 19.9572 17.5157L16.8708 14.4293L17.429 3.31339C17.4769 2.35934 16.7423 1.54774 15.7883 1.4987C14.8214 1.44148 14.0215 2.18534 13.9736 3.1394L13.573 11.1315L9.32358 6.88323C8.64745 6.20709 7.55326 6.20709 6.87713 6.88323C6.201 7.55936 6.201 8.65355 6.87713 9.32968L11.1254 13.5768L3.13797 13.975C2.18392 14.0229 1.44823 14.8356 1.49611 15.7897C1.54282 16.7134 2.30653 17.4327 3.22205 17.4327Z" fill="black"/>
<path d="M31.2319 46.4235L31.233 42.7334C31.233 42.6855 31.2225 42.6411 31.219 42.5944C34.0964 42.2231 36.7577 40.9338 38.8422 38.8494C40.9301 36.7603 42.2216 34.0931 42.593 31.2134C42.6409 31.2181 42.6864 31.2286 42.7366 31.2286L46.4221 31.2298L52.8389 38.3344C53.1822 38.7128 53.6516 38.9031 54.1234 38.9031C54.5368 38.9031 54.9525 38.7572 55.283 38.457C55.9918 37.8171 56.0467 36.7241 55.4068 36.0153L51.0849 31.2298L55.7945 31.231H55.7956C56.7509 31.231 57.5251 30.4567 57.5251 29.5027C57.5251 28.5463 56.7509 27.7721 55.7956 27.7721H51.0908L55.4091 22.9971C56.049 22.2883 55.9942 21.1953 55.2877 20.5542C54.5788 19.9119 53.4835 19.9679 52.8436 20.6756L46.4267 27.7709H42.7366C42.6864 27.7709 42.6409 27.7814 42.5918 27.7849C42.2216 24.9064 40.9301 22.2427 38.8422 20.1559C36.7565 18.0692 34.0952 16.7788 31.2179 16.4063C31.2225 16.3584 31.233 16.314 31.233 16.265L31.2319 12.5795L38.3272 6.15805C39.0337 5.51812 39.0897 4.42276 38.4486 3.7151C37.8099 3.00744 36.7157 2.95139 36.0057 3.59365L31.2319 7.91435L31.2307 3.20479C31.2307 2.24956 30.4565 1.47534 29.5013 1.47534C28.546 1.47534 27.773 2.25073 27.773 3.20479V7.91669L22.9887 3.59365C22.2787 2.95255 21.1845 3.00861 20.5446 3.71627C19.9046 4.4251 19.9607 5.51928 20.6684 6.15921L27.773 12.5784V16.2638C27.773 16.3105 27.7835 16.3549 27.787 16.4004C24.9038 16.7706 22.2355 18.061 20.1464 20.1513C18.0059 22.2918 16.7692 24.9905 16.406 27.7826C16.3593 27.7791 16.315 27.7686 16.2671 27.7686H12.5781L6.15313 20.6709C5.5132 19.9633 4.41901 19.9072 3.71018 20.5495C3.00252 21.1906 2.94764 22.2848 3.58874 22.9936L7.91294 27.7697H3.20338C2.24932 27.7721 1.4751 28.5463 1.4751 29.5015C1.4751 30.4567 2.25049 31.2298 3.20571 31.2298L7.91645 31.2286L3.58991 36.0082C2.94881 36.7159 3.00369 37.8113 3.71135 38.45C4.04183 38.7513 4.45755 38.8984 4.8721 38.8984C5.34388 38.8984 5.81331 38.7081 6.1543 38.3309L12.584 31.2298L16.2706 31.2286C16.3185 31.2286 16.3617 31.2181 16.4084 31.2146C16.7715 34.0079 18.0105 36.7077 20.1522 38.8494C22.2402 40.9374 24.9061 42.2277 27.7893 42.5979C27.7858 42.6435 27.7753 42.6855 27.7753 42.7322V46.4246L20.6742 52.8461C19.9654 53.4884 19.9105 54.5803 20.5516 55.2903C20.8926 55.6674 21.3632 55.8601 21.8349 55.8601C22.2483 55.8601 22.6629 55.7107 22.9945 55.4117L27.7742 51.0898V55.7959C27.7742 56.7511 28.5484 57.5253 29.5024 57.5253H29.5036C30.4588 57.5253 31.233 56.7523 31.233 55.7971L31.2342 51.0875L36.0103 55.4117C36.3408 55.7106 36.7577 55.8601 37.1699 55.8601C37.6417 55.8601 38.1111 55.6674 38.4533 55.2903C39.0956 54.5838 39.0395 53.4884 38.3318 52.8473L31.2319 46.4235Z" fill="black"/>
</svg>
