<svg width="105" height="55" viewBox="0 0 105 55" fill="none" xmlns="http://www.w3.org/2000/svg">
<g clip-path="url(#clip0_702_144)">
<path d="M4.7612 0.0293762L43.0021 0C45.4215 0.268302 47.3791 2.09354 47.8603 4.49455C48.1378 19.4764 47.8952 34.5013 47.9825 49.5008C47.7827 52.5128 45.7222 54.7258 42.7227 55H5.29087C2.80162 54.8139 0.715926 53.0396 0.168795 50.5838C-0.0562652 35.224 -0.0562652 19.776 0.168795 4.41817C0.659661 2.13663 2.47567 0.399516 4.7612 0.0293762ZM5.32191 1.7234C3.54665 1.8977 2.07211 3.24313 1.80437 5.03311L1.80049 49.7808C2.00808 51.5884 3.38755 53.0377 5.19774 53.212H42.8158C44.6319 53.0181 46.0074 51.5943 46.2131 49.7808V5.21721C45.9745 3.18242 44.4378 1.84286 42.4433 1.69207L5.31997 1.7234H5.32191Z" fill="#272727"/>
<path d="M35.2255 16.7366C35.1964 21.5014 35.8657 26.0234 32.5732 29.899C26.9215 36.5537 16.3417 34.5992 13.4392 26.3739C12.3605 23.3168 12.9348 19.9268 12.7892 16.7366H35.2255ZM22.8433 26.795H25.1715L24.8901 23.8534C26.7624 22.6588 25.2103 19.8563 23.2429 20.7591C22.0148 21.3232 21.9585 23.1856 23.1246 23.8534L22.8433 26.795Z" fill="#272727"/>
<path d="M33.3634 16.0786H31.0352V13.1174C31.0352 12.8922 30.717 11.9326 30.6142 11.6623C28.9689 7.35188 23.6994 5.67548 19.9257 8.38788C17.353 10.2386 16.705 13.0097 16.8835 16.0786H14.6484V12.9294C14.6484 11.6055 15.9755 9.09878 16.835 8.08628C21.0859 3.08059 28.9475 3.78757 32.1663 9.52767C32.597 10.2954 33.3615 12.1774 33.3615 13.0215V16.0766L33.3634 16.0786Z" fill="#272727"/>
<path d="M21.9121 50.2959H20.2358C20.2009 50.2959 20.0864 49.7377 20.003 49.6378C19.8303 49.4263 18.1598 49.5928 17.7815 49.5576L17.3954 50.2959H15.7656L17.8571 44.6537L19.7702 44.6067L21.9102 50.2959H21.9121ZM18.187 48.2278H19.4908C19.4035 47.6226 19.1765 46.945 18.9553 46.3673C18.9165 46.2674 18.9844 46.101 18.7923 46.1597C18.6895 46.191 18.2141 47.9673 18.187 48.2278Z" fill="#272727"/>
<path d="M26.7527 44.5616C26.6945 44.9788 26.8982 45.5526 26.613 45.8777H23.9588V46.7237H26.6595V48.0398H24.0985C23.8424 48.263 23.9937 48.6704 23.9588 48.9798H26.613C26.8982 49.3049 26.6945 49.8787 26.7527 50.2959H22.4707V44.5616H26.7527Z" fill="#272727"/>
<path d="M30.6392 48.9544C30.7091 48.8819 30.7362 48.7644 30.7304 48.6646C30.7168 48.5608 30.6897 48.4746 30.6004 48.41C30.2745 48.175 29.0347 48.0829 28.5011 47.8264C27.6455 47.4151 27.2808 46.5828 27.6106 45.6623C28.2062 44.0094 31.0699 44.1935 32.1506 45.2667L31.3435 46.2459C31.0156 46.1872 30.7925 45.9522 30.4588 45.8484C30.1251 45.7446 28.8484 45.5722 28.9939 46.197C29.1104 46.6983 31.9353 46.5965 32.2243 48.0144C32.7928 50.811 28.796 51.044 27.3545 49.5458L28.1034 48.4256C28.5749 48.9211 30.1173 49.5028 30.6392 48.9564V48.9544Z" fill="#272727"/>
<path d="M24.0527 38.2634C23.7461 38.1929 23.5036 37.905 23.1621 37.8933C22.4171 37.8658 22.0058 38.6296 22.0077 39.2974C24.7472 36.9885 26.181 42.2918 23.1621 42.6737C20.0734 43.0654 19.7649 37.8325 22.0504 36.8514C22.8401 36.5126 24.0177 36.5772 24.5901 37.2764L24.0527 38.2634ZM22.5374 39.9731C21.5983 40.1826 22.0155 41.6671 23.0574 41.3459C23.5851 41.1834 23.6239 39.7302 22.5374 39.9731Z" fill="#272727"/>
<path d="M19.6776 36.7593V37.9814H17.4891C17.2155 38.2536 17.3979 38.7471 17.3494 39.1094C17.621 39.0801 17.7898 38.8137 18.0673 38.755C20.0715 38.3339 20.7486 41.2794 19.2411 42.2899C18.2283 42.9675 16.5947 42.7638 15.8535 41.7905L16.5132 40.8975C16.8081 40.9543 16.9769 41.1951 17.2718 41.3009C19.0373 41.9276 19.0179 39.4992 17.4658 40.0279C17.266 40.0965 17.0157 40.3785 16.9323 40.3902C16.7305 40.4177 16.2047 40.1493 15.9525 40.1435V36.7593H19.6757H19.6776Z" fill="#272727"/>
<path d="M13.3469 41.3655H15.2094C15.1551 41.7552 15.3491 42.2879 15.0697 42.5876H11.2069C11.2554 42.237 11.1137 41.6789 11.2554 41.3675C11.4106 41.0228 12.9103 39.8948 13.3022 39.3934C14.4877 37.8756 12.662 37.3997 11.8122 38.5454L11.0342 37.6367C12.8657 35.3747 16.6529 37.3038 14.4644 40.0965C14.1288 40.5234 13.5428 40.8583 13.3488 41.3675L13.3469 41.3655Z" fill="#272727"/>
<path d="M29.2673 36.7593V38.7334C31.9215 36.5576 32.8528 42.1313 30.6701 42.6404C30.1462 42.7638 29.7349 42.6326 29.4051 42.2116C29.1645 42.1058 29.31 42.5425 29.2673 42.5876H28.0566V36.7593H29.2673ZM30.3558 41.3381C30.802 40.8054 30.6623 39.1133 29.6359 39.4326C29.1315 39.5892 29.1645 40.8603 29.3294 41.25C29.4633 41.5692 30.1113 41.6299 30.3577 41.3381H30.3558Z" fill="#272727"/>
<path d="M36.248 37.2294V38.3574H36.8999V39.4326L36.248 39.4874V41.3205C36.248 41.4693 36.6554 41.6358 36.8067 41.4615C37.0784 42.3271 37.1812 42.7208 36.1102 42.6914C35.5553 42.6777 34.9461 42.3154 34.9461 41.6965V39.4874L34.4785 39.4326V38.3574H34.9461V37.2294H36.2499H36.248Z" fill="#272727"/>
<path d="M33.8288 38.3574H32.6182V42.5876H33.8288V38.3574Z" fill="#272727"/>
<path d="M27.2187 39.9555H25.4492V40.9895H27.2187V39.9555Z" fill="#272727"/>
<path d="M33.0584 36.493C34.0478 36.2854 34.271 37.8659 33.2931 37.9618C32.3541 38.0519 32.2221 36.6693 33.0584 36.493Z" fill="#272727"/>
</g>
<path d="M104.93 23C104.876 31.8817 106.125 40.3106 99.979 47.535C89.4287 59.9394 69.6792 56.2962 64.261 40.9641C62.2473 35.2657 63.3194 28.9467 63.0477 23H104.93Z" fill="#272727"/>
<path d="M101 21H96.6459V15.7782C96.6459 15.3811 96.0508 13.6888 95.8585 13.2122C92.7816 5.61098 82.9267 2.65474 75.8694 7.43791C71.0581 10.7015 69.8462 15.5883 70.18 21H66V15.4467C66 13.1121 68.4819 8.69155 70.0893 6.90606C78.0392 -1.92121 92.7416 -0.674477 98.7612 9.44788C99.5668 10.8017 100.996 14.1205 100.996 15.609V20.9965L101 21Z" fill="#272727"/>
<path d="M73.9289 35.0895V35.7163H72.2976V39.9105H71.6312V35.7163H70V35.0895H73.9289Z" fill="#EEEEEE"/>
<path d="M74.6689 35.0895H75.3422V39.2837H77.9661V39.9105H74.6689V35.0895Z" fill="#EEEEEE"/>
<path d="M80.4236 40C80.0488 40 79.6832 39.938 79.3268 39.814C78.9751 39.6901 78.6651 39.5156 78.3967 39.2906L78.7576 38.781C78.952 38.9646 79.1996 39.1116 79.5004 39.2218C79.8012 39.3274 80.1089 39.3802 80.4236 39.3802C80.8123 39.3802 81.1224 39.309 81.3538 39.1667C81.5851 39.0197 81.7008 38.8269 81.7008 38.5882C81.7008 38.3678 81.5967 38.1956 81.3885 38.0716C81.1802 37.9431 80.8424 37.8444 80.375 37.7755C79.7133 37.6791 79.2366 37.5184 78.9451 37.2934C78.6535 37.0684 78.5078 36.7493 78.5078 36.3361C78.5078 36.079 78.5864 35.8494 78.7438 35.6474C78.9011 35.4454 79.1209 35.287 79.4032 35.1722C79.6855 35.0574 80.0048 35 80.3611 35C80.6897 35 81.0067 35.0551 81.3121 35.1653C81.6222 35.2709 81.8998 35.4224 82.1451 35.6198L81.7911 36.095C81.5967 35.9343 81.3746 35.8104 81.1247 35.7231C80.8748 35.6359 80.6226 35.5923 80.3681 35.5923C80.021 35.5923 79.7364 35.6635 79.5143 35.8058C79.2921 35.9481 79.1811 36.1295 79.1811 36.3499C79.1811 36.5657 79.2783 36.7355 79.4726 36.8595C79.6716 36.9835 79.9955 37.0822 80.4444 37.1556C80.9164 37.2291 81.2913 37.3255 81.5689 37.4449C81.8512 37.5597 82.0572 37.7089 82.1867 37.8926C82.3163 38.0716 82.3811 38.2966 82.3811 38.5675C82.3811 38.8522 82.3001 39.1047 82.1381 39.3251C81.9762 39.5409 81.7471 39.7084 81.4509 39.8278C81.1594 39.9426 80.8169 40 80.4236 40Z" fill="#EEEEEE"/>
<path d="M86.3251 39.27H87.1928V39.9105H84.68V39.27H85.6448V35.8815L84.791 36.1433V35.5096L86.2349 35.0689H86.3251V39.27Z" fill="#EEEEEE"/>
<path d="M88.1905 39.9725C88.0702 39.9725 87.9707 39.9357 87.892 39.8623C87.818 39.7842 87.781 39.6855 87.781 39.5661C87.781 39.4467 87.818 39.3503 87.892 39.2769C87.9707 39.1988 88.0702 39.1598 88.1905 39.1598C88.3108 39.1598 88.4103 39.1988 88.489 39.2769C88.5677 39.3503 88.607 39.4467 88.607 39.5661C88.607 39.6855 88.5677 39.7842 88.489 39.8623C88.4103 39.9357 88.3108 39.9725 88.1905 39.9725Z" fill="#EEEEEE"/>
<path d="M90.1014 39.27H93.2806V39.9105H89.435V38.719C89.435 38.2736 89.6039 37.9293 89.9417 37.686C90.2842 37.438 90.7608 37.314 91.3717 37.314C91.7419 37.314 92.038 37.2406 92.2602 37.0937C92.4869 36.9421 92.6003 36.7424 92.6003 36.4945C92.6003 36.2282 92.4939 36.0193 92.281 35.8678C92.0727 35.7163 91.7812 35.6405 91.4064 35.6405C91.0269 35.6405 90.7238 35.714 90.497 35.8609C90.2703 36.0032 90.1546 36.1961 90.15 36.4394H89.4558C89.479 35.9986 89.6641 35.6543 90.0111 35.4063C90.3582 35.1538 90.8233 35.0275 91.4064 35.0275C91.9848 35.0275 92.4406 35.1584 92.7738 35.4201C93.1117 35.6772 93.2806 36.0308 93.2806 36.4807C93.2806 36.949 93.1163 37.3072 92.7877 37.5551C92.4638 37.803 91.9941 37.927 91.3786 37.927C90.976 37.927 90.6613 37.9959 90.4346 38.1336C90.2124 38.2714 90.1014 38.4665 90.1014 38.719V39.27Z" fill="#EEEEEE"/>
<path d="M97 37.2176V37.8099H95.8963V38.9325H95.2646V37.8099H94.1609V37.2176H95.2646V36.1295H95.8963V37.2176H97Z" fill="#EEEEEE"/>
<defs>
<clipPath id="clip0_702_144">
<rect width="48" height="55" fill="white"/>
</clipPath>
</defs>
</svg>
