<svg xmlns="http://www.w3.org/2000/svg" fill="none" viewBox="0 0 190 50"><path fill="#000" d="m27.76 50-2.13-.19a24.68 24.68 0 0 1-11.86-4.6A24.6 24.6 0 0 1 3.72 29.3v-.96h6.39c.3 1 .53 2.1.92 3a18.14 18.14 0 0 0 5.73 8.09 18.45 18.45 0 0 0 9.16 3.91A18.29 18.29 0 0 0 42.1 38.1a18.06 18.06 0 0 0 5.15-9.49c0-.21 0-.32.34-.32h6.28c-.15.74-.25 1.48-.42 2.1a24.9 24.9 0 0 1-7.54 12.86 25.37 25.37 0 0 1-13.58 6.34c-.79.13-1.6.15-2.38.23h-.24l-1.95.17Zm17.02-10.96-.36.38-.17.16-.28.23 1.37 1.25.19-.23-.64-.7a.46.46 0 0 1 0-.71v-.28l.45-.17.27.21a7 7 0 0 0 .64.47.52.52 0 0 0 .57-.16.5.5 0 0 0 .1-.18s0-.23-.14-.4c-.32.42-.36.44-.68.19l-.57-.48.27-.38-.27-.21-.13.4-.43-.3-.2.28.33.31-.32.32Zm-7.28 6.04c.2-.21.37-.17.56 0l.61.42c.26.23.45.14.66 0l-1.02-.76a.71.71 0 0 0 0-.97.68.68 0 0 0-.9-.23l-1.01.44 1.15 2.44.36-.17-.4-1.17ZM28.56 48c-.3-.84-.6-1.64-.91-2.46 0-.1-.17-.23-.26-.23-.08 0-.23.1-.3.2L26 47.63v.34c.13 0 .38-.13.4-.25a.59.59 0 0 1 .54-.46.6.6 0 0 1 .25.04c.11.02.23.02.34 0a.4.4 0 0 1 .45.2.4.4 0 0 1 .04.17c.15.34.36.45.66.34h-.1Zm-14.75-5.2.3.23.64-.84a.4.4 0 0 1 .5-.11c.05.03.1.06.14.11.23.17.13.36 0 .55l-.62.86.3.2.62-.83a.42.42 0 0 1 .47-.2c.06.01.12.04.17.08.25.18.14.4 0 .6l-.6.85.32.2c.25-.37.53-.69.74-1.04a.65.65 0 0 0-.42-.97h-.4c-.13-.5-.3-.63-.77-.68l-.3-.4-1.09 1.4Zm28.06.97a.9.9 0 0 0 .6-.22.88.88 0 0 0 .3-.56.98.98 0 0 0-.67-1.05.92.92 0 0 0-1.13.48.28.28 0 0 1-.12.11l-.4.13L42.18 45l.32-.23-.64-1Zm-8.05 1.68c.02.48.18.94.45 1.33a.85.85 0 0 0 .93.36.79.79 0 0 0 .62-.76 2.25 2.25 0 0 0-.36-1.47.85.85 0 0 0-1.04-.44c-.28.1-.5.42-.5.98h-.1Zm-9.94 1.77a1.15 1.15 0 0 0 1.3.5.77.77 0 0 0 .55-.67.62.62 0 0 0-.38-.71 2.73 2.73 0 0 1-.49-.3c0-.1-.23-.33-.2-.44a.57.57 0 0 1 .48-.23c.17 0 .34.15.57.25l.26-.17a1.02 1.02 0 0 0-1.13-.46.77.77 0 0 0-.63.58.75.75 0 0 0 .31.79l.51.3c.2.1.38.25.23.46a.66.66 0 0 1-.5.25 1.73 1.73 0 0 1-.62-.32l-.26.17Zm4.85.49a1.18 1.18 0 0 0 1.47.16.78.78 0 0 0 .34-.75.69.69 0 0 0-.5-.6c-.22-.04-.43-.1-.62-.18a.57.57 0 0 1-.24-.36c0-.13.17-.31.28-.31.26-.04.52-.04.79 0l.19-.24a1.2 1.2 0 0 0-1.28-.14.78.78 0 0 0-.41.68.77.77 0 0 0 .41.68l.55.17c.22 0 .43.17.37.44a.44.44 0 0 1-.2.3.45.45 0 0 1-.34.06 2.4 2.4 0 0 1-.57-.2l-.24.29Zm-15.68-9.52-1.07-1.34-2.13 1.64.26.31.92-.69.76.97.28-.25-.73-.95.64-.48.81 1.03.26-.24Zm5.1 6.72c-.63.1-.93-.15-.82-.72l1.2.68a.9.9 0 0 0 0-1.2.96.96 0 0 0-1.27 0 .95.95 0 0 0-.34 1.3.96.96 0 0 0 1.32.34l-.08-.4Zm22.67-.82c-.32.6-.66.71-1.06.33l1.2-.71a.9.9 0 0 0-1.62-.22.94.94 0 0 0-.15.66.99.99 0 0 0 .93.84.96.96 0 0 0 .98-.86l-.28-.04Zm-17.75 1.4c-.36-.14-.36-.14-.57.13l-.68.87-.11-1.44h-.4c0 .6 0 1.12.14 1.67.15.54-.27.73-.78.59l-.1.25c.37.27.65.27.88 0 .54-.72 1.07-1.39 1.62-2.06Zm-10.64-4.4a.97.97 0 0 0 .89-.58.94.94 0 0 0-.23-1.05 1.03 1.03 0 0 0-.7-.3.97.97 0 0 0-.87.6.98.98 0 0 0 .23 1.04 1 1 0 0 0 .68.3Zm32.27.3a.9.9 0 0 0-.6-.86.92.92 0 0 0-.36-.06.97.97 0 0 0-.9.58.94.94 0 0 0-.08.36.92.92 0 0 0 .6.9c.12.04.25.06.38.05a.97.97 0 0 0 .9-.6.94.94 0 0 0 .06-.37Zm-12.2 6.32c.28 0 .45 0 .51-.3l.47-2.1c.02-.18.02-.35 0-.53l-1.72.32v.33l1.23-.2-.49 2.48Zm14.62-8.93c.17-.04.32-.1.45-.2a.76.76 0 0 0 .28-1.04c-.24-.3-.51-.25-.98.1a.81.81 0 0 1-.38 0c0-.12 0-.35.17-.4.17-.03.25-.22.19-.43a.8.8 0 0 0-.54.22.77.77 0 0 0-.23.53.67.67 0 0 0 .28.47h.49c.15 0 .21-.2.32-.26h.34c.02.12.02.24 0 .36a.25.25 0 0 1-.2.17c-.3.13-.27.23-.19.46v.02Zm-26.03 4.9-1.04 2.68.34.15 1.06-2.68-.36-.14Zm-7.15-3.15-1.19 1.33.3.23.47-.53c.42-.46.53-.46 1.04-.1l.21-.28-.83-.65Zm4.7 5.32.35.13c.12-.21.22-.43.32-.65.25-.55.36-.6.93-.4l.2-.36-.73-.1-.36-.24-.7 1.62Z"/><path fill="#7C7C7C" d="M50.76 23.57h-2.83c-.3 0-.4 0-.42-.38a18.6 18.6 0 0 0-4.94-10.89A18.96 18.96 0 0 0 9.94 22.94c0 .63 0 .63-.72.63H3.89c-.36 0-.44 0-.4-.44a25 25 0 0 1 1.47-6.59A24.88 24.88 0 0 1 17.35 2.65 22.86 22.86 0 0 1 25.2.25 33.6 33.6 0 0 1 29.46 0c5.6.17 11 2.17 15.32 5.7a24.96 24.96 0 0 1 8.58 13.79c.3 1.24.4 2.54.6 3.83 0 .23-.11.27-.3.27l-2.9-.02ZM13.62 8.97l.39.16c.34.2.65.38 1.02.55a.37.37 0 0 0 .3 0 .32.32 0 0 0 .1-.25c-.17-.5-.38-1.01-.6-1.52-.3 0-.31.26-.23.47.09.2.21.48.34.82l-.74-.42c-.32-.17-.39-.15-.56.19l-.66.6v.13l.96.97a.28.28 0 0 0 .26 0 .23.23 0 0 0 0-.23c-.11-.15-.26-.28-.37-.4-.1-.13-.36-.38 0-.89l-.2-.18Zm6.64-2.47a1.16 1.16 0 0 0 1.08-.73c.05-.14.08-.3.07-.45 0-.35-.12-.7-.36-.96a1.43 1.43 0 0 0-.94-.47 1.18 1.18 0 0 0-1.06.74c-.06.14-.09.29-.09.44a1.35 1.35 0 0 0 .77 1.36c.17.08.35.13.53.14V6.5Zm3.68-1.32c0 .57-.1.67-.87.54-.19.3-.15.38.17.47a.88.88 0 0 0 .85-.2.86.86 0 0 0 .26-.81c0-.42-.2-.82-.3-1.22-.1-.4 0-.57-.5-.3h-.2a.8.8 0 0 0-.76.46c-.04.1-.07.2-.07.3a.94.94 0 0 0 .45.9.86.86 0 0 0 .97-.08v-.06Zm23.1 6.08c-.64.46-1.26.86-1.83 1.3a.34.34 0 0 0-.13.3c0 .2.23.1.36 0l.64-.42v.31c-.09.2-.19.39-.3.57-.17.25 0 .44.17.61l.54-1h.3a.75.75 0 0 0 .74-.16.6.6 0 0 0 0-.69c0-.27-.3-.53-.5-.82Zm-35.46 2.67c-.79-.12-1.58-.27-2.39-.38a.28.28 0 0 0-.23.13c-.03.1-.03.2 0 .3.28.37.6.73.9 1.1l.61.79h.13v-.42c-.4-.34-.15-.61 0-.93a.36.36 0 0 1 .34-.26l.15.03c.25.02.42-.08.49-.36Zm-2.6 5.56-2.51.4a.32.32 0 0 0-.17.23c.04.1.1.18.17.25l1.83 1.2a.5.5 0 0 0 .21 0c.15-.23.13-.42-.1-.5-.24-.09-.28-.4-.22-.66.07-.25 0-.52.45-.52s.34 0 .34-.4Zm38-3.8c.19.72.42.94.95.87a.9.9 0 0 0 .73-.44.88.88 0 0 0 .02-.84c0-.15-.17-.34-.28-.46-.1-.13-.23-.13-.3 0-.66.29-1.34.6-1.98.94l-.15.28c-.04.08.22 0 .3 0 .24-.08.48-.16.7-.26v-.08Zm3.17 3.48c0-.31-.2-.63-.32-.92a.3.3 0 0 0-.17-.05c-.41.1-.8.21-1.2.36 0 0-.12.17-.2.25.1.03.22.03.33 0 .26 0 .51-.12.77-.16.25-.05.36.27.42.48.07.21-.17.21-.3.25l-.67.21a.4.4 0 0 0-.24.43c.01.06.03.11.06.16.11.21.26.21.43.1.17-.1.21-.56.77-.54.17.13.27.25.38.25.1 0 .15-.15.15-.3 0-.14 0-.1.15-.16l.23-.1v-.3l-.6.04ZM12.7 12.31a.75.75 0 0 0-.36-.63.77.77 0 0 0-.73-.04c-.17 0-.3.19-.45.23a.4.4 0 0 1-.38 0v-.4c0-.13.2 0 .26-.17a.5.5 0 0 0 .1-.3h-.23a.83.83 0 0 0-.62.6.75.75 0 0 0 .23.75.77.77 0 0 0 .77.15l.45-.23h.4c.06.13.06.28 0 .42 0 0-.21 0-.27.17-.07.1-.13.2-.17.31 0 0 .19.13.27.13a1 1 0 0 0 .73-.99Zm-4.26 6.31a1.12 1.12 0 0 0 .96-.4 1.09 1.09 0 0 0 .19-1.03s-.2-.23-.26-.2c-.06.01-.12.1-.12.4a.62.62 0 0 1-.2.74.64.64 0 0 1-.25.12 1.1 1.1 0 0 1-1.15-.45c-.2-.3-.13-.54.26-.94a.35.35 0 0 0 0-.3.2.2 0 0 0-.24 0c-.19.14-.35.31-.47.5a1.25 1.25 0 0 0 .77 1.46c.2.07.4.1.6.08l-.09.02Zm-.83-2.75c.72.36 1.43.67 2.13.99h.23c.02 0 0-.23 0-.28l-.76-.48.2-.46a.67.67 0 0 0-.33-.87.69.69 0 0 0-.94.2c-.16.28-.31.57-.45.88l-.08.02Zm30.46-8.9h.13c.17 0 .42 0 .4-.26-.02-.25-.21-.2-.4-.16a.67.67 0 0 1-.75-.49A1.06 1.06 0 0 1 38 4.9c.36-.16.56 0 .94.32h.32a.25.25 0 0 0 0-.25c-.1-.18-.24-.34-.4-.47a1.27 1.27 0 0 0-1.62.4c-.12.16-.2.35-.22.55a1.08 1.08 0 0 0 .53 1.4c.17.08.35.12.54.12Zm-20.52.3.74-.4a.27.27 0 0 0 .13-.26.85.85 0 0 0-.96-.46.87.87 0 0 0-.55.75 1.13 1.13 0 0 0 .64.93.84.84 0 0 0 1.02-.44.37.37 0 0 0 0-.32c-.15 0-.25 0-.34.15-.08.15-.34.27-.68.04Zm-4.81 4.07c.23-.27.45-.46.62-.7.17-.22 0-.22 0-.26a.79.79 0 0 0-.9-.2.68.68 0 0 0-.27.2.86.86 0 0 0 0 .94.97.97 0 0 0 1 .49.79.79 0 0 0 .63-.68c0-.27 0-.35-.34-.25-.02.42-.23.53-.74.46Zm34.05 2.7.26.38c.06.13.14.26.23.37.08.07.18.1.28.11.19-.16.34-.35.45-.57a.7.7 0 0 0-.08-.53.72.72 0 0 0-.43-.33 1.03 1.03 0 0 0-1.2.6.75.75 0 0 0 .43.98h.34c.04 0 0-.23-.17-.32-.17-.08-.42-.36-.21-.7h.1Zm-1.85-3.8a.77.77 0 0 0-.46-.74.8.8 0 0 0-.3-.07 1 1 0 0 0-.68.27.94.94 0 0 0-.3.65.77.77 0 0 0 .48.74c.1.04.2.06.3.06a.94.94 0 0 0 .85-.9h.11Zm-19.58-6.3c-.1-.01-.18-.01-.28 0l-.3.1a.57.57 0 0 0-.25.7.5.5 0 0 0 .6.34c.27-.07.54-.14.8-.24 0-.31-.1-.63-.16-.95a.67.67 0 0 0-.43-.6.69.69 0 0 0-.72.14c-.24.17-.24.25 0 .42.38-.2.4-.2.63.09h.11Zm14.41 2.1a.95.95 0 0 0-.85.6.92.92 0 0 0-.06.35.77.77 0 0 0 .48.74c.1.04.2.06.3.06a.94.94 0 0 0 .58-.32.92.92 0 0 0 .23-.6.75.75 0 0 0-.46-.8.77.77 0 0 0-.33-.05l.11.02Zm-5.24-1.56a.81.81 0 0 0-.48-.79.84.84 0 0 0-.32-.07.94.94 0 0 0-.62.29.92.92 0 0 0-.26.62.88.88 0 0 0 .8.88.9.9 0 0 0 .83-.58.87.87 0 0 0 .05-.35Zm14.12 12.1a.9.9 0 0 0-.87.54.87.87 0 0 0-.01.66.78.78 0 0 0 .45.44c.1.04.21.05.32.05a.92.92 0 0 0 .86-.54.8.8 0 0 0-.44-1.09.82.82 0 0 0-.31-.06ZM30.63 3.7a2.89 2.89 0 0 0-.66 0 .5.5 0 0 0-.38.59c0 .12.04.23.12.3.08.1.19.14.3.15.3.02.6.02.9 0V3.73c0-.68-.45-.85-.98-.7-.11 0-.15.2-.24.27.11.02.23.02.34 0 .3.11.47.13.6.4ZM40 8.08c.18.25.3.25.47 0 .12-.22.27-.42.45-.59a.54.54 0 0 1 .45 0c.19 0 0 .3 0 .44-.16.22-.31.45-.45.68v.23a.28.28 0 0 0 .26 0c.22-.28.43-.58.61-.88a.52.52 0 0 0-.19-.74l-.47-.36a.3.3 0 0 0-.23 0L40 8.08ZM25.86 3.33c0 .46 0 .96.17 1.45 0 0 .13.15.2.12a.23.23 0 0 0 .16-.14v-.91a.61.61 0 0 1 .3-.27.43.43 0 0 1 .26.25c0 .3 0 .59.15.88.14.3.12.13.19.17.06.05.15-.14.15-.2.02-.35.02-.7 0-1.04a.54.54 0 0 0-.44-.46.56.56 0 0 0-.22 0l-.92.15Zm9.94 2.65c0-.4.26-.78.34-1.2a.46.46 0 0 0-.18-.52 2.53 2.53 0 0 0-.84-.24s-.17 0-.21.15c-.13.4-.28.8-.39 1.2v.27c0 .08.22 0 .26-.19.11-.24.24-.47.38-.7 0-.1.28-.12.43-.18.15-.07.15.27.13.4l-.22.67c-.06.23-.04.32.3.34ZM28.71 4.4l.68-.86c.2-.28.11-.45-.23-.47a3.68 3.68 0 0 0-.68 0l-.24.21c-.08.09.15.13.24.15h.49c-.28.36-.5.61-.68.88-.2.28-.1.47.23.49h.72s.18 0 .24-.15a.74.74 0 0 0-.24-.2 2.15 2.15 0 0 0-.53-.05ZM50 20.73h.17a.8.8 0 0 0 0 .31c.03.1.07.2.13.3 0 0 .25-.15.25-.19 0-.24-.06-.48-.17-.7a.64.64 0 0 0-.53-.1c-.28 0-.3.3-.34.53-.04.23-.13.19-.2.3-.06.1 0-.26 0-.37v-.12a.38.38 0 0 0-.14-.21h-.2a.6.6 0 0 0 0 .77c.15.16.35.26.56.28.3 0 .42-.23.45-.53.02-.3-.09-.14-.07-.27H50ZM17.1 7.79v.12c-.12.2-.29.34-.48.21a1.07 1.07 0 0 1-.4-.52c0-.21.13-.36.34-.38.21-.02.28-.17.21-.36a.78.78 0 0 0-.82.26.76.76 0 0 0-.14.27 1.04 1.04 0 0 0 .6 1.11.82.82 0 0 0 .98-.3c.13-.27.06-.4-.3-.41Zm25.79.23v-.46l-.53.14h-.26c-.04 0 0 .23 0 .44l-.17.24c-.16.16-.3.34-.4.54-.13.26 0 .42.25.55.26.13.3 0 .4-.25l-.31-.15.55-.7h.51l-.04-.35Zm-10.96-4.8c0-.1 0-.27-.13-.32-.13-.04-.2 0-.26.22a.38.38 0 0 1-.2.14c-.22 0-.24.28 0 .36.22.08.16.27.14.44-.02.17 0 .49 0 .72 0 .23.28.36.51.31.23-.04.2-.16.3-.3-.47-.12-.51-.3-.32-.92l.4-.27-.44-.38Zm14.1 6.67-1.86 1.6v.27c0 .1.23 0 .3 0l1.63-1.38c.21-.2.21-.34-.06-.49ZM6.69 18.83h.22l1.89.53a.36.36 0 0 0 .43-.02c0-.19 0-.23-.22-.27l-1.91-.53c-.32-.08-.4 0-.4.3ZM22.45 4.38v-.15s-.14-.17-.25-.19a1.2 1.2 0 0 0-.7.44c.12.42.27.84.42 1.24 0 0 .17 0 .26.13a.7.7 0 0 0 0-.23 4.1 4.1 0 0 0-.2-.59c-.1-.27 0-.46.22-.57l.25-.08Zm20.82 4.08-.96 1.03c-.19.21-.12.34.13.44l.47-.48c.34-.38.38-.38.83-.13 0-.12.36-.2.13-.42-.24-.2-.4-.25-.6-.44Zm-26.99.5c-.32-.42-.61-.8-.93-1.17a.28.28 0 0 0-.26 0v.23l.94 1.22.25-.27Zm16.2-5.5c0 .48-.21.96-.28 1.47 0 0 0 .16.15.18.15.03.2 0 .22-.14 0-.4.12-.82.23-1.22.1-.4-.06-.34-.32-.32v.02Zm-4.9.16v.95c0 .3.13.17.2.25.06.08.17-.17.17-.25.02-.32.02-.63 0-.95 0-.17.12-.46-.2-.46-.31 0-.08.3-.17.44v.02ZM14.81 7.7c.13-.14.28-.25.26-.31-.02-.07-.17-.21-.26-.32-.08-.1-.2.17-.23.28-.02.1.04.16.17.33l.06.02Zm13.05-5.4h-.13c0 .1-.15.2-.12.31.02.1.12.17.2.23.1.06.24-.17.24-.25 0-.08-.19-.21-.25-.32l.06.02Zm5.3.63c-.17-.13-.28-.26-.34-.24-.06.03-.23.15-.23.24 0 .08.15.23.23.25.09.02.13-.15.28-.28l.06.03Z"/><path fill="#000" d="M24.71 33.73a3.5 3.5 0 0 1 2.19-3.25 3.61 3.61 0 0 1 3.89.73 3.52 3.52 0 0 1-2.42 6.06 3.53 3.53 0 0 1-3.4-2.15 3.42 3.42 0 0 1-.26-1.39Zm6.15.2a2.73 2.73 0 0 0-1.36-2.62 2.6 2.6 0 0 0-3.26.8 2.88 2.88 0 0 0 .39 3.7 2.59 2.59 0 0 0 4.25-1.85l-.02-.04Zm-7.1-3.04-.8.72a1.49 1.49 0 0 0-1.53-.55c-.28.05-.55.18-.76.38a.9.9 0 0 0-.15 1.1c.07.11.16.21.27.29.2.12.42.22.64.3.3.12.62.18.92.29.42.08.8.3 1.05.64.27.33.4.75.37 1.17a1.96 1.96 0 0 1-1.55 1.91 2.99 2.99 0 0 1-2.36-.23 5.14 5.14 0 0 1-.75-.55l.81-.67a1.78 1.78 0 0 0 1.62.7 1.3 1.3 0 0 0 1.2-.96.81.81 0 0 0-.43-.88 4.4 4.4 0 0 0-.75-.33c-.32-.13-.66-.21-.98-.36a1.85 1.85 0 0 1-.73-2.95c.24-.29.57-.5.94-.6a3.1 3.1 0 0 1 2.13 0c.3.16.58.35.83.58Zm14.34 4.63.72.53a3.2 3.2 0 0 1-3.34 1.13 3.65 3.65 0 0 1-2.73-3.24A3.57 3.57 0 0 1 37 30.21c.66.16 1.26.51 1.7 1.02l-.74.57a2.13 2.13 0 0 0-1.83-.76 2.48 2.48 0 0 0-2.32 2.1 2.58 2.58 0 0 0 .96 2.82 2.34 2.34 0 0 0 3.17-.37l.17-.07Z"/><path fill="#7C7C7C" d="m31.59 15.28-.51.36h-.11a1.68 1.68 0 0 0-.28-.4 3.38 3.38 0 0 0-3.36-.72 3 3 0 0 0-2.13 2.3 3.06 3.06 0 0 0 1.63 3.4c.4.2.85.32 1.3.34a3.61 3.61 0 0 0 2.9-1.07l.51.35a.74.74 0 0 1-.12.2 4.5 4.5 0 0 1-5.99.16 3.61 3.61 0 0 1 1.75-6.18 4.3 4.3 0 0 1 3.98.88c.15.13.26.38.43.38Zm8.74-1.24 3.54 7.05c-.62.14-.7.1-.96-.38l-.83-1.64a.49.49 0 0 0-.47-.3h-2.6a.43.43 0 0 0-.44.28c-.28.54-.56 1.07-.81 1.6-.26.52-.3.56-1.02.46l3.57-7.05.02-.02Zm0 1.53-1.32 2.57h2.73l-1.4-2.57ZM21.37 21.1c-.7.12-.7.1-.98-.42-.28-.53-.55-1.06-.8-1.6a.46.46 0 0 0-.48-.3h-2.7a.47.47 0 0 0-.47.28c-.25.56-.55 1.11-.83 1.66-.27.54-.34.52-.98.38l3.6-7.03h.13l3.51 7.03Zm-4.96-2.95h2.7l-1.38-2.57-1.32 2.57Zm16.56-.57v-3.11c0-.3 0-.42.36-.4h2.53a1.72 1.72 0 0 1 1.57 1.12c.08.21.1.44.1.67a1.7 1.7 0 0 1-1.02 1.65c-.2.1-.44.15-.67.16h-1.87c-.28 0-.36.1-.36.35v2.66c0 .23 0 .33-.32.33s-.34 0-.34-.33l.02-3.1Zm.66-1.64v.99c0 .17 0 .27.23.27h1.73a1.25 1.25 0 0 0 1.19-.72c.07-.15.1-.31.1-.48a1.15 1.15 0 0 0-.65-1.12 1.2 1.2 0 0 0-.45-.12c-.64-.04-1.28-.04-1.92 0 0 0-.19.15-.19.25 0 .11-.04.62-.04.93ZM22.16 17.6v-3.17c0-.24 0-.36.3-.36s.36 0 .36.36v6.3c0 .26 0 .39-.34.39s-.32-.15-.32-.38V17.6Z"/><path fill="#000" d="M52.68 43.86a1.8 1.8 0 0 1-1.13 1.73 1.93 1.93 0 0 1-2.08-.42 1.88 1.88 0 0 1 1.36-3.23 1.87 1.87 0 0 1 1.73 1.19c.1.23.13.48.12.73Zm-1.83-1.58a1.59 1.59 0 0 0-1.5.91 1.54 1.54 0 0 0 .3 1.72 1.58 1.58 0 0 0 2.6-1.66 1.51 1.51 0 0 0-1.4-.97Zm-19.97-1.75c0-.19.15-.21.32 0a.58.58 0 0 0 .73 0c.15-.13.19-.36.27-.53-.1.06-.2.1-.32.13a.8.8 0 0 1-.83-.27.8.8 0 0 1 0-.87.72.72 0 0 1 .75-.37l.72.1v1.52a.58.58 0 0 1-.44.6 1.05 1.05 0 0 1-1.2-.3Zm.75-1.79a.55.55 0 0 0-.45.54.54.54 0 0 0 .45.53.57.57 0 0 0 .32-.18.54.54 0 0 0-.32-.89Zm-8.05 1.14v.9c0 .07-.12-.1-.12-.17v-1.97l.72-.1a.77.77 0 0 1 .84.93.8.8 0 0 1-.24.43.73.73 0 0 1-.88 0l-.32-.02Zm1.09-.6a.54.54 0 0 0-.17-.36.56.56 0 0 0-.38-.16.54.54 0 0 0-.38.18.53.53 0 0 0-.14.4.5.5 0 0 0 .33.48.5.5 0 0 0 .2.04.58.58 0 0 0 .39-.18c.1-.1.15-.25.15-.4Zm12.32.05a.7.7 0 0 1-.48.72c-.1.03-.2.05-.3.04a.8.8 0 0 1-.56-.23.77.77 0 0 1 0-1.1.8.8 0 0 1 .56-.23.73.73 0 0 1 .75.49c.04.1.05.2.03.31Zm-.76-.57a.52.52 0 0 0-.5.32.5.5 0 0 0-.04.2.52.52 0 0 0 .33.5.54.54 0 0 0 .58-.12.52.52 0 0 0-.37-.9Zm-9.65 1.2-.57.1a.56.56 0 0 1-.7-.3c0-.3 0-.53.47-.6h.53c0-.3-.17-.36-.4-.33a2.1 2.1 0 0 1-.5 0 .7.7 0 0 1 .86-.24c.27 0 .31.36.31.61v.76Zm-.34-.6c-.3 0-.61-.11-.72.27 0 0 .17.2.28.25.1.04.44-.15.44-.53Zm2.37-.83c.2 0 .4.08.55.23a.77.77 0 0 1-.55 1.33.8.8 0 0 1-.56-.23.77.77 0 0 1 0-1.1.8.8 0 0 1 .56-.23Zm.5.78a.52.52 0 0 0-.3-.5.54.54 0 0 0-.6.1.53.53 0 0 0-.16.38.52.52 0 0 0 .34.53c.07.03.14.04.22.04a.52.52 0 0 0 .37-.17.5.5 0 0 0 .14-.38Zm-8.85-.23c-.17-.61-.66 0-.98-.28a.79.79 0 0 1 .9-.23c.27 0 .34.32.34.57v.84a6.14 6.14 0 0 1-1.02-.01.4.4 0 0 1-.28-.37.42.42 0 0 1 .22-.43c.05-.03.1-.04.16-.05.22-.03.44-.04.66-.04Zm0 .27a1.6 1.6 0 0 0-.55 0s-.21.2-.2.25c.06.11.15.2.26.24.3.06.47-.1.5-.49Zm14.86-.5h-.7c-.1 0-.13 0-.17.17-.05.16 0 .12.15.16.14.02.29.07.42.13.1 0 .26.23.26.34a.54.54 0 0 1-.22.42.75.75 0 0 1-.97-.23.8.8 0 0 1 .31 0c.11 0 .22.1.32 0 .11-.1.2-.1.3-.17.1-.07-.15-.2-.23-.23-.09-.05-.24 0-.36-.13a.38.38 0 0 1-.21-.34.38.38 0 0 1 .2-.33.67.67 0 0 1 .9.2Zm3.66.94c-.42.36-.85.38-1.15.1a.86.86 0 0 1 0-1.1c.26-.32.73-.34 1.15 0h-.3a.47.47 0 0 0-.64.12.54.54 0 0 0 0 .72.49.49 0 0 0 .64.12s.13.04.3.04Zm-15.75.02a.8.8 0 0 1-.9.19.8.8 0 0 1-.27-.19.84.84 0 0 1 0-1.09.8.8 0 0 1 .9-.18c.1.04.2.1.27.18h-.3a.5.5 0 0 0-.68.1.54.54 0 0 0 0 .72.47.47 0 0 0 .5.18.47.47 0 0 0 .16-.07c.12.03.22.1.32.16Zm10.75-2.12v.17l-.9 2.31a.46.46 0 0 1 0-.23l.9-2.25Zm-3.92.84.28.15.51-.17v.1s-.1.15-.15.15c-.42 0-.47.34-.47.66v.42-.61l-.17-.7Zm-8.62.06v1.44c-.25 0-.25 0-.25-1.14 0-.3 0-.3.25-.3Zm16.24 6.15-.38-.82c.3-.13.55-.4.91-.23.37.17.24.33.2.38-.23.24-.47.46-.73.67ZM27.46 45.8l.4 1.18h-.96l.56-1.18Zm15.1-2.94a.6.6 0 0 1-.54.56.68.68 0 0 1-.45-.2.67.67 0 0 1-.2-.45.63.63 0 0 1 .58-.57c.17.02.32.1.44.21.11.12.17.28.18.45Zm-6.93 3.32c0 .3-.13.53-.43.61a.45.45 0 0 1-.33-.05.44.44 0 0 1-.2-.26 5.74 5.74 0 0 1-.34-1.18.63.63 0 0 1 .3-.49c.23-.14.47 0 .55.26.09.25.3.73.45 1.11Zm-17.28-1.77-.88-.48a.49.49 0 0 1 .66-.19.47.47 0 0 1 .27.29.46.46 0 0 1-.05.38Zm21.22-.27a.54.54 0 0 1 .23-.67.47.47 0 0 1 .66.16l-.9.51Zm-27.2-3.43a.62.62 0 0 1-.4-.18.6.6 0 0 1-.18-.39.71.71 0 0 1 .66-.6c.15 0 .3.06.4.17.1.1.17.24.18.39a.67.67 0 0 1-.22.43.69.69 0 0 1-.44.18Zm31.97.74a.59.59 0 0 1-.19.38.6.6 0 0 1-.39.16.68.68 0 0 1-.44-.2.67.67 0 0 1-.2-.43.62.62 0 0 1 .57-.55c.18.01.33.08.45.2.12.11.2.27.2.44Z"/><path fill="#7C7C7C" d="M20.96 5.39a.73.73 0 0 1-.42.7.75.75 0 0 1-.28.08 1 1 0 0 1-.62-.35.98.98 0 0 1-.23-.66.7.7 0 0 1 .39-.7.73.73 0 0 1 .27-.08c.25.02.49.14.65.33.17.18.26.43.25.68Zm2.41-.32a.51.51 0 0 1-.33-.17.5.5 0 0 1-.12-.35.42.42 0 0 1 .28-.4.43.43 0 0 1 .17-.02.55.55 0 0 1 .45.54.4.4 0 0 1-.28.38.4.4 0 0 1-.17.02Zm22.97 7.2.66-.46c.08.2.15.43.2.65 0 0-.2.2-.25.19a4.1 4.1 0 0 1-.61-.38ZM9.4 13.93l.91.17-.3.55-.61-.72Zm-2.47 6.38.91-.15-.12.63-.8-.48Zm40.74-4.06a1.2 1.2 0 0 1-.28-.4c0-.21.32-.55.58-.47a.68.68 0 0 1 .4.36c.06.21-.28.5-.7.5ZM8.9 15.97l-.7-.33c.14-.2.3-.37.48-.53.12 0 .23.06.3.15a5.3 5.3 0 0 1-.08.71Zm8.36-9.1c.07-.15.15-.27.26-.39h.4v.13l-.53.25h-.13Zm-4.85 4.2v-.38c.13-.09.27-.15.42-.19v.13l-.42.46v-.02Zm34.73 2.7c.15.06.28.15.39.27v.38h-.1l-.37-.55.09-.1Zm-3.61-3.27c0-.38.27-.71.53-.67.1 0 .2.04.26.11a.4.4 0 0 1 .12.27c0 .25-.3.59-.53.54a1.09 1.09 0 0 1-.38-.25ZM25 4.9l-.21-.31a4 4 0 0 1 .38-.25s.17.14.15.19c-.1.13-.2.26-.32.37Zm15.05 1.83c0 .32-.24.64-.47.64-.24 0-.43-.13-.43-.38a.58.58 0 0 1 .47-.57.37.37 0 0 1 .38.18c.03.04.04.09.05.13Zm-6.32-2.69a.43.43 0 0 1 .4.28.54.54 0 0 1-.11.51c-.1.1-.2.16-.34.18a.45.45 0 0 1-.4-.3.44.44 0 0 1-.02-.16c0-.13.05-.25.14-.34a.5.5 0 0 1 .33-.17Zm14.38 13.34a.52.52 0 0 1 .18-.35c.1-.09.24-.14.38-.13a.41.41 0 0 1 .3.1.4.4 0 0 1 .12.3.59.59 0 0 1-.57.48.4.4 0 0 1-.29-.11.4.4 0 0 1-.12-.29ZM30.5 4.15c0 .25-.17.42-.43.38-.25-.05-.19-.2-.17-.24.03-.04.45-.19.6-.14Z"/><path fill="#000" d="M50.53 44.9h-.38v-2.1h.95c.14 0 .27.04.37.13.1.08.17.2.19.34a.56.56 0 0 1-.3.73h-.15l.51.87a.38.38 0 0 1-.55-.24 2.29 2.29 0 0 0-.3-.48 1.3 1.3 0 0 0-.34-.23v.99Zm0-1.89v.1c0 .2 0 .47.13.53a.8.8 0 0 0 .57 0v-.29s-.42-.25-.64-.34h-.06Z"/><path fill="#686868" d="M0 24.47h57v3.08H0v-3.08Z"/><path fill="#272727" d="M126.16 20.24a7.7 7.7 0 0 0-2.9-3.51c-3.78-2.42-9.54-2.59-13.43-.4a7.85 7.85 0 0 0-3.95 5.46c-.8 3.65-.59 7.99 2.2 10.72 3.26 2.87 8 3.5 12.2 2.33.2-.04.84-.2 1.28-.44l.12-.05a8.62 8.62 0 0 0 3.5-2.64c2.14-3.17 2.29-7.91.98-11.47m-6.86 8.19c-.15.69-.6 1.4-1.34 1.66a4.54 4.54 0 0 1-3.8-.22c-.9-.64-1.02-1.7-1.14-2.7-.08-1.99-.23-4.09.32-5.9.44-1.12 1.63-1.41 2.7-1.5 1.14 0 2.24.18 2.94 1.1.44.66.41 1.52.5 2.3-.04 1.63.11 3.59-.18 5.26ZM84.86 30.2c-.96-.06-2.03.03-2.96-.09l.03-10.09.06-.08 2.87-.03c.03-1.64.06-3.4-.03-4.89L73.88 15l-1.8.03c-.03 1.52-.03 3.3 0 4.86.99.03 1.91 0 2.87.09v9.77l-.02.4-2.88.06a62.53 62.53 0 0 0 0 4.75h12.81V30.2Zm32.26 6.9a22.37 22.37 0 0 1-4.44 4.77c-.06.1-.24.06-.3-.03-.72-.45-1.5-.83-2.2-1.29a23.93 23.93 0 0 0 2.53-3.48h-.9c-.73 1.07-1.49 2.19-2.45 3.13a31.28 31.28 0 0 0-3.75-1.32l-.14-.11c.2-.58.58-1.13.7-1.7h-.79l-.78 1.55c-1.72-.37-3.6-.58-5.35-.69-.09-.26.03-.63-.09-.86h-.75c-.06.34.08.6-.1.9-1.8.07-3.54.28-5.22.63l-.79-1.53c-.28 0-.6-.06-.8.03l.72 1.7-.1.08c-1.3.38-2.57.83-3.83 1.35l-.11-.06c-.82-.89-1.6-1.86-2.24-2.84-.15-.49-.73-.2-1.05-.26.7 1.27 1.63 2.39 2.56 3.54-.79.46-1.57.97-2.39 1.35a21.2 21.2 0 0 1-4.59-4.86c-.34-.05-.57-.03-.93 0a22.84 22.84 0 0 0 8.75 7.85s0-.03.03-.03.09.06.03.09a23.9 23.9 0 0 0 7.32 2.27 22.82 22.82 0 0 0 22.38-10.18 4.82 4.82 0 0 0-.93 0M105 39.7l.09-.06c1.25.29 2.44.69 3.55 1.23a18.28 18.28 0 0 1-3.23 2.76c-.67.4-1.34.84-2.04 1.18l-1.24-.54.08-.2a34.44 34.44 0 0 0 2.8-4.37Zm-5.72-.87c1.66.04 3.31.2 4.85.58l.03.09a29.53 29.53 0 0 1-2.93 4.45c-.5.06-.96-.14-1.46-.17l-.5-.06c-.05-1.7-.08-3.19 0-4.89Zm-5.6.52a25.1 25.1 0 0 1 4.7-.52l.03 4.87c-.61.14-1.28.14-1.86.28a25.62 25.62 0 0 1-3.02-4.51l.14-.12Zm-4.69 1.56c1.14-.55 2.33-.96 3.54-1.27l.12.03c.84 1.58 1.9 3.07 2.94 4.57-.4.23-.9.37-1.3.6a19.58 19.58 0 0 1-5.3-3.85v-.08Zm3.75 4.91a20.58 20.58 0 0 1-6.8-3.22v-.09c.7-.42 1.4-.89 2.15-1.2a29.7 29.7 0 0 0 5.23 4.05c-.14.17-.38.35-.58.46Zm10.78.37c-3.08.67-6.51.7-9.59-.05-.06-.15.15-.18.23-.26 2.7-1.76 6.92-1.76 9.56.14.1.17-.14.12-.2.17Zm2.8-.8-1.38.43c-.23-.11-.43-.29-.63-.46l.05-.09a25.82 25.82 0 0 0 5.15-4c.78.32 1.54.76 2.24 1.24a19.6 19.6 0 0 1-5.44 2.88Zm-25.9-32.58c.72-1 1.5-1.95 2.35-2.84.75-.72 1.45-1.4 2.27-1.93.76.49 1.6.9 2.32 1.35-.9 1.12-1.83 2.25-2.5 3.45.2.1.59.06.88 0 .72-1.06 1.5-2.12 2.44-3.07 1.25.46 2.47.94 3.75 1.3l.11.1-.72 1.67c.32.06.52.03.84 0 .26-.48.46-1.03.75-1.52 1.69.37 3.46.57 5.26.63.24.2.06.63.15.9h.78c.09-.3-.03-.61.09-.87 1.69-.09 3.46-.26 5.1-.66l.13.03.79 1.49c.26 0 .6.06.81-.06l-.73-1.66.06-.06c1.34-.35 2.59-.86 3.87-1.38.9.95 1.74 2.07 2.5 3.16.32 0 .64.03.87-.06-.36-.64-.78-1.25-1.25-1.81-.38-.55-.81-1.07-1.28-1.55v-.15l2.03-1.17.3-.12a21.31 21.31 0 0 1 4.59 4.8c.35 0 .64.12.93-.02a22.99 22.99 0 0 0-17.26-10.18l-.03.06-.06-.06c-.79-.08-1.75-.12-2.6-.03-.31-.03-.69 0-1.07.03a22.75 22.75 0 0 0-17.4 10.26c.29-.03.64.1.93-.03m12.06-2.52-.12.02a23.1 23.1 0 0 1-3.46-1.17l.06-.18A22.8 22.8 0 0 1 94.1 5.2c.44.17.88.31 1.31.52l-.08.22c-1.11 1.39-1.98 2.88-2.85 4.35Zm5.78.77c-.81.12-1.54-.02-2.35-.09-.79-.11-1.78-.2-2.56-.46.84-1.57 1.83-3.1 3.02-4.5l1.86.25c.09 1.5.03 3.22.03 4.8Zm.9.03a85.35 85.35 0 0 1 0-4.8l1.8-.26a24.87 24.87 0 0 1 3 4.48 20.4 20.4 0 0 1-4.8.58m9.27-2.01a19 19 0 0 1-3.54 1.2 48.53 48.53 0 0 0-3-4.51c.4-.23.9-.4 1.34-.63 1.9.95 3.72 2.3 5.26 3.85l-.06.09Zm-3.72-4.92c2.44.64 4.74 1.73 6.83 3.22l-.06.12-2 1.12h-.15a25.35 25.35 0 0 0-5.17-3.97c.06-.2.35-.34.55-.49Zm-1.16-.29v.06a8.83 8.83 0 0 1-9.3.32c-.15-.12-.43-.17-.47-.38 3.09-.71 6.72-.77 9.77 0ZM85.82 7.44a20.84 20.84 0 0 1 6.02-3.05c.09-.09.14-.17.26-.17v.06c.23.05.4-.2.6-.03.18.14.39.26.53.4a29.6 29.6 0 0 0-5.2 4.05 9.56 9.56 0 0 1-2.2-1.2v-.06Zm12.47 23c-2.73.75-5.7.17-7.67-1.9-.23-.29-.38-.63-.61-.92l-3.93.03c-.06 2.33-.08 5 0 7.3l4.36-.02.06-1.38c.5.23 1 .51 1.48.77 3.03 1.27 6.92 1.55 9.91 0a5.92 5.92 0 0 0 3.02-6.04c-.31-2.44-2.64-4.65-5-5.26l-7.03-2.04-.52-.26c-.23-.2-.38-.45-.32-.77.55-.95 1.83-.66 2.8-.64 2.03.3 4.12.98 5.31 2.85 1.28 0 2.76.03 4.15-.03.06-2.36-.02-4.43-.05-6.81a65.98 65.98 0 0 0-4.22.03c-.06.34.06.83-.09 1.17l-1.33-.72c-3.2-1.35-7.68-1.49-10.58.61-1.89 1.38-2.47 3.85-1.98 6.04.38 2.06 2.36 3.59 4.25 4.3 2.58.93 5.28 1.6 7.9 2.48.26.12.61.38.56.7 0 .25-.27.4-.47.5Zm44.91-3.08v1.47h7.43V30h-8.65v-2.64c0-2 1.61-3.15 4.36-3.15 1.91 0 3.07-.8 3.07-2.11 0-1.35-1.14-2.18-3.02-2.18-1.88 0-3.08.79-3.1 2.05h-1.25c.07-1.98 1.73-3.18 4.35-3.18 2.6 0 4.25 1.27 4.25 3.3 0 2.1-1.51 3.25-4.27 3.25-2 0-3.17.72-3.17 2.02Zm8.78-8.42h8.3v.77L154.65 30h-1.39l5.44-9.9h-6.72v-1.16Zm14.14 11.22c-2.75 0-4.64-1.82-4.64-4.4v-2.62c0-2.58 1.9-4.38 4.64-4.38 2.74 0 4.63 1.8 4.63 4.38v2.62c0 2.58-1.9 4.4-4.63 4.4Zm0-1.17c2.03 0 3.4-1.33 3.4-3.23v-2.62c0-1.9-1.37-3.2-3.4-3.2-2.02 0-3.41 1.3-3.41 3.2v2.62c0 1.9 1.39 3.23 3.41 3.23Zm11.27 1.17c-2.75 0-4.65-1.82-4.65-4.4v-2.62c0-2.58 1.9-4.38 4.65-4.38 2.74 0 4.63 1.8 4.63 4.38v2.62c0 2.58-1.9 4.4-4.63 4.4Zm0-1.17c2.03 0 3.4-1.33 3.4-3.23v-2.62c0-1.9-1.38-3.2-3.4-3.2s-3.41 1.3-3.41 3.2v2.62c0 1.9 1.39 3.23 3.41 3.23Zm9.74-.16h2.07V30h-5.55v-1.17h2.24v-8.47l-1.99.57v-1.16l3.07-.88h.16v9.94Z"/></svg>