<svg width="60" height="61" viewBox="0 0 60 61" fill="none" xmlns="http://www.w3.org/2000/svg">
<g clip-path="url(#clip0_99_823)">
<path d="M24.7266 50.0774V44.218H7.03125C5.09273 44.218 3.51562 42.6409 3.51562 40.7024V19.843C3.51562 17.9045 5.09273 16.3274 7.03125 16.3274H37.3828V9.64771C37.3828 8.67739 36.5953 7.88989 35.625 7.88989H11.25C10.2797 7.88989 9.49219 8.67739 9.49219 9.64771V12.8118H7.03125C3.15422 12.8118 0 15.966 0 19.843V40.7024C0 44.5794 3.15422 47.7336 7.03125 47.7336H9.49219V50.0774H24.7266Z" fill="black"/>
<path d="M9.50146 53.593C9.68428 57.3067 12.7651 60.2727 16.5233 60.2727H28.4296C26.6226 58.5055 25.3569 56.1875 24.9081 53.593H9.50146Z" fill="black"/>
<path d="M9.49219 40.7024H24.7266V39.6477C24.7266 36.7403 27.0926 34.3743 30 34.3743H37.3828V19.843H9.49219V40.7024Z" fill="black"/>
<path d="M32.6953 2.03052C32.6953 1.06021 31.9078 0.272705 30.9375 0.272705H15.9375C14.9672 0.272705 14.1797 1.06021 14.1797 2.03052V4.37427H32.6953V2.03052Z" fill="black"/>
<path d="M54.8438 37.8899H50.625H30C29.0297 37.8899 28.2422 38.6774 28.2422 39.6477V51.4836C28.2422 56.3305 32.1844 60.2727 37.0313 60.2727H43.5938C48.4406 60.2727 52.3828 56.3305 52.3828 51.4836V41.4055H54.8438C55.7484 41.4055 56.4844 42.1415 56.4844 43.0461V50.8977C56.4844 51.8685 57.2714 52.6555 58.2422 52.6555C59.213 52.6555 60 51.8685 60 50.8977V43.0461C60 40.2029 57.687 37.8899 54.8438 37.8899Z" fill="black"/>
<path d="M48.4599 30.6724L48.1153 31.3616C47.6812 32.23 48.0331 33.2858 48.9014 33.72C49.1537 33.8462 49.4219 33.906 49.6861 33.906C50.3309 33.906 50.9517 33.5498 51.2597 32.9339L51.6044 32.2447C52.2978 30.8577 52.0269 29.1889 50.9304 28.0923C50.9056 28.0673 50.8994 28.0295 50.9151 27.998L51.2596 27.3088C51.6938 26.4404 51.3419 25.3846 50.4735 24.9504C49.6055 24.5162 48.5494 24.8681 48.1152 25.7365L47.7706 26.4257C47.0772 27.8127 47.348 29.4814 48.4445 30.5781C48.4694 30.603 48.4756 30.641 48.4599 30.6724Z" fill="black"/>
<path d="M41.8974 25.0474L41.5528 25.7365C41.1187 26.6049 41.4706 27.6608 42.3389 28.0949C42.5912 28.2212 42.8594 28.2809 43.1236 28.2809C43.7684 28.2809 44.3892 27.9248 44.6972 27.3089L45.0419 26.6197C45.7353 25.2326 45.4644 23.5639 44.3679 22.4672C44.3431 22.4423 44.3369 22.4044 44.3526 22.3729L44.6971 21.6837C45.1313 20.8154 44.7794 19.7595 43.911 19.3253C43.0431 18.8913 41.9869 19.2431 41.5527 20.1114L41.2081 20.8006C40.5147 22.1876 40.7855 23.8564 41.882 24.953C41.9069 24.978 41.9131 25.016 41.8974 25.0474Z" fill="black"/>
</g>
<defs>
<clipPath id="clip0_99_823">
<rect width="60" height="60" fill="white" transform="translate(0 0.272705)"/>
</clipPath>
</defs>
</svg>
