<svg width="52" height="59" viewBox="0 0 52 59" fill="none" xmlns="http://www.w3.org/2000/svg">
<path d="M28.1904 9.86686V7.89819H22.7274V9.86697C24.5557 9.66976 26.3646 9.67022 28.1904 9.86686Z" fill="black"/>
<path d="M7.1413 11.406L5.87635 10.0962L0.636719 15.156L1.90167 16.4659C3.13554 15.2744 5.83751 12.6652 7.1413 11.406Z" fill="black"/>
<path d="M25.459 56.1543C13.9113 56.1543 4.5177 46.7551 4.5177 35.213C4.5177 23.6653 13.9169 14.2717 25.459 14.2717C37.0067 14.2717 46.4003 23.6708 46.4003 35.213C46.4003 37.1379 46.1395 39.0356 45.6259 40.8693C46.5385 41.0509 47.4056 41.358 48.2111 41.7699C48.8217 39.6486 49.1317 37.4484 49.1317 35.2131C49.1317 22.0889 38.4744 11.5403 25.4589 11.5403C12.4112 11.5402 1.78625 22.1176 1.78625 35.213C1.78625 48.2662 12.4057 58.8857 25.459 58.8857C28.9681 58.8857 32.4483 58.0994 35.5949 56.6085C35.0565 55.8759 34.6155 55.0681 34.2905 54.2034C31.5416 55.4812 28.5113 56.1543 25.459 56.1543Z" fill="black"/>
<path d="M5.13123 15.8785L6.91262 17.7236C7.32886 17.282 7.7611 16.8551 8.2083 16.4437L6.44119 14.6135L5.13123 15.8785Z" fill="black"/>
<path d="M50.2814 15.3606L45.0418 10.3005L43.7769 11.6104C44.2757 12.0921 48.1845 15.8669 49.0165 16.6704L50.2814 15.3606Z" fill="black"/>
<path d="M44.1017 17.8274L45.7864 16.0826L44.4765 14.8176L42.8142 16.5395C43.2591 16.9534 43.6879 17.3835 44.1017 17.8274Z" fill="black"/>
<path d="M18.7821 6.07727H32.136C32.9727 6.07727 33.6534 5.39652 33.6534 4.55981V2.13183C33.6534 1.29501 32.9727 0.614258 32.136 0.614258H18.7821C17.9454 0.614258 17.2646 1.29501 17.2646 2.13172V4.55969C17.2645 5.39652 17.9453 6.07727 18.7821 6.07727Z" fill="black"/>
<path d="M43.6688 42.4968C39.1504 42.4968 35.4744 46.1728 35.4744 50.6913C35.4744 55.2097 39.1504 58.8856 43.6688 58.8856C48.1873 58.8856 51.8633 55.2096 51.8633 50.6912C51.8633 46.1727 48.1873 42.4968 43.6688 42.4968ZM43.6688 49.7808C45.175 49.7808 46.4003 51.0062 46.4003 52.5122C46.4003 53.6991 45.639 54.7112 44.5792 55.087V56.1542C44.5792 56.657 44.1717 57.0647 43.6687 57.0647C43.1657 57.0647 42.7582 56.6571 42.7582 56.1542V55.2437H41.8477C41.3448 55.2437 40.9371 54.8361 40.9371 54.3331C40.9371 53.8302 41.3447 53.4226 41.8477 53.4226H43.6687C44.1708 53.4226 44.5792 53.0141 44.5792 52.5121C44.5792 52.01 44.1708 51.6016 43.6687 51.6016C42.1626 51.6016 40.9373 50.3762 40.9373 48.8701C40.9373 47.6832 41.6986 46.6711 42.7583 46.2953V45.2282C42.7583 44.7253 43.1659 44.3176 43.6688 44.3176C44.1718 44.3176 44.5793 44.7252 44.5793 45.2282V46.1387H45.4899C45.9927 46.1387 46.4004 46.5462 46.4004 47.0492C46.4004 47.5522 45.9928 47.9597 45.4899 47.9597H43.6688C43.1668 47.9597 42.7583 48.3682 42.7583 48.8702C42.7583 49.3723 43.1668 49.7808 43.6688 49.7808Z" fill="black"/>
<path d="M25.459 34.3025C25.2096 34.3025 24.9834 34.4034 24.8188 34.5664C24.8146 34.571 24.8108 34.576 24.8065 34.5805C24.8043 34.5828 24.8019 34.5846 24.7996 34.5869C24.6444 34.7503 24.5485 34.9704 24.5485 35.213C24.5485 35.4617 24.6489 35.6873 24.8111 35.8517C24.8155 35.8558 24.8203 35.8594 24.8246 35.8636C24.8271 35.8661 24.8293 35.8689 24.8318 35.8714C24.9953 36.0272 25.216 36.1235 25.459 36.1235C25.961 36.1235 26.3695 35.7151 26.3695 35.213C26.3695 34.711 25.961 34.3025 25.459 34.3025Z" fill="black"/>
<path d="M43.6689 40.6758C43.7083 40.6758 43.7471 40.6783 43.7864 40.6788C44.2266 39.2007 44.4846 37.6743 44.5572 36.1233H42.7583C42.2555 36.1233 41.8478 35.7158 41.8478 35.2128C41.8478 34.7099 42.2554 34.3023 42.7583 34.3023H44.5571C44.3409 29.7155 42.5017 25.5463 39.6013 22.3581L38.3352 23.6242C37.9795 23.9797 37.4032 23.9798 37.0475 23.6242C36.6919 23.2685 36.6919 22.6921 37.0475 22.3365L38.3136 21.0704C35.1255 18.17 30.9562 16.3308 26.3694 16.1147V17.9135C26.3694 18.4164 25.9619 18.824 25.4589 18.824C24.9559 18.824 24.5484 18.4165 24.5484 17.9135V16.1147C19.9616 16.3309 15.7924 18.1701 12.6042 21.0704L13.8703 22.3365C14.2259 22.6922 14.2259 23.2687 13.8703 23.6242C13.5146 23.9797 12.9383 23.9798 12.5826 23.6242L11.3165 22.3581C8.4161 25.5462 6.57689 29.7155 6.36072 34.3023H8.15948C8.66233 34.3023 9.07 34.7099 9.07 35.2128C9.07 35.7158 8.66244 36.1233 8.15948 36.1233H6.36095C6.57712 40.7101 8.41633 44.8794 11.3168 48.0675L12.5829 46.8014C12.9385 46.446 13.515 46.446 13.8705 46.8014C14.2261 47.1571 14.2261 47.7335 13.8705 48.0891L12.6045 49.3552C15.7925 52.2556 19.9619 54.0948 24.5486 54.3109V52.5121C24.5486 52.0093 24.9562 51.6016 25.4591 51.6016C25.9621 51.6016 26.3697 52.0092 26.3697 52.5121V54.3092C28.9518 54.1858 31.4938 53.5399 33.8057 52.4182C33.7076 51.8568 33.6536 51.2803 33.6536 50.6912C33.6535 45.1688 38.1464 40.6758 43.6689 40.6758ZM28.0339 36.1233C27.658 37.1831 26.6461 37.9444 25.459 37.9444C25.0503 37.9444 24.6625 37.8536 24.314 37.6919L16.7633 45.4389C16.4121 45.7995 15.8355 45.806 15.4759 45.4555C15.1157 45.1045 15.1083 44.528 15.4593 44.168L23.0101 36.421C22.8296 36.0565 22.7276 35.6465 22.7276 35.2129C22.7276 34.8069 22.8173 34.4217 22.9769 34.0749L14.9313 26.2762C14.5701 25.9262 14.5612 25.3497 14.9113 24.9888C15.2613 24.6279 15.8378 24.619 16.1987 24.9687L24.2442 32.7676C24.6104 32.5849 25.0228 32.4816 25.459 32.4816C26.6459 32.4816 27.658 33.2429 28.0339 34.3026H36.3849C36.8878 34.3026 37.2955 34.7102 37.2955 35.2132C37.2955 35.7161 36.8879 36.1237 36.3849 36.1237H28.0339V36.1233Z" fill="black"/>
</svg>
