<svg width="60" height="60" viewBox="0 0 60 60" fill="none" xmlns="http://www.w3.org/2000/svg">
<path d="M59.9696 35.8347C60.02 35.9097 60.02 36.0503 59.8524 36.0526H57.5099C57.32 36.0526 57.245 35.9753 57.17 35.8499L54.6751 31.3651H52.4075C51.2849 31.3651 50.87 31.7073 50.87 32.462V36.0526H48.6153C48.4126 36.0526 48.313 35.9519 48.313 35.7503V24.5976C48.313 24.0046 48.6399 23.7397 49.5106 23.7397H54.7771C57.8403 23.7397 59.6931 24.5472 59.6931 27.5319C59.6931 29.837 58.5821 30.7452 57.2099 31.0979L59.9696 35.8347ZM57.1103 27.58C57.1103 26.3319 56.7575 25.7144 55.1579 25.7144H50.8724V29.4444H55.1579C56.7575 29.4444 57.1103 28.8421 57.1103 27.58Z" fill="black"/>
<path d="M43.7694 23.7351C43.8726 23.7351 43.9101 23.7878 43.8726 23.8875L43.2046 25.5375C43.1425 25.6769 43.0546 25.7402 42.8647 25.7402H35.8429V28.8269H41.7022C41.8019 28.8269 41.8394 28.8773 41.8019 28.9769L41.1597 30.5648C41.0976 30.7054 41.0097 30.7675 40.8198 30.7675H37.3804C36.2577 30.7675 35.8429 31.1097 35.8429 31.8644V34.0453H43.7671C43.8702 34.0453 43.9077 34.0945 43.8702 34.1953L43.2022 35.8453C43.1401 35.9847 43.0522 36.048 42.8624 36.048H34.2046C33.5378 36.048 33.2847 35.8195 33.2847 35.3144V24.5929C33.2847 24 33.6128 23.7351 34.4823 23.7351H43.7694Z" fill="black"/>
<path d="M26.5171 29.5606C27.9022 29.925 28.5327 31.1731 28.5327 32.645C28.5327 35.1024 26.7948 36.0481 24.362 36.0481H17.9097C17.2429 36.0481 16.9897 35.8231 16.9897 35.318V24.5954C16.9897 24.0024 17.3179 23.7375 18.1874 23.7375H23.4327C25.7249 23.7375 27.9421 24.1395 27.9421 26.8629C27.9421 28.0348 27.5249 29.0297 26.5171 29.5606ZM25.9499 32.4071C25.9499 31.2751 25.548 30.7196 24.0972 30.7196H21.0854C19.9651 30.7196 19.5479 31.0606 19.5479 31.8153V34.07H24.0972C25.548 34.07 25.9499 33.5403 25.9499 32.4071ZM25.3604 27.2895C25.3604 26.2278 24.9796 25.7145 23.6202 25.7145H19.5479V28.8645H23.6202C24.9819 28.8645 25.3604 28.3524 25.3604 27.2895Z" fill="black"/>
<path d="M12.0445 23.7375V31.0571C12.0445 34.9149 9.58711 36.2625 6.02227 36.2625C2.45742 36.2625 0 34.9125 0 31.0571V24.0399C0 23.8395 0.0996094 23.7375 0.302344 23.7375H2.60742V30.9446C2.60742 33.2497 3.62695 34.2071 6.02227 34.2071C8.41758 34.2071 9.43711 33.2497 9.43711 30.9446V24.0399C9.43711 23.8395 9.53789 23.7375 9.73945 23.7375H12.0445Z" fill="black"/>
</svg>
