<svg width="60" height="58" viewBox="0 0 60 58" fill="none" xmlns="http://www.w3.org/2000/svg">
<path d="M11.1718 49.0206C13.7369 49.0206 15.8163 47.0105 15.8163 44.5309C15.8163 42.0514 13.7369 40.0413 11.1718 40.0413C8.60675 40.0413 6.52734 42.0514 6.52734 44.5309C6.52734 47.0105 8.60675 49.0206 11.1718 49.0206Z" fill="black"/>
<path d="M11.1717 49.0205C6.86475 49.0205 3.36084 52.4076 3.36084 56.571C3.36084 57.3602 4.0226 57.9999 4.83893 57.9999H17.5047C18.321 57.9999 18.9828 57.3602 18.9828 56.571C18.9826 52.4077 15.4787 49.0205 11.1717 49.0205Z" fill="black"/>
<path d="M46.5625 45.1896C50.0702 44.3881 52.2415 40.9897 51.4124 37.599C50.5832 34.2083 47.0676 32.1093 43.56 32.9108C40.0523 33.7123 37.881 37.1108 38.7102 40.5015C39.5393 43.8922 43.0549 45.9911 46.5625 45.1896Z" fill="black"/>
<path d="M45.0624 45.3804C38.7182 45.3804 33.5569 50.3696 33.5569 56.5023C33.5569 57.3294 34.2505 57.9999 35.1061 57.9999H55.0186C55.8742 57.9999 56.5678 57.3294 56.5678 56.5023C56.5678 50.3696 51.4065 45.3804 45.0624 45.3804Z" fill="black"/>
<path d="M28.2421 27.9009V41.7404C28.2421 42.8106 27.3413 43.6813 26.2342 43.6813C25.1271 43.6813 24.2264 42.8106 24.2264 41.7404C24.2264 40.802 23.4394 40.0412 22.4686 40.0412C21.4978 40.0412 20.7108 40.802 20.7108 41.7404C20.7108 44.6845 23.1886 47.0797 26.2342 47.0797C29.2798 47.0797 31.7577 44.6845 31.7577 41.7404V27.9009C31.1821 27.8098 30.5951 27.7607 29.9999 27.7607C29.4047 27.7607 28.8177 27.8098 28.2421 27.9009Z" fill="black"/>
<path d="M39.5391 27.9081V27.1799C39.5391 19.6663 38.4043 12.6276 36.3438 7.36034C34.541 2.75149 32.1695 0 30 0C27.8305 0 25.459 2.75149 23.6561 7.36034C21.5955 12.6276 20.4609 19.6663 20.4609 27.1799V27.9081C25.8601 23.1806 34.1399 23.1806 39.5391 27.9081Z" fill="black"/>
<path d="M36.8085 0.802734C37.8524 2.24265 38.8022 4.03623 39.6323 6.15833C41.8393 11.8002 43.0548 19.2659 43.0548 27.1799V27.9244C46.5532 25.0293 51.8096 25.1849 55.1166 28.3814C55.6192 28.8674 56.3755 29.0127 57.0322 28.7497C57.6891 28.4867 58.1174 27.8671 58.1174 27.1798C58.1173 14.4206 49.0486 3.74091 36.8085 0.802734Z" fill="black"/>
<path d="M1.88269 27.1798C1.88269 27.8671 2.31089 28.4867 2.96785 28.7497C3.62457 29.0127 4.38089 28.8674 4.88351 28.3814C8.19031 25.1849 13.4468 25.0293 16.9453 27.9244V27.1799C16.9453 19.2658 18.1607 11.8001 20.3677 6.15833C21.1978 4.03635 22.1477 2.24277 23.1916 0.802734C10.9514 3.7408 1.88269 14.4205 1.88269 27.1798Z" fill="black"/>
</svg>
