<svg width="90" height="45" viewBox="0 0 90 45" fill="none" xmlns="http://www.w3.org/2000/svg">
<path d="M73.9159 19.1652V16.1755C72.5754 16.0732 71.3141 15.9199 70.1315 15.7155C68.9488 15.5111 67.7265 15.23 66.4652 14.8722C65.2034 14.5145 64.0207 14.1312 62.9173 13.7223C61.8133 13.2624 60.7093 12.6746 59.6059 11.9591L48.1339 4.59966L55.4664 0L90 22.4617L55.4664 45L48.1339 40.3237L59.1328 33.2709C60.4727 32.4532 61.7737 31.7887 63.0356 31.2777C64.2969 30.7666 65.5582 30.3578 66.82 30.0511C68.0027 29.7445 69.1853 29.4889 70.368 29.2845C71.5506 29.0289 72.7333 28.8756 73.9159 28.8245V25.8348H0V19.1652H73.9159Z" fill="#272727"/>
</svg>
