<svg width="60" height="60" viewBox="0 0 60 60" fill="none" xmlns="http://www.w3.org/2000/svg">
<path fill-rule="evenodd" clip-rule="evenodd" d="M5.4646 10.7894C5.4646 9.53815 6.37931 8.47474 7.61648 8.28757C13.4381 7.38557 18.5361 4.78616 22.5315 1.97886C22.7147 1.84969 22.9333 1.78039 23.1574 1.78039C25.1228 1.78027 34.8772 1.78027 36.8426 1.78027C37.0667 1.78027 37.2853 1.84969 37.4685 1.97886C41.4639 4.78616 46.5619 7.38557 52.3827 8.29321C53.6171 8.48004 54.5297 9.54098 54.5297 10.7894C54.5354 16.286 54.5354 29.9823 54.5354 29.9823C54.5354 43.7156 40.6935 55.2694 30.228 58.189C30.0799 58.2297 29.9234 58.2298 29.7753 58.189C19.3065 55.2696 5.4646 43.7156 5.4646 29.9823V10.7894ZM23.4526 4.59698L23.442 4.58086C19.4275 7.30474 14.4404 9.76486 8.79954 10.789C8.40789 10.86 8.12319 11.2012 8.12319 11.5992V29.9823C8.12319 36.2124 11.3646 41.9084 15.7087 46.4C19.8885 50.7219 25.1191 53.949 29.754 55.4097C29.9152 55.4605 30.088 55.4605 30.2492 55.4097C34.8826 53.949 40.1122 50.7219 44.2917 46.4002C48.6354 41.9085 51.8768 36.2125 51.8768 29.9823C51.8768 29.9823 51.8768 17.519 51.8768 11.5992C51.8768 11.2012 51.5921 10.86 51.2005 10.789C45.5597 9.76486 40.5725 7.30474 36.5581 4.58086C36.4217 4.48827 36.2606 4.43886 36.0957 4.43886C36.0957 4.43886 26.2207 4.43886 24.2457 4.43874C24.0482 4.43874 23.9298 4.43874 23.9081 4.43874C23.8928 4.43874 23.878 4.43898 23.8633 4.43969C23.827 4.44133 23.7939 4.4451 23.7642 4.45063C23.6606 4.46851 23.5586 4.50663 23.4642 4.56627C23.4642 4.56627 23.4599 4.5771 23.4526 4.59698ZM24.1561 6.0858H24.2457C26.0332 6.08592 34.2919 6.08592 35.8439 6.08592C39.8312 8.76027 44.7219 11.1639 50.2298 12.2796V29.9823C50.2298 35.7876 47.1551 41.0698 43.1077 45.2552C39.2054 49.2904 34.3478 52.3336 30.0017 53.7592C25.6539 52.3336 20.7954 49.2904 16.8927 45.2551C12.8448 41.0698 9.77025 35.7874 9.77025 29.9823V12.2796C15.2781 11.1639 20.169 8.76027 24.1561 6.0858ZM13.2993 29.5032C13.1384 29.7667 13.1384 30.0982 13.2993 30.3617C16.3047 35.2818 22.6471 38.7139 30 38.7139C37.3529 38.7139 43.6953 35.2818 46.7007 30.3617C46.8617 30.0982 46.8617 29.7667 46.7007 29.5032C43.6953 24.5831 37.3529 21.151 30 21.151C22.6471 21.151 16.3047 24.5831 13.2993 29.5032ZM26.5095 23.0803C24.018 24.353 22.3106 26.9449 22.3106 29.9325C22.3106 32.92 24.018 35.5119 26.5095 36.7846C21.5072 35.9632 17.3034 33.4098 14.9794 29.9325C17.3034 26.4551 21.5072 23.9017 26.5095 23.0803ZM33.4905 36.7846C35.982 35.5119 37.6894 32.92 37.6894 29.9325C37.6894 26.9449 35.982 24.353 33.4905 23.0803C38.4928 23.9017 42.6966 26.4551 45.0206 29.9324C42.6966 33.4098 38.4928 35.9632 33.4905 36.7846ZM30 23.89C33.3348 23.89 36.0424 26.5976 36.0424 29.9325C36.0424 33.2673 33.3348 35.9749 30 35.9749C26.6652 35.9749 23.9577 33.2673 23.9577 29.9325C23.9577 26.5976 26.6652 23.89 30 23.89ZM32.4974 27.7853L28.2326 31.2485L26.9794 29.384C26.7259 29.0067 26.2138 28.9064 25.8365 29.1599C25.4593 29.4134 25.3588 29.9256 25.6125 30.3027L27.3685 32.9154C27.4974 33.1073 27.7013 33.2363 27.9301 33.2705C28.1588 33.3047 28.3914 33.2411 28.5711 33.0953L33.5357 29.064C33.8886 28.7774 33.9424 28.2584 33.6559 27.9056C33.3694 27.5527 32.8502 27.4989 32.4974 27.7853ZM15.9934 17.5365L19.5275 21.0706C19.8488 21.392 20.3707 21.392 20.6921 21.0706C21.0135 20.7492 21.0135 20.2273 20.6921 19.906L17.158 16.3719C16.8366 16.0505 16.3147 16.0505 15.9934 16.3719C15.672 16.6932 15.672 17.2151 15.9934 17.5365ZM29.1765 12.9473V17.9453C29.1765 18.3998 29.5455 18.7689 30 18.7689C30.4545 18.7689 30.8235 18.3998 30.8235 17.9453V12.9473C30.8235 12.4929 30.4545 12.1238 30 12.1238C29.5455 12.1238 29.1765 12.4929 29.1765 12.9473ZM42.842 16.3719L39.3079 19.906C38.9865 20.2273 38.9865 20.7492 39.3079 21.0706C39.6293 21.392 40.1512 21.392 40.4725 21.0706L44.0066 17.5365C44.328 17.2151 44.328 16.6932 44.0066 16.3719C43.6853 16.0505 43.1634 16.0505 42.842 16.3719Z" fill="black"/>
</svg>
